<?xml version="1.0"?>
<svg width="42" height="42" xmlns="http://www.w3.org/2000/svg" xmlns:svg="http://www.w3.org/2000/svg">
 <!-- Created with SVG-edit - http://svg-edit.googlecode.com/ -->

 <g>
  <title>Layer 1</title>
  <g transform="rotate(-45, 21.0701, 21.1317)" id="svg_8">
   <path id="svg_1" d="m9.347701,13.907917c-1.043691,-0.268974 -1.936591,-0.995836 -2.394547,-1.949332c-0.281983,-0.587013 -0.345532,-0.880374 -0.346214,-1.598548c-0.000787,-0.73711 0.063782,-1.027765 0.363596,-1.636536c0.461123,-0.936058 1.242378,-1.589828 2.261924,-1.892806c0.554929,-0.164931 1.373429,-0.176003 1.936264,-0.026231c0.754844,0.200624 1.452326,0.652164 1.926655,1.247169c0.808343,1.013746 1.025428,2.326468 0.588688,3.560513c-0.167857,0.474208 -0.380305,0.820296 -0.740517,1.206367c-0.531006,0.569137 -1.092008,0.905857 -1.816822,1.090665c-0.489458,0.124731 -1.292266,0.124159 -1.779026,-0.001263l0,0zm3.319278,5.418781c0,-0.824032 -0.011003,-1.498283 -0.024373,-1.498283c-0.039048,0 -1.635186,1.342634 -1.635186,1.375484c0,0.042212 1.582132,1.621082 1.624466,1.621082c0.01929,0 0.035093,-0.674244 0.035093,-1.498283l0,0zm-0.574091,6.327362c0.221612,-0.254543 0.420121,-0.676598 0.505848,-1.075909c0.053139,-0.24728 0.062608,-0.514692 0.042413,-1.194584l-0.02597,-0.875854l-2.382894,-2.3589c-2.076263,-2.055452 -2.386806,-2.346132 -2.413672,-2.258986c-0.016927,0.05497 -0.02156,0.964905 -0.010268,2.022165l0.02043,1.92226l2.015735,2.00672c1.108605,1.10363 2.029718,2.007256 2.046767,2.007811c0.016911,0.000679 0.107659,-0.086908 0.201612,-0.194723l0,0zm-1.491971,0.863665c0.039044,-0.015013 -0.461002,-0.546228 -1.344301,-1.42835c-1.112787,-1.110922 -1.413167,-1.387592 -1.438224,-1.324492c-0.058021,0.14629 -0.038947,0.662281 0.034989,0.948988c0.21459,0.832285 0.905423,1.533039 1.730027,1.754749c0.242467,0.065262 0.893691,0.096628 1.017509,0.049105l0,0zm-1.037937,1.198256c-1.35605,-0.257051 -2.417475,-1.22715 -2.850155,-2.605213l-0.108138,-0.344168l0,-3.641922c0,-3.397276 0.005755,-3.660519 0.084433,-3.91857c0.406375,-1.333013 1.318915,-2.250624 2.598767,-2.613445c0.51474,-0.145944 1.405719,-0.145175 1.924297,0.001821c1.246992,0.353215 2.206813,1.31225 2.570427,2.568049l0.106101,0.366301l0,3.595844l0,3.595854l-0.106101,0.366203c-0.210186,0.726051 -0.656651,1.410692 -1.22048,1.871349c-0.344872,0.281851 -1.004646,0.613625 -1.416444,0.712282c-0.443955,0.106335 -1.154205,0.126762 -1.582707,0.045614l0,0z" stroke-linecap="null" stroke-linejoin="null" stroke-dasharray="null" stroke-width="0" stroke="#bf00bf" fill="#56aaff"/>
   <path id="svg_4" d="m28.326818,9.392224c0.268974,-1.043694 0.995838,-1.936595 1.949329,-2.394553c0.587021,-0.281983 0.880379,-0.345533 1.598549,-0.346216c0.737112,-0.000787 1.027773,0.06378 1.636545,0.363595c0.936054,0.461126 1.589828,1.242385 1.892803,2.261928c0.164932,0.554929 0.175999,1.373433 0.02623,1.936266c-0.200626,0.754849 -0.652161,1.452322 -1.247166,1.926655c-1.013752,0.808346 -2.326475,1.025428 -3.560518,0.588685c-0.474205,-0.167852 -0.820295,-0.380301 -1.206371,-0.740512c-0.569136,-0.531011 -0.905855,-1.092011 -1.090664,-1.816818c-0.124733,-0.489465 -0.124159,-1.292275 0.001263,-1.77903l0,0zm-5.418774,3.319276c0.824028,0 1.49828,-0.011003 1.49828,-0.024374c0,-0.039047 -1.342632,-1.635184 -1.375483,-1.635184c-0.042212,0 -1.62108,1.582133 -1.62108,1.62446c0,0.019294 0.674244,0.035098 1.498283,0.035098l0,0zm-6.327364,-0.574091c0.254545,0.221615 0.6766,0.420121 1.075907,0.505846c0.24728,0.053138 0.514696,0.062613 1.194584,0.042417l0.875858,-0.025969l2.3589,-2.382898c2.055454,-2.076262 2.346132,-2.386806 2.258986,-2.413674c-0.054972,-0.01693 -0.964909,-0.021559 -2.022165,-0.010264l-1.922262,0.020427l-2.006721,2.015736c-1.103626,1.108608 -2.007256,2.029718 -2.007809,2.046768c-0.000681,0.016914 0.08691,0.107657 0.194723,0.201612l0,0zm-0.863668,-1.491972c0.015017,0.039046 0.546232,-0.461001 1.428356,-1.344299c1.11092,-1.112785 1.387589,-1.413166 1.324493,-1.438223c-0.146294,-0.058025 -0.662285,-0.038955 -0.94899,0.03499c-0.832289,0.21459 -1.533037,0.90542 -1.754753,1.730025c-0.065262,0.242461 -0.096628,0.893696 -0.049107,1.017507l0,0zm-1.19825,-1.037934c0.257048,-1.356051 1.22715,-2.417481 2.605211,-2.85016l0.34417,-0.108138l3.641918,0c3.39728,0 3.660521,0.005756 3.918575,0.084428c1.333008,0.406375 2.250616,1.318921 2.613436,2.598775c0.145945,0.514743 0.145176,1.405722 -0.00182,1.924298c-0.353218,1.24699 -1.312246,2.20681 -2.568041,2.570428l-0.366302,0.106093l-3.595848,0l-3.595848,0l-0.366201,-0.106093c-0.726055,-0.210191 -1.410696,-0.656652 -1.871355,-1.220483c-0.281853,-0.344871 -0.613625,-1.004642 -0.712284,-1.416441c-0.106331,-0.443953 -0.126762,-1.154206 -0.04561,-1.582708l0,0z" stroke-linecap="null" stroke-linejoin="null" stroke-dasharray="null" stroke-width="0" stroke="#00ff00" fill="#56aaff"/>
   <path id="svg_5" d="m32.764515,28.199575c1.043701,0.268972 1.9366,0.995836 2.394554,1.949333c0.281982,0.587009 0.345535,0.880365 0.346214,1.598536c0.000793,0.737106 -0.063778,1.027763 -0.363594,1.636532c-0.461124,0.936058 -1.242382,1.589832 -2.261929,1.892815c-0.554928,0.164925 -1.373426,0.175999 -1.936262,0.026226c-0.754852,-0.200619 -1.452324,-0.652168 -1.926662,-1.247173c-0.80834,-1.013744 -1.025427,-2.326462 -0.588682,-3.560503c0.167852,-0.474203 0.380301,-0.820292 0.740513,-1.206362c0.531008,-0.569138 1.092009,-0.905857 1.81682,-1.090666c0.489464,-0.124733 1.292273,-0.124159 1.779028,0.001263l0,0zm-3.319277,-5.418774c0,0.824028 0.011002,1.498281 0.024376,1.498281c0.039045,0 1.635185,-1.342634 1.635185,-1.375484c0,-0.04221 -1.582134,-1.621084 -1.624464,-1.621084c-0.019293,0 -0.035097,0.674248 -0.035097,1.498287l0,0zm0.574093,-6.327362c-0.221613,0.254545 -0.420118,0.676596 -0.505846,1.075905c-0.053137,0.247282 -0.062616,0.514696 -0.042416,1.194588l0.025965,0.875849l2.382904,2.358904c2.076265,2.055452 2.386805,2.346136 2.413679,2.258987c0.016926,-0.054972 0.021557,-0.964911 0.010262,-2.022169l-0.020428,-1.92226l-2.015739,-2.006718c-1.10861,-1.10363 -2.029718,-2.007257 -2.046766,-2.007813c-0.016914,-0.000679 -0.107658,0.086914 -0.201614,0.194727l0,0zm1.491974,-0.863671c-0.039047,0.015015 0.460995,0.546231 1.344305,1.428355c1.112782,1.110924 1.413162,1.387592 1.438221,1.324493c0.058022,-0.146294 0.038948,-0.662283 -0.034992,-0.94899c-0.214592,-0.832287 -0.905422,-1.533036 -1.730026,-1.754751c-0.242466,-0.065263 -0.893694,-0.096631 -1.017508,-0.049108l0,0zm1.037935,-1.198254c1.356049,0.257048 2.417477,1.227152 2.850159,2.605216l0.108135,0.34417l0,3.641918c0,3.39728 -0.005753,3.660522 -0.084431,3.918573c-0.406372,1.33301 -1.31892,2.250614 -2.59877,2.613438c-0.514744,0.145943 -1.405722,0.145174 -1.924299,-0.001823c-1.24699,-0.353214 -2.206814,-1.312243 -2.570429,-2.568039l-0.106092,-0.366304l0,-3.595844l0,-3.595844l0.106092,-0.366207c0.21019,-0.726055 0.656651,-1.410699 1.220478,-1.871358c0.344877,-0.281853 1.004644,-0.613626 1.416449,-0.712284c0.443947,-0.106331 1.154207,-0.126761 1.582708,-0.04561l0,0z" stroke-linecap="null" stroke-linejoin="null" stroke-dasharray="null" stroke-width="0" stroke="#cccccc" fill="#56aaff"/>
   <path id="svg_6" d="m13.999208,32.871113c-0.268975,1.043697 -0.995839,1.936596 -1.949332,2.394562c-0.587018,0.281982 -0.880376,0.345535 -1.59855,0.346214c-0.737108,0.00079 -1.027766,-0.063782 -1.636533,-0.363598c-0.936056,-0.461128 -1.589828,-1.24239 -1.892802,-2.261929c-0.16493,-0.554928 -0.176003,-1.373434 -0.026231,-1.936253c0.200622,-0.754856 0.652162,-1.452326 1.247163,-1.926659c1.013747,-0.808342 2.326467,-1.025429 3.560511,-0.588684c0.47421,0.167852 0.820297,0.380299 1.206368,0.740513c0.569138,0.531008 0.905858,1.092009 1.090667,1.816816c0.124733,0.48946 0.124159,1.292261 -0.001261,1.779016l0,0zm5.418774,-3.319262c-0.824032,0 -1.49828,0.011002 -1.49828,0.024372c0,0.039047 1.34263,1.635185 1.375481,1.635185c0.042212,0 1.621082,-1.582134 1.621082,-1.62446c0,-0.019293 -0.674246,-0.035097 -1.498283,-0.035097l0,0zm6.327362,0.574091c-0.254541,-0.221611 -0.676598,-0.420122 -1.075905,-0.505846c-0.247282,-0.053137 -0.514698,-0.062614 -1.194586,-0.042414l-0.875854,0.025965l-2.358898,2.382893c-2.055458,2.076262 -2.346138,2.386801 -2.258987,2.413671c0.054972,0.01693 0.964905,0.021553 2.022161,0.010269l1.922262,-0.020432l2.00672,-2.015739c1.103632,-1.108593 2.007261,-2.029707 2.007813,-2.046761c0.000677,-0.016911 -0.086912,-0.107653 -0.194725,-0.201607l0,0zm0.863668,1.491961c-0.015013,-0.03904 -0.54623,0.461 -1.428354,1.344297c-1.110922,1.112793 -1.387589,1.41317 -1.324495,1.438232c0.146296,0.058022 0.662287,0.038948 0.94899,-0.034996c0.832289,-0.214592 1.533041,-0.905422 1.754753,-1.730026c0.06526,-0.242462 0.096628,-0.893692 0.049107,-1.017508l0,0zm1.198254,1.037935c-0.257051,1.356052 -1.227152,2.417484 -2.605211,2.850163l-0.344173,0.108139l-3.641922,0c-3.397276,0 -3.660517,-0.005753 -3.91857,-0.084431c-1.33301,-0.406376 -2.250614,-1.31892 -2.613436,-2.598782c-0.145945,-0.514744 -0.145176,-1.405706 0.00182,-1.924286c0.353216,-1.24699 1.312244,-2.206806 2.568041,-2.570425l0.366302,-0.106096l3.595842,0l3.595856,0l0.366199,0.106096c0.726055,0.210192 1.410698,0.656654 1.871357,1.22048c0.281847,0.344875 0.613621,1.004644 0.71228,1.416449c0.106331,0.443943 0.126762,1.154192 0.045614,1.582693l0,0z" stroke-linecap="null" stroke-linejoin="null" stroke-dasharray="null" stroke-width="0" stroke="#bf00bf" fill="#56aaff"/>
  </g>
 </g>
</svg>