<?xml version="1.0" encoding="UTF-8"?>
<svg width="600" height="600" xmlns="http://www.w3.org/2000/svg" xmlns:svg="http://www.w3.org/2000/svg">

 <g>
  <title>Layer 1</title>
  <g id="svg_31">
   <path id="svg_2" fill="#3c211a" d="m131.172516,83.374405q0.873779,-0.091019 1.753647,-0.133499q0.442978,0.618927 0.885941,1.237854c5.188004,-0.139557 10.388229,0.018204 15.582352,-0.078888c1.929581,-0.11528 3.652893,0.521851 5.546082,0.776695c4.047302,1.165039 7.002365,4.22934 9.229309,7.675903c2.196564,2.979347 3.027847,6.249954 5.879791,8.816681c1.510895,1.553383 3.343414,1.88105 5.315445,2.530312c2.591019,0.77063 5.012131,2.002411 7.208694,3.574005c6.377396,6.158928 15.612732,9.472 20.843277,16.990143c4.186859,4.775452 9.095825,8.737793 14.417328,12.196503c4.563095,2.83371 9.253586,5.26088 13.416168,8.482941c2.475708,2.002411 5.054565,3.792435 7.214752,6.140717c3.495117,2.5728 6.3228,5.764511 9.429565,8.828796c2.700195,3.367706 5.588486,6.644379 7.870041,10.321533c3.294846,4.720825 5.691696,9.66011 9.757217,13.871246c1.401672,1.905304 2.912567,3.45871 4.611603,5.090958c2.087341,2.821594 4.79364,5.552139 6.286346,8.713516l-0.182037,0.91626l0.697784,0.188095c2.408936,4.174744 1.868988,9.999939 3.549744,14.447708c1.031555,2.76088 3.02182,4.98175 5.406555,6.656479c1.389496,0.952682 3.410126,1.28035 4.526611,2.524261c2.845825,0.248795 5.746338,1.541245 8.652863,1.893188c4.259674,1.243912 8.58606,1.462372 12.924652,2.178375c7.069092,0.012131 14.186707,-0.012115 21.255859,0c1.723328,-0.018188 3.404083,0.188095 5.024231,-0.297318c2.135895,-0.606781 4.320343,0 6.462311,-0.709946c7.663757,-0.673538 15.21225,-2.451431 22.827484,-3.373779c2.372589,-0.697784 5.0849,-0.224503 7.554535,-0.358002c3.325195,-0.236649 6.444153,0.497574 9.696503,1.061905c1.26825,0.157761 2.724518,0.904114 3.980591,0.570374c0.904144,1.735428 2.141968,-0.279129 3.033936,1.492722c1.043701,-0.36409 1.856781,0.078873 2.839813,0.388321c1.644379,0.588608 3.306976,1.116501 4.963562,1.674744c2.39679,0.794907 4.672272,2.208725 6.990204,3.270615c2.597076,1.080093 4.672272,3.143158 7.069092,4.75116c1.7901,1.250015 2.973297,3.064316 4.75119,4.308228c2.324005,1.541245 4.120087,3.859192 6.183228,5.746307c1.553375,1.377411 2.43927,3.143173 3.616455,4.805801c3.173523,5.060623 4.381042,10.436798 6.77182,15.740143c2.29361,4.714783 5.006012,9.368835 8.422211,13.361542c2.621307,3.574005 6.510864,6.152863 9.077606,9.805756c2.833679,2.894379 4.739044,6.553345 7.087311,9.896729c3.628632,7.287598 7.239014,14.520508 10.916138,21.783813c2.081329,3.895599 4.981812,6.686859 7.572784,10.109131c0.976959,1.049744 2.305817,1.72937 3.337402,2.736633c1.808197,1.887115 4.00473,3.203857 5.794861,5.121307c2.117676,1.316742 3.361542,2.906525 4.829987,4.85434c2.196594,1.935669 3.701477,4.344604 5.716003,6.438049c1.820313,2.83371 4.629822,4.654083 6.559357,7.384644c1.128693,1.529114 2.906494,2.360443 4.156616,3.810669c3.009583,2.669861 6.656464,4.823975 10.181854,6.741425c2.597107,1.013336 5.364136,1.953857 8.143127,2.257233c6.055786,0.012177 12.14801,-0.012115 18.209839,0.006104c1.389587,0 2.912659,0.121338 4.265747,-0.18808c3.907715,-0.946594 8.112793,0.224487 12.117554,-0.885956c3.944153,-0.679596 7.62738,-2.10556 11.413818,-3.35556c1.923462,-1.049713 3.974426,-1.662598 5.946533,-2.58493c1.158997,-0.175934 2.366516,-0.097046 3.537598,-0.139557c0.212341,1.165039 1.007263,1.844666 1.85675,2.572784c0.054565,1.104401 -0.163818,2.008484 0.922363,2.68811c-1.304626,0.946594 -0.716064,2.20874 -0.922363,3.616455c-0.030396,1.189301 -0.697815,2.342224 -0.970825,3.507233c-0.612915,3.288818 -2.299805,6.316711 -3.39801,9.484161c-1.541321,3.197784 -3.610413,6.462341 -6.037598,9.059418c-1.626221,1.462341 -2.639526,3.385864 -4.259705,4.854309c-3.804504,3.476898 -6.650391,7.961121 -9.999878,11.880951c-1.868896,2.384674 -3.501221,4.866486 -5.764587,6.923492c1.759766,-0.139557 3.325195,-1.535156 5.01825,-2.111633c1.947693,-0.85553 4.532715,-1.54126 5.946533,-3.191711c1.116455,-0.078857 2.069153,-0.940521 3.112854,-1.359222c0.703796,-0.37619 1.395569,-0.546082 1.868835,-1.195343c1.438171,0.206268 2.93689,0.103088 4.387207,0.115265c1.504761,1.790039 0.030273,4.192902 -1.031616,5.807007c-2.220825,3.798492 -5.928284,6.571503 -8.937927,9.884613c-2.955078,2.712341 -6.146851,5.291199 -9.660217,7.23291c-2.803345,1.316772 -5.394409,2.912659 -8.404053,3.731812c-3.804565,1.134705 -8.027832,2.166229 -11.959839,2.366486c-1.073975,1.383484 -3.634705,-0.309448 -4.150513,1.43808c-1.71106,-0.75238 -3.197754,0.242706 -4.908875,0.351929c-4.890747,0.14563 -9.860352,-0.248779 -14.73291,0.212402c6.632324,1.965973 12.857971,6.541199 18.52533,10.327545c0.273071,0.606781 0.576477,1.201447 0.873718,1.802185c-0.98291,0.898041 -1.844543,1.365295 -3.14917,1.674774c-1.777893,0.394348 -3.567932,1.140747 -5.412598,0.703827c-0.661316,1.098297 -2.330017,0.509735 -3.452576,0.776703c-3.246338,0.922333 -6.850739,0.351929 -10.260834,0.503632c-9.781494,0.612854 -19.429443,-3.707489 -26.116302,-10.740204c-1.213562,-1.122559 -2.663849,-1.862793 -3.743896,-3.161377c-0.151703,1.947815 0.0849,3.913818 -0.157745,5.849457q0.631042,0.430817 0.679596,1.031586c0.139496,1.419861 0.024231,3.573975 -1.25,4.496307c-1.614105,0.315521 -3.349518,0.103149 -4.987854,0.163849c-1.225739,-1.419922 -2.955048,-2.190552 -4.186859,-3.622559c-1.219635,1.43808 -1.304565,3.416199 -1.838593,5.206299c-0.631012,2.724457 -1.656494,5.303314 -2.681976,7.894348l-0.236633,-0.066772c-1.001251,1.662598 -1.510956,4.265747 -3.131104,5.406494c0.06073,0.95874 -0.685608,1.735413 -1.165009,2.524261c-1.523071,2.305817 -3.088562,4.623749 -4.854309,6.75354c-2.864075,2.597107 -6.201385,4.253632 -9.872498,5.412598q-0.776672,0.279144 -1.644379,-0.060669c-0.406586,1.019379 -1.911407,0.685699 -2.809448,0.983002c-2.821625,0.679626 -5.43689,0.260925 -8.29483,0.339813c2.123779,-1.571564 4.235382,-0.95871 6.66861,-1.39563c4.478119,-0.837372 8.937988,-2.694122 12.020538,-6.164978c2.858002,-3.070343 4.884644,-6.95993 7.087311,-10.515686c1.298523,-2.324036 2.572754,-4.557037 3.343414,-7.123749c-2.214813,-4.320343 -0.964813,-10.297241 -0.418671,-14.933105c0.424744,-4.781494 1.66864,-9.374908 1.759644,-14.192841c0.333801,-6.95993 1.620148,-13.410126 4.108032,-19.914917c1.134674,-3.786316 3.215973,-7.214722 4.186859,-11.02536c0.527893,-1.868896 0.012115,-3.64682 -0.879883,-5.309418c-1.796082,-3.404144 -4.611572,-5.983002 -6.510864,-9.247498c-1.444153,-2.451416 -1.796082,-5.188049 -3.258423,-7.615204c-2.348328,-3.877441 -4.915009,-7.597046 -7.62738,-11.219604c-0.995148,-1.504852 -2.123779,-2.669861 -1.523041,-4.611572c0.922302,0.006012 1.650421,0.091003 2.421082,0.637146c2.815521,1.753571 4.629822,5.370087 6.753571,7.876129q0.54007,0.625 1.377441,0.964752c0.200226,-1.820343 0.260925,-3.634674 0.260925,-5.467133c0.0849,-5.807037 1.504822,-11.140686 1.899261,-16.923462c0.248749,-3.470795 0.764496,-6.929504 1.007263,-10.40036c0.145599,-1.401703 -0.77066,-2.31189 -1.456329,-3.434448c-2.506012,-3.404083 -3.743896,-7.948944 -4.914978,-11.9841c-0.406555,-1.79007 -0.224548,-2.499969 0.928375,-3.883453c2.269379,1.00119 3.282745,2.936859 3.792419,5.260864c0.904175,3.889496 2.245117,7.457458 4.326477,10.873688c0.527893,-0.351929 1.049683,-0.564301 1.23175,-1.237854c0.618927,-1.947815 0.989075,-4.089752 1.146851,-6.122528c0.145599,-0.910187 -0.758514,-1.753632 -1.20752,-2.48175c-4.004822,-5.206299 -6.462372,-10.970795 -9.205048,-16.899139c-3.41626,-6.868896 -6.656464,-13.319031 -11.729248,-19.174622c-2.427155,-2.43927 -4.811859,-4.884644 -7.087311,-7.475647c-4.241516,-4.453827 -7.688049,-9.678314 -10.218353,-15.285034c-2.415039,-4.987854 -3.567963,-10.090942 -6.292419,-14.945297c-1.347107,-2.372543 -2.87619,-4.781509 -4.739044,-6.783905c-2.044891,-2.245148 -4.593414,-3.853134 -6.723267,-6.025452c-4.745087,-4.672256 -10.254761,-8.464722 -16.516846,-10.806946c-5.746277,-2.057007 -11.529022,-3.828827 -17.584808,-4.745087c-3.246307,-0.424759 -6.504791,-0.224518 -9.708649,0.382278c-9.06546,1.589783 -18.130951,2.973267 -27.29953,3.847046c-5.090973,0.6978 -10.054535,0.242722 -15.163666,0.297333c-5.819183,-0.084961 -11.856689,0.461166 -17.596985,-0.339813c-4.611603,-0.558258 -9.095764,-1.043671 -13.604218,-2.239044c-5.716003,-1.48056 -11.589752,-2.694168 -17.160065,-4.666214c-2.742676,-1.074036 -5.631012,-2.31189 -7.226837,-4.933228c-1.159027,-1.874985 -2.997559,-2.512115 -4.81189,-3.610397c-1.923553,-1.019424 -3.695374,-2.311874 -5.637115,-3.288803c0.503693,5.400436 2.026733,10.509613 3.404144,15.727997c1.104309,5.260895 2.257263,10.570297 2.900452,15.904022c0.521851,4.162552 -0.151733,8.749908 -2.305786,12.39064c-2.129883,3.222076 -4.945404,6.049713 -7.669876,8.707458c-3.270599,3.343414 -4.757202,7.269348 -6.965927,11.23172c-0.740326,1.881042 -3.616516,1.492676 -5.212387,1.322815c-1.201416,-0.066772 -1.237808,-0.976929 -1.607941,-1.899292c-0.625015,-2.299744 -0.867767,-4.714783 -1.183258,-7.075195c-1.037628,2.336151 -1.759689,4.75119 -2.888336,7.057007c-2.129837,4.496338 -5.728119,8.531494 -9.08371,12.178284c-6.996262,6.947754 -16.12236,9.380981 -24.532516,14.896729c-5.904068,4.004822 -11.978058,8.410126 -15.630905,14.69043c-4.271835,7.742615 -9.229309,14.684326 -12.797272,22.954865c-1.638321,4.192932 -2.688065,8.664978 -2.942886,13.161316c-0.07283,4.31427 1.04364,8.743866 2.736618,12.700134c1.711151,4.065491 3.337326,8.14917 4.563065,12.396698c0.412582,1.498779 1.286392,2.706329 1.9478,4.077637c0.309464,1.498779 0.236649,3.094666 0.297302,4.617706c2.111633,1.20752 4.70871,1.510895 6.984207,2.384674c4.083649,1.529144 8.197723,2.973328 12.293594,4.466003c4.981689,1.814301 10.005981,4.247498 15.133316,5.491455c3.513351,0.879852 6.735397,0.442963 10.297241,0.540039c2.518204,0.072815 4.987808,0.175964 7.487839,-0.236603c6.468353,-1.152954 12.512009,-2.263397 18.373581,-5.412659c2.202667,-1.298523 4.04126,-3.306976 5.685638,-5.242645c0.734222,-0.995117 1.608032,-1.911377 1.48056,-3.234161c-0.248779,-3.379852 -0.885864,-6.699005 -0.916199,-10.097046c-0.10318,-6.019379 -1.620178,-11.620026 -2.554626,-17.511963c-0.964798,-5.976898 -2.578842,-12.481689 -5.964752,-17.578735c-1.165039,-1.832489 -2.961121,-3.02182 -4.08371,-4.872528c2.463593,-1.049744 5.182007,-0.625 7.226913,1.086151c3.155319,2.499969 4.775406,5.806976 6.340958,9.411316c1.984192,4.702637 2.742706,9.660126 3.634644,14.647919c0.649292,3.483032 1.298553,6.95993 1.771851,10.473236c0.388306,2.851929 0.18811,5.679565 0.503632,8.537537c0.837402,6.58371 1.850708,13.118835 4.150482,19.393066c1.067932,2.633453 2.493866,5.539978 4.654053,7.43927c2.675964,1.256012 5.964752,1.365234 8.853058,1.978119c3.725708,0.491486 7.566711,1.316742 11.328827,1.225708c1.340973,-0.060669 1.256073,-1.001221 1.377411,-2.050903c-0.024292,-3.580139 -2.032745,-7.924744 -1.39563,-11.498718c0.564301,-1.456329 2.414978,-1.019409 3.64682,-1.16507c5.673492,-0.503632 9.787506,5.357971 15.169769,6.237823c1.383514,-0.752411 1.444183,-2.97934 2.075195,-4.326416c0.406586,-1.58371 1.966034,-1.83252 3.373749,-1.893188c3.695404,-0.072815 7.275452,2.251221 11.013306,2.73056c4.617645,0.552155 9.25354,0.970825 13.865143,1.559448c3.349518,0.412628 6.201416,1.407776 9.617645,0.879883c1.237854,-2.111664 -1.814301,-4.70871 -1.371338,-6.692963c0.885925,-0.612823 1.614044,-0.837372 2.68808,-0.75238c3.106781,0.236664 6.18927,0.825226 9.25354,1.341003c1.26825,0.303375 2.633514,0.33371 3.549744,1.353149c-1.29245,0.127411 -2.421112,0.436859 -3.707489,0.115265c-2.633423,-0.588593 -5.254791,-1.152924 -7.930756,-1.541229c0.606781,1.881042 1.838593,3.598297 2.257263,5.515717c-1.492706,2.190491 -5.321533,2.305817 -7.675934,2.057037c-5.133392,-0.752441 -10.278992,-1.365265 -15.412445,-2.117706c-3.804565,-0.358032 -7.506073,-0.527924 -11.207458,-1.614105c-1.328857,-0.339752 -2.536377,-0.879822 -3.895599,-0.722046c-0.643188,1.456329 -1.019379,3.385895 -2.099518,4.575195c-2.402832,1.838593 -6.37735,1.165039 -9.022949,0.182037c-3.428406,-1.152893 -6.037598,-3.634674 -9.283905,-5.054565q-0.497589,0.33371 -0.473297,1.10437c-0.036407,3.234192 1.310669,6.450195 1.383484,9.64801c0.091003,1.917419 -1.620087,3.337311 -3.422302,3.470795c-5.952606,0.643188 -12.166138,-1.608002 -18.240143,-1.626221c0.995148,1.444183 2.342224,2.578888 3.391968,3.968445c0.455139,1.158966 0.442993,2.536377 0.564362,3.768158c3.968384,-0.279144 7.924683,-0.036377 11.899109,-0.182037c2.469666,-0.145599 4.866486,0.679596 7.305756,0.552185c1.383514,-0.169891 1.941742,-1.304596 1.996399,-2.58493c0.078888,-2.597046 -0.649292,-5.139496 -0.606781,-7.754761c1.547272,-0.254883 3.100647,-0.558228 4.660156,-0.212433c2.487793,0.970886 3.749939,3.428406 6.438019,4.235474c0.182037,-2.439331 0.151703,-4.787598 0.995148,-7.069153c2.402863,-0.37619 5.157715,-0.794891 6.990234,1.195404c5.60675,5.728088 9.933167,12.087219 17.081146,16.322632c1.692932,0.91626 3.895599,2.900513 5.89801,2.645599c0.394409,-2.111633 -0.794891,-3.300873 -1.735443,-4.999908c-1.553375,-2.554596 -2.366486,-5.449005 -3.173492,-8.307007c-0.70993,-2.748749 -1.680817,-5.370087 -2.20871,-8.14917c1.662598,-0.084991 3.137115,-0.194214 4.4599,0.989044c0.776672,0.904083 1.14679,2.226929 1.498779,3.349518c1.189301,4.247528 2.226898,9.223206 4.690491,12.930695c2.73056,3.853119 7.427155,4.884644 11.516907,6.680786c1.23175,0.588593 3.009674,1.256042 3.41626,2.706268c0.679565,2.93689 -0.922394,6.122528 -2.257324,8.664948c-1.62619,2.949005 -3.513306,6.304596 -6.177124,8.434387c-2.026672,1.626251 -4.769348,2.178406 -7.056976,3.51944c1.777893,1.049713 3.640747,1.802155 5.734192,1.844604c3.173492,-0.624969 5.56427,-2.317932 8.998718,-1.692932c1.996307,0.491516 4.563049,0.91626 4.890747,3.373749c-2.26944,0.182037 -3.622559,-1.492706 -5.843384,-1.650482c-0.691803,1.389618 -1.262177,2.839783 -1.990295,4.211121c-1.055817,1.929596 -2.669861,3.070404 -3.106781,5.33374c-0.709961,3.39801 -1.025482,7.518097 0.297302,10.812958c0.400482,1.134766 1.856781,0.800995 2.815521,0.964813c2.530304,0.012177 5.576416,-0.145599 7.803314,-1.462341c2.918671,-2.45752 4.466003,-6.990234 5.970825,-10.406433c2.402924,-5.242737 3.913818,-10.655273 6.723297,-15.740173c2.190491,-4.18689 5.0849,-7.748749 7.688019,-11.674683c3.683228,-5.309387 7.14798,-10.855469 9.975616,-16.674591c-3.464752,-3.932007 -8.203796,-6.340973 -12.475586,-9.31427c-2.864105,-1.9599 -5.515747,-4.162567 -8.222015,-6.328796c-3.56189,-2.74881 -7.62738,-5.424713 -10.806976,-8.62854c-2.499969,-2.597076 -5.16983,-4.939301 -7.29361,-7.87619c-3.428406,-4.16864 -6.607971,-8.458649 -9.253601,-13.173431c-2.948944,-5.279083 -3.143158,-11.158875 -5.928345,-16.54718c-1.086121,-2.548523 -3.319122,-4.957489 -2.900452,-7.809387c0.898071,0.060669 1.650513,-0.151703 2.390778,0.461121c3.628632,2.748779 5.248718,6.510895 6.8992,10.60672c1.152893,3.258484 1.680786,6.692902 2.961182,9.927094c1.401672,3.87738 3.79245,6.81427 6.104279,10.175934c4.089783,5.788727 8.470795,11.21344 13.7742,15.952484c2.663757,2.202667 5.515686,4.16864 8.167328,6.401642c3.191772,2.463593 6.14682,5.33371 9.550903,7.445313c2.360443,1.462402 4.599487,3.100739 6.868896,4.70871c2.02063,1.444183 3.470856,3.367706 5.697784,4.544891c1.632263,-3.925934 -1.984222,-8.54364 -3.555786,-11.990204c1.268127,-0.254822 2.809418,-0.91629 3.87738,0.18808c1.71109,1.953918 3.046051,4.235443 4.654083,6.280304c1.935638,2.487823 3.270599,5.285156 4.927155,7.942932q0.497559,-0.989105 1.00116,-1.97818c1.58374,-0.115295 3.197815,-0.891968 3.932037,1.067963c1.614044,4.235413 2.912598,8.513306 5.279083,12.433136c2.275452,3.804596 4.047272,7.657745 4.004822,12.19043c0.218445,3.828888 -1.608032,7.505981 -4.223297,10.200195c-2.396759,2.427155 -6.322754,3.507233 -9.02298,5.546082q-0.436859,0.442902 -0.576477,1.158905c1.680817,-0.649261 3.331329,-1.450226 5.060699,-1.9599c2.797272,-0.33371 5.655304,0.685669 7.518158,2.827606c1.425903,1.753662 3.319092,1.911438 5.388275,2.348297c2.099487,0.39444 4.205078,0.097076 6.292419,0.382294c2.718414,0.485443 5.479309,2.682007 5.995087,5.485413c-1.201447,0.285156 -2.263367,0.370148 -3.495117,0.218445c-1.00119,-1.365295 -1.83252,-3.222107 -3.228149,-4.217255c-1.686859,-0.885864 -4.077576,-0.558228 -5.849457,-0.08493c-2.093445,0.43692 -2.669861,2.821564 -3.44046,4.508484c-2.226959,5.333679 -2.069183,11.013245 -0.800995,16.553223c0.91626,0.43692 1.796143,0.885956 2.779114,1.140808c-1.20752,0.685669 -3.361633,-0.115326 -3.143158,1.808197q-1.189331,-0.139526 -1.953888,-1.316711c-4.447784,0.303406 -9.16861,-0.503632 -13.48291,0.594666c-2.251221,-0.679626 -4.362823,-0.618896 -6.66861,-0.497589l-0.655334,-0.87381c-2.845856,1.043701 -5.722015,-1.765717 -7.433167,-3.713562c0,-1.110352 0.279083,-1.838531 -0.831329,-2.506042c1.256073,-0.85553 0.661377,-2.354309 0.940521,-3.695343c1.019379,-5.236603 2.815521,-10.109131 6.638306,-13.968323c2.864014,-2.281525 5.837341,-4.429565 9.156433,-6.00119c2.305817,-1.092194 4.520599,-2.202606 6.52301,-3.810608c2.791229,-2.736633 3.895599,-6.328796 4.308228,-10.121246c-0.394409,-6.274261 -3.489014,-10.861572 -6.559387,-16.079987q0,-0.758484 -0.06073,-1.516998c-1.268188,-0.012115 -2.700195,0.182068 -3.91983,-0.169861c-2.536346,-1.777924 -3.391968,-5.685638 -5.133453,-8.246277q-0.612885,0.649261 -1.231781,1.298523c-1.820374,0.097076 -3.816711,-0.175995 -5.588531,0.182037c-1.134705,1.601868 -1.77182,3.573944 -2.766968,5.27298c-3.56189,6.00119 -7.530273,11.789978 -11.626129,17.439209c-1.322845,2.421051 -3.027893,4.441681 -3.743896,7.166199c-1.650482,3.197754 -2.499969,6.711121 -4.016968,9.981689c-1.808228,3.622528 -2.870117,7.833649 -5.266937,11.12854c-1.577637,2.427155 -4.848267,3.519379 -7.62738,3.35556c-1.893158,-0.109192 -3.549713,0.794891 -5.455048,0.624969c-3.580078,0.10321 -7.384644,-0.418701 -10.879761,0.418701c-2.451416,0.503662 -5.200165,-0.29126 -7.542389,0.473328c-1.159027,0.194153 -1.875031,0.849457 -2.524261,-0.546112c-2.330078,1.074036 -4.532715,1.007263 -6.972015,0.345856c-2.682037,-0.103149 -4.514557,-0.558228 -6.814301,-1.947784c-0.722046,-1.717224 -1.33493,-3.076447 -1.553375,-4.975708l0.752441,-0.58252c0.266998,-2.73056 1.249969,-4.872559 2.997559,-6.965973c0.734222,-0.946533 1.765717,-1.650482 1.972076,-2.857941c1.316681,-0.412659 2.372498,-1.741486 3.470795,-2.554657c3.774292,-2.754791 8.02179,-5.090912 12.493866,-6.486572c2.184448,-0.95871 4.247528,-1.310638 5.904053,-3.137085c2.615265,-2.408936 3.87738,-5.297302 5.722015,-8.343384c1.013367,-2.39682 2.190552,-5.060638 1.905365,-7.681946c-2.621368,-2.560699 -6.328857,-3.216034 -9.556946,-4.690521q-0.746338,-0.33371 -1.656555,-0.175964c-0.066711,2.317963 -2.560699,1.589783 -4.114075,1.711151c-2.390717,0.04245 -3.859161,-1.571594 -5.813019,-2.627411c-2.791229,-1.328888 -5.309448,-3.222076 -7.888245,-4.927124c-2.60321,-2.220856 -4.878632,-4.848267 -7.372559,-7.196533c-1.48056,-1.334961 -2.366516,-3.131104 -3.859161,-4.435669c-0.006104,1.874969 0.078857,3.798492 -0.764557,5.515717c-2.214844,0.898102 -4.654114,0.91626 -6.875,0.024323c-1.438049,-0.351959 -2.324005,-1.589813 -3.768127,-1.887177c1.249969,2.160217 0.891968,5.515747 -1.286438,7.002411c-1.286407,1.061859 -3.258484,0.746338 -4.83609,0.837372c-1.923523,0.097046 -3.598297,-0.109222 -5.448975,-0.564331c-2.621307,-0.182037 -5.27301,0.012115 -7.900421,-0.078888c-2.74881,-0.175995 -5.127411,0.625 -7.797272,1.183258c0.315491,0.95871 -0.479401,1.286377 -0.989075,1.9599c-4.162598,4.132263 -8.276611,8.313049 -12.408875,12.469574c-1.850677,1.996307 -4.302155,3.379822 -6.419861,5.145569c-1.165009,1.037628 -2.560638,0.855591 -3.307007,2.427155c3.349518,-0.618896 6.353119,-1.134705 9.714722,-0.091003q-0.12738,0.758514 -0.151703,1.523071c-1.72934,1.644379 -3.35556,3.634674 -5.315521,4.969604c-1.219574,0.800964 -2.093323,1.91748 -3.19165,2.845856c-3.483017,2.487823 -6.249969,5.922241 -9.338531,8.871277c-3.895599,5.151672 -8.877335,9.775391 -14.726837,12.621246c-3.009674,2.135895 -6.474426,3.08255 -9.696518,4.817932c-5.497482,2.226929 -11.219559,3.592163 -17.117569,4.205048c-2.445313,0.497589 -4.927124,0.558258 -7.354279,1.201416c-3.847107,0.631134 -7.536331,1.856812 -11.371277,2.512146c-2.172333,0.54007 -4.05336,1.286407 -6.347031,0.800964q-0.570389,0.81311 -1.571594,0.70993c-2.839798,0.006073 -5.673477,-0.048553 -8.51326,0c-4.374954,-0.145599 -8.998734,-1.389496 -11.541153,-5.242645c-1.116531,-1.468475 0.006058,-3.70752 -1.395615,-4.866425c1.225693,-0.970947 0.558228,-2.70636 0.898041,-4.168701c0.831284,-2.97934 2.087341,-5.691681 4.921082,-7.245087c2.202621,-0.855591 4.441681,-1.516998 6.78389,-1.862854c3.003616,-0.564301 5.33371,-2.942932 6.11644,-5.85556c0.291306,-1.23175 1.444168,-3.052124 0.746384,-4.241425l0.879822,-0.679596c0.315536,-3.555786 1.577667,-6.996307 1.783981,-10.558228c0.091049,-1.826416 0.770615,-3.446533 0.515747,-5.303314c-1.953857,2.336151 -4.641937,3.677155 -6.626129,5.95871c-1.413834,1.547272 -3.131042,2.882233 -4.362839,4.575165c-1.177139,1.923584 -3.05217,3.155334 -4.198975,5.115295c-4.089798,4.435608 -7.882248,9.289978 -10.879745,14.544739c-2.09346,3.349548 -5.151672,7.427124 -9.138321,8.531494c-4.223251,1.359222 -8.567871,2.087341 -12.961044,2.591034c-1.85675,0.637115 -3.768158,0.169861 -5.631012,0.66745c-2.263344,0.679565 -4.399239,0.030334 -6.668633,0.491455c-3.325195,0.813171 -6.959877,0.24881 -10.382179,0.442963q-0.515785,0.552185 -1.025475,1.10437q-0.946594,0.036377 -1.893196,0.072815q-0.570396,-0.588562 -1.134689,-1.183228c-4.599495,-0.012115 -9.465965,0.467224 -13.124916,-2.961121c-1.965973,-1.614105 -2.135895,-3.737885 -2.542427,-6.080048c0.388313,-1.432068 0.533966,-2.682037 0.521851,-4.168701l0.722061,-0.643158q-0.212372,-0.764557 0.036385,-1.419891c1.219688,-2.020599 2.239059,-3.956268 4.374962,-5.163788c3.027931,-2.202637 6.729324,-2.718414 9.666214,-5.018188c2.815514,-1.620117 4.890747,-3.968414 7.087311,-6.304535c2.239059,-2.809448 4.514503,-5.879852 5.582481,-9.356689c0.849495,-2.669922 1.741478,-5.163849 1.601929,-8.009705c-0.115318,-3.173462 0.345871,-6.104309 -0.643219,-9.186798c-0.418694,-2.202667 -1.929581,-3.847015 -0.861656,-6.092163c-3.877388,-1.213593 -7.414955,-4.441742 -10.703773,-6.783905c-4.64193,-4.447815 -9.120049,-9.107971 -13.67704,-13.646759c-4.411392,-5.0849 -7.870087,-10.855469 -12.099434,-16.110291c-0.036392,2.760895 0.248764,5.631012 -0.364082,8.276611c-0.533966,3.222076 -0.097054,7.35434 -2.791237,9.690491c-1.419899,-0.091034 -2.68808,0.285156 -4.065483,0.491455c-1.868919,-0.430786 -4.095863,-0.364075 -5.485397,-1.717194c-5.206253,-4.478119 -7.742649,-10.090912 -10.728065,-16.086029q-0.394417,-0.746338 0.018192,-1.407776c-1.353149,-0.546082 -1.080086,-2.451385 -1.862835,-3.604309c-1.201439,-3.549744 -2.354351,-7.056976 -3.871349,-10.491425c-2.572784,-6.808197 -4.599464,-13.9198 -6.243847,-21.007111c-0.412609,-2.269409 -1.092247,-4.229309 -0.697811,-6.583679c-1.347069,-1.790009 -0.303394,-5.012085 -0.722084,-7.160156c-0.891987,-3.161346 -0.388359,-6.213501 -0.521847,-9.623657c0.127407,-3.325226 -0.358006,-6.535126 0.485435,-9.635834c0.236649,-1.923553 0.066746,-3.901672 0.109215,-5.837372c-1.365265,1.486664 -3.155323,2.396851 -4.520584,3.883453c-1.850723,1.941772 -3.379833,3.79248 -6.080048,4.569153c-1.553387,0.412598 -2.779102,-0.151672 -4.247547,-0.546082c0.133514,-2.220886 -0.254843,-4.648041 0.291256,-6.796082c0.825245,-3.143188 -0.200233,-6.286377 0.703892,-9.465942c0.855576,-8.792389 2.906536,-17.366364 7.099449,-25.19397c1.219658,-2.906494 3.094631,-5.351868 4.739037,-8.009613c1.58374,-2.797333 3.495129,-5.412598 5.23661,-8.118866c2.54245,-4.053375 6.213539,-7.803345 8.288773,-12.19043q-0.576454,0.540039 -0.970871,1.195374c-1.371368,-0.382278 -1.686874,1.098282 -2.675964,1.765762c-1.523029,1.492691 -3.519379,1.055817 -5.467182,1.116501c-0.139545,-1.917465 1.152916,-3.616486 2.057041,-5.224472c3.938046,-6.298508 7.366428,-12.78508 11.929504,-18.677032c-1.838585,0.527908 -4.144386,2.742691 -6.013302,2.354355q-0.473297,1.316727 -1.820366,0.685669q-0.491516,0.679611 -1.183247,0.910187c-4.010895,1.213577 -8.082455,1.881042 -12.238979,2.378616c-2.105568,0.606796 -4.211136,0.169907 -6.334892,0.533966c-2.287609,0.552185 -4.805784,0.594681 -7.129805,0.29129c-2.451431,-0.618927 -4.969606,-0.491531 -7.293627,-1.717239c-1.498777,-0.891983 -2.900454,-1.735428 -3.749971,-3.325195c-0.631063,-0.855576 -1.031538,-2.245148 -2.075211,-2.609222c0.224511,-1.086151 -0.321612,-1.808228 -0.734222,-2.742691c-0.533986,-1.104355 -0.333727,-2.190506 -1.086167,-3.131042c0.15171,-1.413818 -0.157743,-3.003616 0.697833,-4.186859c0.928378,-1.389557 2.299721,-2.087341 3.70142,-2.90654c2.930786,-1.65654 5.582478,-3.628586 8.228086,-5.691681c4.277878,-2.997559 8.404043,-6.195343 12.706198,-9.156464c2.63953,-1.668686 4.726902,-4.217224 6.965958,-6.371307c3.634674,-3.428375 5.631001,-7.542419 8.677109,-11.353073c4.969627,-6.565475 9.411324,-13.482895 13.992599,-20.315353c1.007286,-1.480576 1.43203,-3.519394 2.669884,-4.799713c0.163826,-1.595856 1.092201,-3.064301 1.444168,-4.648026c1.614052,-6.298477 2.330055,-14.150375 5.825188,-19.763184c1.237846,-1.711151 2.263329,-3.840981 3.889542,-5.206268q-0.07283,-1.456299 0.618904,-2.560654c-0.776672,-1.237854 -1.073982,-2.71843 -1.935638,-3.925934q-0.449028,1.110428 -1.692986,0.728134q-0.169876,0.709961 -0.661392,1.268204c-1.334908,0.139557 -2.275444,-0.649261 -3.495132,-0.716019c-1.717178,0.358017 -3.319115,0.807037 -5.103073,0.758499c-1.080086,-0.588593 -2.251213,-0.703873 -3.173531,-1.595871c0.606812,-1.516968 0.99514,-2.997543 1.996346,-4.326416c1.620132,-2.245117 2.888313,-4.775452 4.362839,-7.117645c0.527908,-0.867722 1.486618,-1.862854 1.432007,-2.924744c2.184456,-1.644409 3.598289,-3.944138 6.031502,-5.357964c2.330101,-1.650467 4.927139,-2.506042 7.621323,-3.343422c1.140747,-0.333725 2.700188,-1.316734 3.828827,-0.612854l0.594673,-0.861649c2.148018,0.048553 4.544838,-0.26091 6.601898,0.376221c2.530266,0.485428 4.532722,2.936867 6.055725,4.866463c1.668709,2.536385 4.077644,4.101906 6.674728,5.558197c0.685669,-0.473297 1.425949,-0.758484 2.214783,-1.001198c3.331299,-0.904114 6.334869,-3.288818 9.648003,-4.235397c1.498772,-0.327667 3.118881,-0.236649 4.641937,-0.212387c-0.03038,-1.783966 1.037598,-3.185654 1.146805,-4.921066c0.115311,-1.783966 0.266983,-3.446579 1.183243,-5.024231z"/>
   <path id="svg_3" fill="#7a4632" d="m140.322952,85.273659c3.737823,-0.728157 7.07515,0.048538 10.788696,0.430824c2.876236,0.309464 5.5522,1.547318 7.35434,3.853119c3.143158,3.610397 4.57518,8.246292 7.645554,11.826363c2.117722,2.372551 4.805801,3.094627 7.706253,4.029091c-1.486649,0.461159 -3.149261,0.831299 -4.484207,1.644394c-1.140762,0.849518 -1.953812,2.160187 -3.033951,3.082504c-1.65654,0.946594 -3.962311,1.334946 -5.448975,2.578865c0.212418,-4.696571 -0.552185,-9.235374 -2.196564,-13.622459c-0.679626,-1.69902 -1.826431,-3.47084 -3.391983,-4.459915c-1.814301,-0.230591 -3.810608,-0.260918 -5.60675,0.103149c-2.026672,0.758484 -3.871323,2.154106 -5.667404,3.35556c-2.949005,2.10556 -6.110382,3.671082 -9.411362,5.139519c-2.43927,1.031532 -4.751144,2.002403 -7.469559,1.911385c-0.515793,-0.879852 -0.81916,-1.62619 -0.503632,-2.657745c1.025482,-3.155304 3.628616,-5.849457 5.006027,-8.901619c1.171082,-2.481773 1.268188,-4.993889 2.026672,-7.730507c2.214783,-0.394417 4.466003,-0.133507 6.686844,-0.582527z"/>
   <path id="svg_4" fill="#7a4632" d="m97.101212,90.243279c2.487862,2.457497 4.20507,5.697769 7.43322,7.724442c2.002357,1.092224 4.459892,1.43203 6.644341,2.044884c-2.202667,1.686874 -4.945351,4.016953 -7.742645,4.423508c-3.112831,-0.934456 -4.933243,-3.434433 -8.567871,-3.179581c-3.525505,0.236649 -5.103119,3.640747 -7.718422,5.515732c-1.614044,1.104355 -3.343414,2.39682 -5.212334,3.015747c-2.51815,0.157761 -5.018135,0.376205 -7.530273,0.655334c0.976929,-2.609192 2.56675,-4.550934 3.980583,-6.953827c1.747543,-2.773026 3.361595,-5.952614 5.679535,-8.282692c2.76696,-2.469643 6.340973,-4.150444 9.842155,-5.291222c1.001205,-0.248787 2.415039,-0.546112 3.191711,0.327675z"/>
   <path id="svg_5" fill="#936452" d="m127.161644,95.05513c-0.976929,2.773026 -4.4235,5.995094 -4.199013,9.144333c1.347115,2.257263 3.92598,2.378632 6.286362,2.075241c6.498734,-1.067963 12.82756,-4.023041 18.209824,-7.772995c1.565491,-0.983017 3.149216,-2.433243 4.939285,-2.930817c1.316696,0.449036 1.965973,1.868919 2.542435,3.027893c1.40773,3.240265 2.014526,6.862808 2.366486,10.357925c0.297318,2.851913 -0.77066,5.163788 -1.171127,7.906479c0.98909,0.169907 1.632263,0.054611 2.54248,-0.327667c1.419891,-0.898041 3.039993,-1.231781 4.520599,-1.990265q0,1.425964 0.212372,2.815506c1.195358,2.020615 3.749954,1.844643 5.758408,2.469635c-1.189301,2.111641 -3.349472,3.513329 -4.878571,5.430786c0.194153,2.141968 2.493912,2.330078 4.132248,2.833694c4.447769,0.84346 9.42952,1.638336 13.124863,4.544891c0.758499,0.673523 0.952698,1.122543 0.133484,1.874969c-2.499924,1.037613 -4.999908,0.309479 -7.208633,2.311874c1.553375,2.773026 3.992645,4.174728 5.940445,6.644363c2.402893,2.900452 4.010925,6.18927 5.649246,9.550903c0.831284,1.777878 2.099518,3.598267 2.402878,5.546051c-2.487854,-1.48056 -5.794846,-2.857971 -8.482925,-1.031555c0.861664,1.881058 2.330109,3.046112 3.580078,4.641968c1.777863,2.257263 3.410126,4.472046 4.253616,7.263275c1.007263,2.760925 0.849457,5.449005 1.353134,8.313034c0.370132,3.337357 0.078873,6.74144 0.169922,10.097c-0.139603,4.732986 0.552139,8.865234 -1.086197,13.397949c-1.984192,5.424713 -4.587326,10.885834 -8.228058,15.40036c-4.368896,4.520584 -8.883453,8.925903 -13.319061,13.385788c-9.623734,9.047272 -20.1819,16.589661 -30.636902,24.599319q-0.558243,0.461166 -1.28035,0.497574c0.351974,-2.663834 1.019424,-5.248718 1.510941,-7.888275c1.990295,-0.358002 3.131042,-1.717239 4.350677,-3.1978c1.510895,-1.935654 3.191757,-3.725693 4.654099,-5.691681c4.660156,-6.589767 9.113998,-13.276596 13.094543,-20.297165c2.53035,-4.12619 4.908966,-8.956223 5.455032,-13.798447c-0.078827,-4.235382 0.406586,-8.671021 -0.509689,-12.766861c-0.236649,-1.304596 -0.491516,-2.591003 -0.612839,-3.913803c1.486618,1.91745 3.325195,3.768173 5.952621,2.597061c2.129837,-0.84343 1.626205,-2.90654 1.753586,-4.751175c-0.188095,-5.891937 0.588623,-11.001129 -1.389511,-16.698898c-0.952652,-2.590973 -3.106766,-4.53273 -5.163788,-6.286331c-3.058258,-2.324036 -6.984192,-3.57402 -10.248734,-5.570343c-2.063065,-1.626221 -2.299713,-5.26088 -3.567902,-7.299698c-1.523056,-1.759689 -3.38591,-1.753632 -5.546082,-1.783966c-2.421112,0.066742 -4.660156,-1.122574 -5.946518,-3.16745c-0.952698,-2.39682 -1.201462,-5.139511 -1.577667,-7.669846c-0.55217,-3.404083 0.109222,-6.353088 -2.008499,-9.320305c-1.850708,-2.682014 -4.623734,-3.173515 -7.59095,-3.919868c-2.930779,-0.455093 -5.982941,-0.018204 -8.950165,-0.188095c-3.37986,-0.21846 -6.413803,0.752419 -9.702568,1.274254c-3.83493,0.655342 -6.887093,2.512115 -10.327614,4.192924c-2.639526,1.298523 -4.999962,3.009674 -7.730492,4.12619c-1.104362,-1.444168 -0.891983,-2.858002 -1.055809,-4.550949c-0.904152,-1.893181 -3.282753,-1.905319 -5.060677,-2.275459l-0.248756,-0.618927c1.347061,-2.736626 3.531517,-4.963554 4.854309,-7.688042c0.873817,-1.632263 0.03643,-3.064301 -0.655342,-4.587341c-0.6614,-1.383484 -2.245117,-2.10556 -3.313042,-3.252396c3.913773,-1.856781 7.105484,-4.447784 10.260803,-7.372513c3.288811,1.450226 5.77668,3.35556 9.641899,2.742691c4.623764,-0.47937 7.651649,-3.191711 11.043625,-5.995087c3.87738,-1.007271 7.439278,-2.657745 11.007179,-4.459915z"/>
   <path id="svg_6" fill="#512e21" d="m173.817795,105.413055q0.254868,0.770622 0.467194,1.553383l-0.200211,0.18203c-1.371338,1.262131 -2.682022,2.451447 -3.537613,4.144386c-0.946548,1.83857 -2.123734,3.495117 -3.780289,4.769386q-0.946594,-0.21846 -1.887131,-0.449036c0.297363,-0.819168 0.400513,-1.359207 0.139603,-2.214783c-0.58252,0.418678 -1.183258,0.813095 -1.820374,1.146835c-1.480606,0.758484 -3.100708,1.092224 -4.520599,1.990265c-0.279144,-1.783966 0.928375,-2.809448 2.172287,-3.816704c1.486664,-1.243919 3.792435,-1.632271 5.448975,-2.578865c1.080139,-0.922318 1.893188,-2.232986 3.033951,-3.082504c1.334946,-0.813095 2.997559,-1.183235 4.484207,-1.644394z"/>
   <path id="svg_7" fill="#fbfbf7" d="m174.084778,107.148468l0.200211,-0.18203c0.837387,-0.321602 1.8022,-0.279129 2.645645,-0.012138c1.856796,1.383484 3.689285,2.700218 5.266937,4.411369c4.575211,3.501183 9.95137,6.735374 13.944031,10.940437c2.196609,3.270607 5.175949,5.661362 7.84581,8.525406c1.844681,2.02063 4.356827,3.379837 6.486618,5.169876c0.843445,0.600723 1.432053,1.353134 2.578873,1.061874c0.169922,0.861649 1.171127,1.225708 1.826416,1.717224c0.910202,0.485443 1.856812,1.413818 2.912613,1.413818c0.594681,0.940536 1.929626,1.389557 2.845856,1.984207c3.658951,2.269394 7.026642,5.030289 10.309387,7.809402c1.978088,2.35434 4.647995,3.780304 6.668625,6.080048c1.9478,2.069153 4.27179,3.895599 5.922287,6.201385c1.413788,1.783997 2.833725,3.555801 4.277847,5.315506c1.638382,2.439285 3.258484,4.921066 4.878632,7.372513c2.475708,4.763306 5.861618,8.507202 9.271744,12.56665c1.322815,1.183212 2.360413,2.451431 3.410156,3.865234c2.16629,2.178375 3.853149,4.836121 5.33371,7.512085c1.984192,3.658951 1.965973,7.48172 2.821564,11.456207c0.279114,1.753616 0.946594,3.410172 1.231812,5.15773c-2.008514,-1.917465 -4.581268,-2.384689 -6.790009,-4.05336c-4.739014,-2.797333 -8.464752,-7.10553 -10.096954,-12.40889c-0.521912,-1.899246 -0.983032,-3.974487 -1.735474,-5.819122c-0.922287,-1.644409 -2.408951,-2.766968 -4.138321,-3.464783q-0.479355,0.382278 -0.952606,0.770615c-0.048599,1.523056 -0.260971,3.046112 0.357986,4.472061c0.788818,1.9478 0.922318,4.010895 1.838577,5.922287c0.673508,1.595856 1.735428,2.682022 1.85675,4.459915c0.163834,0.849487 0.084946,1.607986 0.722107,2.269394l-0.145645,0.855576c0.703888,4.071579 1.031525,8.246277 2.135895,12.232895c1.72937,8.482956 3.895599,16.729233 3.228149,25.400284c-0.163879,1.165024 -0.649292,2.105545 -0.521851,3.31308c-0.837372,0.728149 -1.134705,1.966003 -1.692993,2.918655c-2.020569,4.077637 -6.079987,6.486603 -8.689178,10.115204c-0.970871,1.365295 -2.433258,2.851929 -2.821579,4.50238q-0.564331,0.097107 -1.043747,0.485413c0.03038,-1.243896 -0.175934,-2.433197 -0.436859,-3.640717c-0.418686,-1.935638 0.07283,-4.029083 -0.370132,-5.94046c-0.703888,-2.572815 -0.303375,-5.236618 -0.370148,-7.991455c-1.158966,-1.092224 -2.402878,-0.752411 -3.859207,-0.782761c-3.337311,2.087372 0.212418,6.098267 -2.712311,8.027847c-0.169922,4.93927 -2.06311,10.181915 -3.968475,14.714691c-1.438065,2.366455 -2.772964,4.745087 -4.623718,6.832458c-1.777908,1.905304 -3.161377,4.077637 -5.121338,5.819122c-8.07634,7.700165 -18.088425,9.702606 -26.899002,16.164886c-3.252426,2.439331 -6.674683,4.629822 -9.374924,7.615234c-3.391968,2.97937 -5.558197,7.615234 -7.997513,11.407654c-0.788834,1.110443 -1.274246,2.83374 -2.457489,3.555817l-0.054611,0.782776c-1.790024,2.864014 -3.634674,5.661346 -5.04245,8.749908c-1.152863,2.154114 -2.196564,4.253601 -2.68808,6.674713l-0.788834,0.533997c0.673553,1.298492 -0.807007,2.91864 -0.837372,4.350677c-0.928391,3.452637 -0.6978,6.85672 -0.667465,10.388245c1.074036,6.965973 4.447784,12.123657 6.347031,18.628448c0.424759,1.553406 1.316742,3.143219 1.353134,4.757263c0.983032,0.679626 1.347107,2.057007 2.372589,2.748749c-0.315536,3.240295 0.879822,5.964783 1.607986,9.235413c0.800949,2.5 0.776672,5.103088 1.334915,7.663727c0,4.678375 0.151703,9.387085 -0.036392,14.059387c-5.618912,-4.75119 -13.422226,-7.342224 -18.124832,-12.936798c-2.48175,-2.31189 -4.67836,-5.103119 -7.493881,-6.978119c-2.02063,-1.444153 -3.944153,-3.112823 -6.092163,-4.35672c-0.752441,-0.443024 -1.486664,-0.527893 -2.336151,-0.279144c-0.934433,-1.741486 -4.144409,-0.254883 -5.206284,0.843445c1.304626,1.820374 0.928375,4.599487 2.226944,6.498718q-0.661392,-0.115265 -1.322845,-0.260925c-0.333694,-2.050934 -2.864014,-3.580048 -4.393127,-4.781525c-4.915024,-4.635864 -12.360352,-8.313049 -16.170967,-14.223175c-0.740326,-0.849487 -1.607994,-1.601929 -2.415039,-2.390747c-2.172333,-0.248779 -4.326454,-0.121338 -6.504799,-0.024292c1.067924,0.655334 0.831329,1.808258 1.189301,2.900452c3.398033,9.824005 8.840958,17.894287 11.547256,27.924561c0.794884,3.713562 2.675919,6.850647 3.525406,10.54599q-0.364029,-0.606781 -0.910156,-0.976929c-2.657745,-1.359192 -5.546082,-2.506042 -7.967178,-4.217194c-6.529076,-4.223236 -10.794815,-9.69043 -16.535057,-15.084808c-2.864059,-3.25238 -5.685631,-6.510864 -8.027847,-10.16983c-1.638329,-1.850677 -2.487823,-4.107971 -4.405289,-5.655243l0.07888,-1.152954l-0.515739,-0.109222c-3.015778,-3.695343 -5.540031,-7.942871 -7.566711,-12.263214c-1.043655,-4.45993 -1.425957,-8.962311 -3.13105,-13.306915c-0.776665,-1.814331 -3.215981,-2.936859 -3.60434,-4.89682c-0.6614,-2.967224 -1.523056,-5.879791 -2.099464,-8.865234c-0.188095,-1.092224 -0.643204,-2.06308 -0.309471,-3.143158c-0.928406,-0.843414 -0.552185,-2.58493 -1.061897,-3.707489c-0.424767,-0.940552 -0.885902,-2.184448 -1.771835,-2.779114c-1.013344,-0.139557 -2.063103,-0.091003 -3.088577,-0.054626c-0.728119,1.577667 -0.788811,3.228149 -0.7342,4.939301c0.097076,0.922333 -0.115295,1.741486 0.637123,2.415039c0.030357,1.092224 -0.485435,2.372528 0.709946,2.979309c-0.206291,2.882263 1.377426,6.377411 1.9478,9.247528c1.328873,3.50119 1.874977,7.129791 3.446579,10.539948c1.638321,3.756073 1.353127,7.342133 2.160172,11.183167c0,3.452637 0.151711,6.9599 -0.072823,10.394318c-0.728119,2.317963 -0.248764,4.654083 -0.800949,6.978088c-0.236649,1.055817 -0.388351,2.111603 -0.345863,3.197815c-3.658951,-3.452637 -6.256035,-8.50116 -8.39193,-13.00354c-1.152908,-3.215973 -2.639526,-6.280304 -3.580067,-9.556946c-1.692959,-4.720825 -3.865269,-9.223236 -5.303356,-14.035095c-0.260902,-1.122559 -1.280323,-2.58493 -0.879852,-3.707489l-0.691727,-0.612854c-0.976955,-3.786377 -1.966019,-7.572754 -2.851929,-11.383392c-0.546101,-3.950226 -1.523052,-7.936829 -1.365284,-11.935577c-0.078884,-1.243927 -0.600712,-2.348297 -0.594631,-3.610413c0.018196,-5.679565 0.006058,-11.347015 0,-17.02655c0.552158,-4.453857 1.237831,-8.762054 2.80941,-12.997467c0.297337,-0.879822 0.661419,-1.638336 0.637146,-2.578857c-1.68082,0.078857 -3.367695,0.091003 -5.048489,-0.006073c-0.952679,2.336151 -2.09951,4.714752 -3.665031,6.71109c-0.922321,1.025513 -1.862839,2.014587 -2.718414,3.100708c-2.633472,2.141968 -4.902882,4.70871 -7.336094,7.099487c-0.273064,-1.322815 0.266956,-2.451477 0.430801,-3.731812c0.315533,-3.640717 -0.364059,-6.887054 0.540047,-10.418579c-0.06675,-2.281555 0.928375,-4.569122 0.612869,-6.777832l0.461159,-0.740295c1.510914,-8.622528 5.127373,-16.953735 9.975651,-24.217041c3.112823,-4.872528 6.304535,-9.732925 9.757195,-14.374878c1.759678,-2.730545 3.695339,-5.266922 5.181976,-8.13707c0.546127,-1.043671 1.31068,-1.808228 1.40778,-3.02182l-1.935661,0.04248c0.746338,-0.825211 1.322792,-1.80217 2.560646,-1.80217q-0.024277,-0.722076 -0.060684,-1.444168q0.600723,-0.515762 1.201431,-1.037613c-0.018188,-0.861633 0.07283,-1.650467 -0.291252,-2.457489c-3.501183,1.796097 -6.086105,4.411377 -8.689243,7.287552c0.497574,-1.656525 1.686874,-3.003616 2.457508,-4.599472c0.794888,-1.450226 1.607994,-3.252396 2.930813,-4.290009c-0.048576,-0.867722 0.479355,-1.419907 0.885906,-2.123764c2.081291,-3.003616 4.053345,-5.891953 6.953819,-8.179535c3.040024,-2.008484 6.231758,-2.591003 9.587288,-3.828857c8.300888,-2.560669 16.83847,-3.901672 25.230354,-6.201401l0.40052,-0.497574c1.134697,0.455078 2.087349,-0.163849 3.20993,-0.400497c2.590981,-0.88591 5.400436,-0.728134 8.100632,-0.533966c4.277901,0.989075 7.894356,3.525467 10.339729,7.154068c1.959908,3.446564 3.325203,7.166183 4.065468,11.061783c0.163834,3.24028 0.054626,6.51088 0.048553,9.757217c-1.347061,10.558167 -3.859154,21.06778 -5.813057,31.534927c-0.224487,2.141968 -1.055817,4.247528 -0.618904,6.33493q-0.716049,0.594604 -0.81916,1.365234c1.183197,0.279114 2.360382,0.758484 3.573967,0.867737c1.274292,0 2.421143,-0.631104 3.707489,-0.697815c-0.260864,-4.635895 2.512146,-9.101868 5.503601,-12.433167c1.334946,-2.299744 3.610397,-3.222076 5.382263,-5.097046c7.797256,-6.001144 15.424591,-11.450119 22.985245,-17.681885c1.183243,-1.341003 2.427155,-2.336136 3.883438,-3.361618c2.591019,-2.311874 4.66626,-5.018173 7.536331,-7.050919c2.166275,-2.057007 4.466003,-4.114029 6.177139,-6.583679c0.910217,-1.146835 2.050964,-1.990265 2.97934,-3.106766c3.665009,-4.799698 6.407745,-10.370071 8.258438,-16.098175q0.29126,-0.782745 -0.048538,-1.680786c1.019363,-0.473297 0.679611,-1.171112 0.776718,-2.09346c-0.054657,-4.253601 0.024216,-8.519333 -0.07283,-12.772949c-0.958755,-3.671051 -0.358032,-7.26326 -0.58252,-11.001099l-0.946594,-0.400482q0.424744,-0.376205 0.776718,-0.849503c0.351868,0.788834 0.643173,1.607986 0.928329,2.421066q0.497574,0.552216 1.152908,0.673569l-0.060654,1.140747c1.905304,1.941742 3.580063,2.008499 6.189255,1.844666q0.576462,-0.558258 1.152908,-1.110443c-0.867706,-1.025467 -1.650482,-1.8871 -1.334946,-3.337326q-0.667496,-0.515778 -1.371338,-0.983017c0.21843,-1.316742 -1.140762,-1.959946 -1.140762,-3.288818c-0.867706,-0.722092 -1.771866,-1.838547 -1.820404,-3.003616c-1.189301,-0.995117 -1.638336,-2.421082 -2.330063,-3.786377c-1.40773,-2.803345 -2.809402,-5.612808 -4.217178,-8.422241c-2.845856,-4.660156 -4.526672,-9.302124 -8.756027,-13.058136c-1.195358,-1.347076 -3.264526,-2.633484 -3.755997,-4.405319c2.008469,-0.970856 6.04361,-0.254837 7.299683,-2.275452q0,-0.782761 -0.091003,-1.559464c-0.473343,-0.976929 -1.996399,-1.080078 -2.445419,-2.148041c-2.336105,-0.43689 -4.283905,-1.814301 -6.680725,-2.148041c-2.809464,-0.891975 -6.146774,-0.891975 -8.713531,-2.31794c-0.188095,-2.657745 5.169846,-4.192924 4.174744,-6.874931c-1.959961,-0.976944 -4.047302,-0.327667 -5.843399,-1.972076q-0.018219,-0.643204 -0.036438,-1.280319c1.656555,-1.274269 2.83374,-2.930817 3.780289,-4.769386c0.855591,-1.69294 2.166275,-2.882256 3.537613,-4.144386z"/>
   <path id="svg_8" fill="#4f2e20" d="m118.448128,123.519699c2.967224,0.169891 6.019386,-0.266998 8.950165,0.188095c2.967216,0.746353 5.740242,1.237854 7.59095,3.919868c2.117722,2.967216 1.456329,5.916222 2.008499,9.320305c0.376205,2.530334 0.624969,5.273026 1.577667,7.669846c1.286362,2.044876 3.525406,3.234192 5.946518,3.16745c2.160172,0.030334 4.023026,0.024277 5.546082,1.783966c1.268188,2.038818 1.504837,5.673477 3.567902,7.299698c3.264542,1.996323 7.190475,3.246307 10.248734,5.570343c2.057022,1.753601 4.211136,3.695358 5.163788,6.286331c1.978134,5.697769 1.201416,10.806961 1.389511,16.698898c-0.12738,1.844635 0.376251,3.907745 -1.753586,4.751175c-2.627426,1.171112 -4.466003,-0.679611 -5.952621,-2.597061c0.121323,1.3228 0.37619,2.609207 0.612839,3.913803c0.916275,4.09584 0.430862,8.531479 0.509689,12.766861c-0.546066,4.842224 -2.924683,9.672256 -5.455032,13.798447c-3.980545,7.020569 -8.434387,13.707397 -13.094543,20.297165c-1.462341,1.965988 -3.143204,3.756027 -4.654099,5.691681c-1.219635,1.48056 -2.360382,2.839798 -4.350677,3.1978c-0.631058,0.254837 -1.419891,-0.066772 -2.069122,-0.157761c1.019379,-1.608002 2.056961,-3.191742 3.118881,-4.775452c6.874939,-8.816681 12.93071,-18.30687 18.525299,-27.979126c2.779129,-4.757233 4.12619,-10.097 4.429611,-15.564178c-0.782776,-7.069153 -2.038849,-14.053299 -2.997559,-21.098145c1.438065,-1.33493 2.949005,-0.813095 4.720825,-0.716019c1.826416,2.408951 2.973282,5.11525 4.186859,7.851883c-0.254868,-5.904083 0.813095,-11.626099 -1.589783,-17.093292c-1.838577,-3.592194 -4.951416,-5.442932 -8.337326,-7.360382c-2.372543,-1.286377 -5.467148,-2.226929 -7.202621,-4.362823c-1.298523,-1.504852 -1.347076,-3.816711 -2.135895,-5.637085c-0.418701,-0.831299 -0.861618,-1.152893 -1.790039,-1.256058c-2.469604,-0.418686 -5.74025,-0.47937 -7.833649,-1.959946c-2.184448,-1.881042 -2.627411,-5.75238 -3.191711,-8.434387c-0.861649,-3.756042 0.012115,-8.573959 -3.015762,-11.45015c-2.481781,-2.669868 -5.873741,-2.378616 -9.205048,-2.87619c-5.661308,0.339813 -11.213455,0.576462 -16.431847,3.155327c-3.185654,1.680809 -6.44413,3.191719 -9.556961,5.006004c-2.220879,1.183258 -3.92598,2.584946 -6.614052,2.305817c-1.292465,0.084946 -1.783936,-0.746353 -2.506042,-1.644394c-0.072823,-1.450241 0.084938,-3.021835 -0.279091,-4.435654c-0.32164,-1.432022 -1.990295,-0.995125 -3.0886,-1.158966c0.254868,-0.667473 0.552177,-1.304604 0.885933,-1.935661l0.248756,0.618927c1.777924,0.37014 4.156525,0.382278 5.060677,2.275459c0.163826,1.692947 -0.048553,3.106781 1.055809,4.550949c2.73053,-1.116516 5.090965,-2.827667 7.730492,-4.12619c3.440521,-1.680809 6.492683,-3.537582 10.327614,-4.192924c3.288765,-0.521835 6.322708,-1.492714 9.702568,-1.274254z"/>
   <path id="svg_9" fill="#b2623f" d="m121.912872,124.375259c3.331306,0.497574 6.723267,0.206322 9.205048,2.87619c3.027878,2.87619 2.154114,7.694107 3.015762,11.45015c0.564301,2.682007 1.007263,6.553345 3.191711,8.434387c2.093399,1.480576 5.364044,1.54126 7.833649,1.959946c0.928421,0.103165 1.371338,0.424759 1.790039,1.256058c0.788818,1.820374 0.837372,4.132233 2.135895,5.637085c1.735474,2.135895 4.830078,3.076447 7.202621,4.362823c3.38591,1.91745 6.498749,3.768188 8.337326,7.360382c2.402878,5.467194 1.334915,11.189209 1.589783,17.093292c-1.213577,-2.736633 -2.360443,-5.442932 -4.186859,-7.851883c-1.77182,-0.097076 -3.282761,-0.618912 -4.720825,0.716019c0.95871,7.044846 2.214783,14.028992 2.997559,21.098145c-0.303421,5.467178 -1.650482,10.806946 -4.429611,15.564178c-5.594589,9.672256 -11.65036,19.162445 -18.525299,27.979126c0.904099,-7.663773 2.839783,-14.70256 0.624954,-22.43306c-1.444122,-5.655289 -4.083649,-10.782684 -9.368805,-13.701355c-4.053368,-1.965988 -8.689247,-2.924728 -13.191635,-2.694138c-2.530365,0.091019 -5.23661,-0.212372 -7.706261,0.285187c-6.001167,1.286392 -11.923454,2.967209 -17.912453,4.320358c-3.671112,0.709946 -7.324005,1.504837 -10.934364,2.475693c-2.196609,0.594666 -4.29612,1.001221 -6.158951,2.378616l0.200233,-1.189301c2.063072,-0.515762 4.04731,-1.134689 6.001167,-1.984207c8.222,-3.124969 16.456169,-7.123718 23.470703,-12.481689c3.015724,-2.451431 6.055725,-4.842194 8.725632,-7.688034c4.144363,-3.774246 7.129807,-8.167404 10.515671,-12.578796c0.746384,-0.952652 1.274284,-1.984177 1.692978,-3.112823c-0.746384,-0.576431 -1.395668,-0.837357 -2.330101,-0.515762c-1.820366,0.600723 -2.918671,2.524246 -3.956261,4.016937c-2.323997,3.695374 -5.582481,6.990234 -8.367661,10.351883c-3.689285,4.192902 -8.191673,7.712296 -12.627342,11.067841c-2.578857,2.02063 -5.467155,3.34343 -8.258392,5.018158c-3.634674,2.184448 -7.77298,3.640762 -11.686798,5.279083c-4.957489,2.057037 -10.643097,3.373749 -15.036301,6.310638q-0.291233,0.873779 -0.582512,1.747543c-3.992676,2.050964 -7.87006,4.071579 -12.14188,5.527863c-5.99511,1.765762 -11.759602,2.160187 -17.900339,2.839798l-0.036413,-0.904129c2.427181,-0.989059 4.866497,-1.498779 6.990253,-3.161377c3.246319,-2.560654 6.249931,-5.922287 7.433201,-9.963516c0.606789,-1.69899 0.54002,-3.689285 0.509686,-5.473236c0.14563,-2.554581 -2.160172,-4.908936 -4.563076,-5.412567c-2.063072,-0.503662 -4.672268,-0.84346 -6.698952,-0.236679c0.139545,-1.462341 2.275471,-2.330078 3.300926,-3.222031c5.740242,-4.332489 12.912514,-8.531479 17.160061,-14.393112c2.961117,-3.586121 5.364021,-7.548462 8.222004,-11.21347c3.737827,-4.872528 6.844608,-10.066666 10.333652,-15.115173c2.609215,-3.804565 4.957489,-7.548477 6.183182,-12.056946c1.680817,-5.521774 2.220886,-11.377319 4.180801,-16.795959c1.098305,0.163841 2.76696,-0.273056 3.0886,1.158966c0.364029,1.413818 0.206268,2.985413 0.279091,4.435654c0.722107,0.898041 1.213577,1.72934 2.506042,1.644394c2.688072,0.279129 4.393173,-1.122559 6.614052,-2.305817c3.112831,-1.814285 6.371307,-3.325195 9.556961,-5.006004c5.218391,-2.578865 10.770538,-2.815514 16.431847,-3.155327z"/>
   <path id="svg_10" fill="#0c090c" d="m119.667763,135.952835c1.686874,0.024277 2.694183,1.17717 4.259682,1.577652c1.432053,0.467239 2.76696,0.097107 3.30703,1.850708c-2.342216,2.918671 -5.230553,5.52182 -8.228111,7.760864c-3.052162,2.348297 -5.7463,5.279083 -9.465912,6.316696c-2.044899,0.612869 -3.834938,0.424759 -5.515755,-0.946594c-0.509689,-5.175919 0.813103,-11.789948 5.388321,-14.902786c3.070381,-2.299728 6.638283,-1.717224 10.254745,-1.65654z"/>
   <path id="svg_11" fill="#fcfafc" d="m113.345009,137.239227c1.923523,-0.08493 3.871323,-0.097076 5.788788,0.078888l0.230591,1.092224c1.334908,-0.048553 2.682022,-0.018204 3.998764,0.200241c0.527901,0.637131 0.655289,1.165039 0.054604,1.80217c-3.331306,3.416229 -7.669868,6.086121 -11.717133,8.573944c-1.777916,0.952667 -3.179596,2.069183 -5.218437,0.910187c0.169922,-2.317932 -0.855553,-5.782715 1.219681,-7.354309c1.802147,-1.814285 3.701447,-3.652863 5.643143,-5.303345z"/>
   <path id="svg_12" fill="#1c131d" d="m112.701828,140.279251c1.510887,-0.576447 2.906509,0.04248 4.241463,0.728165c0.066719,1.007263 0.230545,2.25119 -0.17598,3.197784c-0.995148,1.262115 -2.427162,2.202637 -3.604347,3.307007c-1.274239,-0.04248 -2.433212,-0.066742 -3.537575,-0.794891c0.036392,-2.609207 0.825218,-4.957489 3.076439,-6.438065z"/>
   <path id="svg_13" fill="#140713" d="m29.978012,199.113708c1.516972,-0.406555 3.021805,0.157761 4.077641,1.286377c0.485413,1.359238 0.412609,2.014572 -0.19418,3.313095c2.445374,1.286407 4.751152,0.758499 7.390705,0.776688c1.067947,1.559464 0.14563,3.592209 -0.7342,5.0121c-1.104385,1.183243 -2.858006,2.700211 -4.180798,3.622543c-1.68082,0.418686 -3.567955,-0.194183 -5.260887,0.169907c-1.729347,0.291245 -1.498777,2.609192 -2.311884,3.925919c0.843462,1.007294 2.196611,0.558273 3.349501,0.588608q0.467216,0.485428 0.940517,0.964783c-1.571583,1.092224 -3.197794,2.099503 -4.805761,3.131042c0.564295,0.624985 1.134693,1.243912 1.723265,1.850723c-1.456308,0.266983 -2.906534,0.327667 -4.350679,-0.078903c-3.027887,-0.649261 -5.400457,-3.252396 -7.354315,-5.503571c-0.084942,-2.384705 -0.388336,-4.787582 -0.2852,-7.172272c0.78883,-1.51091 2.105566,-3.191742 3.325224,-4.381042c2.712355,-1.668671 6.292423,-2.46965 8.768127,-4.50238c0.078884,-0.989075 -0.054607,-2.008484 -0.097076,-3.003616z"/>
   <path id="svg_14" fill="#0d0705" d="m34.055653,200.400085c2.026684,-0.606781 4.63588,-0.266983 6.698952,0.236679c2.402905,0.503632 4.708706,2.857986 4.563076,5.412567c0.030334,1.783951 0.097103,3.774246 -0.509686,5.473236c-2.748791,0.922318 -3.543678,4.016983 -5.042458,6.21962c-1.874973,3.567932 -6.01936,5.327606 -9.793606,6.013306c-0.588572,-0.606812 -1.15897,-1.225739 -1.723265,-1.850723c1.607967,-1.03154 3.234179,-2.038818 4.805761,-3.131042q-0.473301,-0.479355 -0.940517,-0.964783c-1.152889,-0.030334 -2.506039,0.418686 -3.349501,-0.588608c0.813107,-1.316727 0.582537,-3.634674 2.311884,-3.925919c1.692932,-0.36409 3.580067,0.248779 5.260887,-0.169907c1.322792,-0.922333 3.076412,-2.439301 4.180798,-3.622543c0.879829,-1.419891 1.802147,-3.452637 0.7342,-5.0121c-2.639553,-0.018188 -4.945332,0.50972 -7.390705,-0.776688c0.606789,-1.298523 0.679592,-1.953857 0.19418,-3.313095z"/>
   <path id="svg_15" fill="#7e7b86" d="m32.405167,200.764175q0.400475,0.406555 0,0z"/>
   <path id="svg_16" fill="#69311a" d="m259.326752,209.222855c1.941742,0.976929 3.713562,2.269379 5.637115,3.288803c1.814331,1.098282 3.652863,1.735413 4.81189,3.610397c1.595825,2.621338 4.484161,3.859192 7.226837,4.933228c5.570313,1.972046 11.444061,3.185654 17.160065,4.666214c4.508453,1.195374 8.992615,1.680786 13.604218,2.239044c5.740295,0.80098 11.777802,0.254852 17.596985,0.339813c5.109131,-0.054611 10.072693,0.400467 15.163666,-0.297333c9.168579,-0.873779 18.23407,-2.257263 27.29953,-3.847046c3.203857,-0.606796 6.462341,-0.807037 9.708649,-0.382278c6.055786,0.91626 11.838531,2.68808 17.584808,4.745087c6.262085,2.342224 11.771759,6.134689 16.516846,10.806946c2.129852,2.172318 4.678375,3.780304 6.723267,6.025452c1.862854,2.002396 3.391937,4.411362 4.739044,6.783905c2.724457,4.854355 3.87738,9.957443 6.292419,14.945297c2.530304,5.60672 5.976837,10.831207 10.218353,15.285034c2.275452,2.591003 4.660156,5.036377 7.087311,7.475647c5.072784,5.855591 8.312988,12.305725 11.729248,19.174622c2.742676,5.928345 5.200226,11.692841 9.205048,16.899139c0.449005,0.728119 1.353119,1.571564 1.20752,2.48175c-0.157776,2.032776 -0.527924,4.174713 -1.146851,6.122528c-0.182068,0.673553 -0.703857,0.885925 -1.23175,1.237854c-2.08136,-3.416229 -3.422302,-6.984192 -4.326477,-10.873688c-0.509674,-2.324005 -1.523041,-4.259674 -3.792419,-5.260864c-1.152924,1.383484 -1.33493,2.093384 -0.928375,3.883453c1.171082,4.035156 2.408966,8.580017 4.914978,11.9841c0.685669,1.122559 1.601929,2.032745 1.456329,3.434448c-0.242767,3.470856 -0.758514,6.929565 -1.007263,10.40036c-0.39444,5.782776 -1.814362,11.116425 -1.899261,16.923462c0,1.832458 -0.060699,3.64679 -0.260925,5.467133q-0.837372,-0.339752 -1.377441,-0.964752c-2.123749,-2.506042 -3.938049,-6.122559 -6.753571,-7.876129c-0.77066,-0.546143 -1.498779,-0.631134 -2.421082,-0.637146c-0.600739,1.941711 0.527893,3.10672 1.523041,4.611572c2.712372,3.622559 5.279053,7.342163 7.62738,11.219604c1.462341,2.427155 1.81427,5.163788 3.258423,7.615204c1.899292,3.264496 4.714783,5.843353 6.510864,9.247498c0.891998,1.662598 1.407776,3.440521 0.879883,5.309418c-0.970886,3.810638 -3.052185,7.239044 -4.186859,11.02536c-2.487885,6.504791 -3.774231,12.954987 -4.108032,19.914917c-0.091003,4.817932 -1.3349,9.411346 -1.759644,14.192841c-0.546143,4.635864 -1.796143,10.612762 0.418671,14.933105c-0.77066,2.566711 -2.044891,4.799713 -3.343414,7.123749c-2.202667,3.555756 -4.229309,7.445343 -7.087311,10.515686c-3.08255,3.470856 -7.542419,5.327606 -12.020538,6.164978c-2.433228,0.43692 -4.54483,-0.175934 -6.66861,1.39563l-0.345886,0.091034c-0.982971,-0.254852 -1.862854,-0.703888 -2.779114,-1.140808c-1.268188,-5.539978 -1.425964,-11.219543 0.800995,-16.553223c0.770599,-1.68692 1.347015,-4.071564 3.44046,-4.508484c1.771881,-0.473297 4.162598,-0.800934 5.849457,0.08493c1.39563,0.995148 2.226959,2.851959 3.228149,4.217255c1.23175,0.151703 2.293671,0.066711 3.495117,-0.218445c-0.515778,-2.803406 -3.276672,-4.999969 -5.995087,-5.485413c-2.087341,-0.285217 -4.192932,0.012146 -6.292419,-0.382294c-2.069183,-0.436859 -3.962372,-0.594635 -5.388275,-2.348297c-1.862854,-2.141937 -4.720886,-3.161316 -7.518158,-2.827606c-1.72937,0.509674 -3.379883,1.310638 -5.060699,1.9599q0.139618,-0.716003 0.576477,-1.158905c2.700226,-2.038849 6.626221,-3.118927 9.02298,-5.546082c2.615265,-2.694214 4.441742,-6.371307 4.223297,-10.200195c0.04245,-4.532684 -1.72937,-8.385834 -4.004822,-12.19043c-2.366486,-3.91983 -3.665039,-8.197723 -5.279083,-12.433136c-0.734222,-1.95993 -2.348297,-1.183258 -3.932037,-1.067963q-0.503601,0.989075 -1.00116,1.97818c-1.656555,-2.657776 -2.991516,-5.455109 -4.927155,-7.942932c-1.608032,-2.044861 -2.942993,-4.326385 -4.654083,-6.280304c-1.067963,-1.10437 -2.609253,-0.442902 -3.87738,-0.18808c1.571564,3.446564 5.188049,8.06427 3.555786,11.990204c-2.226929,-1.177185 -3.677155,-3.100708 -5.697784,-4.544891c-2.269409,-1.607971 -4.508453,-3.246307 -6.868896,-4.70871c-3.404083,-2.111603 -6.359131,-4.98172 -9.550903,-7.445313c-2.651642,-2.233002 -5.503571,-4.198975 -8.167328,-6.401642c-5.303406,-4.739044 -9.684418,-10.163757 -13.7742,-15.952484c-2.311829,-3.361664 -4.702606,-6.298553 -6.104279,-10.175934c-1.280396,-3.234192 -1.808289,-6.66861 -2.961182,-9.927094c-1.650482,-4.095825 -3.270569,-7.857941 -6.8992,-10.60672c-0.740265,-0.612823 -1.492706,-0.400452 -2.390778,-0.461121c-0.418671,2.851898 1.814331,5.260864 2.900452,7.809387c2.785187,5.388306 2.979401,11.268097 5.928345,16.54718c2.64563,4.714783 5.825195,9.004791 9.253601,13.173431c2.123779,2.93689 4.79364,5.279114 7.29361,7.87619c3.179596,3.203827 7.245087,5.87973 10.806976,8.62854c2.706268,2.166229 5.35791,4.368896 8.222015,6.328796c4.27179,2.973297 9.010834,5.382263 12.475586,9.31427c-2.827637,5.819122 -6.292389,11.365204 -9.975616,16.674591c-2.603119,3.925934 -5.497528,7.487793 -7.688019,11.674683c-2.809479,5.0849 -4.320374,10.497437 -6.723297,15.740173c-1.504822,3.416199 -3.052155,7.948914 -5.970825,10.406433c-2.226898,1.316742 -5.27301,1.474518 -7.803314,1.462341c-0.95874,-0.163818 -2.415039,0.169952 -2.815521,-0.964813c-1.322784,-3.294861 -1.007263,-7.414948 -0.297302,-10.812958c0.43692,-2.263336 2.050964,-3.404144 3.106781,-5.33374c0.728119,-1.371338 1.298492,-2.821503 1.990295,-4.211121c2.220825,0.157776 3.573944,1.83252 5.843384,1.650482c-0.327698,-2.457489 -2.89444,-2.882233 -4.890747,-3.373749c-3.434448,-0.625 -5.825226,1.067963 -8.998718,1.692932c-2.093445,-0.04245 -3.956299,-0.794891 -5.734192,-1.844604c2.287628,-1.341034 5.030304,-1.893188 7.056976,-3.51944c2.663818,-2.129791 4.550934,-5.485382 6.177124,-8.434387c1.33493,-2.542419 2.93689,-5.728058 2.257324,-8.664948c-0.406586,-1.450226 -2.184509,-2.117676 -3.41626,-2.706268c-4.089752,-1.796143 -8.786346,-2.827667 -11.516907,-6.680786c-2.463593,-3.707489 -3.50119,-8.683167 -4.690491,-12.930695c-0.35199,-1.122589 -0.722107,-2.445435 -1.498779,-3.349518c-1.322784,-1.183258 -2.797302,-1.074036 -4.4599,-0.989044c0.527893,2.779083 1.498779,5.400421 2.20871,8.14917c0.807007,2.858002 1.620117,5.752411 3.173492,8.307007c0.940552,1.699036 2.129852,2.888275 1.735443,4.999908c-2.002411,0.254913 -4.205078,-1.72934 -5.89801,-2.645599c-7.14798,-4.235413 -11.474396,-10.594543 -17.081146,-16.322632c-1.83252,-1.990295 -4.587372,-1.571594 -6.990234,-1.195404c-0.843445,2.281555 -0.81311,4.629822 -0.995148,7.069153c-2.68808,-0.807068 -3.950226,-3.264587 -6.438019,-4.235474c-1.559509,-0.345795 -3.112885,-0.04245 -4.660156,0.212433c-0.042511,2.615265 0.685669,5.157715 0.606781,7.754761c-0.054657,1.280334 -0.612885,2.415039 -1.996399,2.58493c-2.43927,0.127411 -4.83609,-0.697784 -7.305756,-0.552185c-3.974426,0.14566 -7.930725,-0.097107 -11.899109,0.182037c-0.121368,-1.231781 -0.109222,-2.609192 -0.564362,-3.768158c-1.049744,-1.389557 -2.39682,-2.524261 -3.391968,-3.968445c6.074005,0.018219 12.287537,2.269409 18.240143,1.626221c1.802216,-0.133484 3.513306,-1.553375 3.422302,-3.470795c-0.072815,-3.197815 -1.419891,-6.413818 -1.383484,-9.64801q-0.024292,-0.77066 0.473297,-1.10437c3.246307,1.419891 5.855499,3.901672 9.283905,5.054565c2.645599,0.983002 6.620117,1.656555 9.022949,-0.182037c1.080139,-1.189301 1.456329,-3.118866 2.099518,-4.575195c1.359222,-0.157776 2.566742,0.382294 3.895599,0.722046c3.701385,1.086182 7.402893,1.256073 11.207458,1.614105c5.133453,0.752441 10.279053,1.365265 15.412445,2.117706c2.354401,0.248779 6.183228,0.133453 7.675934,-2.057037c-0.418671,-1.917419 -1.650482,-3.634674 -2.257263,-5.515717c2.675964,0.388306 5.297333,0.952637 7.930756,1.541229c1.286377,0.321594 2.415039,0.012146 3.707489,-0.115265c-0.916229,-1.01944 -2.281494,-1.049774 -3.549744,-1.353149c-3.06427,-0.515778 -6.146759,-1.10434 -9.25354,-1.341003c-1.074036,-0.084991 -1.802155,0.139557 -2.68808,0.75238c-0.442963,1.984253 2.609192,4.581299 1.371338,6.692963c-3.416229,0.527893 -6.268127,-0.467255 -9.617645,-0.879883c-4.611603,-0.588623 -9.247498,-1.007294 -13.865143,-1.559448c-3.737854,-0.47934 -7.317902,-2.803375 -11.013306,-2.73056c-1.407715,0.060669 -2.967163,0.309479 -3.373749,1.893188c-0.631012,1.347076 -0.691681,3.574005 -2.075195,4.326416c-5.382263,-0.879852 -9.496277,-6.741455 -15.169769,-6.237823c-1.231842,0.14566 -3.08252,-0.29126 -3.64682,1.16507c-0.637115,3.573975 1.371338,7.918579 1.39563,11.498718c-0.121338,1.049683 -0.036438,1.990234 -1.377411,2.050903c-3.762115,0.091034 -7.603119,-0.734222 -11.328827,-1.225708c-2.888306,-0.612885 -6.177094,-0.722107 -8.853058,-1.978119c-2.160187,-1.899292 -3.586121,-4.805817 -4.654053,-7.43927c-2.299774,-6.274231 -3.31308,-12.809357 -4.150482,-19.393066c-0.315521,-2.857971 -0.115326,-5.685608 -0.503632,-8.537537c-0.473297,-3.513306 -1.122559,-6.990204 -1.771851,-10.473236c-0.891937,-4.987793 -1.650452,-9.945282 -3.634644,-14.647919c-1.565552,-3.60434 -3.185638,-6.911346 -6.340958,-9.411316c-2.044907,-1.711151 -4.763321,-2.135895 -7.226913,-1.086151c1.122589,1.850708 2.918671,3.040039 4.08371,4.872528c3.38591,5.097046 4.999954,11.601837 5.964752,17.578735c0.934448,5.891937 2.451447,11.492584 2.554626,17.511963c0.030334,3.398041 0.667419,6.717194 0.916199,10.097046c0.127472,1.322784 -0.746338,2.239044 -1.48056,3.234161c-1.644379,1.935669 -3.482971,3.944122 -5.685638,5.242645c-5.861572,3.149261 -11.905228,4.259705 -18.373581,5.412659c-2.500031,0.412567 -4.969635,0.309418 -7.487839,0.236603c-3.561844,-0.097076 -6.78389,0.339813 -10.297241,-0.540039c-5.127335,-1.243958 -10.151627,-3.677155 -15.133316,-5.491455c-4.095871,-1.492676 -8.209946,-2.936859 -12.293594,-4.466003c-2.275497,-0.873779 -4.872574,-1.177155 -6.984207,-2.384674c-0.060654,-1.523041 0.012161,-3.118927 -0.297302,-4.617706c-0.661407,-1.371307 -1.535217,-2.578857 -1.9478,-4.077637c-1.225739,-4.247528 -2.851913,-8.331207 -4.563065,-12.396698c-1.692978,-3.956268 -2.809448,-8.385864 -2.736618,-12.700134c0.254822,-4.496338 1.304565,-8.968384 2.942886,-13.161316c3.567963,-8.270538 8.525436,-15.21225 12.797272,-22.954865c3.652847,-6.280304 9.726837,-10.685608 15.630905,-14.69043c8.410156,-5.515747 17.536255,-7.948975 24.532516,-14.896729c3.355591,-3.64679 6.953873,-7.681946 9.08371,-12.178284c1.128647,-2.305817 1.850708,-4.720856 2.888336,-7.057007c0.315491,2.360413 0.558243,4.775452 1.183258,7.075195c0.370132,0.922363 0.406525,1.83252 1.607941,1.899292c1.595871,0.169861 4.472061,0.558228 5.212387,-1.322815c2.208725,-3.962372 3.695328,-7.888306 6.965927,-11.23172c2.724472,-2.657745 5.539993,-5.485382 7.669876,-8.707458c2.154053,-3.640732 2.827637,-8.228088 2.305786,-12.39064c-0.643188,-5.333725 -1.796143,-10.643127 -2.900452,-15.904022c-1.377411,-5.218384 -2.900452,-10.32756 -3.404144,-15.727997z"/>
   <path id="svg_17" fill="#6b544c" d="m67.580841,213.385437c1.104355,-0.703888 1.820389,0.928375 0.503632,1.189301q-1.055817,-0.273071 -0.503632,-1.189301z"/>
   <path id="svg_19" fill="#f9faf5" d="m471.642944,330.932953c1.923492,1.328857 3.216003,3.300934 5.266968,4.520599c1.868866,1.808258 4.089691,3.155334 5.83725,5.08493c2.099487,2.190521 4.381104,4.101898 6.080078,6.650421c2.135864,1.996338 3.513367,4.514496 5.740234,6.407715c1.802155,1.601929 2.524261,3.628601 4.569183,4.921051c1.717163,1.007263 2.809387,2.597107 4.326385,3.822784c2.014526,1.504883 3.925903,3.076447 6.225647,4.156525c3.865326,2.415039 8.367706,4.265747 12.924591,4.769379c4.696655,1.031525 9.720886,0.273071 14.520569,0.521851c2.730591,0.285187 5.175964,-0.81311 7.888306,-0.618958c4.654114,0.036438 9.302002,-0.012115 13.956177,0.030365c7.190491,-0.594666 13.846985,-2.839783 20.424622,-5.703827l0.297363,-0.606812c0.958679,1.535187 1.219604,3.525482 0.800903,5.279083c-0.715942,4.120117 -2.239014,8.112762 -3.841003,11.959869c-1.668701,3.410156 -3.076477,6.692902 -5.515747,9.623718c-1.935669,2.930756 -4.87854,4.823944 -6.771729,7.803314c-3.143188,3.02179 -5.576477,6.705017 -8.373779,10.054535c-2.56665,3.009674 -4.799622,6.389496 -7.730469,9.041168c-1.092224,1.043701 -1.741455,2.421112 -2.845825,3.434479q0.891968,0.169861 1.747559,-0.127502c0.515747,1.328918 1.450256,0.709961 2.506042,0.527924c5.0849,-1.43808 9.708618,-4.550903 14.587158,-6.656464c1.068054,-0.43692 2.991516,-0.697845 3.294922,-2.038849c0.95874,0.169922 1.444214,-0.351929 2.184387,-0.819153c-0.21228,1.862854 -1.292358,3.100708 -2.372498,4.532715c-1.644409,2.372589 -3.98053,4.22934 -5.964783,6.389526c-1.541199,1.741486 -3.537537,2.888336 -5.175842,4.538788c-1.377502,1.389557 -3.507324,2.233002 -4.654053,3.774261l-0.764648,0.060669c-3.367676,1.802185 -6.674622,3.598236 -10.412537,4.526672c-1.401733,0.291229 -3.10675,1.080078 -4.514526,0.637115l-0.655334,0.673553c-2.718323,-0.097107 -5.151672,0.898041 -7.81543,1.183228c-1.225769,0.103119 -2.396851,0.509705 -3.622559,0.618927c-6.935669,0.090973 -13.87735,-0.066742 -20.812988,0.030334q0.418793,0.540039 0.655396,1.177185c0.85556,-0.10318 1.547272,0.151703 2.299774,0.497559c2.057007,0.958771 4.223236,1.365295 6.189301,2.524261c3.968323,2.293671 7.924622,4.732941 11.5047,7.603088l0.75238,0.078888q0.018311,0.879822 0.618958,1.662598c-2.809509,0.922333 -5.558228,1.862885 -8.537476,1.965973c-2.827759,0.77066 -5.570404,0.388367 -8.452698,0.461182c-2.099396,-0.036377 -4.186798,0.230591 -6.152863,-0.382294c-3.950195,-0.952637 -7.621216,-2.384644 -10.897888,-4.830017c-2.378693,-1.29248 -3.756073,-3.537598 -5.970856,-5.030304c-1.571625,-1.098297 -2.536377,-2.675964 -4.199036,-3.549744c-1.601868,-0.85556 -3.033905,-1.802155 -4.933136,-1.638336c-1.250031,0.072845 -2.560699,0.43689 -3.040039,1.723267c-0.540039,3.325256 0.970825,6.359192 0.546051,9.757233c-2.305756,-2.324036 -4.484161,-3.555786 -7.876129,-3.155334c-0.728149,0.345886 -1.280304,1.152924 -1.783966,0.006073q0.345917,-0.558228 0.788879,-1.067932c-0.030396,-1.468445 -0.442963,-3.683228 0.600708,-4.884674c-0.273071,-2.894409 0.819122,-5.715973 0.649261,-8.695313c1.007233,-3.228149 -0.036407,-6.450195 0.861633,-9.647949c0.685669,-7.918701 3.938049,-15.115204 6.838562,-22.420959c0.898041,-2.269379 0.576447,-4.745087 -0.540039,-6.874939c-2.445404,-4.484222 -7.050964,-8.221985 -8.525421,-13.149139c0.618927,-0.515778 1.019379,-0.794922 1.844604,-0.879883c0.29126,-2.050934 -0.673523,-3.810638 -0.588562,-5.831238c0.109222,-2.099487 -0.81311,-3.956299 -0.625,-6.073975c-0.242706,-3.355591 0.898041,-6.395599 0.649261,-9.763275c0.570404,-2.39682 0.449036,-4.817932 1.06189,-7.19046c0.33374,-2.050964 -0.206329,-4.296082 0.321564,-6.432007c0.606812,-2.287598 0.35199,-4.89679 0.297333,-7.263306c0.843445,-0.163818 1.638367,-0.455078 2.439301,-0.75238c1.383545,-2.324036 1.899261,-4.223267 1.868958,-6.947784z"/>
   <path id="svg_20" fill="#f8f9f4" d="m122.131355,381.988373c1.65654,0.685669 2.76696,2.232971 4.381012,3.064301c3.671104,2.657745 7.463554,5.37616 10.473213,8.77417c1.777924,2.342224 3.768173,4.381012 5.030304,7.081268c0.643173,0.855591 1.256073,2.760895 2.39682,2.918671l0.012161,1.031525c2.099457,2.718414 4.004822,5.473267 6.577576,7.791199c1.680817,0 3.367691,0 5.048508,0.036438c-0.891983,-2.324036 -2.748734,-3.962372 -3.689285,-6.298523c-0.631058,-1.650482 -1.219635,-3.337311 -1.601929,-5.060638c-0.831284,-3.161377 -2.075241,-6.431976 -2.330048,-9.69043q-0.36409,-0.461151 -0.72818,-0.922333c1.152924,-0.036377 1.717209,0.691742 2.572815,1.316742c4.02298,2.997559 7.008423,7.336121 11.073914,10.200134c2.499969,2.402924 5.540024,3.555786 8.416199,5.406525c3.79245,2.39679 7.967178,4.866425 11.547256,7.378571c0.424698,2.700256 1.413788,5.885895 0.697784,8.573975c1.626205,0.479309 0.625,2.724487 0.734222,4.004761c-1.037643,1.620178 -2.791245,2.876221 -4.083694,4.320343c-1.359238,1.516998 -2.967224,2.682098 -4.538834,3.950226c-2.463547,2.390778 -4.848251,4.866516 -7.299683,7.269409c-1.838577,1.656525 -2.949005,3.859161 -4.854309,5.467133c-3.234207,3.786438 -6.2742,7.408966 -9.077606,11.553314c-1.347061,2.45755 -2.973282,4.714813 -4.490265,7.06308c-2.493881,3.756073 -7.414963,5.995117 -11.850632,5.825195q-0.497528,0.327637 -1.001205,0.661377c-2.172287,-0.29126 -4.016922,0.758514 -6.195328,0.612854c-1.080078,-0.066772 -2.384651,0.752441 -3.379799,0.364075c-1.765755,-2.20871 -3.58007,-5.291199 -2.924774,-8.228058c0.600777,-3.100708 2.378654,-6.71109 4.247566,-9.253571q-0.570396,-0.722076 -1.116524,-1.462402c-1.061867,0.194214 -2.06913,0.479401 -3.052116,0.940582c-1.231789,2.202637 -2.390762,4.532684 -3.780327,6.626129c-0.060661,1.286407 0.716003,1.790039 -0.855545,2.402893c0.661392,1.571594 -0.084991,3.652893 0.679565,5.23056c0.655334,1.541199 1.407776,2.706238 2.773064,3.713531c-0.898041,0.442993 -1.826469,0.776672 -2.83979,0.794891c-2.864059,0.084961 -5.734184,-0.036377 -8.604301,0.006073c-0.382301,-1.662598 -0.351921,-4.029083 -1.383507,-5.37616c1.171135,-1.195374 0.673561,-3.367706 1.52916,-4.860413c1.334908,-3.73175 4.235359,-6.753571 5.254784,-10.533905c2.779121,0.370148 5.345825,-1.074005 7.985352,-0.643158c2.330101,1.365265 4.144409,3.161377 6.067932,5.012054c1.067932,1.001251 2.251221,1.06192 3.634674,0.976929q0,-0.7099 0.024292,-1.413818c-1.158981,-1.23175 -1.717224,-2.645599 -3.179596,-3.598236c-1.280304,-0.807007 -2.469658,-2.032745 -4.059433,-2.002411c-1.134697,-0.175995 -2.166229,0.012146 -3.05822,-0.831329c-1.565544,1.334961 -4.41745,0.285248 -6.122543,1.492706c-1.626213,-0.81308 -3.968376,-1.152893 -5.776634,-1.268158c1.656548,-1.529114 3.525467,-2.68808 4.975693,-4.484222c6.468361,-5.861572 10.309349,-14.702545 10.127312,-23.422119c-0.436867,-3.513306 -0.928383,-6.905273 -2.457489,-10.145508c1.365288,0.218414 2.663803,1.061859 4.04731,1.183197c1.268188,0.24881 2.402878,-0.351898 3.094604,1.043671c0.788834,-1.468384 2.160172,-0.849487 3.549744,-0.976868c0.078873,-1.35318 0.060699,-2.584961 -0.533966,-3.828888c-1.298523,-2.83371 -2.172333,-5.800934 -3.106781,-8.77417l-0.540009,-0.618958l0.060669,-0.515747c-1.043701,-4.065521 -3.149269,-8.216003 -4.70871,-12.093384c-1.18325,-2.633453 -2.657753,-5.133453 -3.792442,-7.785095z"/>
   <path id="svg_21" fill="#f8f9f4" d="m183.574966,386.472565c2.069183,0.570404 3.956268,1.66864 5.983002,2.299713q0.66745,0.242737 1.334961,-0.042511c0.637115,1.280365 1.850693,0.855621 3.003601,1.529175c4.726883,1.614044 9.25354,3.743896 13.974365,5.351868c1.322784,0.455078 2.239059,1.389587 3.707504,0.85556l0.691727,0.764557c2.499985,0.370148 4.993896,0.867706 7.499939,1.195404c4.453842,0.024292 8.919846,0.006073 13.373672,0.006073c7.748718,-1.171143 15.31543,-2.105591 22.609055,-5.236633c2.287613,-0.449005 3.689285,-2.524231 5.746292,-3.167419c0.685669,2.414978 0.989105,5.442871 2.536377,7.463501q0.006104,0.606781 0.030334,1.213593c2.233002,3.749969 5.121338,6.965973 8.883453,9.229309c2.166229,1.535156 4.004791,3.331238 3.549683,6.231689c-1.110382,1.638397 -2.044861,3.307037 -3.519348,4.660217c-1.644409,1.450165 -2.645599,3.385864 -4.247528,4.872528c-2.615295,2.487854 -4.872528,5.230499 -7.882263,7.281464c-2.827637,3.02182 -6.213531,5.248779 -9.787537,7.281525c-1.796051,1.10434 -3.883438,2.117676 -5.370056,3.616455l0.066727,1.098297c2.645584,-0.370148 5.679565,0.351959 8.155273,-0.58252c1.735428,-0.521851 3.05217,-1.432068 4.914963,-1.219666q0.582581,-0.558258 1.122589,-1.152893c-0.254791,1.444183 -1.941681,2.5 -2.864044,3.580048c-2.402893,2.038818 -4.860382,4.047333 -7.275421,6.073975c-2.287613,2.360443 -4.696548,4.629822 -6.923492,7.04483c-1.802139,2.651672 -4.217178,4.623749 -6.419846,6.911377c-3.155319,3.391968 -7.518112,5.194092 -11.371231,7.433167c-3.495117,1.432037 -7.281509,3.774261 -11.025391,4.587372c-0.934494,0.285187 -1.84465,0.206299 -2.46965,1.092194c-1.711151,-0.37619 -3.410141,0.600739 -5.20018,0.552185c-4.350677,0.752441 -9.01088,1.055817 -13.234131,2.372559c-0.946594,-1.013336 -1.923569,-1.765778 -2.269394,-3.185669c-1.007294,-3.379791 -0.121368,-6.601898 1.401688,-9.641846c0.540009,-1.025482 2.263321,-2.160217 1.328888,-3.379852c1.237808,0.133484 2.463547,0.169891 3.707458,0.14566c1.450272,0.970825 2.906509,1.747528 4.174744,2.979279q1.007263,-0.024231 2.014526,-0.012115c0.121323,-1.201477 -0.024277,-1.644379 -0.85556,-2.475708c-0.722107,-0.618958 -1.419891,-1.577667 -2.396866,-0.746338l-0.606796,-1.025482c-2.433151,0.175995 -4.860367,0.04245 -7.293579,0.12738c-0.867706,-2.384644 -2.967209,-4.805756 -5.254822,-5.988983c-1.250015,0.006042 -2.499985,0.066711 -3.749954,0.127411c0.964767,-1.765747 1.686874,-3.60434 1.838593,-5.631012l0.703842,-0.673523c-0.345871,-1.43811 0.515793,-3.08252 0.661438,-4.538818c0.867676,-3.404083 1.055817,-6.85675 1.571564,-10.315399c-0.012115,-3.440582 0.091034,-6.911377 -0.054611,-10.351898c-0.691727,-2.257263 -0.370132,-4.526672 -0.879822,-6.802124c-0.339813,-1.662598 -0.169937,-3.343414 -0.546127,-5.006012c-0.709946,-3.06427 0.139542,-6.00116 -0.606796,-8.986603c-0.473297,-1.917419 -0.236649,-4.095795 -0.224533,-6.067871l-0.813095,-0.691742c0.564331,-1.577667 -0.297318,-3.574005 -0.515747,-5.200226c-0.24881,-1.911346 -1.468445,-3.998749 -0.928436,-5.855499z"/>
   <path id="svg_22" fill="#816d61" d="m277.506226,406.266083l0.442963,-0.24881l0.455078,0.230591l0.006073,0.485413l-0.442932,0.24881l-0.455109,-0.230591l-0.006073,-0.485413z"/>
   <path id="svg_23" fill="#867468" d="m256.917816,438.523041l0.473297,-0.006073l0.254883,0.449097l-0.218506,0.461121l-0.47934,0.006073l-0.254822,-0.455078l0.224487,-0.455139z"/>
   <path id="svg_24" fill="#f8f9f4" d="m347.165863,449.360352c0.018219,1.310669 -1.559509,2.172333 -2.281555,3.179596c-2.154114,3.003601 -5.242676,5.540009 -6.607971,9.132202c-1.140747,2.512146 -0.643219,5.406494 -0.679596,8.124939c0.649261,0.800903 1.383484,1.013336 1.098297,2.226898c-3.37381,-0.08493 -6.383423,-0.139526 -8.859161,-2.77301c0.048523,-2.487823 -0.321564,-4.684418 0.70993,-7.014526c1.838593,-4.745087 6.019379,-8.306946 10.224457,-10.946472c2.172302,-1.365295 4.374969,0.054596 6.395599,-1.929626z"/>
   <path id="svg_25" fill="#f8f8f4" d="m350.927948,450.671021c2.330078,-0.266968 4.720795,-0.018219 7.063049,-0.097107c-0.843445,0.879883 -1.692993,1.777924 -2.621368,2.566772c-0.418671,2.038788 -2.942932,5.006012 -2.239044,7.239014l-0.746338,0.661377c-0.018219,2.020599 -0.097107,4.071533 0.091003,6.086121c0.242737,1.037628 1.037628,1.765747 1.098297,2.870117q0.879822,0.224487 1.723297,0.612854c-1.911407,-0.024231 -3.737885,0.37619 -5.60675,0.66748c-2.451477,0.133514 -4.908966,-0.024261 -7.360382,0.030334c-0.297363,-1.862854 -0.807037,-3.622559 -0.661407,-5.546082c-0.109192,-3.264526 1.765778,-6.583679 3.774292,-9.047211c2.038788,-1.984253 3.161316,-4.350739 5.485352,-6.043671z"/>
   <path id="svg_26" fill="#f8f8f3" d="m112.082878,453.437988l0.121376,0.807037c-2.09951,5.333679 -6.947762,10.406464 -7.075195,16.377289c-0.200211,1.753662 1.201462,3.25238 1.11042,4.89682c-1.814262,-0.042511 -3.440521,0.006042 -4.987801,-1.074036c-2.560646,-1.341003 -3.756058,-4.077637 -3.840996,-6.862823c0.533966,-2.973267 0.764557,-5.685638 2.542427,-8.197723c1.559494,-2.645599 4.939301,-3.756073 7.499947,-5.218414c1.35923,-0.843414 3.058266,-0.594666 4.629822,-0.728149z"/>
   <path id="svg_27" fill="#f8f8f3" d="m419.677368,457.964661q1.043701,-0.47937 2.342163,-0.309479c0.964813,0.867706 1.850739,1.796082 2.518188,2.918671c0.819183,1.122589 1.013367,2.421082 2.651703,2.536407q-0.279144,0.7099 -0.036377,1.432007c-2.402924,2.439331 -3.398041,6.620117 -3.804626,9.927094c-1.00119,3.319153 -0.121307,7.166199 0.91629,10.400421c-3.349548,0.157745 -6.705078,0.030304 -10.054535,0.127411c-1.777924,-3.45874 -0.18811,-7.851868 -0.10318,-11.377319c0.66745,-3.925964 1.923523,-7.681976 3.768188,-11.219543c0.734222,-1.529175 1.705078,-2.68808 1.802185,-4.435669z"/>
   <path id="svg_28" fill="#f7f8f3" d="m185.80191,458.395447c0.442978,0.746399 0.837387,1.510895 1.1772,2.305847c-1.080139,-0.030334 -2.160187,-0.012115 -3.234207,-0.163849c-0.964813,0.861633 -3.737839,2.305786 -4.999969,2.524231c-0.995148,1.195404 -2.536362,1.802185 -3.561844,3.003662c-0.928421,0.934418 -1.450272,2.317932 -2.512146,3.088531c0.333755,1.504852 -0.703842,2.930786 -0.576462,4.50238c-0.242706,1.620117 0.709961,3.009674 0.54007,4.538788c1.019424,0.527924 1.371353,1.97818 2.263336,2.700256c0.904099,0.631042 2.008469,0.995148 2.815521,1.735413c-2.245117,-0.206299 -4.229355,0.260925 -6.359192,-0.740265c-1.692947,-0.612854 -2.682022,-1.844696 -3.907715,-3.076447c-0.98909,-2.499969 -1.680832,-4.89682 -1.055817,-7.603119c0.59462,-2.299713 0.910202,-4.684418 2.530319,-6.498688c1.165024,-1.407776 2.669861,-1.887177 4.09581,-2.924774c1.911407,0.14566 3.938095,-0.794891 5.794891,-1.243896c1.929581,-0.946594 4.805756,-2.372559 6.990204,-2.148071z"/>
   <path id="svg_29" fill="#f8f8f4" d="m415.363068,459.293549l0.266998,0.47934c-1.996368,2.821594 -3.100708,6.280273 -4.205078,9.526642c-1.067932,4.902802 -2.263336,10.752319 -1.14682,15.697662c-2.724518,0.139557 -6.66861,-0.673492 -7.857971,-3.489075c-0.588562,-2.184448 0.012177,-4.708679 -0.345856,-6.94165c0.825256,-0.473328 0.75238,-1.862854 1.019379,-2.694183c0.424805,-2.736633 1.759735,-4.902863 2.924774,-7.348236c2.099518,-0.655334 3.956268,-2.160156 5.6492,-3.507233c1.098297,-0.885925 2.499969,-0.964783 3.695374,-1.723267z"/>
   <path id="svg_30" fill="#f7f8f3" d="m187.41597,460.889374c0.461182,1.256073 2.663803,3.531525 4.041245,2.287598q-0.054611,1.595886 -1.395615,1.049774c-0.527908,1.644379 -1.808258,2.955048 -2.427155,4.581268c-1.061874,2.706238 -1.844696,5.910126 -0.873779,8.743866c0.685684,1.213562 1.874939,2.184448 2.815475,3.203857c-2.718414,-0.006073 -5.594589,1.425964 -8.355499,1.20752q-0.685669,-0.637115 -1.432007,-1.159027c-2.038849,-1.134674 -2.845886,-3.938049 -3.434464,-6.049652c-0.370132,-3.349518 1.237854,-6.990265 3.67717,-9.277832c0.66745,-0.606781 2.02063,-1.025482 2.166229,-1.984222l0.922318,0.066711c1.268234,-0.95871 3.470856,-1.328857 4.296082,-2.669861z"/>
  </g>
 </g>
</svg>