<?xml version="1.0" encoding="UTF-8"?>
<svg width="600" height="600" xmlns="http://www.w3.org/2000/svg" xmlns:svg="http://www.w3.org/2000/svg">

 <g>
  <title>Layer 1</title>
  <g id="svg_18">
   <path id="svg_2" fill="#1c1407" d="m200.995285,39.032253l9.375595,0l0.681061,0.408646l0.5289,0.093807c3.35463,0.200974 6.202072,1.527428 9.071289,3.041489c2.050415,1.822205 4.65155,3.01469 6.288956,5.138374q0.507187,-0.435452 0.681076,-1.07188c1.289719,0.301449 4.383469,-0.274673 5.252914,-1.212578c4.07193,0.227776 8.868408,0.207672 12.483917,2.304558c2.970596,1.09198 5.064545,3.08839 7.68013,4.723026c5.847076,3.965996 12.157776,8.655521 19.026428,10.933311c5.600708,2.391663 11.208649,4.542122 16.606506,7.369263c3.04306,1.956177 6.600555,3.229057 9.875519,4.8302c4.151611,1.708336 8.687195,4.515343 10.773865,8.367462c1.202759,1.929382 0.746307,3.825294 0.847687,5.989182c0.17395,2.786903 -0.985382,5.071404 -2.006927,7.62384c-4.108154,7.945389 -9.592957,15.582626 -16.505035,21.67231c-1.354889,1.286285 -3.079315,1.983009 -4.368958,3.349655c-0.789795,0.877617 -1.673676,1.567642 -2.709839,2.190689c-1.565002,0.964684 -2.717041,2.338074 -4.282013,3.316139c-2.028748,1.279587 -3.296692,3.108505 -5.665955,3.979431c0.927429,1.065186 2.7388,2.733307 2.093964,4.193771c1.115784,0.589523 1.775146,1.936081 2.506927,2.880722c2.021454,3.021378 4.586334,5.821701 6.057159,9.064163c0.456482,0.85083 0.695526,1.694931 1.630249,2.224197q-0.137695,0.736893 -0.239136,1.480515c1.202789,1.212585 1.470856,3.188889 2.006989,4.723038c0.572357,2.807022 1.289673,5.58725 1.717163,8.414368c0.239136,1.587723 0.949158,3.249161 0.536163,4.823486c1.065033,0.97142 0.775238,2.090225 0.717285,3.356369q0.42749,0.515854 0.847687,1.038406c-0.094147,3.27597 1.565033,6.645752 2.593872,9.747498c1.644745,4.568939 3.253174,9.312088 5.665955,13.592957c0.652039,1.319748 2.477875,2.659637 2.209808,4.166977q0.717316,0.395233 1.405548,0.837433c0.159454,1.788681 1.702728,2.070068 2.992371,3.08165c0.847687,1.172363 1.420166,1.936111 2.796722,2.632843c1.007141,0.495743 2.666321,1.962906 3.789429,1.179077c0.83316,1.828903 3.028564,0.401978 4.796448,1.118774c2.543152,0.850845 5.086243,0.053635 7.629395,0.770432c10.158112,1.078613 20.678406,4.790039 30.235138,8.0392c1.456268,0.515839 3.340118,1.641312 4.919617,1.28627l0.710022,0.716827c4.064758,0.716812 8.100372,1.453735 12.186829,2.016479c1.188263,0.214386 2.688019,-0.428741 3.296631,0.80394c1.463562,0.02681 4.948608,-0.810623 5.767334,0.663239c2.825745,-0.341644 5.463043,-0.207672 8.209106,0.475632c7.955444,0.013412 16.063049,2.518951 23.562042,4.843597c4.042908,1.795456 8.361206,2.472076 12.549042,3.872238c3.629974,0.810623 6.941132,2.123672 10.643494,2.49884l0.833282,0.830719q1.593994,-0.884338 2.188141,0.62973c2.427185,-0.502457 5.296387,1.313049 7.709076,1.782043c4.883392,1.071869 9.448029,2.981186 14.353119,3.892273c1.630219,0.381897 2.673553,-1.386734 4.318298,-1.252731c0.6521,-1.353287 2.050476,-1.380096 3.303894,-2.190689c2.543182,-1.634644 4.811005,-3.564056 7.310669,-5.252274c1.536011,-1.078583 2.746002,-3.108505 4.557343,-3.724838l-0.123138,-1.192474c4.253052,-3.068283 6.832428,-8.280365 8.679993,-12.842606c1.188171,-3.604218 2.753235,-7.027603 3.564728,-10.725601l0.644806,-0.422073c-0.463684,-1.507355 0.210144,-4.984283 1.369385,-6.09639c-0.217346,-1.158997 -0.470917,-3.162064 0.673798,-4.012909c-0.195557,-2.907471 -0.20282,-6.304047 0.007294,-9.211578q-0.507202,-0.468948 -0.65213,-1.112061c-0.702759,-2.59935 -1.398346,-5.158493 -2.81842,-7.523346l-0.007263,-0.984802q-1.253448,-0.194275 -0.775269,-1.393463l-0.847687,-0.408646c-3.16626,-4.461761 -6.629517,-9.030701 -9.006042,-13.894394c-1.543304,-2.981186 -3.840057,-5.553757 -6.615082,-7.630539c-1.7099,-1.239395 -4.564606,-1.540833 -5.825287,-3.155396q-1.717194,0.730255 -2.26059,-0.636429c-2.006989,0.46225 -3.666168,-0.690018 -5.636963,-1.192474c-2.680786,-0.884308 -5.426727,-1.205887 -8.201782,-1.674835c-1.96347,-0.589539 -3.376312,0.381882 -5.477539,0.442169c-2.296753,0.066971 -4.629791,1.534134 -6.861389,1.105377q-0.485413,1.359955 -2.115631,0.623032c-1.094055,2.009811 -2.492432,-0.308167 -3.637207,1.668137c-1.050629,-0.308182 -2.064941,-0.133972 -3.101074,0.127304c-2.927155,0.743607 -5.876038,1.413559 -8.824951,2.096893c-2.883636,0.455551 -5.933899,0.140671 -8.861053,0.187576q-0.137665,-1.339859 0.188324,-2.43187c5.209473,-4.120071 11.46228,-7.563553 17.381775,-10.759094c0.796967,-0.509171 1.898285,-0.978119 2.238861,-1.862427c4.260315,-0.790527 8.426422,-3.008011 12.940308,-3.195602c1.449097,-0.033478 2.796722,-0.348328 4.195099,-0.643112c6.672974,-0.221085 13.440155,0.187576 20.098724,-0.194275l0.6521,0.7771c2.34024,0.174194 4.65152,-0.281342 6.846954,0.381882c1.927246,0.495758 4.071899,0.375137 6.042633,0.180878c0.507202,1.848999 4.658813,-0.281387 5.513733,1.480545c1.398376,-0.006683 1.992523,-0.656509 2.789459,0.850815l0.934723,-0.294739c1.0578,0.502411 3.550232,1.058456 3.774811,2.237534c2.173645,-0.877579 1.927246,2.023239 4.108154,1.735153c1.978058,3.182159 5.079071,5.801605 7.151215,8.997192l-0.173859,0.750305c1.43454,0.221069 1.869293,1.983002 2.731537,2.954407c0.695496,1.266159 2.579407,2.693115 2.383728,4.160278c1.217224,0.696716 1.76062,2.003113 2.369263,3.141983c1.586731,3.175476 3.4198,6.250458 4.999329,9.432648c0.630371,1.768616 1.543274,3.396576 2.398193,5.078079c0.311584,0.971405 1.1521,2.190689 0.608582,3.175507c2.325806,1.085266 0.876709,5.292435 2.485168,6.779694c-0.398499,2.344757 0.014526,4.522049 0.557983,6.793121c0.057922,2.81369 0.217346,5.748032 -0.115967,8.534927c1.652039,0.743637 0.405701,1.862411 0.297058,3.095108c-0.391174,2.565826 0.246277,5.078094 -0.615906,7.630493c-0.753418,5.593964 -2.427124,10.986923 -5.267334,15.984619c-0.557861,0.958008 -0.854919,2.123688 -2.130127,2.451965c0.434692,1.782013 -2.195435,3.510437 -3.086609,4.997665c-1.999695,2.941025 -4.789185,5.124969 -6.919312,7.945435c-3.16626,3.275955 -7.165741,6.022659 -9.846588,9.653702c-1.644653,1.802124 -3.716827,3.121841 -5.086212,5.165176c-0.702789,1.158997 -2.557617,2.063416 -2.579376,3.430023q-0.702789,0.522583 -1.492554,0.911133c-0.065186,0.884338 -0.470917,1.654724 -0.659302,2.505585c0.383942,1.219208 1.622955,2.116974 1.456329,3.369751l0.586853,0.288055c3.905273,4.723022 7.585876,9.774323 10.730438,14.946198q-0.036224,0.683319 0.021698,1.380035q0.695587,1.004913 1.463593,1.969635q-0.065155,0.998169 -0.217346,1.989685l0.811493,0.730225c0.775269,4.361237 2.405487,8.561768 3.166229,12.929718c0.289856,1.105377 0.412994,2.505524 1.181,3.409943c-0.007263,3.081665 1.318665,6.297394 1.354919,9.432648c0.137634,0.978119 -0.340515,1.681519 0.847656,2.18396c-0.615845,3.148712 1.086792,5.989227 0.608643,9.245117c0.847717,2.780151 0.6521,5.265656 0.739075,8.106201c1.122986,3.68457 0.637634,7.797943 0.507141,11.589752c1.238953,0.53598 0.768005,1.272858 0.862183,2.304565c-0.268066,3.785095 1.173767,7.53006 1.499817,11.301819l0.731812,0.676636c-0.231873,1.386688 -0.260803,2.793549 0.188416,4.153534c0.73175,2.029877 0.260803,4.414856 0.398438,6.572083q-0.108643,0.663208 0.869446,1.011566c-0.63031,2.291168 0.710022,4.924011 2.036011,6.806488c2.615601,4.501984 6.46283,7.824829 9.984192,11.965027c1.492493,-0.401978 2.774902,1.969604 3.883545,2.66629c4.629761,3.296143 9.071289,6.779755 13.679382,10.089203c1.869263,1.420258 3.47052,3.40329 4.129822,5.567169c0.318726,3.168793 -0.036194,6.391113 0.130371,9.56665c0.195679,1.473877 0.760681,2.853912 0.775269,4.361237c-1.195496,0.7771 -0.688354,1.815491 -0.818726,2.994598c0.108704,14.37677 -0.094238,28.787048 0.10144,43.163727q-0.405762,0.529236 -0.811462,1.065186c0.02887,1.668121 -0.065247,3.369751 0.159363,5.031189c-1.434509,0.636444 -0.768066,2.914215 -0.70282,4.046387c-1.449097,0.562744 -0.811462,2.250946 -0.644775,3.32959l-0.695496,0.408691c-0.514465,2.445221 -1.318726,4.830109 -1.695557,7.295563c-0.311523,1.420258 -0.970825,2.559082 -0.507141,4.059753c-1.543335,0.649841 -0.717346,3.27594 -0.75354,4.602478l-0.796936,0.669891c-0.072449,4.923981 0.094116,9.861389 -0.036255,14.778717c-0.492737,1.768677 -0.710022,3.503723 -1.028931,5.305847c-1.202698,3.148743 -1.854736,6.243774 -4.238464,8.883301c-1.260681,1.889221 -3.477844,2.050049 -5.02124,3.470276c-1.267822,-0.12738 -2.69519,-0.582886 -3.52124,0.602966c-2.760498,-0.180908 -5.542664,-0.020081 -8.317688,-0.093811q-0.601318,0.375122 -1.173706,0.783813l-0.956421,-0.093811c-4.890686,0.616333 -9.868225,2.143799 -14.845825,1.989746l-0.833252,-0.837463q-1.05777,0.187561 -2.166382,0.194336c-1.405609,-0.777161 -2.506866,-1.721741 -3.21698,-3.115234c-0.05072,-1.828979 0.02179,-3.631042 0.528992,-5.406372c0.441956,-3.450134 0.978088,-6.913696 1.601166,-10.330322c0.210175,-1.286255 -0.586853,-2.311218 0.869476,-3.115173c-0.224609,-2.036621 -0.239105,-4.334473 -0.05072,-6.371094c1.209961,-3.785156 0.369507,-8.045837 0.637604,-11.978333c0.42749,-3.892365 -1.470795,-7.134857 -0.536163,-11.04718c-2.28952,-0.931274 0.514435,-3.724915 -1.78241,-4.662811c0.572449,-1.728394 -0.144836,-3.329529 -0.514374,-5.017792c-1.217224,-5.513519 -1.825867,-11.174438 -2.825745,-16.761688c-0.210083,-1.326477 0.666565,-2.297882 -0.941895,-3.054932c0.90567,-3.081635 -0.724518,-5.346008 -0.557892,-8.427673c-0.079681,-2.458679 -1.70993,-5.151794 -1.188232,-7.543518l-0.463715,-0.48233c-1.23172,-4.240631 -2.586609,-8.40094 -3.970459,-12.587982c-2.101135,-1.292969 -4.383484,-1.607849 -6.803406,-2.063416c-1.521576,-0.254608 -2.956177,-0.730225 -4.52121,-0.509155q-0.572357,-0.395264 -1.159241,-0.770416c-1.420135,0.033508 -2.593903,-0.060303 -3.905304,-0.569427c-1.847565,-0.70343 -3.840027,-0.837433 -5.680389,-1.527496c-4.17334,-1.889191 -8.759705,-2.485413 -12.867859,-4.555481c-1.775085,-0.83075 -5.260132,-1.346588 -6.107819,-3.188873c-1.98526,0.33493 -3.832886,-1.989716 -5.057343,-3.148743l-1.231659,0.033478c-0.384064,-0.978027 -1.543304,-1.66806 -2.26059,-2.458618c-1.065094,-0.984772 -1.717224,-2.358154 -2.905426,-3.195618c1.065063,2.009827 1.441803,4.200531 2.601074,6.17688c2.390991,4.327698 4.868988,8.575043 6.701996,13.137329q0.195679,1.38678 -0.079651,2.860626c1.260681,0.602905 1.195496,2.083496 0.021759,2.713165c0.485413,2.874084 -0.130493,5.540375 -0.760803,8.327271q-0.072449,0.723572 -0.717316,1.138916l0.210175,0.957977c-0.862244,4.019623 -1.709991,7.99231 -2.746063,11.978424c-0.195587,1.661407 -1.217224,3.456818 -0.666565,5.058014q-0.985382,0.636444 -0.95639,1.66806c-1.825897,9.003906 -5.767395,17.069916 -9.933502,25.296692l-1.086823,0.120605l0.405731,1.152252c-1.282379,1.822205 -2.253326,3.564026 -2.985077,5.634155c-3.187958,6.464844 -6.035431,13.003326 -8.267029,19.816589c-1.565002,4.006195 -2.724274,8.903412 -5.571655,12.30661c-0.941956,1.259521 -3.01413,1.31311 -3.934265,2.472107c-1.101349,-0.026855 -3.832855,-0.770508 -4.260315,0.643127c-2.56485,-0.328308 -5.223999,0.087097 -7.796112,-0.247925l-0.746216,0.777222c-2.354767,0.066956 -4.72406,-0.033569 -7.078796,-0.040222l-0.695587,0.917786c-1.782349,-0.381958 -3.731354,-0.274719 -5.542725,-0.107239c-0.717346,-1.326416 -3.195251,-0.750244 -4.390717,-0.542603c-1.115784,-1.219299 -2.847443,-1.768555 -3.876282,-3.188843c0.043488,-2.344788 -0.384033,-4.455017 0.710022,-6.578735c0.304291,-0.957947 0.999878,-1.634705 0.485443,-2.619446q1.014404,-0.750366 1.680939,-1.849091q-0.036194,-0.716827 -0.079681,-1.433594q0.724548,-1.011566 1.593933,-1.902588c0.420258,-4.314392 2.94165,-8.936981 2.586639,-13.351746c0.898407,-0.931244 1.021637,-2.204071 0.623077,-3.363098c1.391174,-1.246094 1.311432,-4.160278 1.789673,-5.875275c1.362122,-3.858856 2.362,-7.91861 3.361877,-11.87793l-0.347809,-0.917786c2.231598,-0.455566 0.782501,-4.267517 2.601135,-5.078156c-0.362305,-1.058411 0.398468,-2.163818 0.746246,-3.175446c1.050598,-2.451904 1.528839,-4.997681 2.137421,-7.556854l0.75354,-0.415314c-0.318787,-1.105408 -0.797028,-2.083496 0.623077,-2.639526c-0.072449,-1.105408 -0.789764,-2.820465 0.710022,-3.369812c-0.615814,-2.411682 1.123047,-4.508575 0.507233,-7.06778q0.412994,-0.549316 0.818726,-1.091949c-0.079681,-1.286255 -0.181122,-2.64624 0.05072,-3.919098c-1.398346,-1.326508 -0.70282,-3.979431 -1.825867,-5.667694c-0.796967,-2.532318 -3.376343,-2.57251 -4.637085,-4.702942c-0.927368,-1.386688 -2.275024,-2.331329 -3.311127,-3.637665c-2.84024,-3.771759 -6.071655,-7.221893 -8.730713,-11.107452c-3.086578,-4.113434 -5.854309,-8.434448 -8.72348,-12.675171c-0.63031,-0.830688 -1.217194,-1.527466 -1.13028,-2.599365q-0.811462,-0.361755 -1.492554,-0.870911q-0.485413,-1.192444 -0.666534,-2.431824c-1.18103,-0.589539 -2.41275,-2.023163 -2.043243,-3.322876c-1.543274,-0.428741 -2.159149,-2.699829 -2.912659,-3.88562c-2.702515,-4.776581 -4.92688,-9.693939 -5.948517,-15.02655l-0.652069,-0.415344c0.173889,-1.098694 0.731812,-2.706573 -0.659363,-3.336273c0.115967,-1.23938 0.637604,-3.215729 -0.673798,-4.073212c0.188385,-2.773529 0.173859,-5.801636 0.021759,-8.581818c1.470795,-1.40686 0.072418,-3.59082 1.572235,-5.004425q-1.086823,-0.837402 -2.072174,-1.79538c-1.659241,1.333099 -4.064667,1.580994 -5.948517,2.673035l-1.065063,-0.060333c-0.159393,0.958038 -1.347687,1.065247 -2.151917,1.413574c-3.521271,1.071838 -6.78891,2.659637 -10.368134,3.584167c-3.064789,1.447052 -6.441193,1.96286 -9.542206,3.309479c-7.66568,2.51889 -15.142944,5.60733 -22.547729,8.71579c-3.803864,1.23941 -7.093262,3.409943 -10.933319,4.589081c-3.847321,1.701569 -7.680145,3.383118 -11.208649,5.620667c1.521515,2.110291 2.093933,4.883789 2.151855,7.382629c-0.028961,1.60788 0.746307,3.048279 0.717285,4.649353c-0.028961,9.151276 -0.007172,18.356201 -0.007172,27.49408c-0.02179,1.614471 -0.826019,3.034729 -0.717377,4.676086c-0.173859,1.339905 0.717377,2.271057 -0.927368,3.028107c0.724548,1.77533 -0.333313,3.88562 -0.637604,5.694427c-0.557922,2.927582 -1.144806,5.861877 -1.463593,8.823029c-0.289764,1.440308 -0.825928,2.659576 -0.391235,4.146881c-0.876709,0.669891 -0.666565,1.467133 -0.840515,2.405029c-0.181122,2.023224 -1.115784,3.610962 -0.557861,5.694427c-1.528748,0.663269 -0.521698,3.195557 -0.927429,4.468475c-1.00705,3.007965 -0.615814,6.417938 -0.536133,9.539856c-1.311432,1.313049 -0.470917,3.604187 -1.014343,5.279053c-0.782532,2.619385 -0.550659,5.520233 -0.347839,8.206696c-1.181,0.562653 -0.775238,1.286224 -0.869415,2.311218c0.086914,4.562256 -0.079712,9.131226 0.10144,13.686737q-0.405731,0.562714 -0.811493,1.118774c0.137634,3.222321 -0.173889,6.47821 0.166626,9.687195q-0.905701,0.442169 -0.840454,1.098724c-0.028961,2.297882 -0.137634,4.629272 0.130432,6.920471q-0.927368,0.415283 -0.862213,1.105286c-0.021698,1.299683 -0.195648,2.820374 0.384033,4.039734c-2.101196,0.636475 -0.920197,1.199158 -0.898499,2.699829c-1.260712,0.723511 -1.398346,2.358093 -2.448883,3.34967c-2.072235,2.204041 -5.484772,3.42334 -8.382965,4.401428c-1.420044,0.388611 -3.122772,1.239441 -4.593567,0.857544l-0.456451,0.55603c-1.920029,0.227722 -3.738617,0.616333 -5.636917,0.864197c-6.368774,0.046936 -12.744736,-0.07373 -19.113434,0.046936q-0.644852,-0.442261 -1.296967,-0.877625q-0.608582,0.421997 -1.217239,0.864197c-1.420059,-0.033508 -2.832932,-0.013428 -4.253052,0.006714c-0.760757,-0.958069 -1.717087,-2.204102 -1.651917,-3.443481c-0.46373,-5.191956 1.666428,-10.759094 2.180878,-15.776917l0.782455,-0.757019c-0.014435,-1.299622 -0.90567,-2.64624 0.782516,-3.289337c-0.543396,-1.587708 0.260834,-2.780243 0.456482,-4.314362c0.210098,-2.726654 1.354889,-5.245605 1.738861,-7.958801c0.485489,-3.03479 1.637482,-5.895447 1.978043,-8.93689c1.173752,-4.448395 0.32605,-9.305389 0.572372,-13.867615l0.8405,-0.904449q-1.123093,-0.870911 -0.710098,-1.956207c0.507202,-1.788696 -0.043457,-4.026306 0.724548,-5.654236c-1.04335,-1.822144 0.144913,-4.408112 -0.543411,-6.511658l0.985428,-0.891052c-1.876602,-0.234467 -0.768082,-0.730316 -0.311615,-1.728455l-1.115768,-0.790497q0.557907,-0.401947 1.108566,-0.797241l-1.456329,-0.522491l1.238922,-0.750366c-0.065155,-7.101288 -0.036209,-14.182495 -0.043472,-21.283722q-0.181122,-0.891022 0.826004,-1.426971q-0.246307,-0.750336 -1.38385,-0.589569l1.311417,-0.9245c0,-2.545715 0.166641,-5.017822 -0.673813,-7.489838c-0.521713,-2.317963 0.782455,-6.036133 -0.883972,-7.905212c0.485428,-2.070068 -0.637619,-4.448364 -0.949158,-6.525085c-0.543411,-3.711517 -1.7099,-6.759644 -0.825989,-10.558197c1.137527,-3.369751 -0.224609,-6.813202 0.963654,-10.249939c0.289856,-2.619446 0.80423,-6.056183 -1.014374,-8.273682c-2.586563,1.614532 -2.006943,4.461792 -2.528656,6.92041c-0.847687,2.987915 -0.39122,5.794922 -0.485413,8.997162c-0.079697,10.792664 0.137665,21.598633 -0.115891,32.384613l1.101242,0.763672c-0.557846,2.639526 -0.470901,5.721222 0.304291,8.327209c0.275345,1.949554 -0.094116,3.858826 0.514465,5.794983c0.659363,2.157196 0.021759,4.280823 0.528885,6.411224c0.985428,3.168732 0.260895,6.75296 0.543411,10.062439q-0.405746,0.529205 -0.811478,1.058411c-0.007202,2.706604 0.37677,5.687714 -0.369461,8.30722c-0.470993,2.224182 -0.079758,4.408173 -0.869476,6.60553c0.079681,3.430023 -1.470856,6.21698 -0.666565,9.667053l-0.912933,0.770508c-0.043472,2.190704 0.32605,4.635925 -0.304352,6.739471c-0.753494,2.364838 -0.072433,4.609161 -0.470917,6.947235c-1.115768,3.443451 -0.39122,7.409424 -0.56517,11.006958l-0.934631,0.70343q0.246384,0.696808 0.210159,1.380035c-0.717361,1.400208 -2.231613,1.748596 -3.13002,2.987915c-1.883804,-0.140625 -3.774826,0.964783 -5.665939,1.112122c-1.601196,0.107178 -3.158997,0.046814 -4.723969,0.4422c-2.753265,0.716797 -5.709412,-0.067078 -8.382965,0.502319c-2.608398,0.683411 -5.521011,0.51593 -8.19458,0.321594l-0.710022,0.730225c-4.035721,0.288147 -7.883026,0.100525 -11.498489,-1.748474c-0.731812,-1.447021 -1.123016,-2.760132 -0.811478,-4.367981q-0.586884,-0.509094 -1.159241,-1.03833q0.565109,-0.475708 1.137466,-0.944641c-0.115906,-2.123688 -0.268082,-4.166962 0.362274,-6.243774c0.253632,-1.795441 1.231735,-3.738251 0.949142,-5.540314c0.949142,-0.971436 0.528961,-2.820465 1.594009,-3.678009c-0.463715,-2.438507 1.123016,-5.165131 1.231735,-7.670654c0.231857,-1.138916 -0.434769,-2.45871 0.862213,-3.095123c-0.26088,-2.766785 -0.326065,-5.520233 0.528885,-8.206665c0.152176,-7.831512 0.028961,-15.723297 0.05072,-23.561554c-1.028824,-3.845428 -0.753494,-7.704163 -0.594116,-11.630005q-0.775269,-0.810638 -0.753494,-1.741791c0.108643,-3.389862 -1.398361,-6.277252 -0.630356,-9.727448c-1.347641,-0.663269 -0.702835,-1.822174 -0.847763,-3.008026c0.152176,-1.77533 -0.188339,-3.396515 -0.623093,-5.111542q-0.702774,-0.16745 -1.391098,-0.375214c-0.492691,-0.964691 -1.289642,-1.681519 -0.420258,-2.713165c-2.0504,-0.656555 -1.028839,-1.105438 -0.85495,-2.585938l-1.007065,-0.676636c-0.007248,-1.949493 0.318802,-4.146851 -0.297104,-6.009338c-0.608566,-1.855743 -0.311539,-4.039612 -0.355011,-5.982483c0.072495,-2.545715 -0.188385,-5.145111 0.152176,-7.677399c-1.637482,-0.569489 -0.681076,-3.892365 -0.739059,-5.158478c-1.369385,-0.716827 -0.608566,-2.043335 -0.862198,-3.27597c-0.695526,-3.336304 -0.891174,-6.652405 -1.840317,-9.961884c-0.355026,-0.951294 0.152176,-2.793671 -1.181015,-3.054932c0.289856,-1.132172 0.75351,-2.083496 -0.644852,-2.679718c0.847763,-2.679749 -1.7099,-5.721222 -1.238937,-8.434448q-0.369522,-0.482391 -0.536194,-1.09198c-1.253448,-4.421509 -2.81842,-8.742645 -3.912506,-13.197662c-0.420258,-1.594482 -1.557785,-3.141998 -1.072311,-4.769928c-1.449066,-0.951324 -1.23172,-3.296082 -1.898346,-4.749817c-2.260559,-6.444794 -3.803787,-13.003387 -5.26738,-19.629028c-0.260818,-1.353271 0.630341,-2.33139 -1.021576,-3.081665c0.681061,-1.648102 -0.101456,-3.436737 -0.536209,-5.058014c-1.717163,-6.873474 -4.637039,-14.202606 -9.556732,-19.689331c-1.412796,-1.601135 -2.34024,-3.972687 -4.013931,-5.272369c0.123215,-1.668121 -1.217239,-3.403229 -1.804108,-4.944061c-1.325851,-2.853912 -0.652039,-5.466675 -0.912857,-8.488068q0.405731,-0.556061 0.811478,-1.112061c-0.456467,-2.652954 1.905487,-5.225494 1.173752,-7.69751l0.710022,-0.455597c0.499939,-2.967804 1.775085,-5.660919 2.717041,-8.514832c1.007065,-4.54213 3.296661,-8.883301 5.571732,-12.996719c3.709656,-5.815002 8.382904,-10.437531 10.694199,-16.989471c2.159103,-5.60733 3.760376,-11.241455 3.072037,-17.24408l1.108582,-0.763687c-0.637589,-2.197388 -0.13765,-4.723022 -0.311539,-7.000809c-0.23912,-3.396545 1.550476,-6.987396 1.304169,-10.296844c0.927368,-0.978119 1.057846,-2.612747 1.354889,-3.852097c0.260818,-2.740051 1.376648,-4.843628 0.768005,-7.610443l0.796967,-0.676666c0.079758,-2.525635 0.159439,-5.131668 -0.072418,-7.650604c-1.137543,-2.733353 -2.999619,-5.600632 -5.086319,-7.804718l-1.108521,0.254578c-0.32605,-1.768646 -2.644592,-1.507324 -4.042953,-2.157196c-2.332993,-0.951294 -4.984848,-0.576111 -7.549713,-0.656525c-4.970337,-0.241165 -9.976913,3.255859 -14.853058,2.52565l-0.855011,0.723526c-2.615585,0.100494 -5.318115,0.107193 -7.933701,0.006683c-0.782516,-0.12056 -1.376648,-0.556046 -1.920059,-1.065155l-0.398483,1.132156c-2.390968,-0.040192 -4.781952,0.040222 -7.165672,-0.033493q-0.797035,-0.154068 -1.383911,-0.891006l2.745987,0.207687c1.796906,0.147369 3.535774,0.234482 5.274712,-0.288086c2.919876,-0.77713 6.028122,0.013397 9.078476,-0.495743c6.158615,-0.911102 11.541946,-3.42334 18.128006,-3.121887c5.694885,-0.174194 11.302841,0.395264 16.18631,3.322861c3.67337,1.748535 5.564468,6.096405 6.535324,9.593445c0.681076,3.229065 3.419815,7.657303 2.659058,10.893112l0.934708,-0.24118c0.804214,-2.023209 0.949066,-4.079895 1.912735,-6.042816c1.354889,-2.780197 3.093811,-5.33934 4.209579,-8.226746c1.818619,-4.053101 2.680771,-8.166473 4.934143,-12.025299c1.24617,-2.364853 2.95607,-4.388046 4.521133,-6.565338c2.847427,-4.280869 5.564468,-8.595245 8.33223,-12.91629c0.920197,-2.291168 1.847565,-4.609146 2.680832,-6.927109c0.724533,-3.791824 1.680939,-7.302261 0.825912,-11.107475c-0.507126,-1.942818 -0.369461,-3.939194 -0.796967,-5.882004c-1.224472,-4.099998 -1.021576,-8.119598 -2.789459,-12.159294c-1.905548,3.021416 -4.100952,6.38446 -7.13678,8.528244c-2.695267,2.01651 -6.231033,3.342972 -9.33931,4.810127c-2.782257,1.132179 -5.941254,2.478729 -9.027756,2.472038c-3.173508,0.040192 -6.122391,0.187599 -9.035065,-1.172379c-2.80397,-1.011581 -5.354324,-3.168762 -8.382904,-2.820419c-4.253067,0.087105 -7.122269,2.713242 -10.549332,4.810127c-3.115585,2.472061 -6.499191,4.455055 -10.382721,5.734634c-4.18782,0.978065 -8.245239,2.30455 -12.476578,3.135292c-8.201767,1.835609 -16.20076,4.716293 -24.525742,6.062881c-1.564987,0.328247 -3.006813,0.696716 -4.629776,0.50914c-2.035957,2.224167 -5.325432,3.57077 -8.390221,3.95929c-12.020126,0.12059 -24.054756,-0.087097 -36.067623,0.087067c5.651417,6.284012 8.114822,14.289688 14.541508,19.488373c1.224487,1.09198 2.615585,1.976288 4.064667,2.800308c3.883537,0.006699 4.673317,-2.699829 7.419312,-4.481842c2.615578,-1.078613 5.948517,-1.976318 8.759674,-1.065201c6.23111,1.440353 9.737854,5.694427 16.439873,6.143265c5.354385,0.120621 11.136208,-2.063385 16.070335,-3.771713c3.311172,-0.736908 6.158615,-2.324646 9.317612,-3.45015c4.666061,-2.110275 9.266876,-4.207169 13.628571,-6.839996c2.260574,-1.467163 4.673309,-2.726624 7.049835,-4.03299c4.687759,-1.96962 9.513184,-3.69133 14.121323,-5.828415c1.492569,-0.53595 3.36908,-0.294785 4.948593,-0.328278c-1.507004,2.291168 -4.499374,2.947723 -6.999069,3.945938c-6.173126,2.465317 -12.078094,5.433105 -17.63533,8.943542c-6.578857,3.242508 -13.353287,6.431366 -20.468307,8.534958c-6.919365,2.552429 -14.693695,4.555557 -22.207191,4.079895c-5.607948,-0.448853 -10.187057,-2.699844 -14.853119,-5.419754c-1.891037,-1.225983 -4.108139,0.361771 -5.42675,1.621231c-1.405617,1.48056 -3.644478,2.230896 -4.81823,3.83873c1.88385,-0.080414 3.796593,0.971405 5.658676,1.219269c4.129837,0.267944 8.339493,-0.207672 12.45488,0.194275l1.238937,0.750336c-0.956413,0.227768 -1.8983,0.46225 -2.898178,0.448837c-4.325485,0.006714 -8.665489,-0.113892 -12.990974,0.073715l-0.666618,-1.132217c-1.608452,0.958008 -3.673447,-0.046906 -5.267387,-0.576111c-1.065102,-0.482361 -2.579361,-0.877594 -3.267693,-1.815536c-1.057854,0.026794 -3.057602,0.830719 -3.340126,-0.636429q-1.347702,-0.254593 -2.702591,-0.415359c-0.210091,-0.911102 -1.188194,-1.192474 -1.898224,-1.735138c-1.999752,-1.165665 -2.890915,-2.860611 -4.369022,-4.488556q-0.623096,-0.643112 -0.833187,-1.567612q-0.688324,-0.509171 -1.463593,-0.877609c-0.014515,-0.891037 -0.347763,-1.681534 -0.67382,-2.498871q-0.688328,-0.482346 -1.449081,-0.790527c0.079681,-2.070099 -2.224358,-4.093262 -3.122776,-5.955688c-3.470604,-5.031174 -8.346752,-9.874771 -10.766685,-15.395042c-1.108582,-2.250954 -1.144798,-4.930702 -0.58688,-7.315659c1.043346,-2.565834 3.651672,-3.229073 6.093376,-4.307671c1.362141,-0.455559 3.296654,-1.366661 4.709526,-0.7369c0.239117,-1.025017 1.463596,-0.931206 2.347507,-1.279587q1.434574,-0.448853 2.557667,0.033501c0.992615,-2.016518 1.470787,-0.060303 2.680756,-1.68824c2.419994,0.31488 4.963158,-1.152275 7.296143,-1.701637c7.556976,-2.003075 14.766182,-3.919083 22.185425,-6.377754c2.999619,-1.172379 5.586243,-2.813713 8.687317,-3.765015c1.115768,-0.247879 2.615578,-1.567627 3.7024,-0.944603q0.536148,-1.319756 2.173622,-0.736931c0.811478,-1.205887 2.898102,-1.292953 4.216782,-1.936081c3.601006,-1.614563 7.34687,-3.369766 10.607315,-5.506851c1.601265,-1.40686 4.492104,-2.981224 4.608078,-5.198685l1.318672,0.133972c-0.97818,-1.614532 -0.623085,-3.49704 -0.579628,-5.285744q-0.384026,-0.522552 -0.775261,-1.051811c0.32605,-3.952591 -2.086685,-8.112862 -4.955902,-10.926613c-0.19558,-1.855705 0.202904,-3.309425 0.710098,-5.064667c1.441826,-0.636425 1.999748,-2.518932 3.296654,-3.456837c1.01432,-1.179081 3.093758,-1.715038 3.738602,-3.054893c1.492561,0.087074 2.405495,-0.904434 3.847328,-1.306385c1.738861,-0.683327 3.49231,-0.790531 5.354385,-0.636425q0.710037,-0.026802 1.13028,0.777096c1.941772,-0.502419 4.006699,0.98481 5.89772,1.500664l0.347824,0.783825c0.507126,-1.252777 2.180832,-1.105404 3.376343,-1.761932c3.347382,-1.58773 6.730972,-3.108494 10.10733,-4.656021c1.731659,-0.770432 4.463196,-1.192482 5.658661,-2.639538c1.680954,-0.040203 3.354645,-0.984806 4.897919,-1.540833c5.694885,-1.842304 11.302841,-3.644447 17.338287,-4.280872c2.535843,-0.489056 4.934067,-0.937901 7.535217,-0.42205l0.796951,-0.884335c2.485184,-0.147373 5.789093,0.616356 7.969971,-0.609623z"/>
   <path id="svg_3" fill="#aa7e22" d="m178.056381,52.035645c1.702637,0.408646 3.4198,1.071877 4.818161,2.070084c0.934631,0.924503 1.217224,2.284462 2.253296,3.182194c1.724426,1.594429 3.130051,3.409939 4.687775,5.13168q-0.021713,1.299644 -0.036224,2.599335c-2.2388,1.500626 -5.310852,2.545738 -8.085861,2.130386c-2.296783,-0.616364 -4.948578,-1.721741 -5.839798,-3.945892c-1.014328,-1.614567 -0.608582,-3.945927 -1.905502,-5.31258c1.304169,-1.025013 0.833176,-2.20409 1.036102,-3.604248c0.818726,-0.884304 1.811356,-1.929379 3.072052,-2.250957z"/>
   <path id="svg_4" fill="#aa7e22" d="m133.576767,53.965057c2.535889,0.46225 4.832672,1.875805 7.462769,2.271053c0,1.916012 -0.876709,3.657852 -0.78978,5.573826c0.391296,2.85392 -1.717163,6.625641 -4.94133,7.221893c-2.514191,0.227776 -5.064606,0.046898 -7.585983,0.133972c-1.405617,-0.837402 -2.615585,-1.808807 -3.760384,-2.940979c-0.014442,-1.741837 -0.275261,-3.262573 0.898422,-4.756531c2.057732,-3.443478 5.289146,-5.352749 8.716286,-7.503235z"/>
   <path id="svg_5" fill="#fafbf7" d="m132.54068,78.129494q0.673798,0.978111 1.246185,2.016518q-0.956406,0.723534 -1.891052,1.473831q-1.311417,-0.066971 -2.630081,-0.127274c0.108704,-1.259483 -0.231873,-2.33136 0.78978,-3.329575c0.811478,-0.120567 1.666428,-0.080406 2.485168,-0.033501z"/>
   <path id="svg_6" fill="#fafbf7" d="m179.708298,78.973633c0.586868,2.512238 0.231857,5.734596 -1.688141,7.704216c-2.093948,0.70343 -5.296402,-1.158989 -7.578735,-1.286293c0.079681,-1.828903 -0.217346,-3.664513 1.941772,-4.542114c2.32579,-0.750328 4.832672,-1.969612 7.325104,-1.875809z"/>
   <path id="svg_9" fill="#aa7e22" d="m205.052765,99.781708c1.767883,4.039696 1.564987,8.059296 2.789459,12.159294c0.427505,1.94281 0.289841,3.939186 0.796967,5.882004c0.855026,3.805214 -0.101379,7.315651 -0.825912,11.107475c-0.833267,2.317963 -1.760635,4.635941 -2.680832,6.927109c-2.767761,4.321045 -5.484802,8.635422 -8.33223,12.91629c-1.565063,2.177292 -3.274963,4.200485 -4.521133,6.565338c-2.253372,3.858826 -3.115524,7.972198 -4.934143,12.025299c-1.115768,2.887405 -2.854691,5.446548 -4.209579,8.226746c-0.963669,1.962921 -1.108521,4.019608 -1.912735,6.042816l-0.934708,0.24118c0.760757,-3.235809 -1.977982,-7.664047 -2.659058,-10.893112c-0.970856,-3.49704 -2.861954,-7.84491 -6.535324,-9.593445c-4.883469,-2.927597 -10.491425,-3.497055 -16.18631,-3.322861c-6.58606,-0.301453 -11.969391,2.210785 -18.128006,3.121887c-3.050354,0.50914 -6.1586,-0.281387 -9.078476,0.495743c-1.738937,0.522568 -3.477806,0.435455 -5.274712,0.288086c-1.217216,-0.174179 -2.521385,-0.576157 -3.745865,-0.448853c-3.311165,-0.334976 -6.803467,-0.107208 -10.143593,-0.174164c-1.666435,0.006653 -3.282143,-0.127319 -4.8834,0.241165l-0.427452,0.174164c-1.325928,0.750336 -3.282135,0.321548 -4.810966,0.475662l-1.238937,-0.750336c-4.115387,-0.401947 -8.325043,0.073669 -12.45488,-0.194275c-1.862083,-0.247864 -3.774826,-1.299683 -5.658676,-1.219269c1.173752,-1.607834 3.412613,-2.35817 4.81823,-3.83873c1.318611,-1.25946 3.535713,-2.847214 5.42675,-1.621231c4.666061,2.71991 9.245171,4.970901 14.853119,5.419754c7.513496,0.475662 15.287827,-1.527466 22.207191,-4.079895c7.115021,-2.103592 13.88945,-5.29245 20.468307,-8.534958c5.557236,-3.510437 11.462204,-6.478226 17.63533,-8.943542c2.499695,-0.998215 5.492065,-1.65477 6.999069,-3.945938c-1.579514,0.033493 -3.456024,-0.207672 -4.948593,0.328278c-4.608139,2.137085 -9.433563,3.858795 -14.121323,5.828415c-2.376526,1.306366 -4.789261,2.565826 -7.049835,4.03299c-4.361694,2.632828 -8.962509,4.729721 -13.628571,6.839996c-3.158997,1.125504 -6.006439,2.713242 -9.317612,3.45015c-4.934128,1.708328 -10.71595,3.892334 -16.070335,3.771713c-6.702019,-0.448837 -10.208763,-4.702911 -16.439873,-6.143265c-2.811157,-0.911118 -6.144096,-0.013412 -8.759674,1.065201c-2.745995,1.782013 -3.535774,4.488541 -7.419312,4.481842c-1.449081,-0.82402 -2.840179,-1.708328 -4.064667,-2.800308c-6.426685,-5.198685 -8.890091,-13.204361 -14.541508,-19.488373c12.012867,-0.174164 24.047497,0.033524 36.067623,-0.087067c3.064789,-0.388519 6.354263,-1.735123 8.390221,-3.95929c1.622963,0.187576 3.064789,-0.180893 4.629776,-0.50914c8.324982,-1.346588 16.323975,-4.227272 24.525742,-6.062881c4.231339,-0.830742 8.288757,-2.157227 12.476578,-3.135292c3.88353,-1.279579 7.267136,-3.262573 10.382721,-5.734634c3.427063,-2.096886 6.296265,-4.723022 10.549332,-4.810127c3.02858,-0.348343 5.578934,1.808838 8.382904,2.820419c2.912674,1.359978 5.861557,1.21257 9.035065,1.172379c3.086502,0.006691 6.245499,-1.339859 9.027756,-2.472038c3.108276,-1.467155 6.644043,-2.793617 9.33931,-4.810127c3.035828,-2.143784 5.231232,-5.506828 7.13678,-8.528244z"/>
   <path id="svg_10" fill="#aa7e22" d="m62.368832,110.802116l0.586872,0.013405l0.289848,0.489052l-0.304291,0.482353l-0.586876,-0.006699l-0.282593,-0.49575l0.297039,-0.482361z"/>
   <path id="svg_11" fill="#1c1407" d="m103.225723,161.76387l0.427452,-0.174164c1.601257,-0.368484 3.216965,-0.234512 4.8834,-0.241165c3.340126,0.066956 6.832428,-0.160812 10.143593,0.174164l0.760757,0.716827l-0.847694,0.334946c-4.992111,0.160767 -10.034889,0.107208 -15.034187,0.053604l-0.333321,-0.864212z"/>
   <path id="svg_12" fill="#aa7e22" d="m246.061783,251.621902c1.601257,1.299652 2.818481,2.659607 3.93425,4.341156c-0.130402,1.89595 0.652115,3.610947 0.695587,5.480026c0.623077,10.846222 -3.941513,22.141327 -8.013428,32.156769c-2.195404,6.960602 -4.470474,14.001617 -7.455597,20.714355c-0.66655,1.393402 -1.593933,3.336273 -3.492233,3.450165c-1.804169,-0.777191 -3.122849,-2.632874 -4.622589,-3.838776c-4.376205,-4.36792 -7.259872,-10.323608 -9.694321,-15.750092c-3.289459,-5.634125 -4.890656,-11.650116 -7.245422,-17.619232c-1.231735,-3.296051 -1.536026,-7.040985 -2.340317,-10.49115c-0.775253,-3.121857 -0.057907,-6.632294 -0.398483,-9.848022c-0.311539,-1.413513 -1.804108,-2.237549 -1.289642,-3.744904c4.56459,-1.420212 9.194443,-2.143784 13.940109,-2.780228c4.39798,-0.468918 8.723465,-1.28624 13.135956,-1.607803c4.231293,-0.817307 8.419189,-0.341644 12.84613,-0.462265z"/>
   <path id="svg_13" fill="#aa7e22" d="m165.52179,254.750534c2.028717,0.770355 3.702408,2.177231 5.738358,2.981125c2.948898,1.199219 4.955841,3.249207 7.194717,5.299164c0,1.246124 0.644852,2.425201 0.673813,3.64447c-1.050613,4.428223 -2.456223,8.856506 -4.629852,12.929688c-1.579498,3.49707 -3.36908,6.880219 -4.492096,10.544739c-2.362015,4.7565 -3.68071,9.807831 -5.694962,14.69162c-2.043152,-3.383179 -2.311295,-7.449677 -4.818176,-10.772552c-2.405487,-3.095032 -4.434189,-6.55191 -5.760117,-10.156128c-0.166626,-4.260773 -0.369537,-8.327271 1.275208,-12.393768c0.949142,-3.014709 3.188019,-4.877075 4.72403,-7.610413c0.710037,-1.359955 2.376465,-2.827148 2.369217,-4.367981c1.724411,-0.75705 2.376541,-3.369781 3.419861,-4.789963z"/>
   <path id="svg_14" fill="#aa7e22" d="m402.874207,333.54126c2.847473,-0.723572 4.934143,0.736908 7.796112,0.529205c5.245667,-0.288055 10.918793,0.623047 14.853058,4.093323c4.32547,3.778412 5.984711,10.283478 9.346619,14.78537c4.231293,5.392975 6.912079,11.328613 10.295715,17.290985c3.550262,5.332672 7.535278,10.323608 11.983887,15.046692c1.767883,1.768616 3.970459,2.974518 5.83255,4.649323c3.919769,3.416626 8.317719,6.203583 12.875092,8.843048c2.811218,1.540863 5.441315,3.209106 8.593109,4.146942c4.992065,1.77533 10.150787,2.559143 15.425415,3.235779c4.731293,1.065186 9.498718,2.224152 14.338654,2.753387c2.999634,0.770508 5.803589,-0.053589 8.730835,-0.79718c2.376465,-0.589569 3.24585,-2.599365 3.789307,-4.609192c0.036194,-3.845337 0.10144,-7.610352 0.115845,-11.45578c5.216797,4.716309 11.389771,8.554993 16.939758,12.943115c2.31134,2.043274 3.550354,4.508575 6.361572,6.109772c-0.130493,3.215668 0.123169,6.464813 -0.079773,9.673798c-1.253357,3.825317 -0.369446,8.166473 -0.666443,12.21283c-0.210266,1.353333 -0.782471,2.579224 -0.724609,3.979462c0.079651,11.395569 -0.02179,22.784363 0.057922,34.173218c0.036194,1.842346 -0.565125,3.537201 -0.70282,5.36615c-0.340454,3.724884 -1.825867,7.242035 -2.376404,10.980164c-1.369324,4.749878 -2.651855,9.439423 -2.724243,14.396942c-1.485291,5.573761 0.260803,11.904663 -1.20282,17.485168c-0.681152,2.981262 -1.767944,6.089783 -3.579285,8.655518c-1.651855,2.45874 -4.774658,4.120178 -7.897461,4.200562c-6.781677,-0.107239 -13.635864,1.346497 -20.229187,2.699707c-0.95639,-1.219238 -1.536011,-2.686279 -1.615723,-4.193726c1.209991,-7.576904 2.369232,-15.140442 3.492249,-22.730774c-0.014435,-6.484955 0.02179,-12.990021 -0.021698,-19.474945c-0.999878,-7.657318 -2.745972,-15.106995 -4.057404,-22.717438c-0.717346,-4.696198 -1.333191,-9.385712 -2.217102,-14.055176c-0.021759,-4.187042 -1.159302,-8.139648 -2.014252,-12.219543c-0.420258,-2.773529 -1.159241,-5.392975 -2.202576,-8.019135c-1.181,-2.847198 -1.652008,-5.513489 -3.69516,-7.992249c-0.927429,-1.346619 -2.775024,-1.815552 -4.274811,-2.465393q-1.0578,0.31488 -2.108398,0.636505q0.536133,0.623016 1.094086,1.232666c-2.41275,0.200989 -4.897919,-0.696777 -7.281647,-1.031708c-5.122528,-0.75705 -9.737854,-2.512268 -14.643036,-3.966003c-6.977356,-2.16394 -13.621368,-4.615845 -19.316223,-9.044067c-6.238281,-4.488586 -8.455414,-10.651947 -12.527374,-16.547333c-3.129944,-5.794983 -7.332367,-10.283508 -9.73056,-16.386536c-3.057556,-6.143311 -5.281891,-12.715393 -6.767212,-19.341003c-0.572388,-2.773468 -1.985229,-5.138397 -3.347382,-7.630493c-0.90567,-0.368469 -1.767914,-0.817352 -2.608337,-1.306366q0.941925,-0.522583 1.876526,-1.045135c-1.391113,-1.815521 -3.840057,-3.007996 -5.832458,-4.220581c-2.796814,-1.386749 -5.383423,-3.296051 -8.332245,-4.29422c-6.897675,-2.378296 -15.034271,-1.125519 -22.518799,-1.426971l-0.782532,-0.703461c2.014252,0.308136 4.282074,-0.435455 6.26004,-0.837402c2.064941,-0.522522 4.166138,-0.422028 6.260101,-0.830719c3.2677,-0.656494 6.491821,0.180878 9.759521,-0.7771z"/>
   <path id="svg_15" fill="#aa7e22" d="m390.383118,337.333069c2.811249,0.696716 5.731079,0.475647 8.462646,1.366669c5.615234,1.514069 9.614685,6.082977 15.258881,7.972198c-0.883942,1.735138 -0.65213,2.880707 0.079651,4.6091c2.296814,5.212097 3.072083,10.725647 5.079071,16.018127c2.84021,7.16156 5.926666,14.068542 10.723145,20.332428c2.608398,3.523865 4.934143,7.282166 6.781769,11.19455c0.347778,1.018341 -0.420258,2.204071 -0.536163,3.249176c0.623108,4.796722 2.405426,9.131165 5.093506,13.251251c1.593994,3.64447 3.709656,7.067841 3.325684,10.926636c0.37674,6.960632 -1.840363,13.016815 -3.01413,19.843414c-0.80423,2.760101 -1.521515,5.45993 -1.956299,8.300446c-1.644623,6.170074 -3.173462,12.078857 -5.890533,17.960876c-1.506989,2.713257 -2.427155,5.627411 -4.079102,8.280334c-3.456085,6.022705 -6.325287,12.26651 -8.933624,18.637573c-2.803986,5.794891 -4.535553,11.844391 -6.89032,17.779938c-1.036102,2.244324 -2.209869,4.970947 -4.752991,6.062927c-2.115662,0.984802 -4.137177,0.549377 -6.43399,0.602966c-2.231598,-0.080383 -4.267548,0.7771 -6.506348,0.663208c-3.31842,-0.100464 -5.977478,1.319824 -9.361115,0.462219c-2.782227,-0.669861 -3.550232,-3.838684 -2.948853,-6.116455c0.992615,-3.657837 2.948853,-7.148193 4.310974,-10.698822c1.543274,-3.899017 2.354767,-7.898499 2.869232,-12.005127c0.260803,-2.036621 1.550507,-4.374725 1.021545,-6.384521c0.956421,-0.9245 1.007141,-2.585907 1.354889,-3.791779c0.391296,-2.076813 1.420135,-3.93924 1.891144,-5.99588c1.81134,-7.878479 4.883362,-15.508972 6.941071,-23.33374c1.644714,-6.411285 3.811096,-13.968109 2.296814,-20.493256c-0.485474,-3.148712 -2.304047,-5.667603 -4.441467,-8.065979c-2.086639,-2.096954 -5.006592,-2.974548 -7.245422,-4.676117c-1.528748,-1.520782 -2.448944,-3.490417 -3.955994,-5.05127c-1.311432,-1.359985 -2.231598,-2.914276 -3.16626,-4.501984c-4.042877,-5.888733 -7.969879,-11.864563 -11.686798,-17.927399c-1.325958,-1.949493 -2.702515,-3.845428 -3.738617,-5.949036c-1.608521,-3.282623 -3.528534,-6.149963 -4.738525,-9.533142c-1.825806,-4.877045 -3.050293,-9.908264 -3.767609,-15.02655c-0.115936,-2.900818 0.057953,-5.80835 -0.05072,-8.709137c-0.391296,-3.095062 2.028748,-5.252258 1.427338,-8.407654c2.528656,-1.246063 4.397949,-3.557373 6.448425,-5.413025c1.550568,-1.527466 3.760406,-2.472046 5.839813,-3.235809c2.753265,-0.897675 5.390564,-1.768585 8.368408,-1.547516c2.26059,0.174194 4.3255,-0.328278 6.520874,-0.649841z"/>
   <path id="svg_16" fill="#aa7e22" d="m275.891113,417.30957c0.543396,2.096954 0.137665,4.401459 0.347809,6.551941c-0.85495,0.716827 -0.731812,2.09021 -0.95639,3.081726c-0.768036,5.600616 -2.448975,10.97345 -2.876465,16.627686c-0.992645,3.84549 -1.615723,7.751099 -2.166382,11.670258c-0.825989,2.652893 -0.094208,5.319275 -0.85495,7.965454c-0.760742,2.713257 0.166626,5.339417 -0.695587,8.032532c-0.507141,1.64801 -0.159393,3.282654 -0.470917,4.937378c-1.275208,4.321075 -0.108704,9.211609 -0.695587,13.633179c-1.362152,4.481842 0.137665,9.606781 -0.992584,14.195831c-0.840485,3.235809 0.347748,6.297394 -0.768036,9.41925c-0.666565,4.622498 0.10144,10.839478 -4.158844,14.182434c-4.260284,2.559204 -9.513199,4.696289 -14.686447,4.636047c-1.507065,0.046814 -2.840195,-0.100586 -4.12265,0.783752c-1.260696,-1.085327 -2.985123,-0.690063 -4.564606,-0.790527c-2.673569,0.053589 -4.890656,-0.381836 -7.332367,-1.380066c-0.420242,-3.463562 0.572357,-6.592163 0.934647,-10.015442c2.173615,-9.412628 3.970535,-18.912201 6.318039,-28.277924c0.470917,-2.88736 1.325867,-5.821686 1.224472,-8.695679c-0.130417,-8.266998 -0.007248,-16.527283 -0.043472,-24.787537c0.072433,-3.141998 -0.181137,-6.304047 0.094208,-9.432648c2.03595,0.38855 4.028442,0.944641 6.057144,1.36673c2.789474,0.623016 5.810852,-0.509186 8.281525,-1.641418c3.158997,-1.514038 4.941376,-4.495239 6.861359,-7.121338c2.31131,-3.64444 4.535583,-7.342499 6.854156,-10.986908c3.028595,-4.434967 6.289001,-9.090973 8.411926,-13.954712z"/>
   <path id="svg_17" fill="#aa7e22" d="m218.819016,422.380981c2.311295,3.322876 1.021622,6.317444 1.550537,9.894867c0.796951,3.101807 0.42749,6.230408 1.24617,9.352325c-0.275269,3.691345 1.0289,7.087891 0.775269,10.75235c-0.188385,3.912445 0.434769,7.737732 -0.550659,11.422424c-0.42746,2.036591 0.021759,3.992737 -0.325989,5.995819c-0.8405,4.448395 -1.188263,8.930237 -1.941772,13.371887c-0.086945,1.540863 0.06517,3.014709 -0.369537,4.528717c-0.818726,2.666382 0.028976,5.326019 -0.739044,8.01236c-0.912857,3.376495 0.231857,6.639099 -0.738983,9.968628c-0.949158,3.168793 0.840439,5.667694 -2.079437,8.233459c-3.021393,2.244263 -8.564102,1.956299 -12.215836,1.969604c-2.209839,0.381897 -4.209579,0.877625 -6.499115,0.643127c-2.427185,-0.254578 -4.579117,0.643188 -6.970093,0.649841c-0.840439,-0.877563 -2.086685,-2.003052 -2.195328,-3.235718c-0.760818,-7.262085 1.695404,-14.959595 3.260376,-22.054199c0.594131,-4.615814 2.217102,-8.776093 1.50708,-13.512543q0.420242,-0.582855 0.840485,-1.16568c0.028961,-2.210754 -0.173935,-4.468445 0.101395,-6.665833c0.804306,-1.33316 2.572189,-2.043304 3.31842,-3.503754c1.811356,-3.215668 3.289398,-7.134766 2.818497,-10.799316q0.420242,-0.569427 0.833176,-1.138824c0.072495,-3.992859 -0.246307,-8.052673 0.12323,-12.02536c0.623077,-2.672974 3.977722,-3.088318 6.187561,-4.287537c6.180374,-2.900848 8.919113,-8.568451 11.752045,-14.048462q0.659378,-1.138916 0.311554,-2.358185z"/>
  </g>
 </g>
</svg>