<?xml version="1.0" encoding="UTF-8"?>
<svg width="600" height="600" xmlns="http://www.w3.org/2000/svg" xmlns:svg="http://www.w3.org/2000/svg">

 <g>
  <title>Layer 1</title>
  <g id="svg_29">
   <path id="svg_3" fill="#202020" d="m202.719299,14.475874c6.906799,0.054446 13.821335,0.062218 20.728088,0c1.26001,2.068913 3.562256,-0.645563 4.565674,1.827812c1.112183,-0.443343 2.084442,-0.140005 3.157822,0.225546c4.635559,1.742256 8.913406,4.192291 12.148987,8.011232c3.305664,2.776709 5.421204,6.377871 8.057938,9.730143c1.283356,1.765579 2.597809,3.274498 2.815598,5.553421c1.516678,-2.294487 4.067825,0.513329 4.90007,-2.154484c1.866669,1.182247 3.725616,-0.60667 5.825592,-0.427788c5.452362,0.070007 10.920227,0.062233 16.38031,0.023342c2.23996,-0.15556 4.277863,1.050011 6.525574,1.648911c3.795685,1.501137 6.805725,4.8923 9.582458,7.770115c4.705536,6.253437 10.290039,13.657974 11.47229,21.55254c0.085571,3.702278 0.15564,7.55233 -0.093262,11.239052q1.174438,0.318893 0.832245,1.835594c2.061157,0.56778 3.951172,1.151131 6.128967,0.707787c1.291107,1.034462 3.406708,0.808891 4.96225,1.322235c1.687805,0.33445 3.103424,1.680023 4.791229,1.788925c0.832245,1.508904 2.838898,2.030014 3.966736,3.383377c4.752319,4.161171 7.490173,9.870148 9.364563,15.796898c0.388916,1.057793 0.637848,2.123367 0.396667,3.25116c1.392212,0.723351 0.762238,3.383377 1.431122,4.752296c0.521179,4.153381 -0.015533,8.509026 0.225525,12.716843c0.225616,3.546745 -1.851105,7.132347 -1.431122,10.57795c-1.718903,1.151108 -0.474457,4.923386 -0.972198,6.790085c1.275543,1.874481 2.504517,3.686752 4.378967,5.032288c3.196686,2.177826 5.7323,5.219009 8.516815,7.917908c2.169983,3.142258 3.686646,6.860107 4.884491,10.469055c0.381073,1.073318 0.738831,2.045578 0.233337,3.157806c2.076721,0.513351 0.847748,3.803406 0.902252,5.397858c1.664459,0.645584 0.855499,2.971176 0.700012,4.316727c-0.878906,2.628952 -0.513397,5.071198 -0.5289,7.793457c1.096619,0.816696 1.415558,2.706711 2.994476,1.672226c0.116638,1.407822 1.858917,1.586746 2.613342,2.574509c1.470032,2.037811 3.165619,3.671143 3.756744,6.144531c0.427795,1.680023 1.026672,3.375595 1.205505,5.094528c0.31897,1.15892 -0.497742,3.15004 1.073425,3.391129c-0.622223,4.192291 0.108887,8.594604 -0.342255,12.810226q-0.155548,0.840027 -0.762207,1.493317c0.645477,2.745621 -0.762299,5.708969 -2.053375,8.073471c-1.547791,2.426727 -2.667847,4.892303 -5.623413,5.825653c-1.913361,0.373337 -3.943359,0.42778 -5.887848,0.435532q0.559967,0.676697 1.119995,1.345596q-1.158844,0.451141 -2.302246,0.93335q-0.723358,-0.801132 -1.446686,-1.610016c1.376678,-1.353333 2.714417,-2.613388 3.717804,-4.285629c0.824402,-1.252213 1.42337,-2.652267 2.660095,-3.531143c0.116577,-2.387833 1.555511,-4.495605 1.703308,-6.945663c1.275574,-4.363388 0.124481,-8.540131 0.816742,-12.872421c-2.722321,-0.886658 0.808838,-5.288971 -2.03006,-6.105652c0.832153,-1.718887 -0.684448,-3.616699 -1.236664,-5.234512c-1.08902,-2.434494 -2.551147,-4.783417 -5.001221,-6.020081c-1.151154,-0.715591 -3.165649,-2.154465 -2.442291,-3.733383c1.065521,-2.675613 0.108887,-5.397873 1.119995,-8.057907c0.513397,-1.174454 -0.435547,-2.558945 -0.482147,-3.818939c0.03891,-5.615631 -2.193451,-11.402405 -4.767914,-16.32579c-1.236664,-2.908936 -3.647827,-4.308975 -5.810028,-6.828995c-2.699005,-2.465591 -5.623474,-3.81897 -7.381287,-7.334579c-1.135529,-5.110046 0.583374,-8.975662 1.384521,-13.961288c0.972168,-3.398949 0.505554,-6.549004 0.583313,-10.033501c-0.038849,-2.341141 0.116638,-4.69783 -0.015564,-7.031212c-0.12442,-1.664467 -1.353333,-3.468925 -0.349945,-5.024521l-1.182251,-0.832237c0.046661,-1.602226 -0.676697,-3.041153 -0.661194,-4.6045c-1.446625,-1.073349 -1.384399,-3.461174 -2.449982,-4.93119c-1.384521,-2.053352 -2.302277,-4.363403 -4.075592,-5.965637c-1.983459,-1.773361 -3.585693,-4.044495 -5.973419,-5.047844c-2.559021,-1.174484 -4.721222,-2.551155 -7.645691,-2.488937c-2.893402,0.139992 -5.366791,-0.902229 -8.096802,-1.625587q0.202209,-1.35334 -0.824493,-1.804459c0.233429,-1.765594 0.194458,-3.570061 0.038971,-5.343407c1.228851,-0.89447 0.987732,-2.030045 0.707764,-3.35228c-0.419983,-1.555588 -0.622223,-3.111153 -0.808899,-4.705635c-1.928925,-7.78566 -6.346771,-14.093536 -11.371216,-20.191414c-2.512299,-2.216682 -4.534546,-5.288963 -7.606873,-6.432301c-3.258911,-1.781136 -6.634491,-1.158909 -10.150146,-2.201153c-3.37561,0.342232 -6.230042,1.532249 -9.761292,0.474453c-0.53656,2.146702 -3.064453,0.894466 -4.651123,0.925575c-0.871124,1.236679 -2.800049,1.213356 -4.145554,1.812244c-2.061218,0.902237 -4.394577,0.948898 -6.377945,-0.178886c-0.980011,-0.497787 -1.228943,-1.182247 -1.314453,-2.232258l-0.785614,-0.474453c-2.022232,-2.893375 -3.577789,-6.020088 -6.074478,-8.579018c-1.85112,-2.963367 -4.61232,-4.91563 -6.813461,-7.575661l-1.423386,0.093327c-0.311081,-1.407793 -2.488861,-2.177809 -3.468903,-3.165602l-1.050049,0.427786q-0.248871,-1.29113 -1.104446,-1.501122c-3.118927,-0.925575 -6.541153,-2.170043 -9.815674,-2.022264c-4.153427,0.124447 -8.298996,0.038891 -12.452423,0.038891c-3.328934,-0.031109 -6.035629,1.960032 -8.967911,3.227821c-1.734482,0.684458 -2.823334,1.991144 -4.394501,2.95561c-2.092255,1.314457 -3.305603,3.50005 -5.522293,4.690065c-3.453354,2.100025 -4.837891,5.794527 -7.855728,8.197901c-0.272156,2.457806 -2.395554,3.546711 -2.986649,5.778969c-0.420044,1.921139 -1.368912,3.492279 -1.532288,5.436741c-0.233322,1.143356 0.077805,2.146706 -1.026688,2.877823c0.801147,2.807819 -0.956665,4.355621 -1.866653,6.790108c-1.998901,0.731117 -3.84227,1.711132 -5.887848,2.348923c-1.983353,1.298901 -4.052338,0.723343 -5.273422,2.582264q-1.454483,0.630005 -2.916748,0.474442c-0.077759,1.182251 -1.392197,1.664467 -2.232224,2.263371c-3.523392,1.820026 -5.981201,5.405628 -9.014587,8.081234c-2.045578,1.734467 -2.955582,4.168945 -4.697861,6.113419c0.093369,1.952255 -1.656662,3.103378 -2.014435,5.047859c-1.1978,4.456734 -1.648926,10.126808 0.622177,14.319099c1.252289,2.558914 2.411209,5.078957 4.137894,7.373436c4.487808,6.510109 8.493454,14.443558 15.392395,18.62027l0.56781,1.073364q-0.544479,0.770004 -1.05777,1.555557q-0.692245,0.490044 -1.617828,0.015572c-1.874466,-1.190002 -3.927841,-1.61779 -5.429001,-3.220062c-1.680008,-1.633347 -3.70224,-2.317795 -4.82222,-4.518951c-4.18457,-4.845612 -7.435684,-10.251251 -10.974686,-15.555786c-2.395538,-4.861183 -5.553345,-9.566803 -4.363342,-15.299103c0.591095,-1.936699 0.373367,-4.915634 2.092239,-6.19899c-0.42778,-2.15448 1.913345,-4.192284 2.870087,-5.981194c1.687744,-3.064499 4.332275,-5.008957 6.634506,-7.544548c1.151138,-1.260025 2.348938,-2.317818 3.748932,-3.290062c1.633331,-1.151123 2.761169,-2.535591 4.853424,-2.768929c0.71553,-1.477795 2.037781,-1.851131 3.515594,-2.201141c1.99115,-0.427776 4.308929,-2.46558 6.408981,-1.936699c-0.077759,-1.477795 2.084473,-1.820026 3.165619,-1.765579c1.555573,-3.048931 2.286652,-6.891212 2.131149,-10.297916l1.182205,-0.801125q-1.314453,-1.718922 0.816681,-2.341156c-0.871109,-1.143341 0.458923,-2.753372 0.987808,-3.795601c4.697861,-8.112356 11.441284,-13.720215 18.939178,-19.110292c1.960022,-1.26779 4.091156,-1.617802 5.841171,-3.266717q0.832245,0.046668 1.571182,0.342229l0.871109,-0.99556c1.983353,-0.264457 3.772263,-0.871128 5.778946,-0.840019z"/>
   <path id="svg_4" fill="#fbfcf7" d="m205.044891,16.039228c4.153427,0 8.298996,0.085556 12.452423,-0.038891c3.274521,-0.147779 6.696747,1.096689 9.815674,2.022264q0.855576,0.209991 1.104446,1.501122l1.050049,-0.427786c0.980042,0.987793 3.157822,1.757809 3.468903,3.165602l1.423386,-0.093327c2.201141,2.66003 4.962341,4.612293 6.813461,7.575661c2.496689,2.558929 4.052246,5.685642 6.074478,8.579018l0.785614,0.474453c0.08551,1.050011 0.334442,1.73447 1.314453,2.232258c1.983368,1.127785 4.316727,1.081123 6.377945,0.178886c1.345505,-0.598888 3.274429,-0.575565 4.145554,-1.812244c1.58667,-0.031109 4.114563,1.221127 4.651123,-0.925575c3.53125,1.057796 6.385681,-0.132221 9.761292,-0.474453c3.515656,1.042244 6.891235,0.420017 10.150146,2.201153c3.072327,1.143337 5.094574,4.215618 7.606873,6.432301c5.024445,6.097878 9.442291,12.405754 11.371216,20.191414c0.186676,1.594482 0.388916,3.150047 0.808899,4.705635c0.279968,1.322235 0.521088,2.457809 -0.707764,3.35228c0.155487,1.773346 0.194458,3.577812 -0.038971,5.343407q1.026703,0.451118 0.824493,1.804459c2.730011,0.723358 5.2034,1.765579 8.096802,1.625587c2.924469,-0.062218 5.08667,1.314453 7.645691,2.488937c2.387726,1.003349 3.98996,3.274483 5.973419,5.047844c1.773315,1.602234 2.691071,3.912285 4.075592,5.965637c1.065582,1.470016 1.003357,3.857841 2.449982,4.93119c-0.015503,1.563347 0.707855,3.002274 0.661194,4.6045l1.182251,0.832237c-1.003387,1.555595 0.225525,3.360054 0.349945,5.024521c0.132202,2.333382 -0.023285,4.690071 0.015564,7.031212c-0.077759,3.484497 0.388855,6.634552 -0.583313,10.033501c-0.801147,4.985626 -2.52005,8.851242 -1.384521,13.961288c1.757813,3.51561 4.682281,4.868988 7.381287,7.334579c2.162201,2.52002 4.573364,3.920059 5.810028,6.828995c2.574463,4.923386 4.806824,10.710159 4.767914,16.32579c0.0466,1.259995 0.995544,2.644485 0.482147,3.818939c-1.011108,2.660034 -0.054474,5.382294 -1.119995,8.057907c-0.723358,1.578918 1.291138,3.017792 2.442291,3.733383c2.450073,1.236664 3.912201,3.585587 5.001221,6.020081c0.552216,1.617813 2.068817,3.515625 1.236664,5.234512c2.838898,0.816681 -0.692261,5.218994 2.03006,6.105652c-0.692261,4.332291 0.458832,8.509033 -0.816742,12.872421c-0.147797,2.450058 -1.586731,4.557831 -1.703308,6.945663c-1.236725,0.878876 -1.835693,2.278931 -2.660095,3.531143c-1.003387,1.672241 -2.341125,2.932297 -3.717804,4.285629q0.723328,0.808884 1.446686,1.610016q1.54776,-0.077774 3.033356,0.178879q0.645538,-1.213333 2.302277,-1.205551c0.738861,1.641129 1.734467,0.902237 3.134491,0.941101c0.97998,1.236694 2.88559,1.62558 4.238953,2.395615c2.535614,1.104446 4.028992,3.033371 5.942261,4.923401c1.641235,1.656693 2.869995,3.570038 2.862305,5.988983l1.602264,0.62999c-1.415558,0.878906 -0.443329,2.558929 -0.217804,3.811172c0.762207,2.465607 0.225555,4.697845 -0.318909,7.109039c-0.225555,3.01004 -1.073303,5.864532 -2.061096,8.70343c-0.396729,1.213348 -0.147797,2.675568 -1.252228,3.437836c0.326599,2.029999 -0.326691,4.977783 1.415527,6.432281c1.967834,1.392242 3.686676,3.048981 5.701233,4.38678c4.581146,4.76004 6.4245,10.500122 8.182373,16.699127q0.209961,1.01886 -0.326752,2.014404l1.252228,0.878937c-0.093323,1.672272 -0.147797,3.344482 -0.171051,5.016754q0.427795,0.637787 0.855499,1.283356c0.03891,1.298889 -0.124329,2.504486 -0.458893,3.756714c-0.606628,2.123383 -0.178894,4.340088 -0.629974,6.455658c-0.941071,3.632294 -1.757813,7.264587 -3.080017,10.787964c-1.252319,5.545563 -5.926697,9.100098 -9.691284,12.981323c-2.364441,2.193268 -4.542236,4.845551 -4.518982,8.244476c0.583374,4.402344 2.278931,8.789063 3.733398,12.973602q0.36557,0.995544 -0.077759,2.185547c1.166687,0.427795 0.925568,1.804443 1.283386,2.800049c0.97998,3.764496 0.101074,7.272308 0.567749,10.997955l1.050018,0.560028c-1.703339,0.575562 -1.610077,2.574432 0,3.196686l-1.081177,0.505615c-0.295532,2.60553 0.140106,5.250061 -0.171082,7.840057c-1.446625,5.887848 -2.854401,11.340179 -7.287872,15.750214c-1.610016,1.633392 -4.347839,2.333405 -5.561249,4.254547c-2.80777,0.342224 -5.008942,2.045563 -7.777802,2.76889c-2.317841,1.283447 -4.939026,1.524506 -7.264618,2.800049c-2.978882,1.687836 -5.856781,2.380035 -8.151215,4.977875c-3.912262,4.721191 -2.940002,10.352386 -5.903381,15.120239c-1.54007,3.227844 -3.45343,6.198944 -6.17569,8.555634l-1.190063,-0.272186c-0.365448,2.240021 -3.087769,1.812256 -4.31662,3.461121c-1.438934,-0.482208 -2.613434,0.241119 -4.091217,0.420013c-1.104431,0.272247 -2.092285,0.132263 -2.908905,1.042267c-1.594482,-0.210022 -4.239014,-0.5289 -5.498993,0.738831c-2.652222,-0.194366 -5.576691,-0.388794 -8.143463,0.388916c-2.792267,0.536682 -5.786713,0.210083 -8.625641,0.248932q-1.21344,0.178864 -1.680054,-0.902222c-3.204498,0.404419 -6.167877,-1.944489 -9.551239,-1.376678c-0.03891,-1.353363 0.241058,-2.621185 0.536652,-3.927826c0.6922,-3.080078 -0.311035,-6.642395 0.56778,-9.706848c0.668945,-2.310028 0.381165,-4.456726 0.412262,-6.836761c-0.007813,-5.452271 0.015503,-10.89682 -0.031097,-16.349121c0,-1.874481 0.777771,-3.57785 0.785583,-5.460083q-0.863403,-0.614441 -1.718964,-1.244476q-1.407776,0.980011 -2.955566,1.011139c-0.272247,4.518951 -1.804504,8.975708 -1.415588,13.486877c0.108887,4.262238 -0.202271,8.563446 0.132141,12.810181q-0.941132,0.536682 -0.878815,1.314453c0,2.263397 -0.295593,4.783356 0.334412,6.968994l-1.205566,0.777802c0.40448,4.402313 -0.5289,8.866821 0.77002,13.01239c0.350006,1.330048 -0.552185,3.787781 1.01886,4.386719c-0.373322,1.384521 -0.474396,2.177795 0.684448,3.12674q-0.101074,1.151093 -0.2099,2.302246c1.353302,1.104492 1.376648,3.095581 2.869995,4.200043q-0.318939,0.777802 -0.630035,1.563354c1.065613,0.420013 2.154541,0.334503 2.675598,1.50116c-2.310089,-0.645569 -5.234558,1.765625 -7.171234,2.9245c-2.457825,1.392242 -4.052246,4.845612 -6.665619,5.677856c-1.578857,-1.26004 -4.340088,-3.328949 -6.455658,-2.488983c-0.707764,-1.609955 -3.593384,-0.769928 -4.993378,-0.948853c-0.093353,-2.846741 1.29892,-5.257874 0.707733,-8.197906c-0.521088,-2.224487 -0.910004,-4.168945 -0.65329,-6.486755l-1.057861,-0.85556q0.396729,-1.190033 0.015564,-2.240051c-3.142242,-9.27124 -6.533401,-17.819092 -7.451172,-27.673737l0.171097,-1.944458c-1.641174,-1.003387 -0.723312,-4.526764 -0.762283,-6.152344c-1.431061,-0.738892 -0.629959,-3.056732 -0.995544,-4.417847c-0.614426,-2.457764 -1.446671,-6.408936 0.404449,-8.485657q-0.63002,-0.933319 -1.236664,-1.882233c-2.473358,-0.528961 -4.985687,1.073303 -3.017792,3.468903l-1.625641,0.746735c0.007797,3.243378 1.322296,6.128967 1.011185,9.356781c0.06218,1.18222 -0.303345,2.014465 0.902206,2.691132c-0.178864,2.294495 -0.272202,4.666748 -0.031097,6.953491l0.785583,0.81662c-0.83223,2.971161 0.878845,5.358978 0.598877,8.174561c0.871124,1.050018 0.863327,2.683411 1.314453,3.990112c1.143372,3.468903 2.356735,6.914551 3.461182,10.391235c0.42778,1.314453 0.536682,2.543365 1.742218,3.437775c-2.730042,0.171173 -5.42894,0.575623 -7.614532,-1.423248c-1.407822,-1.298981 -3.033401,-3.787872 -3.850098,-5.514557c-0.326614,-1.921143 -1.571091,-3.360077 -1.998886,-5.203461c-0.878922,-0.637787 -1.78891,-1.392181 -2.364456,-2.325592c-1.23671,0.210052 -2.193359,-0.396637 -3.414505,-0.583282c-2.123398,0.015533 -4.067795,1.368927 -6.175659,1.330017c-0.342239,1.275513 -1.765625,1.718903 -2.691162,2.496643c-1.773346,0.140045 -3.181137,1.283356 -4.98558,1.392242c-3.25119,0.24115 -6.556778,-0.178894 -9.792419,0.155609c-1.049957,-0.941132 -2.846664,-0.902283 -4.168976,-1.368927c-7.9879,-2.457825 -13.80574,-8.345673 -17.764648,-15.524689c-1.368912,-1.291077 -0.987808,-3.500061 -2.838928,-3.982269c1.042221,-1.944458 -0.847824,-2.628906 -1.042282,-4.503387c-0.505554,-3.165619 -1.913345,-5.872314 -3.430038,-8.649078c-1.205536,-1.843353 -3.43782,-2.053314 -5.421112,-1.563324l-0.816772,-1.050018c-2.978897,0.163361 -6.012283,-0.139984 -8.960098,0.280029c-0.832245,-1.104462 -1.991104,-2.03006 -3.453384,-1.524445c-0.36557,-1.438934 -1.711136,-1.516693 -2.597839,-2.512238c-3.344498,-4.075684 -6.082321,-9.045715 -6.634537,-14.358032l0.20224,-1.166656c-1.438919,-0.715607 -0.661102,-3.080078 -0.995544,-4.417847c-0.676712,-2.994476 -1.26001,-6.774567 -3.608994,-8.936829c-2.823334,-2.395599 -5.934525,-4.293427 -8.991196,-6.354523c-3.663422,-3.111115 -6.852341,-6.650116 -9.543472,-10.624634c-0.956726,-1.757813 -1.540039,-3.997833 -2.9245,-5.428986c0.209999,-1.563385 -0.474457,-2.745575 -0.637825,-4.270081c-0.14772,-6.113373 -0.342178,-11.837891 1.983406,-17.624695q0.396652,-0.832184 1.11998,-1.501129q-0.069962,-0.816681 -0.171112,-1.633331c2.302246,-3.235657 4.091156,-6.984528 6.914551,-9.932373c2.240021,-3.227814 5.125626,-5.73233 7.94902,-8.439026l-1.781097,-0.373291c0.272202,-3.352295 -1.065628,-6.26123 -0.840042,-9.574615q0.202194,-1.431152 -0.894455,-1.967834c0.396667,-2.714447 -0.101151,-5.53009 0.217743,-8.236786c0.458923,-1.858917 1.011139,-3.554474 0.598907,-5.506744c1.057816,-0.956665 1.827835,-2.44223 1.540024,-3.896698c1.267807,-0.606689 1.493408,-1.750031 2.123398,-2.877777c0.863312,-1.726746 2.605576,-3.12677 3.943359,-4.51123c2.022232,-1.874451 3.772263,-4.14563 6.020096,-5.65451c2.916733,-1.967804 5.055618,-5.078949 7.801193,-7.287903c-0.038895,-1.190002 0.536682,-2.348907 0.715591,-3.562286c0.342239,-2.310059 -0.754486,-4.0289 -0.863373,-6.276764c0.466721,-4.184494 1.501221,-8.205627 3.780121,-11.791275c1.625534,-3.422256 4.410049,-5.26561 6.867859,-8.003418c1.361115,-1.555618 3.080063,-2.590042 4.627838,-3.927841c2.940094,-2.901184 6.580109,-5.211197 10.002335,-7.513458c2.66008,-1.835587 6.167923,-2.426712 9.247925,-3.624496c2.09227,-0.886658 4.075623,-0.513351 5.18013,-2.908936q-2.061188,-0.038879 -4.029007,0.326675c-1.361115,0.723358 -4.200043,-0.031113 -4.775604,1.431122c-2.753372,-0.777786 -4.425583,1.734467 -6.961227,1.13559c-0.785538,1.501114 -2.107788,1.050034 -3.484436,1.617798c-4.868973,1.773361 -9.457977,4.114502 -14.350235,5.833405c-2.317841,0.840027 -4.542328,1.13562 -6.556763,2.675598q-1.09671,0.015579 -2.107864,-0.272232q-0.808868,1.820038 -2.356659,0.6689c-0.93338,2.084488 -2.628922,0.583344 -4.122284,1.905594c-3.383408,-0.023361 -6.930069,1.260025 -10.336823,1.532227q-1.298904,0.015579 -2.481171,-0.91777q-0.832214,0.497772 -1.804443,0.793365c-3.733383,0.194458 -7.482361,0.007736 -11.22348,0.069992c-2.698952,-0.077805 -5.685661,0.342224 -8.267914,-0.381149c-2.698944,-0.73111 -5.288956,-0.023331 -7.886818,-1.361099c-5.802284,-1.967834 -9.278999,-6.844559 -14.83242,-9.177917q-0.847771,-0.552216 -0.847771,-1.571167c-1.742279,1.361176 -2.504501,-0.85556 -2.877808,-2.177795q1.003349,0.373337 1.633324,1.112259c1.960022,0.06221 5.592308,-0.878891 7.038979,0.75444c4.207848,-0.272202 8.454628,-0.046692 12.670212,-0.046692l0.801109,-1.088867c2.64447,1.12001 5.771202,-2.014496 7.878998,-1.960037c0.552216,-1.275574 2.201157,-1.742264 3.188965,-2.714508c1.415596,-1.38443 2.916687,-2.745605 4.176697,-4.277832c1.197815,-1.905563 1.890076,-3.888931 3.593414,-5.514511q-0.99556,-1.765579 0.902252,-2.364502c-0.73114,-1.431076 0.318878,-2.675568 0.419983,-4.223373c0.101089,-2.092255 0.023331,-4.184525 0.038879,-6.276764c-0.054428,-1.314468 0.085556,-2.613358 -0.886658,-3.64006c0.544434,-2.628906 -0.474457,-5.078949 -0.878906,-7.692307c-0.738937,-4.270065 -2.691162,-8.229034 -6.051224,-11.03685c-1.345589,-1.680023 -3.243378,-2.022247 -4.845627,-3.274521c-1.788902,-0.085526 -3.056664,1.057816 -3.748924,-1.306656c1.454475,0.210007 2.551117,-1.275589 3.686707,-2.030029c5.693398,-4.262268 10.857964,-9.185669 16.636925,-13.284637c1.407791,-0.956711 2.520035,-2.512253 4.06781,-3.157806c1.011154,1.477783 1.998962,3.360046 3.500107,4.386719c2.271103,1.267776 4.721191,1.998917 7.350067,1.866669c1.376724,-0.124435 2.64447,0.36557 3.538925,-0.941116q1.213394,0.062241 2.380066,0.365585c1.866714,-1.820023 4.153366,-3.056717 5.576752,-5.413406c2.644501,-3.367859 1.104462,-7.871262 1.64888,-12.001312c-1.05777,-2.068909 -2.691101,-2.815582 -4.176712,-4.386734c-1.05777,0.482224 -2.294449,-0.225555 -3.422272,-0.404434c-0.077774,-2.022278 1.578888,-4.067841 2.613373,-5.724541q0.311096,0.598907 0.637787,1.182251c2.006699,-0.070023 4.052277,0.054413 6.051163,-0.171097c1.656738,-0.280022 3.150085,-1.244484 4.767868,-0.311165l0.661179,-1.042213c3.282257,-0.738922 6.688965,-2.06115 9.341171,-4.161179c3.235641,0.614456 6.175659,2.216713 9.45018,2.753387c2.558914,1.042213 5.234543,1.283356 7.777908,2.31002c1.539978,0.70002 3.772263,0.132225 4.90004,1.40004c4.596756,-0.225571 9.341278,-0.163345 13.945786,-0.054443l0.847763,0.513336c-2.325516,2.994476 -3.017776,6.68898 -2.481094,10.399002l-0.777817,0.816696c-0.5056,5.180084 0.194458,10.811279 2.496704,15.509125c0.645569,1.602249 0.443329,3.608948 0.513336,5.312302c-1.508881,2.543381 -2.590057,5.34343 -4.083405,7.902344c-0.622192,1.228912 -0.738876,1.781128 -0.381104,3.173355l-0.832245,0.746704c-0.202255,3.27449 -0.357758,6.494522 0.676666,9.65239c0,2.8078 -2.2789,7.186752 -4.456726,8.983459c-0.52887,2.21666 -1.555573,4.386703 -2.201141,6.572296c-0.474411,2.955582 0.124435,6.074554 -0.295563,9.045715c1.213348,0.622208 0.816696,2.372223 1.158936,3.538895c0.676666,2.341171 0.412247,4.643402 0.552231,7.031265c-1.283371,1.757767 -2.068924,3.850006 -3.282318,5.670059c-0.871124,1.298874 -1.555573,3.367844 -2.994461,4.098938c0.334442,1.392258 -0.404434,2.450043 -0.840027,3.74118c-0.855515,2.076721 -0.388901,4.736725 -0.645523,6.968994c0.87886,0.785553 1.228882,1.913345 1.718887,2.9478c1.392258,2.613373 4.79895,3.056702 5.810089,5.981171c0.521149,2.994537 -2.37999,5.903427 -3.461166,8.664566c-1.695541,2.908966 -2.473358,6.082367 -3.165604,9.34906c0.21785,1.454498 1.018936,2.8078 0.591156,4.223419c1.345505,0.793335 1.648865,2.496674 2.877792,3.313385c2.652298,1.889984 6.082321,3.748932 9.450134,3.025574q0.871109,0.89444 2.006683,0.871124c2.084473,0.070007 4.417847,0.279999 6.424545,-0.36557c1.127838,-0.36557 2.193405,-0.521088 3.360062,-0.264404c1.050034,-1.143402 2.78447,-1.5867 4.130112,-2.348907c1.431061,3.974426 6.618973,5.880035 10.51561,5.156708c1.454483,1.228882 2.621185,1.09668 4.114548,0.023315c6.385635,1.081116 12.001297,-3.437805 16.963638,-6.766785c2.97113,0.132263 5.677826,-0.396637 8.563477,0.606689c1.368805,0.451172 2.753265,-0.435547 4.231171,-0.513367c5.475616,-0.08548 11.534546,-2.978912 15.20575,-6.976746q0.824432,0.03894 1.63327,-0.023346c0.995605,1.477783 2.465637,2.037842 3.69455,3.25116q1.773438,-0.77774 2.372253,0.878906c4.091156,-0.699982 8.477905,0.140045 12.608002,-0.404419c4.977875,-1.470032 9.582336,-3.422302 13.50238,-6.914551c2.053375,-1.960022 4.083435,-4.721191 3.920074,-7.700134c0.03891,-3.655609 -0.093323,-7.326752 0.015564,-10.974579c0.629974,-2.356705 0.855591,-4.153412 0.847748,-6.603409c-1.127747,-0.878937 -1.804443,-2.201187 -1.462189,-3.647858c-1.470093,0.73114 -1.672241,-0.295563 -2.815582,-0.95668c-2.224518,-1.820023 -5.110107,-1.648941 -7.287903,-3.624527c-0.108887,-3.002213 0.350006,-6.175629 -0.233337,-9.115677c-1.003387,-2.535583 -2.543396,-5.26561 -4.915649,-6.735657c-1.804474,-1.143356 -3.445557,-3.150055 -5.522339,-3.694458c-0.318848,-1.62561 -0.808838,-3.142288 -0.808838,-4.830093c1.330048,-1.213348 1.477844,-2.574478 1.983337,-4.184509c1.13559,-2.325592 2.403351,-4.301178 2.605621,-6.968994c0.062225,-2.224487 1.081116,-4.161163 0.902161,-6.354538c-0.559906,-3.803375 -1.259949,-7.451233 -4.176727,-10.196823c-2.659943,-2.667816 -6.315582,-2.792252 -8.796753,-5.662277c-0.155609,-3.616745 0.606659,-7.910141 -0.863312,-11.239059c-1.493408,-4.262314 -6.315674,-5.483398 -7.614624,-10.111267c-0.886597,-1.680054 0,-4.254547 -1.625519,-5.296753q0.202209,-0.73114 0.396667,-1.462234q-1.431122,-0.6689 -0.816742,-2.372284c-2.037811,-2.465576 -3.904449,-5.195633 -6.891144,-6.790085c-1.718964,-0.863327 -3.422211,-1.85112 -5.234558,-2.512268c-1.54776,-0.272232 -3.196686,-0.116653 -4.760071,-0.085526q0.031067,0.661102 0.054474,1.32222c4.627777,1.143341 7.101166,4.464523 9.940155,7.925644q-0.466675,1.586731 0.816589,1.80452c-0.287689,1.361099 -0.482147,2.193344 0.707916,3.103363c-0.497803,3.204483 1.104431,6.883423 3.593323,8.929001c2.403351,2.185623 4.534546,4.651184 5.281219,7.894592c0.349945,2.932266 0.085449,5.973419 0.147736,8.921219c2.177795,2.123383 5.040039,3.717834 7.793457,4.962296c1.874451,0.886688 2.045593,2.955597 3.663391,3.990067c-0.007751,1.998917 1.244476,3.430038 0.544403,5.522308c1.750061,0.46666 0.630035,2.698929 0.412323,3.873398c-0.233368,4.946716 -1.960083,10.282379 -4.907898,14.303543c0.209991,1.493347 0.116608,2.955597 0.038849,4.448944c1.244476,1.337799 2.551208,2.605576 4.052368,3.663391c2.232208,1.516693 3.70224,3.686737 5.802307,5.358963q-0.108917,1.62558 0.933289,2.418915c-0.217712,3.033371 -0.031067,6.082306 -0.132202,9.123505c1.477783,1.703323 3.352234,2.356674 5.413361,3.056686c2.131195,0.699997 3.686737,2.100052 5.265656,3.624496q-0.054474,1.228912 -0.28772,2.411163c1.851135,0.762222 1.687744,2.286682 -0.031158,3.025574c0.73111,1.438904 -0.054413,2.932266 -0.318909,4.394531c-0.357758,2.411102 -0.303345,4.884491 0.388916,7.233414c0.388855,1.415604 -0.318878,3.134476 -0.630035,4.534531c-0.497803,2.348938 -2.325592,3.624481 -3.881104,5.320099c-2.418915,2.784424 -6.167877,4.200043 -9.590179,5.366699c-3.593384,0.762207 -7.357849,-2.597809 -9.442352,-5.195618q-1.882263,0.746704 -2.35672,-1.197784c-3.126709,1.151123 -6.362274,-0.5289 -9.419037,2.138916c-2.628937,3.04895 -5.887848,5.187805 -9.551239,6.805664c-1.291168,0.583344 -2.628967,0.28775 -3.671112,1.368927c-1.120056,-0.910034 -3.134552,-0.598907 -4.495697,-0.995605c-2.60553,-0.715576 -5.187836,-0.559998 -7.855682,-0.544434l-0.754425,1.050018q-0.777771,-0.248932 -1.594482,-0.342224c-1.189941,1.22113 -2.838928,1.54776 -4.168961,2.628937c-3.422272,2.294464 -6.642242,4.868896 -11.013474,4.293335c-1.960022,-1.75 -4.775604,-4.760071 -4.767807,-7.505646c-0.855576,-0.388916 -1.43895,-1.01886 -2.13121,-1.633392c-2.255554,0.054474 -4.511124,0 -6.766693,-0.015533c-1.532288,1.291168 -2.138931,3.150085 -3.616745,4.487885c-1.322235,1.330017 -3.500046,1.781158 -5.250061,2.325562c-2.652283,-0.513336 -5.094574,-0.793335 -7.054581,-2.838928c-1.28331,-0.925568 -1.610046,-2.745575 -2.940033,-3.484497c0.505539,-2.488922 0.318893,-5.16452 0.171127,-7.692291c1.516678,-1.78891 2.232224,-4.309021 3.422272,-6.346817c1.469971,-2.800034 3.546738,-4.643402 3.554474,-8.034531c-2.13887,-1.687805 -3.896698,-4.534515 -6.32338,-5.701218c0.692139,-2.092239 -3.142334,-5.568954 -0.451187,-7.272308c-0.404434,-5.934509 4.487869,-8.31459 5.911194,-13.673553q0.225586,-1.112198 1.228943,-1.571091c-1.205551,-1.034485 -1.081161,-2.325638 -1.52449,-3.75676c-0.746674,-2.730042 -2.037766,-5.771194 -1.944473,-8.633469c0.046661,-2.605591 -0.062164,-5.211166 0.06221,-7.80899c0.653397,-4.697845 3.562317,-7.303436 5.397919,-11.4646c1.135574,-2.138931 0.404434,-5.078949 0.707779,-7.474564c-2.286697,-2.916718 0.256622,-5.965622 -0.217773,-8.687897c1.088898,-0.816666 1.306625,-1.975586 1.921066,-3.134537c1.166733,-2.558884 3.017838,-5.366714 3.45343,-8.151215c-0.785553,-4.013367 -4.14563,-8.68013 -3.741165,-13.183517c0.287735,-5.10231 -0.668915,-10.056778 0.979996,-14.669067c0.816696,-3.266724 3.850082,-5.965668 5.747879,-8.680161l0.178848,-1.15889q-1.329971,0.023315 -2.667816,-0.00779c-1.508881,1.586693 -3.150009,3.064476 -4.612213,4.697845c-4.938995,1.298897 -9.776871,0.342216 -14.785812,0.832237c-1.610046,-1.306686 -4.47226,-1.39225 -6.486771,-1.62558l-0.754471,-1.065567c-1.501083,0.342224 -3.33667,-0.381119 -4.806686,-0.738914l-0.466675,-0.715576c-2.551163,1.026695 -5.864563,-1.843346 -8.330124,-2.255569c-0.653366,-2.131157 -2.325577,-3.515602 -2.636734,-5.848984c-0.085556,-1.423347 -0.715546,-3.375587 0.855576,-4.192284c-1.921143,-2.061134 -3.243378,-1.003342 -4.814484,0.731133c0.101089,1.742241 -0.264481,4.01339 0.668854,5.537857c0.715591,1.104462 1.182266,2.201126 1.27562,3.523392c-2.838989,1.166672 -5.234589,2.924484 -8.236847,3.632278l-0.824417,0.793327c-1.415588,-0.404427 -2.348923,0.334465 -3.632294,0.785576c-1.547775,0.676659 -3.017776,0.505562 -4.65892,0.637787c-0.723328,-0.754433 -1.586761,-0.832237 -2.543427,-1.096687l-0.637787,-0.575546q-1.073364,-1.29892 -2.255569,-0.272232l-0.56781,-1.073364c-6.898941,-4.176712 -10.904587,-12.110161 -15.392395,-18.62027c-1.726685,-2.294479 -2.885605,-4.814522 -4.137894,-7.373436c-2.271103,-4.192291 -1.819977,-9.862366 -0.622177,-14.319099c0.357773,-1.944481 2.107803,-3.095604 2.014435,-5.047859c1.742279,-1.944473 2.652283,-4.378952 4.697861,-6.113419c3.033386,-2.675606 5.491196,-6.261208 9.014587,-8.081234c0.840027,-0.598904 2.154465,-1.08112 2.232224,-2.263371q1.462265,0.155563 2.916748,-0.474442c1.221085,-1.858921 3.29007,-1.283363 5.273422,-2.582264c2.045578,-0.637791 3.888947,-1.617805 5.887848,-2.348923c0.909988,-2.434486 2.667801,-3.982288 1.866653,-6.790108c1.104492,-0.731117 0.793365,-1.734467 1.026688,-2.877823c0.163376,-1.944462 1.112244,-3.515602 1.532288,-5.436741c0.591095,-2.232258 2.714493,-3.321163 2.986649,-5.778969c3.017838,-2.403374 4.402374,-6.097876 7.855728,-8.197901c2.21669,-1.190016 3.430038,-3.375608 5.522293,-4.690065c1.571167,-0.964466 2.660019,-2.271152 4.394501,-2.95561c2.932281,-1.26779 5.638977,-3.25893 8.967911,-3.227821z"/>
   <path id="svg_5" fill="#1b1b1b" d="m185.234604,110.595062c-1.571121,0.816696 -0.941132,2.768936 -0.855576,4.192284c0.311157,2.333382 1.983368,3.717827 2.636734,5.848984c2.465561,0.412224 5.778961,3.282265 8.330124,2.255569l0.466675,0.715576c1.470016,0.357796 3.305603,1.081139 4.806686,0.738914l0.754471,1.065567c2.014511,0.23333 4.876724,0.318893 6.486771,1.62558c5.008942,-0.490021 9.846817,0.46666 14.785812,-0.832237c1.462204,-1.633369 3.103333,-3.111153 4.612213,-4.697845q1.337845,0.031105 2.667816,0.00779l-0.178848,1.15889c-1.897797,2.714493 -4.931183,5.413437 -5.747879,8.680161c-1.648911,4.612289 -0.692261,9.566757 -0.979996,14.669067c-0.404465,4.503387 2.955612,9.170151 3.741165,13.183517c-0.435593,2.7845 -2.286697,5.592331 -3.45343,8.151215c-0.614441,1.158951 -0.832169,2.317871 -1.921066,3.134537c0.474396,2.722275 -2.068924,5.771179 0.217773,8.687897c-0.303345,2.395615 0.427795,5.335632 -0.707779,7.474564c-1.835602,4.161163 -4.744522,6.766754 -5.397919,11.4646c-0.124374,2.597824 -0.015549,5.2034 -0.06221,7.80899c-0.093292,2.862274 1.1978,5.903427 1.944473,8.633469c0.443329,1.431122 0.318939,2.722275 1.52449,3.75676q-1.003357,0.458893 -1.228943,1.571091c-1.423325,5.358963 -6.315628,7.739044 -5.911194,13.673553c-2.691147,1.703354 1.143326,5.180069 0.451187,7.272308c2.426682,1.166702 4.184509,4.013412 6.32338,5.701218c-0.007736,3.391129 -2.084503,5.234497 -3.554474,8.034531c-1.190048,2.037796 -1.905594,4.557907 -3.422272,6.346817c0.147766,2.527771 0.334412,5.203369 -0.171127,7.692291c1.329987,0.738922 1.656723,2.558929 2.940033,3.484497c1.960007,2.045593 4.402298,2.325592 7.054581,2.838928c1.750015,-0.544403 3.927826,-0.995544 5.250061,-2.325562c1.477814,-1.337799 2.084457,-3.196716 3.616745,-4.487885c2.255569,0.015533 4.511139,0.070007 6.766693,0.015533c0.692261,0.614532 1.275635,1.244476 2.13121,1.633392c-0.007797,2.745575 2.807785,5.755646 4.767807,7.505646c4.371231,0.575562 7.591202,-1.998871 11.013474,-4.293335c1.330032,-1.081177 2.979019,-1.407806 4.168961,-2.628937q0.816711,0.093292 1.594482,0.342224l0.754425,-1.050018c2.667847,-0.015564 5.250153,-0.171143 7.855682,0.544434c1.361145,0.396698 3.375641,0.085571 4.495697,0.995605c1.042145,-1.081177 2.379944,-0.785583 3.671112,-1.368927c3.663391,-1.617859 6.922302,-3.756714 9.551239,-6.805664c3.056763,-2.667816 6.292328,-0.987793 9.419037,-2.138916q0.474457,1.944489 2.35672,1.197784c2.084503,2.597809 5.848969,5.957825 9.442352,5.195618c3.422302,-1.166656 7.171265,-2.582275 9.590179,-5.366699c1.555511,-1.695618 3.383301,-2.971161 3.881104,-5.320099c0.311157,-1.400055 1.01889,-3.118927 0.630035,-4.534531c-0.692261,-2.348923 -0.746674,-4.822311 -0.388916,-7.233414c0.264496,-1.462265 1.050018,-2.955627 0.318909,-4.394531c1.718903,-0.738892 1.882294,-2.263351 0.031158,-3.025574q0.233246,-1.182251 0.28772,-2.411163c-1.578918,-1.524445 -3.13446,-2.9245 -5.265656,-3.624496c-2.061127,-0.700012 -3.935577,-1.353363 -5.413361,-3.056686c0.101135,-3.041199 -0.08551,-6.090134 0.132202,-9.123505q-1.042206,-0.793335 -0.933289,-2.418915c-2.100067,-1.672226 -3.570099,-3.84227 -5.802307,-5.358963c-1.50116,-1.057816 -2.807892,-2.325592 -4.052368,-3.663391c0.077759,-1.493347 0.171143,-2.955597 -0.038849,-4.448944c2.947815,-4.021164 4.67453,-9.356827 4.907898,-14.303543c0.217712,-1.174469 1.337738,-3.406738 -0.412323,-3.873398c0.700073,-2.09227 -0.552155,-3.523392 -0.544403,-5.522308c-1.617798,-1.03447 -1.78894,-3.103378 -3.663391,-3.990067c-2.753418,-1.244461 -5.615662,-2.838913 -7.793457,-4.962296c-0.062286,-2.9478 0.202209,-5.988953 -0.147736,-8.921219c-0.746674,-3.243408 -2.877869,-5.708969 -5.281219,-7.894592c-2.488892,-2.045578 -4.091125,-5.724518 -3.593323,-8.929001c-1.190063,-0.910019 -0.995605,-1.742264 -0.707916,-3.103363q-1.283264,-0.217789 -0.816589,-1.80452c-2.838989,-3.461121 -5.312378,-6.782303 -9.940155,-7.925644q-0.023407,-0.661118 -0.054474,-1.32222c1.563385,-0.031128 3.212311,-0.186707 4.760071,0.085526c1.812347,0.661148 3.515594,1.648941 5.234558,2.512268c2.986694,1.594452 4.853333,4.324509 6.891144,6.790085q-0.61438,1.703384 0.816742,2.372284q-0.194458,0.731094 -0.396667,1.462234c1.625519,1.042206 0.738922,3.616699 1.625519,5.296753c1.29895,4.627869 6.121216,5.848953 7.614624,10.111267c1.469971,3.328918 0.707703,7.622314 0.863312,11.239059c2.481171,2.870026 6.13681,2.994461 8.796753,5.662277c2.916779,2.74559 3.616821,6.393448 4.176727,10.196823c0.178955,2.193375 -0.839935,4.130051 -0.902161,6.354538c-0.202271,2.667816 -1.470032,4.643402 -2.605621,6.968994c-0.505493,1.610031 -0.65329,2.971161 -1.983337,4.184509c0,1.687805 0.48999,3.204483 0.808838,4.830093c2.076782,0.544403 3.717865,2.551102 5.522339,3.694458c2.372253,1.470047 3.912262,4.200073 4.915649,6.735657c0.583344,2.940048 0.124451,6.113464 0.233337,9.115677c2.177795,1.975586 5.063385,1.804504 7.287903,3.624527c1.143341,0.661118 1.34549,1.68782 2.815582,0.95668c-0.342255,1.446671 0.334442,2.768921 1.462189,3.647858c0.007843,2.449997 -0.217773,4.246704 -0.847748,6.603409c-0.108887,3.647827 0.023346,7.31897 -0.015564,10.974579c0.163361,2.978943 -1.866699,5.740112 -3.920074,7.700134c-3.920044,3.492249 -8.524506,5.444519 -13.50238,6.914551c-4.130096,0.544464 -8.516846,-0.295563 -12.608002,0.404419q-0.598816,-1.656647 -2.372253,-0.878906c-1.228912,-1.213318 -2.698944,-1.773376 -3.69455,-3.25116q-0.808838,0.062286 -1.63327,0.023346c-3.671204,3.997833 -9.730133,6.891266 -15.20575,6.976746c-1.477905,0.07782 -2.862366,0.964539 -4.231171,0.513367c-2.885651,-1.003326 -5.592346,-0.474426 -8.563477,-0.606689c-4.962341,3.328979 -10.578003,7.8479 -16.963638,6.766785c-1.493362,1.073364 -2.660065,1.205566 -4.114548,-0.023315c-3.896637,0.723328 -9.084549,-1.182281 -10.51561,-5.156708c-1.345642,0.762207 -3.080078,1.205505 -4.130112,2.348907c-1.166656,-0.256683 -2.232224,-0.101166 -3.360062,0.264404c-2.006699,0.645569 -4.340073,0.435577 -6.424545,0.36557q-1.135574,0.023315 -2.006683,-0.871124c-3.367813,0.723358 -6.797836,-1.13559 -9.450134,-3.025574c-1.228928,-0.816711 -1.532288,-2.52005 -2.877792,-3.313385c0.42778,-1.415619 -0.373306,-2.768921 -0.591156,-4.223419c0.692245,-3.266693 1.470062,-6.440094 3.165604,-9.34906c1.081177,-2.761139 3.982315,-5.670029 3.461166,-8.664566c-1.011139,-2.924469 -4.417831,-3.367798 -5.810089,-5.981171c-0.490005,-1.034454 -0.840027,-2.162247 -1.718887,-2.9478c0.256622,-2.232269 -0.209991,-4.892273 0.645523,-6.968994c0.435593,-1.291138 1.174469,-2.348923 0.840027,-3.74118c1.438889,-0.731094 2.123337,-2.800064 2.994461,-4.098938c1.213394,-1.820053 1.998947,-3.912292 3.282318,-5.670059c-0.139984,-2.387863 0.124435,-4.690094 -0.552231,-7.031265c-0.342239,-1.166672 0.054413,-2.916687 -1.158936,-3.538895c0.419998,-2.971161 -0.178848,-6.090134 0.295563,-9.045715c0.645569,-2.185593 1.672272,-4.355637 2.201141,-6.572296c2.177826,-1.796707 4.456726,-6.175659 4.456726,-8.983459c-1.034424,-3.157867 -0.878922,-6.377899 -0.676666,-9.65239l0.832245,-0.746704c-0.357773,-1.392227 -0.241089,-1.944443 0.381104,-3.173355c1.493347,-2.558914 2.574524,-5.358963 4.083405,-7.902344c-0.070007,-1.703354 0.132233,-3.710052 -0.513336,-5.312302c-2.302246,-4.697845 -3.002304,-10.329041 -2.496704,-15.509125l0.777817,-0.816696c-0.536682,-3.710022 0.155579,-7.404526 2.481094,-10.399002l-0.847763,-0.513336c-4.604507,-0.108902 -9.34903,-0.171127 -13.945786,0.054443c-1.127777,-1.267815 -3.360062,-0.70002 -4.90004,-1.40004c-2.543365,-1.026665 -5.218994,-1.267807 -7.777908,-2.31002c-3.274521,-0.536674 -6.214539,-2.138931 -9.45018,-2.753387c-2.652206,2.100029 -6.058914,3.422256 -9.341171,4.161179l-0.661179,1.042213c-1.617783,-0.933319 -3.11113,0.031143 -4.767868,0.311165c-1.998886,0.22551 -4.044464,0.101074 -6.051163,0.171097q-0.326691,-0.583344 -0.637787,-1.182251q-0.482193,-0.95668 -0.840027,-1.991127l0.637787,0.575546c0.956665,0.26445 1.820099,0.342255 2.543427,1.096687c1.641144,-0.132225 3.111145,0.038872 4.65892,-0.637787c1.283371,-0.451111 2.216705,-1.190002 3.632294,-0.785576l0.824417,-0.793327c3.002258,-0.707794 5.397858,-2.465607 8.236847,-3.632278c-0.093353,-1.322266 -0.560028,-2.41893 -1.27562,-3.523392c-0.933334,-1.524467 -0.567764,-3.795616 -0.668854,-5.537857c1.571106,-1.734474 2.893341,-2.792267 4.814484,-0.731133z"/>
   <path id="svg_6" fill="#140f14" d="m159.575333,124.291946q1.182205,-1.026688 2.255569,0.272232q0.357834,1.034447 0.840027,1.991127c-1.034485,1.6567 -2.691147,3.702263 -2.613373,5.724541c1.127823,0.178879 2.364502,0.886658 3.422272,0.404434c1.485611,1.571152 3.118942,2.317825 4.176712,4.386734c-0.544418,4.130051 0.995621,8.633453 -1.64888,12.001312c-1.423386,2.356689 -3.710037,3.593384 -5.576752,5.413406q-1.166672,-0.303345 -2.380066,-0.365585c-0.894455,1.306686 -2.162201,0.816681 -3.538925,0.941116c-2.628876,0.132248 -5.078964,-0.598892 -7.350067,-1.866669c-1.501144,-1.026672 -2.488953,-2.908936 -3.500107,-4.386719c-1.547775,0.645554 -2.660019,2.201096 -4.06781,3.157806c-5.778961,4.098969 -10.943527,9.022369 -16.636925,13.284637c-1.13559,0.75444 -2.232231,2.240036 -3.686707,2.030029c0.692261,2.364471 1.960022,1.22113 3.748924,1.306656c1.602249,1.252274 3.500038,1.594498 4.845627,3.274521c3.360062,2.807816 5.312286,6.766785 6.051224,11.03685c0.404449,2.613358 1.42334,5.0634 0.878906,7.692307c0.972214,1.026703 0.83223,2.325592 0.886658,3.64006c-0.015549,2.092239 0.06221,4.184509 -0.038879,6.276764c-0.101105,1.547806 -1.151123,2.792297 -0.419983,4.223373q-1.897812,0.598923 -0.902252,2.364502c-1.703339,1.62558 -2.395599,3.608948 -3.593414,5.514511c-1.26001,1.532227 -2.761101,2.893402 -4.176697,4.277832c-0.987808,0.972244 -2.636749,1.438934 -3.188965,2.714508c-2.107796,-0.054459 -5.234528,3.080048 -7.878998,1.960037l-0.801109,1.088867c-4.215584,0 -8.462364,-0.22551 -12.670212,0.046692c-1.446671,-1.633331 -5.078957,-0.69223 -7.038979,-0.75444q-0.629974,-0.738922 -1.633324,-1.112259c0.373306,1.322235 1.135529,3.538971 2.877808,2.177795q0,1.018951 0.847771,1.571167c5.553421,2.333359 9.030136,7.210083 14.83242,9.177917c2.597862,1.337769 5.187874,0.62999 7.886818,1.361099c2.582253,0.723373 5.568962,0.303345 8.267914,0.381149c3.741119,-0.062256 7.490097,0.124466 11.22348,-0.069992q0.069962,0.75444 0.139984,1.516663l-0.559967,0.031113c-5.5923,-0.225571 -11.277962,-0.178909 -16.878052,0.007782q-0.746681,-0.334457 -1.501099,-0.653351c0.326637,2.333344 -1.407806,2.846695 -2.364525,4.635651c-0.73114,1.182205 -1.018898,2.403366 -2.271164,3.126678c0.373367,1.89003 -1.415535,4.060074 -2.302254,5.654526c-1.337784,1.718933 -2.628944,4.487854 -5.242264,4.013412q0.023331,-1.415588 -0.031151,-2.831161c1.431137,-1.664474 2.030098,-4.487885 3.873413,-5.677856c-0.23333,-1.40004 1.042236,-2.706726 1.578918,-3.966721c0.902245,-1.998932 2.403397,-3.37561 3.990059,-4.822281c-3.671165,-0.108887 -7.420097,-0.777817 -10.7957,-2.2556c-1.407799,1.431122 -1.586716,4.013367 -2.465622,5.825623c-0.847778,4.861191 -2.403343,8.866806 -1.073372,13.78244c0.715599,5.452316 3.570061,10.702377 9.014603,12.607925q-0.217804,1.034485 -0.435539,2.068939c-4.697853,-0.917755 -8.516785,-3.352234 -11.433533,-7.116791c-2.115585,-3.702301 -1.827782,-7.24118 -2.768906,-11.192322c0.723328,-3.430069 0.637779,-6.790146 1.524483,-10.196854l0.591103,0c0.412254,-2.885605 1.236679,-5.615646 3.500053,-7.598969c-2.706696,-1.656693 -5.07122,-3.826736 -7.723434,-5.568985q-0.793358,-0.5289 -1.09671,-1.322266c-1.446671,0.396698 -3.414482,-0.832199 -3.717842,-2.278931c-1.960007,1.050018 -3.080055,-2.271118 -3.873352,-3.546692c-1.921143,-0.303345 -3.025642,-1.804489 -4.098946,-3.274475c-1.166672,-1.742294 -2.706696,-3.173416 -3.834541,-4.938995c-0.855568,-1.267776 -1.322235,-2.543381 -2.644478,-3.406708q-0.785545,-1.524475 -0.37336,-2.963379c-1.571114,0.248871 -1.975563,-1.882263 -1.781105,-3.017792q-0.855583,-0.272263 -1.532234,-0.956711c-1.571136,-4.285599 -3.717842,-8.283463 -5.047882,-12.639099c-0.769981,-2.240021 -0.505539,-4.690033 0.5756,-6.774506c2.372231,-0.754456 4.246719,-2.271149 6.766724,-2.621155c4.526741,-0.93335 8.85128,-2.442276 13.331345,-3.507843c1.415596,-0.303314 2.986702,-1.127777 4.386696,-0.552216c0.847832,-1.905609 1.493408,-0.97226 3.072319,-0.855576c1.166664,-2.310028 2.753372,0.567795 3.787804,-1.983368q0.941132,0.412231 2.022232,0.101105c3.904495,-1.003342 7.894608,-2.240036 11.612389,-3.780045c3.204506,-1.858917 6.432343,-3.88118 9.037926,-6.52565c1.508904,-1.12001 2.98671,-2.138916 4.270065,-3.531158c4.861237,-3.702271 9.520157,-7.567886 14.334686,-11.277969c1.462219,-1.189972 2.488907,-2.667816 3.927826,-3.888901c6.082321,-4.262314 10.787903,-10.67131 13.751328,-17.430298q0.51329,-0.785553 1.05777,-1.555557z"/>
   <path id="svg_7" fill="#1f0d1a" d="m190.655777,133.275436c3.196716,-0.684479 6.782379,-0.373352 9.722397,1.135529c2.691162,1.664474 4.091156,4.581192 4.876709,7.544571c1.586716,5.242279 2.123383,12.576828 -2.652283,16.372482c-6.626724,4.340057 -17.080185,1.687805 -20.416931,-5.646774c-1.757767,-4.386734 -0.560013,-9.963486 1.547836,-14.046844c1.524445,-2.901184 3.709976,-4.635651 6.922272,-5.358963z"/>
   <path id="svg_8" fill="#fcfbf9" d="m160.27533,133.78096c1.781097,0.451111 2.566727,1.874481 3.500061,3.297821c-0.209991,1.711166 0.186661,2.761185 0.637772,4.324509c-0.637772,1.610031 -0.801102,2.94783 -0.622177,4.682327c-1.322296,2.504456 -3.305603,6.735641 -6.696808,6.541183c-0.435532,1.547806 -3.27446,0.676651 -4.511139,0.847778c-0.73114,-0.785538 -1.477814,-1.656693 -2.395599,-2.21669c-0.645584,-2.566711 -2.006699,-4.557846 -1.672272,-7.373428c1.960022,-0.575577 2.940033,-2.022278 4.316742,-3.398956c1.361115,-1.446655 2.963364,-2.730042 4.114502,-4.308929l-0.225555,-1.112259c1.571121,0.482224 2.302261,-0.606674 3.554474,-1.283356z"/>
   <path id="svg_9" fill="#fbfbf8" d="m194.910324,134.527634l0.233322,0.054443c2.543381,1.182251 4.176697,4.363388 4.993393,6.93013c1.267838,4.37117 2.115601,8.804535 0.295547,13.167953c-0.816635,1.843369 -2.450012,4.021194 -4.59668,4.254517c-2.504501,0.474457 -4.822296,-0.886688 -6.704544,-2.380035c-1.960083,-1.5867 -3.881226,-3.997864 -4.028992,-6.611206c-0.598846,-4.993408 0.762268,-11.083496 4.752319,-14.443542c1.38446,-1.376709 3.266663,-1.112259 5.055634,-0.97226z"/>
   <path id="svg_10" fill="#0f0810" d="m157.514221,139.412186c3.873352,1.85112 2.722244,6.097824 1.127777,9.17009c-2.520035,1.547836 -5.848969,1.975616 -7.62233,-0.89444c0.692261,-2.535599 1.641129,-5.218979 3.243378,-7.326767c0.839981,-1.104462 2.006699,-0.910004 3.251175,-0.948883z"/>
   <path id="svg_11" fill="#0f080f" d="m195.03476,141.8311q1.283356,0.637756 2.815582,0.62999c1.112244,2.061157 1.330032,4.511185 0.06221,6.556763c-1.158859,1.820038 -2.107788,4.091187 -3.710037,5.537872c-1.641113,0.668869 -4.270065,0.948883 -5.358963,-0.832245c-1.921143,-1.936707 -1.221085,-5.584534 -0.256668,-7.824554c1.244476,-2.706696 3.671143,-3.632278 6.447876,-4.067825z"/>
   <path id="svg_12" fill="#1f0e1b" d="m479.907837,144.561111c2.745544,-0.350006 5.592285,-0.233322 8.353455,-0.139999c4.713409,1.073349 10.033539,1.485596 14.599152,3.204498c1.34549,0.482224 2.64447,1.594482 4.098969,1.213333c1.244476,1.633392 3.344543,2.418945 4.658936,4.067871c1.329956,1.578918 3.733337,3.025589 4.114441,5.110062c1.649048,0.031113 3.188904,-0.987793 4.760132,-0.637787c0.948975,-1.890045 4.542358,0.217789 5.32782,-1.757797q1.594543,0.311111 3.188904,0.007797c0.630127,1.485565 3.080017,0.6689 4.371216,0.964432c3.406677,0.777786 6.720154,1.858932 9.496887,4.067841c1.827759,1.104477 2.255493,3.095612 3.904419,4.340057q0.093323,1.026703 0.513306,1.913345c1.750061,3.391174 0.746643,7.972366 1.042358,11.775742c0.318787,2.224487 -1.018982,4.18454 -0.715637,6.300095c-1.83551,1.928925 -2.224426,4.946762 -4.075623,7.000122c-1.656616,1.750015 -3.437744,3.398941 -5.156738,5.094513q0.062195,1.602249 0.031067,3.196701c1.874512,0.855576 2.162231,3.686737 4.06012,4.075607c-0.56781,1.563385 0.56781,2.348923 0.97998,3.780075c0.746643,3.787842 0.217834,7.389008 -0.357788,11.09906l-0.668884,0.824448c-1.05011,3.826706 -4.060059,7.373459 -7.334473,9.551285c-3.274597,2.068909 -6.432434,4.052246 -8.851318,7.163391l0.334473,0.878891l-1.003296,0.544464c-2.076843,5.172333 -6.766846,9.45015 -11.480225,12.25795c-2.877869,2.138916 -6.486847,3.142288 -9.465729,4.923447c-1.812225,-0.007813 -3.779999,0.552185 -5.561127,0.909943l-0.497864,0.630066c-3.694458,-0.5289 -7.575653,0.272217 -11.239044,-0.381134c-2.800018,-0.801102 -5.545593,-1.003326 -7.809021,-2.916702c-2.714386,2.885605 -4.161133,6.93013 -6.813416,9.955704c-3.70224,5.024536 -7.093384,10.492401 -11.184601,15.205811c-2.177856,3.181152 -5.281128,5.631165 -7.948975,8.446777c-3.313416,2.737793 -7.186829,4.985596 -11.067963,6.821228q-0.89447,-0.770081 -1.773346,-1.555603c5.296722,-3.188934 11.013428,-6.922333 14.560181,-12.110168c1.197845,-1.648926 2.97113,-2.823395 4.052246,-4.518982c2.753418,-4.378967 6.222351,-8.275665 9.14682,-12.545715c2.504486,-3.896759 5.110168,-7.739044 7.707977,-11.581284c-2.03009,-2.068909 -4.534546,-3.538971 -6.549042,-5.600113c-3.484528,-0.101105 -6.525635,1.283386 -10.103485,0.762253c-2.03006,4.550049 -3.990051,9.177902 -6.214569,13.626877c-0.559998,1.119995 -1.049988,2.589996 -2.31778,3.072235c0.264435,1.648956 -1.29892,2.92453 -2.162231,4.14563c-2.418915,3.647827 -5.934509,6.517853 -8.952362,9.699036c-1.773376,1.874512 -4.977875,3.041168 -6.245697,5.195648c-1.905579,-0.575592 -2.426666,1.734467 -4.417816,1.306671c-0.980042,1.757782 -5.141174,2.551147 -6.937836,2.208954l0.0466,-1.306732c1.29892,-0.785553 1.99118,-1.812256 3.678986,-1.252258l-0.194458,-1.042206l1.952179,0.171112l-0.326599,-0.980011l1.750031,0.12442q0.085571,-0.808868 0.77002,-1.446655c3.686707,-1.438934 5.701202,-4.184509 8.423462,-6.852325c1.672241,-1.711121 3.461121,-3.08786 4.627808,-5.180115c0.777832,-1.088898 1.368896,-2.784454 2.613373,-3.398865c0.863373,-3.080078 2.854492,-5.950165 4.14563,-8.905731c1.672302,-2.94783 2.854492,-6.720078 5.218903,-9.162323c-4.697784,-0.054474 -8.94455,-3.476761 -11.946747,-6.813446c-0.785583,-0.770035 -1.096771,-2.107803 -2.131165,-2.465637c0.427765,-1.820007 -1.236725,-2.862244 -1.781189,-4.666702c-0.85556,-1.78891 -0.622192,-4.238937 -1.91333,-5.7323c0.264435,-2.582245 -0.233368,-6.035645 1.827789,-8.01123q-0.5289,-1.330017 0.178925,-2.177826c1.913361,-2.597809 3.422302,-5.390091 5.615662,-7.777878c0.427765,-2.045578 -0.77002,-3.53894 -1.228973,-5.467865c-0.808899,-4.246735 -2.714447,-8.252319 -3.803375,-12.429062c-0.1633,-1.695572 -0.45108,-3.290054 -0.847809,-4.946747c0.163361,-2.597824 1.361206,-5.156754 1.345612,-7.738998c1.470032,-0.630035 1.866699,-2.488937 3.041199,-3.585632c3.313324,-3.266693 7.878998,-4.627823 12.475647,-4.114471l0.894531,-1.057785q0.73111,0.279953 1.5867,0.241089c1.679993,-1.540024 2.621124,-3.507813 3.352203,-5.631165c2.644592,-6.751251 5.009033,-13.074677 10.997955,-17.624725c2.123383,-1.306717 4.845642,-1.718918 7.233459,-2.364502z"/>
   <path id="svg_13" fill="#fcfcf8" d="m486.783508,146.101166c2.302246,0.334427 4.853394,1.508865 7.11676,1.197784c0.93338,1.143356 1.648895,1.104446 3.017792,0.715561c2.698975,2.325592 7.420166,3.266739 9.652435,7.038986c2.317841,3.523392 5.195587,5.592331 9.590088,5.32785c3.717834,0.381119 6.945679,-2.74559 10.476868,-2.208908q0.583313,-0.661118 1.174377,-1.291153q0.598938,0.630035 1.158936,1.283386c2.457886,-0.6689 4.728943,1.376678 6.759033,2.52002c2.271179,1.236694 3.313354,3.398926 4.573425,5.56897c0.435547,1.555588 1.672241,3.515625 0.972168,5.086761c1.501221,0.723343 0.801086,2.076691 1.003479,3.476715c0.023254,5.483398 -1.260132,11.581284 -4.511292,16.108017c-2.294434,2.177795 -4.200012,4.612274 -6.090088,7.140091c-0.28772,2.753372 2.10791,3.826736 3.453369,5.825638c0.770081,1.003342 0.808899,2.558929 1.967834,3.064499q-0.178894,1.158905 -0.272278,2.325592c1.314575,1.003326 0.8479,2.978912 0.871216,4.441147c-0.661194,4.822327 -2.372375,9.831284 -5.786804,13.409103c-2.255554,1.648911 -4.480103,3.367813 -6.860107,4.830078c-2.03772,1.345551 -3.974487,2.325592 -5.110046,4.61232c-1.609985,3.375549 -3.134521,6.580078 -5.841187,9.278976c-4.10672,3.624527 -8.711243,5.841202 -13.549072,8.25235c-1.05777,0.412216 -3.033417,0.108902 -3.476746,1.314484c-2.434479,-0.474487 -5.016785,0.108887 -7.474518,-0.350021c-1.687897,-0.381119 -3.212311,-1.641144 -4.946777,-1.236694q-0.404449,-0.777786 -1.205597,-1.298889c-2.792175,-1.921143 -5.444519,-3.795624 -7.715637,-6.339005c-2.138947,-2.216675 -4.923462,-1.003326 -7.116821,-2.605576l-1.151093,0.839996c-2.35675,0.303345 -4.962311,0.528915 -7.342316,1.283386l-0.668884,1.112228q0.36554,-2.488937 -1.011169,-3.313385q-0.832245,0.995575 -1.703339,1.960007c-1.166656,-0.248871 -2.240021,-0.723343 -3.437897,-0.785522c-0.738861,-1.578949 -2.978882,-2.286728 -4.106659,-3.67897c-1.42337,-1.065567 -1.975647,-3.531204 -3.65564,-4.028946l0.108887,-1.190002c-2.869995,-4.760086 -3.78006,-10.523499 -2.488892,-15.936905c0.824402,-3.220047 3.080078,-5.677856 4.176697,-8.672348c1.236664,0.023315 2.473389,0.015533 3.710052,0.015533c-0.101074,-2.092239 0.256683,-4.682266 -0.186646,-6.681183l-0.754486,-0.458908c0.606689,-2.115601 -1.065521,-4.658981 -1.555573,-6.735672c-0.762207,-2.88559 -2.527771,-5.600067 -1.975525,-8.524551l-0.871155,-0.863358c0.178894,-1.547791 -0.785522,-3.725632 1.003357,-4.456726c-1.112244,-2.753387 1.905548,-4.534515 2.045593,-7.000122c2.216705,-2.022232 5.545593,-4.900055 8.781158,-3.748917c0.801178,-1.905563 1.843445,-0.824463 3.437927,-1.034454c2.978882,0.342224 5.600006,-2.426727 6.71228,-4.923431c2.527802,-6.191193 5.024536,-14.179108 10.360107,-18.54248c2.31012,-1.718933 5.903473,-2.893387 8.742401,-2.123352z"/>
   <path id="svg_15" fill="#110f12" d="m198.612549,219.026672q1.967819,-0.365555 4.029007,-0.326675c-1.104507,2.395584 -3.08786,2.022278 -5.18013,2.908936c-3.080002,1.197784 -6.587845,1.78891 -9.247925,3.624496c-3.422226,2.302261 -7.062241,4.612274 -10.002335,7.513458c-1.547775,1.337799 -3.266724,2.372223 -4.627838,3.927841c-2.457809,2.737808 -5.242325,4.581161 -6.867859,8.003418c-2.2789,3.585648 -3.3134,7.606781 -3.780121,11.791275c0.108887,2.247864 1.205612,3.966705 0.863373,6.276764c-0.178909,1.213379 -0.754486,2.372284 -0.715591,3.562286c-2.745575,2.208954 -4.88446,5.320099 -7.801193,7.287903c-2.247833,1.508881 -3.997864,3.78006 -6.020096,5.65451c-1.337784,1.38446 -3.080048,2.784485 -3.943359,4.51123c-0.62999,1.127747 -0.855591,2.271088 -2.123398,2.877777c0.287811,1.454468 -0.482208,2.940033 -1.540024,3.896698c0.412231,1.952271 -0.139984,3.647827 -0.598907,5.506744c-0.318893,2.706696 0.178925,5.522339 -0.217743,8.236786q1.096649,0.536682 0.894455,1.967834c-0.225586,3.313385 1.112244,6.222321 0.840042,9.574615l1.781097,0.373291c-2.823395,2.706696 -5.709,5.211212 -7.94902,8.439026c-2.823395,2.947845 -4.612305,6.696716 -6.914551,9.932373q0.101151,0.81665 0.171112,1.633331q-0.723328,0.668945 -1.11998,1.501129c-2.325584,5.786804 -2.131126,11.511322 -1.983406,17.624695c0.163368,1.524506 0.847824,2.706696 0.637825,4.270081c1.38446,1.431152 1.967773,3.671173 2.9245,5.428986c2.691132,3.974518 5.880051,7.513519 9.543472,10.624634c3.056671,2.061096 6.167862,3.958923 8.991196,6.354523c2.348984,2.162262 2.932281,5.942352 3.608994,8.936829c0.334442,1.337769 -0.443375,3.70224 0.995544,4.417847l-0.20224,1.166656c0.552216,5.312317 3.290039,10.282349 6.634537,14.358032c0.886703,0.995544 2.232269,1.073303 2.597839,2.512238c1.46228,-0.505615 2.62114,0.419983 3.453384,1.524445c2.947815,-0.420013 5.981201,-0.116669 8.960098,-0.280029l0.816772,1.050018c1.983292,-0.48999 4.215576,-0.280029 5.421112,1.563324c1.516693,2.776764 2.924484,5.483459 3.430038,8.649078c0.194458,1.874481 2.084503,2.558929 1.042282,4.503387c1.85112,0.482208 1.470016,2.691193 2.838928,3.982269c3.958908,7.179016 9.776749,13.066864 17.764648,15.524689c1.322311,0.466644 3.119019,0.427795 4.168976,1.368927c3.235641,-0.334503 6.541229,0.085541 9.792419,-0.155609c1.804443,-0.108887 3.212234,-1.252197 4.98558,-1.392242c0.925537,-0.77774 2.348923,-1.22113 2.691162,-2.496643c2.107864,0.03891 4.052261,-1.314484 6.175659,-1.330017c1.221146,0.186646 2.177795,0.793335 3.414505,0.583282c0.575546,0.933411 1.485535,1.687805 2.364456,2.325592c0.427795,1.843384 1.672272,3.282318 1.998886,5.203461c0.816696,1.726685 2.442276,4.215576 3.850098,5.514557c2.185593,1.998871 4.884491,1.594421 7.614532,1.423248c-1.205536,-0.894409 -1.314438,-2.123322 -1.742218,-3.437775c-1.104446,-3.476685 -2.31781,-6.922333 -3.461182,-10.391235c-0.451126,-1.306702 -0.443329,-2.940094 -1.314453,-3.990112c0.279968,-2.815582 -1.431107,-5.2034 -0.598877,-8.174561l-0.785583,-0.81662c-0.241104,-2.286743 -0.147766,-4.658997 0.031097,-6.953491c-1.205551,-0.676666 -0.840027,-1.508911 -0.902206,-2.691132c0.311111,-3.227814 -1.003387,-6.113403 -1.011185,-9.356781l1.625641,-0.746735c-1.967896,-2.395599 0.544434,-3.997864 3.017792,-3.468903q0.606644,0.948914 1.236664,1.882233c-1.85112,2.076721 -1.018875,6.027893 -0.404449,8.485657c0.365585,1.361115 -0.435516,3.678955 0.995544,4.417847c0.038971,1.62558 -0.878891,5.148956 0.762283,6.152344l-0.171097,1.944458c0.91777,9.854645 4.308929,18.402496 7.451172,27.673737q0.381165,1.050018 -0.015564,2.240051l1.057861,0.85556c-0.256714,2.31781 0.132202,4.262268 0.65329,6.486755c0.591187,2.940033 -0.801086,5.351166 -0.707733,8.197906c1.399994,0.178925 4.285614,-0.661102 4.993378,0.948853c2.11557,-0.839966 4.876801,1.228943 6.455658,2.488983c2.613373,-0.832245 4.207794,-4.285614 6.665619,-5.677856c1.936676,-1.158875 4.861145,-3.570068 7.171234,-2.9245c-0.521057,-1.166656 -1.609985,-1.081146 -2.675598,-1.50116q0.311096,-0.785553 0.630035,-1.563354c-1.493347,-1.104462 -1.516693,-3.095551 -2.869995,-4.200043q0.108826,-1.151154 0.2099,-2.302246c-1.158844,-0.948944 -1.05777,-1.742218 -0.684448,-3.12674c-1.571045,-0.598938 -0.668854,-3.056671 -1.01886,-4.386719c-1.29892,-4.145569 -0.36554,-8.610077 -0.77002,-13.01239l1.205566,-0.777802c-0.630005,-2.185638 -0.334412,-4.705597 -0.334412,-6.968994q-0.062317,-0.777771 0.878815,-1.314453c-0.334412,-4.246735 -0.023254,-8.547943 -0.132141,-12.810181c-0.388916,-4.511169 1.143341,-8.967926 1.415588,-13.486877q1.547791,-0.031128 2.955566,-1.011139q0.85556,0.630035 1.718964,1.244476c-0.007813,1.882233 -0.785583,3.585602 -0.785583,5.460083c0.0466,5.452301 0.023285,10.896851 0.031097,16.349121c-0.031097,2.380035 0.256683,4.526733 -0.412262,6.836761c-0.878815,3.064453 0.12442,6.62677 -0.56778,9.706848c-0.295593,1.306641 -0.575562,2.574463 -0.536652,3.927826c3.383362,-0.56781 6.346741,1.781097 9.551239,1.376678q0.466614,1.081085 1.680054,0.902222c2.838928,-0.038849 5.833374,0.28775 8.625641,-0.248932c2.566772,-0.77771 5.491241,-0.583282 8.143463,-0.388916c1.259979,-1.267731 3.90451,-0.948853 5.498993,-0.738831c0.81662,-0.910004 1.804474,-0.77002 2.908905,-1.042267c1.477783,-0.178894 2.652283,-0.902222 4.091217,-0.420013c1.228851,-1.648865 3.951172,-1.2211 4.31662,-3.461121l1.190063,0.272186c2.72226,-2.356689 4.63562,-5.327789 6.17569,-8.555634c2.963379,-4.767853 1.991119,-10.399048 5.903381,-15.120239c2.294434,-2.597839 5.172333,-3.290039 8.151215,-4.977875c2.325592,-1.275543 4.946777,-1.516602 7.264618,-2.800049c2.76886,-0.723328 4.970032,-2.426666 7.777802,-2.76889c1.213409,-1.921143 3.951233,-2.621155 5.561249,-4.254547c4.433472,-4.410034 5.841248,-9.862366 7.287872,-15.750214c0.311188,-2.589996 -0.124451,-5.234528 0.171082,-7.840057l1.081177,-0.505615c-1.610077,-0.622253 -1.703339,-2.621124 0,-3.196686l-1.050018,-0.560028c-0.466675,-3.725647 0.412231,-7.233459 -0.567749,-10.997955c-0.357819,-0.995605 -0.116699,-2.372253 -1.283386,-2.800049q0.443329,-1.190002 0.077759,-2.185547c-1.454468,-4.18454 -3.150024,-8.571259 -3.733398,-12.973602c-0.023254,-3.398926 2.154541,-6.051208 4.518982,-8.244476c3.764587,-3.881226 8.438965,-7.43576 9.691284,-12.981323c1.322205,-3.523376 2.138947,-7.15567 3.080017,-10.787964c0.45108,-2.11557 0.023346,-4.332275 0.629974,-6.455658c0.334564,-1.252228 0.497803,-2.457825 0.458893,-3.756714q-0.427704,-0.645569 -0.855499,-1.283356c0.023254,-1.672272 0.077728,-3.344482 0.171051,-5.016754l-1.252228,-0.878937q0.536713,-0.995544 0.326752,-2.014404c-1.757874,-6.199005 -3.601227,-11.939087 -8.182373,-16.699127c-2.014557,-1.337799 -3.733398,-2.994537 -5.701233,-4.38678c-1.742218,-1.454498 -1.088928,-4.402283 -1.415527,-6.432281c1.104431,-0.762268 0.855499,-2.224487 1.252228,-3.437836c0.987793,-2.838898 1.835541,-5.69339 2.061096,-8.70343c0.544464,-2.411194 1.081116,-4.643433 0.318909,-7.109039c-0.225525,-1.252243 -1.197754,-2.932266 0.217804,-3.811172l-1.602264,-0.62999c0.00769,-2.418945 -1.221069,-4.332291 -2.862305,-5.988983c-1.913269,-1.89003 -3.406647,-3.818954 -5.942261,-4.923401c-1.353363,-0.770035 -3.258972,-1.15892 -4.238953,-2.395615c-1.400024,-0.038864 -2.39563,0.700027 -3.134491,-0.941101q-1.656738,-0.007782 -2.302277,1.205551q-1.485596,-0.256653 -3.033356,-0.178879q1.143402,-0.482208 2.302246,-0.93335q-0.560028,-0.6689 -1.119995,-1.345596c1.944489,-0.007751 3.974487,-0.062195 5.887848,-0.435532l0.303284,1.12001c3.733459,0.007782 6.432373,1.882233 9.660217,3.422287c1.967804,1.049988 3.873352,2.333374 5.49118,3.86557c1.804443,1.796738 2.240021,4.005646 3.663391,6.315674c0.902222,1.470016 0.591064,3.468933 1.672241,4.760086c-0.194458,2.768951 -0.178894,5.69342 0,8.470062c-1.291077,0.987823 -0.941132,2.496796 -0.700073,3.896759c-1.337738,0.816711 -0.886597,3.196716 -1.648865,4.550079c-1.22113,2.488922 -0.715576,5.055634 -0.801086,7.824554c2.481079,2.971161 5.576691,2.48114 8.921173,3.702301q1.353363,0.52887 2.776733,0.186615c0.793335,1.470032 2.628937,0.910034 3.935577,0.723358q0.458984,1.026703 1.252258,0.93338c2.823395,-0.007782 5.794586,0.233368 8.586792,-0.241119l0.808899,1.042236c2.473389,0.07782 5.009003,-0.225525 7.466827,0.070007c3.78006,0.567749 6.704529,2.232239 10.531219,0.645538l-0.0466,1.306732q-0.023376,0.559967 -0.007813,1.127747c1.291077,-0.08551 2.255554,0.124481 3.437805,0.614471c3.935577,1.508911 8.143463,2.418884 11.923492,4.262299c0.925629,0.396637 2.084473,0.287781 3.080109,0.334442q0.878876,0.785522 1.773346,1.555603c2.761108,2.162231 5.172272,4.036743 7.070129,7.062317c0.007813,1.742218 1.454437,2.831116 1.687805,4.573395c0.847748,2.286682 0.808838,5.250092 2.162292,7.256714l-0.178955,1.135651c0.707764,3.391083 1.361115,6.813385 2.099976,10.196808c0.326691,1.687805 1.571167,4.153351 0.676758,5.755585c1.960022,0.567841 1.034393,2.348938 0.839935,3.811218c1.773376,0.886658 0.746674,2.255554 1.260071,3.834473c1.703369,6.836761 4.293427,13.525757 7.591217,19.748077c1.228851,4.106689 3.811127,7.606812 5.218933,11.612396q0.622284,0.73114 1.516693,0.840027c-0.606659,2.971161 1.812256,0.917786 1.291138,3.857819c2.504456,1.446716 3.686707,5.436798 5.234558,7.785736c1.470001,2.115509 2.994446,4.262238 4.643372,6.237793c2.387817,2.240021 5.506744,3.678955 8.042328,5.763397q0.777802,-0.101074 1.547821,-0.202179q1.104431,0.910004 2.317841,1.679993q0.77005,0.015625 1.524445,-0.023315c2.053436,1.571167 4.938965,2.061188 7.249023,3.266724c0.007782,1.073364 0.038849,1.858917 -0.956757,2.504486c0.225616,2.193359 0.202332,4.43338 0.108948,6.634521q0.054352,1.127869 -0.85556,1.983368c0.264496,1.407867 0.373322,3.640076 -0.77002,4.736725c0.668884,2.535614 -0.956696,4.604553 -0.645599,7.256836c0.474487,3.305603 -1.081116,6.066711 -0.777771,9.333435c0.070068,6.315643 -0.007813,12.623505 0.046661,18.939148c2.761108,0.031158 5.20343,-0.311066 7.777893,0.89444c4.285645,1.804535 6.922363,5.094513 10.111267,8.33017c1.804504,1.897827 2.628906,4.410065 4.168884,6.401184c0.552368,3.74118 1.991272,7.474579 2.2323,11.324646c-0.031067,3.13446 1.609985,5.89563 2.994507,8.672333c1.874451,2.442261 3.927856,4.783356 5.81012,7.225677c0.668823,0.801086 0.956726,1.773346 2.03009,2.053345c-0.474609,1.586731 1.081055,2.621124 1.578796,4.114471c1.680054,3.367889 1.46228,6.829071 1.119995,10.476898c-1.18219,3.686737 -3.873291,6.595612 -5.584473,9.7612c-0.824524,1.641174 0.528931,4.830078 -1.431213,5.561157c2.403381,0.89447 0.420105,2.356689 0.412292,4.114563c-0.085571,5.926758 -2.838989,11.433533 -7.303406,15.306885c-2.722229,3.087769 -6.307861,3.958923 -10.157959,4.79895c-0.89447,0.202271 -0.769958,1.532288 -0.925598,2.232239c1.011169,1.143372 1.026611,2.551147 0.700012,3.966736c1.407776,0.676697 0.762268,2.255615 0.902283,3.507813c0.116638,1.384521 -0.505554,2.543335 0.886658,3.391174c-0.419983,1.680054 -0.085571,3.258972 0.373291,4.876709c0.676697,3.087891 0.435547,5.600098 -1.34552,8.236877c-1.578918,0.41217 -2.68335,1.399963 -4.091125,2.162231c-4.620087,2.574463 -10.368042,3.352295 -15.485809,4.51886c-1.446716,0.412292 -3.468964,-0.209961 -4.386749,1.081177c-5.094513,-0.12439 -10.297882,-0.178833 -15.384705,0.03894c-1.221069,-1.088928 -3.430023,-0.824524 -4.96228,-1.368958c-3.002289,-0.552246 -4.923401,-2.589966 -6.774567,-4.845581c-1.547791,-2.240051 -0.995544,-4.402344 -1.516693,-6.914551c-0.334442,-1.423401 -0.606628,-2.831177 -0.559967,-4.30127c0.077789,-4.907776 -0.023346,-9.807861 0.062164,-14.715698q-1.259918,1.026733 -1.975525,-1.003418q-0.980042,0.458984 -2.146698,0.427917c-1.928925,-1.400146 -4.223389,-2.19342 -6.082336,-3.811218c-1.905579,-2.520081 -3.37561,-5.265625 -4.168945,-8.337952c-0.653351,-2.535522 -2.193298,-4.549988 -1.46228,-7.171143c-1.13559,-0.738953 -0.824402,-1.711121 -1.034424,-2.877869c-0.186646,-1.796631 -1.018951,-3.515564 -1.540039,-5.234497c-2.061127,-1.368896 -4.231171,-1.672241 -6.587799,-2.201111c-1.765686,-0.342285 -3.196808,-1.446716 -4.9935,-1.750061c-1.337738,3.367798 -2.714447,6.62677 -4.456726,9.807861c-0.972168,1.610046 -3.002228,1.897827 -3.927734,3.445679c-2.527863,-0.085571 -4.884613,1.493347 -7.482391,1.431152c-2.574463,0.334412 -4.713379,-1.368958 -7.217896,-0.614502q1.508911,0.381104 1.37677,1.617859c0.031067,5.148926 -0.062317,10.305664 0.031067,15.462341c-0.101196,1.182251 0.295532,2.076782 -0.933441,2.753418c0.350067,2.022278 0.458984,4.682251 -1.485535,5.97345c0.513336,1.67218 -1.34549,2.271118 -2.263306,3.352234c-2.107849,1.936707 -4.519012,2.115601 -7.15567,2.893372c-1.672272,0.505615 -3.49231,0.559998 -5.218964,0.326721q-0.808929,0.964478 -1.998993,0.855591c-5.716705,-0.007813 -11.433441,-0.062256 -17.150238,0c-4.612274,0.093262 -9.380127,-1.213379 -12.452393,-4.861206q-0.023254,-0.863342 0.256683,-1.617859l-1.096741,-0.824402c-0.388916,-4.643372 1.081177,-8.773499 1.804535,-13.284668c0.591125,-2.84668 1.711121,-5.148987 1.283386,-8.151245c-0.319,-1.796692 -0.902313,-3.468872 -0.816742,-5.335632c0.147797,-1.368896 -0.342194,-2.590027 0.956696,-3.461121c-2.955536,-1.913391 -5.219025,-4.355652 -7.668976,-6.844543c-2.418915,-2.955627 -2.488953,-6.269043 -2.325592,-9.91687c0.248871,-2.154449 -0.987793,-4.114471 -0.762238,-6.191193c-2.15448,-1.664429 -3.118927,-4.900055 -5.374542,-6.354523c0.186646,-1.244415 -0.48999,-2.784485 -1.66449,-3.313385c0.521149,-1.656647 -0.41217,-2.768921 -0.567719,-4.363342c-0.11673,-3.430023 0.132141,-6.860138 -0.054474,-10.290161c0.987793,-1.088898 1.127747,-2.753448 1.804504,-4.060089c1.781067,-3.352234 5.670074,-5.421173 7.513367,-8.649017c0.738922,-1.781097 1.890045,-4.332275 1.081177,-6.214539l1.065552,-0.77002c0,-3.305603 1.46225,-5.942322 3.398956,-8.50119c1.656647,-3.033417 4.246735,-5.00119 6.556702,-7.466797c1.384521,-1.477814 3.25116,-2.240051 4.58902,-3.772278q-0.606689,-0.521149 -1.190063,-1.065552c-1.952179,-0.062286 -3.453369,-1.003418 -5.12561,-1.897827c-3.344452,-2.030029 -6.51004,-4.30899 -9.605713,-6.704529c-1.781128,-1.470062 -3.21225,-3.134552 -4.176727,-5.250092c-0.567719,-1.322266 -1.765533,-2.940063 -1.050018,-4.378937l-1.578918,0.108887c-1.54776,1.446655 -3.577759,3.235565 -3.974487,5.413391c-1.368896,3.958984 -2.068848,7.933411 -3.671112,11.83017c-1.236725,2.380005 -3.515656,4.207794 -4.456787,6.696777c-2.138947,0.311127 -3.04895,2.450043 -5.148987,3.095581c-4.503387,2.597809 -9.23233,2.924469 -14.210205,3.881226c-1.602234,0.28775 -4.083313,-0.311157 -5.288971,0.956665c-2.535492,-0.155579 -5.218933,-0.334503 -7.73114,0.116638c-2.706757,0.77002 -5.44455,0.6922 -8.213531,0.342194q0.295593,1.073334 1.120026,1.197845c4.721191,1.524445 9.823517,3.507843 13.743591,6.603424c1.104462,1.648895 1.423309,3.570099 2.792206,5.102325c-0.108887,2.224426 -0.32663,4.573334 0.054474,6.774536c-1.368896,0.536652 -0.941132,3.282196 -1.742218,4.503357c-1.042267,1.820038 0.178864,3.756775 -2.03006,4.690094q1.470001,0.886658 1.345612,2.380005c4.176697,1.485626 9.43454,3.103424 12.289032,6.650146c1.073334,1.119965 1.687805,2.761108 2.955536,3.624481q-0.676605,1.742218 0.941193,2.372192q-0.342194,1.400024 -0.241089,2.909027q0.451141,0.661102 0.933289,1.306641c-1.376617,1.679993 -0.77774,3.601166 -1.641144,5.623413c-1.423309,3.344482 -2.947784,6.587952 -5.296661,9.395691c-1.944489,3.056702 -4.845703,4.604492 -7.894592,6.34668c4.005646,3.064636 5.60791,7.9646 4.518921,12.856934c-0.264465,1.213379 -0.785522,2.255554 -0.357788,3.515564c-1.034393,1.166748 -0.36557,2.698975 -1.975525,3.500061c0.81662,1.151184 -0.466644,2.628906 -0.948944,3.694519c-3.04895,5.40564 -7.381256,9.862427 -13.875763,10.430176c0.163391,3.072266 1.58667,6.175659 1.485535,9.317871c-0.023254,2.076721 0.038971,4.153442 -0.069916,6.230164c-0.023407,1.858948 -2.115692,3.289978 -2.325592,5.141174c-2.426666,-0.832214 -2.924469,3.717834 -5.950165,2.457825l-0.241028,0.964478c-5.623474,2.706665 -11.472443,4.277771 -17.694794,4.822266c-2.691101,0.155518 -5.094513,-1.003418 -7.777802,-0.863342c-5.989044,0.062195 -11.978058,0.007813 -17.966934,0.054382c-0.910034,-0.894409 -1.82785,-1.788879 -2.745651,-2.675537c0.031097,-2.512207 0.031097,-5.032288 -0.007782,-7.544495q0.435577,-0.630188 0.871109,-1.252319c0,-2.776733 -0.381088,-5.732361 0.124496,-8.470154c0.964462,-2.97113 0.451065,-5.685608 0.51329,-8.750061c1.407791,-1.29895 2.862274,-0.980042 4.620071,-0.886719c0.093369,2.411133 0.070038,4.658936 -0.668839,6.984558c-0.248932,3.367798 -0.140045,6.898987 -0.01561,10.274658c-1.656662,2.504395 -0.528885,6.720032 -0.878891,9.652222c0.808945,0.637878 1.773422,2.294495 2.932281,1.711182c3.383377,-1.119995 7.295639,-0.373291 10.889053,-0.598938c1.827789,0.11676 4.5578,-0.497742 5.988983,0.855652c1.967773,-0.210022 3.904449,0.08551 5.825684,-0.241089c5.988922,-1.260071 11.783447,-3.577942 16.823547,-7.070129c3.290009,-3.445679 2.193329,-6.759033 2.473328,-11.021301c-1.228882,-1.656677 -1.003296,-4.495667 -0.536621,-6.393433c-1.905609,-0.894409 -0.910004,-1.765503 -1.042267,-3.422241q-1.392242,-0.031128 -2.784515,0.015503c-1.843292,-1.641113 -4.480072,-2.333374 -6.276764,-4.207825c-2.006683,-2.201111 -4.744507,-3.492249 -6.517883,-5.848938c-2.652222,2.380005 -3.756714,5.615601 -6.992279,7.536743c-1.998932,1.073364 -5.086761,3.282288 -7.389038,2.177795l-0.878906,1.151184c-1.602234,-0.412292 -4.705597,0.871094 -5.242249,-1.088928c-1.86676,0.637756 -3.663452,-0.147766 -5.390045,-0.824463c-3.562332,-1.532227 -6.930145,-3.360046 -9.543533,-6.284546c-2.527786,-2.4422 -4.775604,-4.822266 -6.004532,-8.197876c-0.801132,-2.730042 -1.400009,-5.685608 -2.496674,-8.376831c-1.501144,-2.473328 -4.005646,-3.476624 -5.670105,-5.747803c-3.360016,-3.352295 -5.397858,-8.166809 -5.771225,-12.880188c-0.925522,-2.372314 0.108902,-4.192261 0.30336,-6.556824c0.287796,-4.658936 4.495605,-8.858917 6.891205,-12.771332q-0.015549,-0.855499 -0.365509,-1.563263l1.135513,-0.89447c-0.139969,-3.710083 -0.046677,-7.427887 -0.116638,-11.145721c-0.124496,-3.328979 0.738937,-6.556793 2.240036,-9.504578c2.076721,-4.658997 7.28009,-7.832367 11.861328,-9.605713c-2.123413,-1.337769 -4.464584,-1.438873 -6.206802,-3.437805c-3.212311,-2.737854 -3.834564,-6.307861 -5.911209,-9.761292c-0.536667,-0.871124 -1.345566,-0.762207 -2.240021,-0.93335c-1.664474,1.54776 -4.005661,1.718903 -5.530075,3.321198c-1.314438,-0.334473 -2.138947,-0.435638 -3.041183,0.668884c-4.868973,-0.11673 -9.839035,-0.186676 -14.692398,0.038879c-0.948944,-1.034485 -2.698959,-1.073364 -3.943375,-0.73114c-0.87117,-1.151062 -2.566788,-0.754425 -3.850082,-1.368927c-1.532288,-0.808838 -3.080048,-1.493286 -4.806732,-1.75c-0.89447,-0.630005 -1.812256,-1.1745 -2.566727,-1.983368c-1.166672,1.0578 -2.271164,2.19339 -3.297867,3.398926c2.2323,-0.054413 4.518951,1.0578 6.525696,1.960083c2.107803,1.026703 3.111145,2.901093 5.032288,4.184509c0.070023,2.099976 2.372253,3.70224 2.255554,5.763336c1.197876,0.684479 1.05777,1.757843 0.700073,2.940125c1.190002,0.723328 0.847763,1.571106 0.933334,2.76889c-0.054428,2.294434 0.116623,4.643372 -0.171112,6.922333c-0.746689,2.48111 -2.325607,4.868988 -4.666779,6.090118c-1.244431,0.886658 -3.188904,1.58667 -3.764465,3.064453c-1.330048,2.434509 0.754425,4.798981 0.132248,7.591278l1.088837,0.894379c-0.614441,2.465607 0.124496,5.2034 -0.505554,7.700165c-0.490005,1.765564 -0.622177,3.764526 -1.960007,5.133362c-1.236679,1.353363 -2.597794,2.582275 -3.865631,3.896759c3.585617,3.04895 5.97348,7.046753 9.115692,10.437927c-0.038864,1.858887 2.208954,6.020142 -0.20224,7.015686q0.210052,0.801147 0.388901,1.602234l-0.707748,0.707764c-2.185593,4.14563 -5.148956,8.221252 -8.213486,11.767944c-3.818939,3.422302 -7.070099,7.583496 -11.254623,10.539063c-3.733383,3.235535 -7.474487,6.525696 -11.449005,9.473511c-2.317795,0.948853 -5.312286,0.085449 -7.676758,0.738892q-0.723389,-1.703369 -1.952286,-0.871155c-0.038879,-1.680054 -1.298904,-3.912231 -2.380066,-5.16449c0.140045,-1.104431 -0.077759,-2.146729 -0.396652,-3.204468c-1.470001,-5.125671 -2.35672,-10.32135 -4.200043,-15.345886c-0.948929,-3.344482 -3.017838,-6.930054 -3.55452,-10.399048c-1.368912,-0.583313 -0.917801,-1.742249 -0.637772,-2.908813c-1.361115,-0.505615 -0.801163,-2.419006 -1.267776,-3.593445q-0.93338,-1.812256 0.808838,-3.126709l-1.446671,-0.318909c-2.232224,0.777771 -4.394485,0.544495 -6.696747,0.738892q-0.544434,-0.559998 -1.252213,-0.715515c-3.212296,-0.521179 -6.300095,-0.97998 -9.154572,-2.652283l-0.178909,-0.910034c-1.648941,0.746643 -2.216705,-0.36554 -3.476715,-1.13562c-3.717842,-2.426666 -7.000099,-5.545593 -8.159019,-9.986694c-0.692261,-2.877869 -1.703346,-5.817932 -2.037788,-8.750183q-1.057808,-0.832245 -1.967873,-1.78891c-3.367805,-0.287811 -7.62233,-0.684479 -10.305679,-2.9245c-1.65667,-2.037842 -2.978912,-4.161163 -3.290062,-6.828979c-0.451118,-3.430023 -1.446671,-6.54895 -1.221138,-10.025757q0.404442,-0.637787 0.832291,-1.267761c-0.420044,-2.800018 0.738884,-4.915619 1.48555,-7.482361c1.711151,-2.450012 3.305603,-4.697845 6.082314,-6.066772c2.037834,-0.941132 3.826729,-2.014435 5.335632,-3.70224c-0.202263,-1.392242 0.668915,-3.414551 -1.19001,-3.795654c1.944489,-0.505493 0.785553,-3.266663 1.423332,-4.814484c1.252289,-3.406738 4.417847,-6.191193 7.179016,-8.407867c1.392265,-0.762238 3.391144,-2.955627 5.040085,-2.084503q0.6922,-1.975586 2.333382,-0.762238c0.847771,-2.092255 2.722237,-0.606689 4.550026,-1.322266c3.18895,-1.135559 6.354568,0.015625 9.489044,-0.801086c1.827789,-0.684448 3.227829,-2.675598 4.651169,-3.966766c3.25119,-2.730011 7.085663,-3.70224 11.23909,-4.083344c1.151123,-0.132233 2.589996,0.147766 3.601135,-0.458862c0.684418,2.263306 1.306702,1.065552 3.04892,1.096649c1.190018,1.298889 2.691162,1.524475 4.207855,2.310028c0.365555,-2.411133 2.667816,-4.316742 4.044525,-6.245697c0.700012,-0.840027 1.392197,-2.162231 2.504501,-2.457733c-3.982361,-2.084534 -7.855728,-0.552277 -12.110184,-1.275604c-3.103409,-0.902252 -5.93454,-1.78891 -8.345673,-4.060089c-1.843384,-1.267822 -2.644485,-3.554443 -4.371231,-4.822296c0.054474,-1.493347 -1.205536,-2.473358 -1.547775,-3.951111c-0.583359,-2.380066 -2.185593,-4.736786 -1.400055,-7.147949c-1.275543,-0.65329 -0.824432,-1.501129 -0.925522,-2.691132c0.171112,-2.675598 -0.762283,-5.428925 -1.477814,-8.003448c-1.485611,-3.608948 -5.99675,-5.475616 -8.827927,-7.840118c-3.025604,-1.890015 -5.0867,-4.59671 -7.692307,-6.976776c-2.418938,-2.193329 -4.036728,-5.234528 -5.864517,-7.941223c-1.057831,-3.056732 -2.208946,-6.455658 -1.991165,-9.722382c0.085564,-2.605591 -0.116692,-5.234558 0.116653,-7.824524c0.365562,-2.2789 1.446663,-4.168945 1.361176,-6.556793c0.886642,-1.034485 1.85112,-2.543365 1.314423,-3.958893l0.917809,-0.723419c0.902245,-2.473358 2.574448,-4.35556 3.958916,-6.556732c2.496689,-2.994476 4.674561,-6.136719 7.669006,-8.680115c0.941132,-0.824463 2.745621,-2.737823 3.912308,-1.345581q0.536667,-1.773376 -1.757843,-1.337769c0.311157,-2.947845 -0.567764,-5.390106 -1.135529,-8.283478c-0.583344,-2.100037 -0.101151,-4.200104 -0.762253,-6.245667c-1.09671,-3.850006 0.038864,-7.389008 0.785599,-11.176819c1.151077,-4.340057 3.795609,-7.272369 6.354523,-10.787933c1.998901,-2.706726 5.078949,-4.207855 7.412292,-6.673431c2.730072,-1.804504 4.728973,-4.262299 7.116791,-6.463409c0.311142,-6.774567 -1.190002,-13.409134 2.154465,-19.219208c1.260025,-3.017822 3.274521,-5.436737 5.265671,-7.9879c1.656662,-2.092239 4.098892,-3.064484 5.833435,-5.0634c2.426682,-2.605591 6.066711,-4.487823 8.314529,-7.171219c-4.285599,1.944473 -8.905701,3.756744 -13.37796,5.296768q-0.801147,0.349976 -1.672256,-0.03891q-0.676727,1.975586 -2.294495,0.785614c-0.855591,1.827759 -1.578918,1.065536 -3.134491,0.878876l-0.878922,0.917801c-4.861145,0.746674 -9.730133,1.773346 -14.606827,2.31781c1.252228,0.61441 1.392258,1.913345 2.457809,2.660019c-0.443359,2.971176 -0.272263,6.144516 -0.116684,9.146805c-1.998886,3.577789 -3.056717,7.630142 -6.074554,10.663498c-1.586655,2.667816 -4.153366,3.881165 -6.338989,5.957886c-1.524445,1.275574 -3.453369,1.26001 -4.635635,2.776642q-0.894447,-0.038879 -1.703346,-0.303284l-0.816635,1.042236c-4.643433,-0.36557 -9.590157,0.443329 -14.11689,-0.466705q0.217735,-1.034454 0.435539,-2.068939c3.383408,1.1745 6.67347,2.271179 10.220184,1.018921c4.938934,-1.337769 8.431236,-4.542267 11.736839,-8.267883q1.127777,-0.443329 0.964462,-1.625549c1.532227,-2.045609 2.745575,-4.262314 3.430023,-6.735703c1.400055,-2.278931 0.062225,-4.931137 1.820038,-6.836746c-1.48555,-1.99115 -0.89444,-4.73671 -1.143372,-7.031219q-0.070023,-0.762222 -0.139984,-1.516663q0.972229,-0.295593 1.804443,-0.793365q1.182266,0.93335 2.481171,0.91777c3.406754,-0.272202 6.953415,-1.555588 10.336823,-1.532227c1.493362,-1.32225 3.188904,0.178894 4.122284,-1.905594q1.547791,1.151138 2.356659,-0.6689q1.011154,0.287811 2.107864,0.272232c2.014435,-1.539978 4.238922,-1.835571 6.556763,-2.675598c4.892258,-1.718903 9.481262,-4.060043 14.350235,-5.833405c1.376648,-0.567764 2.698898,-0.116684 3.484436,-1.617798c2.535645,0.598877 4.207855,-1.913376 6.961227,-1.13559c0.575562,-1.462234 3.41449,-0.707764 4.775604,-1.431122z"/>
   <path id="svg_16" fill="#ef20f2" d="m106.91124,234.209122c3.375603,1.477783 7.124535,2.146713 10.7957,2.2556c-1.586662,1.446671 -3.087814,2.823349 -3.990059,4.822281c-0.536682,1.259995 -1.812248,2.566681 -1.578918,3.966721c-1.843315,1.189972 -2.442276,4.013382 -3.873413,5.677856q0.054482,1.415573 0.031151,2.831161c2.613319,0.474442 3.90448,-2.294479 5.242264,-4.013412c0.886719,-1.594452 2.675621,-3.764496 2.302254,-5.654526c1.252266,-0.723312 1.540024,-1.944473 2.271164,-3.126678c0.956718,-1.788956 2.691162,-2.302307 2.364525,-4.635651q0.754417,0.318893 1.501099,0.653351q0.458916,0.591095 0.917786,1.18222c5.30455,-0.583328 10.585709,-0.388916 15.882446,0.108871c-0.42778,4.207855 -0.318893,8.330185 -0.038879,12.537979c-0.684448,2.473389 -1.897797,4.690094 -3.430023,6.735703q-1.27562,0.342194 -0.964462,1.625549c-3.305603,3.725616 -6.797905,6.930115 -11.736839,8.267883c-3.546715,1.252258 -6.836777,0.155579 -10.220184,-1.018921c-5.444542,-1.905548 -8.299004,-7.155609 -9.014603,-12.607925c-1.329971,-4.915634 0.225594,-8.921249 1.073372,-13.78244c0.878906,-1.812256 1.057823,-4.394501 2.465622,-5.825623z"/>
   <path id="svg_17" fill="#ca3acb" d="m121.977005,236.985825c5.60009,-0.186691 11.285751,-0.233353 16.878052,-0.007782l-0.07782,1.298874c-5.296738,-0.497787 -10.577896,-0.6922 -15.882446,-0.108871q-0.45887,-0.591125 -0.917786,-1.18222z"/>
   <path id="svg_18" fill="#c332c3" d="m138.855057,236.978043l0.559967,-0.031113c0.248932,2.29451 -0.342178,5.04007 1.143372,7.031219c-1.757813,1.905609 -0.419983,4.557816 -1.820038,6.836746c-0.280014,-4.207794 -0.388901,-8.330124 0.038879,-12.537979l0.07782,-1.298874z"/>
   <path id="svg_19" fill="#fbfbf7" d="m469.656586,246.140381c2.014496,2.061142 4.518951,3.531204 6.549042,5.600113c-2.597809,3.842239 -5.203491,7.684525 -7.707977,11.581284c-2.924469,4.27005 -6.393402,8.166748 -9.14682,12.545715c-1.081116,1.695587 -2.854401,2.870056 -4.052246,4.518982c-3.546753,5.187836 -9.263458,8.921234 -14.560181,12.110168c-0.995636,-0.046661 -2.15448,0.062195 -3.080109,-0.334442c-3.780029,-1.843414 -7.987915,-2.753387 -11.923492,-4.262299c-1.182251,-0.48999 -2.146729,-0.699982 -3.437805,-0.614471q-0.015564,-0.56778 0.007813,-1.127747c1.796661,0.342194 5.957794,-0.451172 6.937836,-2.208954c1.99115,0.427795 2.512238,-1.882263 4.417816,-1.306671c1.267822,-2.15448 4.472321,-3.321136 6.245697,-5.195648c3.017853,-3.181183 6.533447,-6.051208 8.952362,-9.699036c0.863312,-1.2211 2.426666,-2.496674 2.162231,-4.14563c1.267792,-0.482239 1.757782,-1.95224 2.31778,-3.072235c2.224518,-4.448975 4.184509,-9.076828 6.214569,-13.626877c3.57785,0.521133 6.618958,-0.863358 10.103485,-0.762253z"/>
   <path id="svg_20" fill="#bd53cb" d="m135.308334,257.550598q0.163315,1.18222 -0.964462,1.625549q-0.311157,-1.283356 0.964462,-1.625549z"/>
   <path id="svg_21" fill="#f9faf5" d="m384.185333,282.385376q0.972198,0.357758 1.944489,0.73111q1.423309,0.466705 2.940063,0.108917c0.622192,1.524445 3.406647,0.808899 4.612213,0.738892c0.676758,1.407776 2.201202,0.785553 3.468933,0.933319c2.605682,-0.139954 5.335693,0.210052 7.902405,-0.279938c0.754425,1.921143 2.940063,0.645508 4.588898,1.026672c7.101257,0.910004 13.844666,4.106689 20.743652,6.090057c2.877808,1.431122 6.144531,1.882263 8.384583,3.997833c1.524506,1.431152 3.056702,2.9245 4.270081,4.620087q0.614471,0.715546 0.015503,2.022247q1.291168,-0.085541 1.46228,1.081116c0.521088,1.734467 1.065552,3.437836 1.625519,5.148956c0.458954,1.524445 0.062286,3.220062 1.197876,4.301147q-0.163361,1.314514 -0.163361,2.64447q0.443329,0.645599 0.909973,1.267853c-0.303284,1.773346 0.350006,3.181122 0.653381,4.892303c0.746674,4.161163 1.757843,8.283417 2.372253,12.467926q0.108887,0.731171 0.785553,1.306732c-0.567719,2.247803 0.801178,4.861145 1.205536,7.11673c0.902344,4.744537 3.157898,8.765717 4.900116,13.199097c0.653351,1.62558 2.426727,3.593414 2.037811,5.390106c1.376709,0.925537 1.182251,2.745575 2.52005,3.764496q-0.124451,0.801086 -0.217773,1.602203q0.871155,1.166718 1.781189,2.286713c-0.140045,1.042297 0.186646,1.960083 0.544403,2.924469c1.718903,4.293427 4.122284,8.05014 6.494537,11.985779c1.190033,1.959991 2.862244,3.321198 4.464508,5.032288c2.356689,2.597839 6.020142,4.207825 9.162323,5.600098c1.205597,0.474457 2.488983,1.734467 3.811188,1.057739q0.668884,1.820038 2.310028,0.801178q0.60672,1.578918 2.372314,0.886627c0.871094,1.516693 2.815582,1.073364 3.764465,2.55899c1.306671,-0.318878 1.734436,0.108826 2.667786,0.948853c-0.077789,2.628967 0.24118,5.592346 -0.583282,8.096802c-1.158936,3.888977 -1.555664,7.855682 -2.372253,11.799072c-0.287781,1.983337 0.139954,3.818939 -0.536713,5.763428c-0.855591,2.831116 0.132263,5.817871 -0.630035,8.594604c-0.832245,2.628906 -0.396606,5.405548 -0.474426,8.244507c-0.069977,7.085632 0.12442,14.179108 -0.12439,21.257019l1.205505,0.886658c-0.692261,2.022278 -0.443329,4.441162 0.303284,6.42453c-1.283264,0.668915 -2.698853,1.29895 -4.153381,1.446716c-0.925476,0.894379 -1.781067,1.648956 -3.165527,1.555603c-1.314514,1.718872 -3.507843,2.457764 -4.869019,4.231171c-2.660034,-0.451141 -3.515533,-2.535645 -5.677826,-3.834534c-1.936676,-1.314514 -4.176727,-2.107819 -6.074554,-3.445648q-1.641083,0.062225 -3.290009,0.023376c-0.194458,-1.617798 0.707794,-4.690063 -0.855621,-5.716766c0.194458,-1.5867 0.256683,-3.243378 -0.023285,-4.822296c-0.948944,-3.033356 -0.769989,-6.416748 -0.48996,-9.543457c1.011047,-3.367828 0.521057,-6.572327 0.637756,-10.04129c0.155518,-2.115601 -0.894531,-3.585602 -1.711121,-5.413391c-2.55896,-0.917786 -4.682343,-2.356689 -7.490112,-2.504486c-8.866852,-1.882294 -17.741364,-4.744476 -26.343719,-7.598999c-1.368958,-0.513367 -2.683411,-0.381104 -3.577911,-1.679993q-0.754425,0.248871 -1.547821,0.334381q-1.431061,-0.738831 -2.247711,-1.975555c-1.858948,0.871124 -2.846741,-0.606689 -4.301239,-1.46225c-4.542236,-2.636719 -8.687866,-5.592285 -11.55011,-10.111237c-1.656738,-1.563354 -2.403412,-4.604492 -4.448975,-5.514526c0.264435,-2.146698 -0.046661,-1.400024 -1.415619,-2.512238c-0.147736,-1.734497 -1.361145,-3.220032 -2.107758,-4.845642c-0.614502,-1.470001 -2.045563,-2.792267 -1.438934,-4.480072c-2.294495,-1.197784 -0.948883,-5.545654 -2.644501,-7.202332c0.388916,-3.344482 -1.594513,-6.759033 -1.400055,-10.196808c-1.291077,-1.540009 -3.111176,-3.344482 -4.47998,-0.676727c0.684448,2.893433 1.322144,5.747894 1.687805,8.719086c0.793335,3.29776 0.785522,8.190063 2.93222,10.873505q-0.155548,0.785553 -0.225586,1.602234c0.941193,0.878906 1.384521,1.983337 1.913391,3.126678c2.698883,5.73233 6.564545,11.114624 10.515717,16.038025c3.570038,3.118866 7.567902,6.471222 12.149109,7.933441c1.337738,0.427826 2.574463,1.617767 3.997772,1.112274q1.13559,0.933289 2.216705,1.9133c1.617767,-0.458862 3.608978,0.925598 5.180084,1.314484c8.057892,2.177826 16.092468,5.211212 24.655914,6.580139q1.508911,0.101074 2.107819,1.392181q0.832214,-0.241089 1.70343,-0.404449c1.384338,1.82785 2.208893,4.091187 2.56665,6.33905c0.233307,2.255554 -0.785583,4.091156 -0.824493,6.307831c-0.015564,2.660095 0.116669,5.304474 -0.08548,7.956818c-1.37677,0.147797 -2.722321,0.52887 -4.098969,0.606628c-0.894531,1.151123 -2.411224,1.330048 -3.601227,2.193359c-2.450012,1.656738 -4.627808,3.710114 -6.99231,5.491211c-2.457825,2.737823 -5.576752,4.87677 -6.797821,8.205658c-0.653381,1.66449 -0.427826,3.717896 -0.505646,5.49118q-1.267792,0.062225 -2.535553,0.093384l-0.808899,-1.120056c-1.633331,0.97226 -2.356689,-0.73114 -3.406708,-1.664429q0.054474,-1.718933 -0.124481,-3.422272c1.298889,-1.407776 0.676758,-3.912292 1.415558,-5.701202c0.707825,-1.95224 -0.972229,-3.328949 -0.357697,-5.320099c-1.5401,-0.762268 -1.120087,-2.457825 -2.263428,-3.585602c-0.910004,-1.104431 -2.940063,-1.578918 -3.282257,-2.994507c-1.516724,0.303345 -2.691162,-0.233337 -3.274536,-1.718872c-1.578857,0.661102 -3.21225,-0.73114 -5.001129,-0.396667c0.365509,-4.441223 2.449982,-8.859039 2.263306,-13.432434c-0.155518,-2.442261 0.505615,-5.428986 -1.454407,-7.287872c-0.902283,-1.228943 -2.372253,-0.264496 -3.188965,0.559937c-0.023346,2.792297 0.155548,5.600098 0.015625,8.384644c-0.124542,1.578888 -1.112274,3.313385 -0.598938,4.837799c-1.057861,1.205597 -0.85556,3.235626 -1.679993,4.658966c-1.166748,3.126678 -2.613373,5.755615 -2.247864,9.123505q1.306732,0.015533 2.60556,0.015533c2.201202,-1.462219 2.115631,-4.153351 4.192291,-5.522278c1.050018,0.762177 1.345612,1.213348 2.698944,0.661102c2.426727,2.115601 4.869019,3.826752 6.533447,6.735626q-0.007751,0.77002 -0.334442,1.532257l1.112213,0.89444c0.334473,4.207886 -1.66449,7.871246 -1.62558,12.001282c0.910034,0.902252 1.866669,1.781158 2.706726,2.745636c2.862244,0.295532 5.708984,1.306702 8.438995,2.193359c2.27887,0.699982 2.776672,2.543365 4.27005,4.161163l-0.544403,1.174469c-3.826782,1.851166 -7.84787,2.971161 -11.246826,5.662292c-3.134552,1.563385 -3.881195,4.410126 -5.981232,6.860046l0.031097,0.676758c-1.073364,3.056641 -0.723358,6.035645 -0.684448,9.209045c0.046661,2.07666 1.119995,4.161072 2.076721,5.957825c-1.594513,2.325562 -1.866699,5.537903 -3.632324,7.622375c0.093384,1.625549 -1.011047,3.367798 -1.804443,4.736694c-1.726654,2.107849 -3.461121,4.223389 -6.307861,4.713379c-2.496674,0.505554 -4.332336,-0.630005 -6.650116,-1.337708c-4.620087,-1.61792 -8.680084,-5.195679 -13.603546,-5.413452l-0.847809,-0.902222c-1.617706,0.396606 -2.955566,-0.661194 -3.842285,1.158875q-1.135529,-0.241089 -2.31778,-0.241089c-2.278931,1.633362 -4.534546,3.157837 -7.178925,4.15332c-1.454529,0.528992 -2.885651,0.598938 -4.14563,1.384521c-2.434479,-1.345581 -5.374542,-0.847778 -7.840179,-2.39563c-3.865601,-1.399963 -6.393341,-4.238953 -9.037933,-7.225586c-3.468872,-5.429016 -0.054413,-10.819122 -3.850037,-16.442474c-1.314453,-1.330048 -2.263275,-3.850098 -4.059998,-4.464569c0.186646,-1.50885 -1.081177,-2.870056 -1.54007,-4.301178l-1.003296,-0.591125q0.295532,-1.127747 0.381073,-2.302216c-1.283386,-1.236664 -0.715515,-2.761108 -0.832214,-4.386749c0.132202,-3.258911 -0.427826,-6.136719 0.878876,-9.193451c0.863403,-2.39563 2.714508,-3.748993 4.47226,-5.460144c1.532318,-1.399994 2.496704,-3.09552 3.803436,-4.690063q0.023315,-1.112152 -0.318939,-2.11554c1.975647,-0.622253 0.980103,-2.403381 0.847839,-3.912262c1.890015,-0.630035 0.793335,-2.278931 0.956696,-3.803406c1.843353,-2.045563 2.193359,-5.032257 4.200043,-7.070129c1.975586,-1.983337 2.932281,-4.402283 5.250061,-5.77121c1.757813,-1.119965 3.157837,-2.675598 4.938965,-3.772247l0.264465,-1.13559c0.552277,1.99115 2.44223,1.104492 3.507843,2.574463c0.36557,2.691223 -0.256714,5.530151 0.303345,8.174622c1.01886,3.196686 0.41217,6.937805 0.505554,10.321259c1.734467,1.259979 2.084473,1.291138 3.873352,0.007782c-0.077789,-5.965668 0.062195,-11.946899 -0.085541,-17.912506q0.956696,-0.186646 1.905579,-0.373291q-0.863312,-0.707886 -1.742218,-1.400085c-0.124481,-1.236664 -0.178894,-2.068909 -1.221161,-2.916687c-1.819977,-0.357819 -2.216705,1.29892 -3.725555,1.470032c-8.913544,-2.030029 -16.201355,-7.420135 -21.87149,-14.43576c-1.158844,-2.387878 -1.322235,-5.172333 -2.418915,-7.567932c2.885559,-0.279968 5.071198,-1.866669 7.785706,-2.628906c1.749969,-1.018921 3.725616,-1.252258 5.460022,-2.294464c1.197815,-0.777832 3.507843,-1.034454 3.795624,-2.621155c1.532196,0.054413 2.216705,-1.158936 3.25116,-2.076721c1.470032,-1.617767 3.056763,-2.691162 3.927826,-4.744507c1.275574,-2.9245 2.908905,-5.0867 3.266724,-8.267883c0.248901,-1.158905 -0.069977,-2.162231 1.011078,-2.924469c-0.349945,-6.875671 0.046722,-13.82135 -0.171021,-20.712555c-0.202271,-1.516693 -1.127869,-2.605591 -0.513428,-4.153412l-0.614441,-0.482208c-0.723297,-2.955627 -1.563293,-5.817902 -2.64447,-8.680115c-0.435577,-1.353363 -1.166656,-2.418945 -0.388916,-3.826721l-1.151093,-0.77002c0.171173,-2.418945 -0.606628,-5.77121 1.143341,-7.661224c0.552216,-0.93338 1.376709,-1.446716 1.166748,-2.652252c2.574463,-0.521149 4.59671,-3.577881 6.533386,-5.250092c1.944427,-1.5867 2.146698,-4.098969 4.137817,-5.600098q-0.077759,-0.808868 -0.178833,-1.610016q0.886658,-1.112274 1.742218,-2.271149c-0.070038,-1.687805 0.210052,-4.254517 1.641113,-5.351227c-0.559998,-2.294434 0.769989,-4.876709 0.847809,-7.248962c1.026703,-3.352295 0.077789,-6.720093 0.754425,-10.064545c-1.913361,-0.544495 -0.894348,-3.990112 -0.808899,-5.475677c-2.434448,-1.050049 0.513367,-2.722229 -2.022186,-3.78006q1.081116,-1.66449 -0.754517,-2.325592c0.552307,-1.228882 -0.575531,-2.714508 -1.088928,-3.795593c-1.345551,-2.294495 -2.084412,-5.071198 -4.059998,-6.7901c-0.871124,-0.93335 -1.866699,-1.493347 -2.146698,-2.823395z"/>
   <path id="svg_22" fill="#f9f9f5" d="m176.632263,420.761841c0.42778,3.204498 1.827774,6.385651 2.940018,9.419098l-0.217728,1.322174c1.571091,-0.28775 1.944473,1.921204 1.81218,3.033417c1.252274,0.334442 1.804489,1.866669 2.481171,2.870056c1.267807,2.31778 3.468948,3.834442 4.892303,6.082306l1.267807,0.147766c-0.482193,1.415619 -1.127792,2.737762 -2.193359,3.803406c-2.403397,2.35672 -4.511185,4.822266 -7.505692,6.478943c-2.333389,1.594452 -4.83783,2.372253 -7.653412,1.594452c-3.251175,-1.508881 -5.584564,-4.114502 -8.594604,-6.198944c-1.190018,-1.664459 -3.35228,-4.021149 -3.103409,-6.160065c1.081177,-4.067871 4.814545,-7.342346 6.774567,-10.959076c0.622238,-1.05777 1.228943,-1.625549 2.504501,-1.680023c-0.871124,-1.228943 1.851135,-5.032318 3.04892,-5.180115l-0.046616,-1.337769c1.143311,-1.166656 1.757751,-3.383392 3.593353,-3.235626z"/>
   <path id="svg_23" fill="#f8f9f4" d="m159.567551,424.433075c1.5867,1.586639 4.728973,2.574432 5.724518,4.542267c-0.637772,2.698975 -3.997833,6.020081 -5.848969,8.135681c-1.493347,2.309998 -3.958969,5.226746 -3.188889,8.143433c0.645523,2.387787 3.282242,4.207825 4.892242,6.004517c2.72229,2.908966 6.12117,4.137848 9.450165,6.05899c3.321152,-0.311096 7.311188,0.521118 10.360184,-0.847778c2.691101,-1.003357 5.26561,-2.504486 7.350052,-4.487854c1.003357,0.015594 1.991165,-0.132172 2.908951,0.303345c1.065567,0.521057 1.563309,1.38446 2.862274,1.011139c0.925583,1.936707 3.165619,3.017822 4.130081,5.008972c0.832245,1.407776 0.808838,2.908936 2.247772,3.842255q-1.034424,1.773346 0.941132,2.403412c-1.011154,1.376648 0.280014,3.445557 0.388916,5.001129c0.233322,4.075623 -1.275635,7.443481 -3.850082,10.515686l-1.571121,-0.186646c-0.396698,1.928955 -3.352264,2.185608 -4.192291,4.130066c-1.392212,3.647827 1.399979,6.261169 0.248932,10.095734l1.049957,0.801056c-0.311081,1.695618 0.910049,3.873413 -1.135529,4.581238c0.972214,2.520081 -1.446716,5.148956 -2.35672,7.334503c-1.960068,-0.738861 -1.897797,0.591187 -2.667816,1.952301c-1.827774,0.085571 -3.282318,2.309967 -4.962311,1.368896l-0.785568,0.987732c-2.061111,0.015656 -3.912231,0.591187 -5.903397,0.948944l-0.816742,-1.104492c-1.703354,0.645599 -3.064468,-0.909973 -4.518936,-1.516632c-3.375549,-1.252289 -6.315628,-2.341095 -10.017883,-2.224518c-1.337845,1.820099 -3.92009,1.13559 -4.114548,3.391205l-1.532227,-0.108887c-1.501099,2.19339 -3.655563,2.761139 -5.864517,3.958832c-1.617798,0.676758 -3.391159,0.225647 -4.907837,1.322388c-1.361176,-0.124451 -2.667816,-0.062256 -3.966721,-0.552246c-4.355621,-1.392273 -8.477905,-2.753479 -11.511292,-6.385651l-1.158928,0.334442c0.287819,-1.42337 -0.762207,-2.03006 -1.49334,-3.080078c-2.076721,-2.294464 -2.75338,-5.887817 -2.971169,-8.882385l-1.13559,-0.847687c1.221138,-2.940094 -1.858856,-6.082367 -4.72113,-6.284576c-3.157822,-0.388885 -6.027893,0.031097 -8.369019,-2.582245c-2.434479,-2.294495 -1.804497,-5.942322 -3.422287,-8.283539c0.381111,-3.235565 -0.116631,-6.572235 0.194458,-9.807861c0.202187,-1.975555 1.189995,-3.834503 1.337776,-5.81012c0.917793,-1.151123 2.395599,-2.597778 2.442276,-4.137787c1.656677,-0.60675 2.947838,-1.936707 4.573364,-2.667816c1.680054,-0.785583 3.251175,-1.571198 4.503456,-2.986725c0.093292,-3.181152 -0.528893,-6.844574 0.878899,-9.730194c0.91774,-1.983368 2.115532,-3.935577 3.678909,-5.475616c4.464523,-3.398926 9.629044,-6.0979 15.415787,-5.662292c5.26561,0.373352 9.909042,-1.18222 13.549133,-5.055634c1.921127,-2.395538 4.970001,-3.002228 7.855621,-3.468903z"/>
   <path id="svg_24" fill="#f8f9f4" d="m500.449219,450.566742c5.872406,0.715607 9.14682,4.658936 12.942444,8.695679c3.150024,3.997864 5.063477,9.053467 5.44458,14.1091q0.108826,0.77002 0.692139,1.423401c-1.065552,5.973419 2.846802,11.666809 6.517944,15.983551c2.698914,2.854462 4.254456,6.206726 5.942322,9.691223c0.723389,2.240051 0.318909,4.931213 0.357727,7.264557c0.054504,4.861206 -7.552307,9.582397 -5.786743,14.43573l-1.166626,0.863403c0,3.935608 0.769958,7.948975 -0.995605,11.526855c-2.294495,5.156677 -5.436707,10.375671 -11.122375,12.211243c-3.072266,1.384521 -5.926697,0.606689 -9.115753,0.956665c-0.832153,-0.886597 -1.796692,-0.77002 -2.916656,-0.956665c-1.90564,-0.178894 -3.562317,-1.088928 -5.452332,-1.524414c-1.291077,-0.373352 -2.014435,-1.470032 -3.484467,-1.322266c-0.948944,-1.33783 -2.831146,-1.291138 -3.772278,-2.512268c-1.672241,0.16333 -3.352295,0.171143 -5.024536,0.287781c-0.692261,1.29895 -1.314453,2.55896 -1.322266,4.06781q-1.088867,0.700012 -1.889984,1.858948c-2.792297,0.451172 -5.576752,0.980042 -8.361237,1.485535c-4.573364,-0.015503 -8.586792,0.684509 -12.747986,-1.555542c-3.484528,-2.146667 -5.351196,-6.657837 -6.46347,-10.430115c-0.497742,-3.072266 -2.271118,-6.54126 -1.571106,-9.574585c-1.306702,-1.088928 -1.003357,-3.523438 -1.773376,-5.024536c-3.717804,-2.597839 -7.948975,-2.784485 -11.946808,-4.480042c-7.777893,-4.915649 -8.244537,-17.788055 -1.695526,-23.909241c2.776642,-3.297882 7.490051,-4.900116 11.394562,-6.463501c1.46228,-0.847748 3.196686,-2.006653 1.983337,-3.881134c-2.278931,-2.652283 -4.021149,-5.576752 -3.266663,-9.224579c0.839996,-3.430023 4.075562,-5.786774 6.38559,-8.252319c2.59787,-2.994537 6.0979,-5.195648 9.279053,-7.583466l1.003357,0.202209c0.225555,1.648926 -1.13559,5.00119 0.97998,5.576721c-1.143341,2.730072 1.151184,4.643433 1.812286,7.093475c-1.112274,1.501129 -4.938965,1.244476 -4.254456,3.912292c1.14328,-0.031067 2.286621,-0.070007 3.437714,-0.038879c0.917816,-0.97226 1.952332,-1.718933 3.134583,-2.341187q1.399963,0.194458 2.753357,-0.023315c0.707764,0.746674 1.58667,1.0578 2.465546,1.578918c2.963379,1.718903 5.382294,4.293427 8.205658,6.160095c2.123383,-0.116638 4.378967,0.139984 6.45575,-0.318878c1.928864,-0.910065 3.173309,-2.800049 5.047791,-3.888977c1.368958,-1.182251 3.328979,-1.54776 4.565643,-2.807831c1.306702,0.194458 2.597778,0.140015 3.912201,0.116699q0.622345,-0.746704 1.236786,-1.508911c1.726654,-0.171082 4.363342,-0.451172 5.148926,-2.263367c-1.804504,0.124451 -3.632294,-0.435577 -5.117828,0.746613c-2.185608,-1.609955 -0.528961,-5.841156 -1.221222,-8.221222c-1.228851,-3.795532 -0.419922,-8.17453 -0.629974,-12.141266z"/>
   <path id="svg_25" fill="#f8f9f4" d="m283.10379,452.557861c3.507843,1.718964 8.454559,2.753448 11.744659,5.537933q0.785583,-0.085571 1.571106,-0.132263q1.190002,0.73114 2.278992,1.594452c3.095551,0.038879 5.778961,2.636749 7.886719,4.63562l-0.116577,1.330048c0.793274,0.435608 1.205505,1.400055 1.843292,2.037842c-0.272278,2.193298 -0.163361,4.441101 -0.147797,6.650085c-0.972229,1.765564 -0.97998,3.857788 -1.843353,5.701172c-0.746704,1.555573 0.342224,3.258911 -1.843323,3.616669c1.586609,1.361206 1.858887,3.546753 4.005585,4.09903c4.332275,1.18219 8.29126,3.01004 11.192413,6.564514c1.586609,1.252228 1.62558,3.196716 2.963379,4.518951c0.629974,3.150085 1.361053,5.872284 -0.031097,9.022339c-0.956757,3.873444 -3.251221,6.898987 -5.576813,10.049072c-2.294434,2.605591 -5.85675,6.191223 -9.667938,5.36676q1.392273,0.606628 1.711121,2.31781q0.676697,0.591064 1.454529,0.964417c-0.186646,1.493408 0.629944,2.411194 1.524506,3.468933c-0.287842,3.21228 0.108887,6.455688 -0.171204,9.660095l-0.7388,0.824585q0,1.189941 0.108826,2.356689c-1.345612,1.633301 -1.563324,5.740051 -4.028961,6.331177c0.902283,1.765503 -1.026642,2.372253 -2.201141,3.165588l0.070007,1.376648c-1.75,0.925598 -3.305573,2.317871 -5.141174,3.033386c-1.648926,0.40448 -2.901154,-0.878906 -4.448975,-0.591125c-0.637726,-1.244385 -2.15448,-1.835571 -3.274445,-2.613281c-3.150055,-1.765686 -4.884552,-4.931274 -8.073456,-6.681335c-2.185608,-1.921021 -5.856781,-1.781067 -8.446747,-0.933228c-3.189056,1.905518 -4.293488,6.58783 -7.630157,8.501221c-1.143402,0.598877 -3.010101,2.014404 -4.316742,1.322205l-0.902222,1.283325c-2.263428,-0.225525 -4.441223,-1.252136 -6.611206,-1.936646c-4.970123,-2.955627 -9.34906,-6.4245 -12.156876,-11.604614c-0.645599,-1.034424 -0.147797,-2.652344 -1.602249,-2.784485c1.081146,-2.006653 -0.995544,-4.868958 -1.407822,-6.969055c-2.13887,-2.870056 -5.250061,-5.102234 -7.474503,-7.925659c-0.723328,-0.956665 -1.267807,-1.91333 -2.193405,-2.691101q0,-0.840027 0,-1.672241c-1.54776,-1.578918 -1.38446,-3.515686 -1.91333,-5.545715c-1.042221,-3.422241 0.32663,-6.167816 0.917786,-9.800079c1.38446,-2.745636 3.017776,-5.747864 4.93898,-8.159027l0.777756,0.225555l-0.342224,-2.35675l1.221146,0.521149c-0.637787,-4.137817 -0.101105,-8.470093 -0.295563,-12.654602c-0.381149,-5.390137 1.438873,-12.001282 5.685669,-15.586914c2.247757,-1.555542 5.14119,-3.997833 8.003387,-3.865601l-0.007751,-1.532227c1.438934,-0.054413 1.967834,0.007782 3.080063,1.01886c-0.023392,1.151154 -0.124496,2.387878 0.108902,3.515625c1.236603,4.005646 0.303284,8.555664 0.6922,12.740143c-2.123398,0.007813 -3.453445,1.26004 -5.374512,1.812317c-1.470062,1.446655 -1.983353,3.391144 -3.266708,4.954498q1.088898,0.598938 2.185562,1.182281c2.691147,-1.283417 3.118927,-4.565674 5.918945,-5.97348c2.893463,-1.609985 5.506775,-0.801086 8.586853,-1.174438q0.015503,1.368896 1.882263,0.816681c0.443329,1.664459 3.17334,2.201141 4.036743,3.881165c1.757721,-0.077759 3.951172,0.303345 5.475555,-0.645569c1.789001,-0.886658 2.823395,-2.380096 3.834503,-4.028961c1.50119,-2.380066 5.032349,-3.087769 6.572296,-5.335632c2.146729,0.303345 4.402374,-1.337769 6.510071,-1.773346c1.322357,-0.528961 3.492401,0.070038 4.270172,-1.26001q1.275543,0.147766 2.589966,0.147766l0.03891,-1.524445q-1.7034,0.046631 -3.383392,-0.108887c-0.769989,1.049957 -1.610046,0.746674 -2.753326,0.89447c-1.820038,0.077728 -3.406708,0.886627 -5.265656,0.699982c0.32663,-4.480133 -2.737823,-8.952362 -2.177795,-13.300201c-1.726715,-1.05777 -0.583374,-4.79892 -0.855621,-6.580139z"/>
   <path id="svg_26" fill="#f8f8f4" d="m161.652054,509.91983l0.241135,-0.202209q1.392181,-0.295593 2.885544,0.046631c2.792252,1.283386 5.086761,2.924469 8.35347,2.955658c2.613403,-0.023376 5.22673,-0.007751 7.840073,-0.007751c2.698959,0.007751 5.047943,-1.415558 7.777908,-1.524536c1.438934,3.227905 4.57341,4.993469 6.097916,8.236816c1.998886,2.566711 1.555557,5.117798 1.695541,8.151245c-1.088898,0.863342 -1.361115,2.418884 -2.193344,3.53894c-3.873367,5.623413 -8.065674,12.195679 -13.735733,16.154663c-4.923447,4.30896 -9.91684,8.734558 -15.120224,12.685791c-1.120056,-0.544495 -1.718948,-1.913452 -2.636749,-2.761169q0.202255,-0.80896 -0.023331,-1.540039c-2.107788,-7.451233 -3.647827,-15.104736 -6.758972,-22.229187c-0.731125,-1.555664 -0.738937,-4.207886 -2.372269,-5.063416c0.427795,-1.578979 -0.536667,-2.574524 -0.941132,-4.122314c-0.629974,-2.496704 -1.508881,-4.627869 -1.088898,-7.272339q-0.598892,-0.536682 -1.01889,-1.267822c2.543381,0.396729 4.270065,-1.679993 6.867874,-2.403381q0.723328,-0.637756 0.964462,-1.470001c1.314499,0.661102 2.185608,-1.244415 3.165619,-1.905579z"/>
   <path id="svg_27" fill="#f8f8f4" d="m395.92218,526.533386c3.274506,1.586792 6.478912,3.391235 9.815704,4.861206q-0.48999,0.886719 -1.143402,1.610046c0.217834,4.262329 0,8.5401 0.116699,12.810242c0.139984,2.434448 -0.97226,4.573364 -0.808899,7.023438c0.241119,1.843262 -1.38446,3.655579 -0.272278,5.156677c-1.788879,0.451111 -1.485535,2.131104 -2.815582,3.103394c-3.173401,2.68335 -6.828979,2.255554 -10.601196,3.204529c-5.452362,0.12439 -10.927948,-0.023315 -16.388062,0.069946c-2.551147,0.225586 -5.483429,-0.839966 -7.101196,-2.862244c-0.925598,-2.208923 -2.084534,-4.79895 -1.454498,-7.210083c0.536713,-1.936707 0.645599,-3.912292 1.026703,-5.872375c1.454437,-5.063416 2.193359,-10.391235 2.706665,-15.610168q-0.808899,-0.762268 -1.625549,-1.516724q0.054474,-1.065613 0.147858,-2.131165c3.072205,2.776672 8.641174,1.431213 12.53006,1.773438c4.798981,0.427734 8.034637,-2.084534 12.125854,-4.067871c1.174347,-0.777832 2.426666,-0.536743 3.741119,-0.342285z"/>
   <path id="svg_28" fill="#f7f8f3" d="m488.790161,545.348145c2.10788,0.591125 4.021179,1.578918 6.199036,2.014465c1.05777,0.311096 2.240082,0.186707 2.93222,1.158936c1.46228,-0.388916 2.877869,-0.124451 4.301239,0.264465c1.851074,0.521057 3.888947,0.396729 5.81012,0.381104c-0.023407,2.372314 0.132202,4.775696 -0.132233,7.132324c1.586548,0.89447 0.801086,3.990051 0.777771,5.460083q0.855499,0.536621 0.824432,1.298889c0.12439,3.173401 1.190125,6.043396 0.81665,9.278992c-2.364502,4.721191 -7.256744,4.799011 -11.627838,6.66571c-1.423431,0.707825 -3.958984,-0.015625 -4.760223,1.446655c-1.361053,-0.217773 -2.955536,-0.65332 -3.857788,0.707825c-4.270081,-0.202271 -8.796814,-0.16333 -13.074585,-0.038879c-1.734558,-1.135681 -3.857941,-0.715576 -5.545685,-2.154541c-1.718872,-0.824402 -2.286743,-2.535583 -3.772278,-3.515564c0.101074,-1.617798 -0.77002,-3.095642 -0.700012,-4.744507c0.031067,-6.673401 0.023315,-13.33905 0.023315,-20.012512c2.660034,-0.085632 5.032288,0.272217 7.60675,-0.435547c1.74231,-0.451172 3.546753,-0.560059 5.327881,-0.233398c1.524445,-1.423279 3.873444,-0.513306 5.413452,-2.271118c1.026672,-0.73114 2.068909,-2.613342 3.437775,-2.403381z"/>
  </g>
 </g>
</svg>