<?xml version="1.0" encoding="UTF-8"?>
<svg width="600" height="600" xmlns="http://www.w3.org/2000/svg" xmlns:svg="http://www.w3.org/2000/svg">

 <g>
  <title>Layer 1</title>
  <g id="svg_69">
   <path id="svg_2" fill="#1c1a16" d="m112.036774,50.923576c4.481339,-0.12804 8.976166,0 13.464233,-0.053909c2.075569,0.013474 4.360046,-0.161736 6.361511,0.384113c4.690216,0.936703 8.585297,3.665943 13.309219,4.912632c4.346603,0.721054 7.918182,-0.761482 11.981705,-1.934052c2.843796,-0.923218 5.647186,-0.714317 8.578583,-0.586288c1.293854,1.260178 2.23056,2.789894 3.436798,4.11071c2.116013,1.186035 4.27919,0.923218 5.734787,3.227921c-1.105179,1.287109 -2.318192,2.365334 -3.686157,3.369423c6.927536,-0.727798 13.248596,4.137665 19.259659,7.109497c5.168686,2.122749 10.276779,4.690254 14.407669,8.517914c1.974503,1.630814 3.955734,3.261612 5.99762,4.791336c5.647141,4.252228 12.702728,7.561005 16.510208,13.80793c1.509491,2.73597 3.153748,5.39109 4.589127,8.167496c-0.882782,0.458244 -1.522995,0.956924 -2.574249,0.754753c-1.75882,-0.909744 -3.349197,-2.23056 -4.878922,-3.477242c0.417801,2.965088 0.781708,5.768456 0.828888,8.773987c0.835632,4.077019 0.559326,8.079895 0.491943,12.210808q-1.23996,-0.033676 -2.473175,-0.013458c-0.262787,-1.846458 -0.788452,-3.632263 -0.970398,-5.492188c-1.18602,1.293854 -2.109238,2.783165 -3.389664,3.996147c-3.194214,3.302032 -7.419464,5.027184 -10.472168,8.396599c-2.540543,2.641632 -5.236099,5.141769 -7.749664,7.810364c-0.748032,0.707581 -0.599777,1.651031 -0.283066,2.527069c1.206284,2.978592 3.167297,5.458481 4.515045,8.369659c1.57016,3.295303 3.187485,6.516495 5.391098,9.447891c3.268326,4.13765 6.927536,7.911407 10.094803,12.129929c1.819504,2.47316 4.265717,4.245499 6.078461,6.725388c1.421875,1.947556 3.281815,3.457062 4.71048,5.397858c3.807449,4.905869 8.632446,8.511154 13.935959,11.658203c3.41658,1.75885 6.873611,3.490738 10.337372,5.161987c8.228195,3.726593 17.662582,5.195663 26.544388,6.503006c2.931396,0.52562 5.829132,-0.047195 8.767273,0.653671c2.580963,0.51886 5.094604,0.087601 7.641876,0.444748c2.904449,0.505417 5.802155,1.037766 8.733551,1.401672c4.541992,0.983871 9.650055,0.053909 14.171783,0.640182c3.470551,0.80867 6.779358,0.377396 10.296997,0.498688c7.871033,0.849106 15.303925,1.886902 23.276031,2.978561c3.922028,0.478485 7.763184,1.179306 11.73233,1.118668c2.479919,0.350433 4.85202,0.653671 7.365601,0.700851c2.897736,0.464966 5.775177,1.307343 8.578583,2.169891c5.9841,1.819489 10.876526,4.771133 17.150421,5.768494c3.47049,0.23587 6.779297,-0.289795 10.222839,0.539093c4.481323,0.552582 8.928986,-0.296524 13.410278,0.721054c9.535522,0.936707 16.078979,5.8965 24.825989,8.868332c5.586517,-2.237289 10.93042,-4.905869 15.890259,-8.329208c7.749664,-5.209152 13.417053,-13.976395 17.608643,-22.164124c2.985321,-5.337158 6.442352,-9.892639 8.578522,-15.68132c2.938202,-6.381729 5.721313,-12.92514 8.093414,-19.542694c1.785767,-4.211792 2.99881,-8.625748 3.638977,-13.161011c0.181946,-4.488068 0.876038,-8.955933 1.38147,-13.423813c0.087616,-4.717209 0.95694,-9.414185 1.394897,-14.104408c0.074219,-2.392311 -0.134705,-4.683525 0.404388,-7.048859c0.956909,-5.505646 -0.303253,-10.270027 -0.593048,-15.721764c-0.929962,-4.32634 -0.18866,-9.117676 -0.552551,-13.572067c-0.7211,-5.000229 -1.940826,-9.946548 -2.601227,-14.940063c-0.256073,-2.479889 0.229095,-5.03392 2.924652,-5.815628c3.039215,-0.485199 6.348053,-0.303246 9.373779,0.256073c5.754944,0.512161 11.752563,1.212997 17.278442,2.965103c5.903198,1.711678 11.233704,5.802155 15.405029,10.209381c3.133545,3.160515 6.287354,6.294083 9.447937,9.427658c1.947449,1.90036 3.430054,4.292648 4.831726,6.60408c2.452942,5.06089 2.897644,11.199989 4.346558,16.557381c1.105164,4.15789 2.068848,8.248367 1.785767,12.594933c1.981262,-1.765587 2.581055,-4.798073 4.19165,-6.934296c0.99054,0.006752 1.987915,0.013481 2.978516,0.020218c0.687378,0.781708 1.408447,1.448868 1.779114,2.446228c2.412415,6.32103 4.063477,12.918381 4.636292,19.670715c0.923218,4.56897 0.390808,8.902054 0.545837,13.5923c0.141479,2.311401 -0.350403,4.481323 -0.61322,6.752335c-0.040466,4.076981 -0.936768,8.160736 -2.176697,12.02887c-2.553955,6.5569 -7.244263,12.514053 -12.177124,17.460373c-2.742737,3.652481 -6.240173,6.489517 -8.726807,10.364365c1.684753,-0.505402 3.227966,-1.374725 4.89917,-2.048615c4.777832,-2.075562 9.87915,-3.41658 14.9198,-4.676758c2.682129,-0.309982 5.990845,-1.078217 7.877808,1.42189c0.215637,2.47316 0,4.501556 -1.09845,6.745605c-2.089111,4.184845 -3.922058,8.389877 -6.671509,12.197342c-3.524414,5.633667 -8.504456,10.344131 -14.663757,12.979034c-4.454407,2.452942 -9.225525,4.117462 -13.700073,6.516479c-4.622925,2.392303 -9.51532,3.982681 -14.535706,5.303482c1.880066,1.152344 4.070251,1.617325 5.936951,2.823578c3.780457,2.486633 8.039429,3.895081 11.765991,6.428879c1.442139,1.024323 2.904419,1.630798 3.362671,3.510956c0.404358,1.940781 -1.314026,3.005539 -2.695557,3.942215c-5.424744,2.762909 -11.577332,3.908539 -17.554688,4.676788c-3.820923,0.107788 -7.648621,-0.006744 -11.469543,0.053894c-2.816895,0.128052 -5.438232,-0.89624 -8.261841,-0.694092c2.506836,1.624054 5.263062,2.911194 7.729431,4.609375c1.75885,1.42865 3.322266,3.133545 4.798096,4.845245c-0.545837,0.626678 -1.09845,1.314056 -1.772339,1.799286c-3.147034,1.367981 -7.116272,0.889526 -10.472168,0.774963c-5.525879,-1.233215 -11.240448,-0.040436 -16.658417,-0.828888c-8.376495,-1.738617 -15.98465,-1.509491 -23.276093,-6.570404c3.551422,4.730713 6.024536,10.115051 9.710724,14.724426c4.063538,5.330444 8.706604,10.195892 12.857727,15.458954c3.612061,3.780487 6.725372,7.965332 8.720123,12.83078c1.597076,4.083771 3.463745,8.127075 4.548706,12.325378c2.311401,7.763184 3.389648,16.355225 4.670044,24.300323c0.215637,2.29126 0.929932,4.312897 0.653687,6.482819q-0.748047,1.078186 -2.048645,0.94342c-2.223816,0.222382 -4.110687,-1.159058 -6.064972,-2.062073c0.89624,4.46109 2.190155,8.955933 2.729248,13.477661c-0.053955,2.803436 0.222382,5.337189 0.653656,8.093414c-0.128052,4.494843 0.808655,8.807648 1.677979,13.187958c0.727783,3.524384 2.13623,6.765808 3.113403,10.222839q-1.064819,0.195404 -2.129517,0.384125c3.214417,3.261597 7.251038,5.714508 10.701294,8.69986c4.265686,4.023102 7.931641,8.807678 11.509949,13.430542c4.737427,5.950378 4.481323,13.524902 6.934326,20.695038c2.985291,9.003113 2.634949,18.194946 5.020447,27.312592c2.035156,10.438538 4.575623,20.76239 6.550171,31.214417c0.694092,2.789886 0.323425,5.640411 0.977112,8.437042c0.336975,3.025726 0.24939,6.159332 0.107849,9.198517c-0.599731,3.612061 -1.347778,8.147339 -3.861389,10.964172c-3.012268,2.735901 -7.439697,3.039185 -11.280823,3.558167c-8.800964,1.044434 -16.988647,3.632202 -25.877197,4.413879c-5.626953,0.053955 -11.253937,-0.03363 -16.88089,0.033691c-5.674103,0.262817 -11.557098,-2.102478 -16.77301,-4.13092c-2.270996,-0.754761 -3.807465,-2.486572 -5.316986,-4.258911c-0.741272,-2.648438 0.7211,-5.498962 1.873413,-7.823853c2.81015,-5.087769 3.591797,-10.290253 7.311707,-14.940033c2.068817,-2.351898 4.386963,-4.784637 7.116241,-6.361511c4.80481,-2.924683 10.815826,-4.191589 16.388885,-4.346527c-0.208923,-3.430054 0.94342,-6.637787 0.876038,-10.03418c-0.040436,-3.598541 0.04718,-7.203857 -0.040436,-10.802399c-0.889557,-7.385834 -4.043335,-13.956177 -8.309052,-19.96048c-2.762848,-4.885681 -7.594696,-7.224091 -12.035553,-10.795715c-1.448853,0.411102 -2.958374,0.808685 -4.467865,0.90976c-1.47583,-0.222382 -2.965088,-0.478455 -4.407227,-0.882782c-2.864044,-0.70755 -5.168732,-3.045929 -7.857513,-4.41394c-0.849121,1.226471 -1.832977,2.331665 -2.8573,3.416595c-2.486633,0.249329 -4.494781,0.026978 -6.759094,-1.064728c-3.773743,-1.873413 -7.217255,-4.339874 -10.067841,-7.45993c-3.975922,-3.692932 -7.089264,-8.450562 -9.784821,-13.134064c-0.680573,-1.132111 -1.482544,-2.169861 -2.338409,-3.17395q-0.882782,-0.040436 -1.772278,-0.074158c-0.020203,2.971832 -0.020203,5.869537 -0.714355,8.780731c-0.256073,1.99472 -1.772278,3.295349 -3.807404,2.587769c-2.392303,-1.785858 -3.443542,-4.205078 -4.94635,-6.664764c-3.638977,-6.213257 -7.965302,-11.846954 -12.183868,-17.649048c0.148285,2.735931 -0.006714,5.370819 -0.862579,7.992279c-0.862579,1.66449 -2.223785,1.543182 -3.854614,1.819458c0.57959,7.237549 11.570618,10.108307 11.503204,17.992767c-1.529663,12.911652 -2.911133,24.462036 -4.461121,37.333282c-0.592987,3.1875 0.04718,6.449127 -0.552582,9.548981c-0.599731,2.830292 -0.208862,5.714569 -0.84903,8.558319c-1.00415,7.763184 -2.695557,15.378113 -3.861389,23.114319c-0.552612,2.783112 -0.90976,6.294098 -3.248169,8.228119c-2.500061,2.028442 -5.498871,2.324951 -8.612274,2.163208c-3.389587,-0.215637 -6.583801,0.606445 -9.946503,0.869324c-5.209137,0.882751 -10.431763,2.506836 -15.701569,3.120056c-2.951599,0.067383 -5.74826,0.903076 -8.720062,0.76825c-4.508331,0.18866 -8.868378,-1.125427 -13.444031,-1.42865c-2.419281,-0.296509 -4.926117,-0.667114 -7.210632,-1.543213c-2.082275,-1.556641 -4.056732,-3.632202 -3.632233,-6.469299c0.559326,-4.08374 1.637573,-8.147278 2.769714,-12.102997c1.287079,-4.636322 4.103943,-8.726776 8.005737,-11.54364c4.932861,-3.51767 11.74585,-4.777832 17.568237,-6.038025c1.704895,-0.505432 3.483948,-0.572845 4.461121,-2.257538c2.351868,-5.067627 4.016327,-10.714752 5.458435,-16.105835c1.078247,-4.52179 1.630829,-10.236359 -0.707581,-14.454895c-1.960999,-4.413971 -5.950378,-7.581207 -8.335907,-11.880615c-0.599792,-1.118622 -1.33432,-2.109253 -2.142975,-3.07962c-2.136261,0.680573 -4.696991,1.179291 -6.617584,-0.316711c-4.151123,-3.066193 -6.26709,-7.837341 -8.531433,-12.338898c-1.684662,-3.699585 -4.178101,-6.812988 -5.478668,-10.708038c-1.078217,-2.358612 -1.549957,-5.121521 -2.992065,-7.27121c0.053955,3.072906 -0.23584,6.287323 -1.19278,9.21875c-0.525604,1.091705 -0.768188,2.311462 -2.014893,2.762939c-1.779083,1.132141 -4.508301,-0.168488 -5.209137,-2.048615c-1.725159,-3.14032 -1.832977,-6.543457 -3.160553,-9.75119c-2.163147,1.657837 -5.047363,4.609406 -7.97876,4.137695c-1.469116,0.161743 -2.412506,-1.307343 -3.23465,-2.311432c-0.855865,-5.573029 -0.660461,-10.856293 -2.763,-16.193512c-2.890961,2.196899 -4.541992,5.094604 -6.388397,8.140594c-2.762939,4.845245 -4.124176,9.892609 -7.08255,14.49527c-1.293884,1.381439 -2.695557,3.65921 -4.838501,3.302063c-1.812744,0.026947 -3.605286,-0.714294 -4.312897,-2.493347c-1.90033,-3.81424 -2.399048,-8.389954 -3.248108,-12.541016c-0.619965,1.455566 -1.138855,2.904419 -2.055359,4.205017c-0.997345,0 -1.99472,-0.020233 -2.985291,-0.033752c-2.035156,-1.994659 -2.944916,-4.959778 -4.083771,-7.527283c-1.657776,6.253693 -2.648346,12.615204 -3.490723,19.01709c-0.121277,4.939575 0.006714,9.89267 -0.053925,14.838928c-0.121307,2.985352 0.990631,5.721344 0.6604,8.726837c-1.044525,0 -2.095764,-0.026917 -3.147034,-0.040436c-1.024292,-1.098419 -2.008179,-2.210327 -2.897675,-3.430054c-0.040436,7.69577 -1.940826,15.364624 -2.655121,23.013214c0.026947,3.059448 -0.458221,6.051453 -1.132141,9.023346c-0.903046,3.005554 -1.920593,6.462524 -4.548706,8.410065c-2.217102,0.667145 -3.922058,-0.929932 -5.081177,-2.614685c-1.354492,5.121582 -1.967651,10.398071 -3.416565,15.506134c-1.071472,5.343872 -2.587708,10.559784 -3.665955,15.896973c-0.444763,1.684723 -0.916504,3.551331 -1.90033,5.000244c-1.239929,0.026917 -2.479904,0.026917 -3.719833,0c-2.527084,-4.575684 -2.688828,-10.55307 -5.478729,-15.06134c-0.040436,6.631042 -1.704926,13.349731 -3.517654,19.704407c-1.832977,4.939575 -2.971832,10.627136 -5.835876,15.06134c-2.560791,2.877563 -7.938385,3.09314 -11.523438,3.335693c-6.469315,0.842407 -12.824066,2.71582 -19.097931,4.461182c-3.066208,0.336914 -6.219971,0.060669 -9.306366,0.155029c-4.46788,0.168457 -8.976166,-1.401733 -13.470993,-1.374756c-2.284485,0.033691 -4.440918,-0.694153 -6.725372,-0.646973c-3.342499,0.080872 -7.325134,-0.687317 -9.966797,-2.864014c-2.183365,-2.109253 -1.671219,-5.458435 -0.990601,-8.106812c1.536453,-5.734741 2.776413,-12.082764 5.566299,-17.352539c3.436813,-6.166077 9.643326,-9.825287 16.429367,-11.22699c3.194214,-0.977112 6.866852,-0.788422 9.602844,-2.493347c4.029831,-2.783112 5.000244,-7.965332 5.721298,-12.480408c1.004089,-5.182129 1.90036,-10.371063 2.554031,-15.600433c0.161743,-4.043335 -0.053925,-8.093414 0.053925,-12.136688c0.033676,-1.819458 0.619965,-3.531189 0.653641,-5.350647c0.053925,-16.995392 0.067413,-32.865448 -0.013458,-49.881042c-0.478455,-3.342499 -1.394943,-7.27124 -2.830338,-10.337433c-3.288574,8.618988 -5.054123,17.884979 -6.819717,26.915009c-0.269547,1.078247 -0.5728,2.08905 -1.273666,2.971832q-1.152313,0.047211 -2.277725,-0.107788c-2.446167,-1.859955 -3.052704,-4.393768 -4.31958,-7.042145c-2.14299,4.279236 -1.745392,9.016602 -2.601227,13.888824c-0.141495,7.183624 0,14.387451 -0.067383,21.577789c-0.14151,3.227966 1.159073,5.963898 0.593018,9.225525c-0.721069,1.213013 -2.365341,1.219696 -3.14032,0.060638c-1.65773,-2.156403 -2.095764,-5.168671 -3.504196,-7.527283c0.026947,2.735992 -0.141525,5.51236 0.114563,8.241638c0.990616,4.643066 0.411072,9.400696 0.579544,14.252686c-0.080841,2.56076 -0.18866,5.862793 -1.549942,8.073151c-1.233185,0.013458 -2.466415,0.006744 -3.699615,-0.013519c-2.169937,-3.167236 -3.14032,-6.617523 -4.737427,-10.317169q-0.411102,0.828857 -0.727783,1.691467c-0.283066,3.302063 0.074112,6.651245 -0.128036,9.966766c-0.606537,4.771088 -1.246719,9.488281 -2.71579,14.090973c-0.842331,2.715729 -1.475784,6.550171 -3.510941,8.639221c-2.742706,2.021637 -4.582413,0.020203 -7.136459,-1.091705c-2.385559,4.326355 -4.582413,8.666168 -6.192993,13.342926c-0.768234,2.291199 -1.630814,4.501526 -2.890961,6.577148c-1.132172,1.731873 -2.843796,2.661804 -4.744186,3.355957c-3.470505,0.559326 -6.914047,0.970398 -10.431763,1.057983c-5.519104,1.159058 -11.368439,0.114563 -16.7528,0.734497c-3.544632,0.748108 -7.29818,0.539124 -10.896744,0.424561c-5.471939,-0.876038 -10.29023,-3.099915 -15.034378,-5.856018c-2.203613,-1.401733 -4.670036,-3.322266 -5.734787,-5.775269c-0.451485,-2.702271 -0.431267,-5.741455 0.74128,-8.282043c1.543205,-3.416595 3.221191,-6.900604 5.943672,-9.555664c3.564873,-3.908569 8.996376,-6.017822 13.909004,-7.662109c2.634903,-0.997314 5.215881,-0.28302 7.945122,-0.721039c4.494827,-3.416626 6.199753,-8.645996 6.900597,-14.050537c0.16848,-6.246918 0.99736,-12.487122 1.570152,-18.713837c0.929977,-4.697021 0.411079,-9.326569 0.539124,-14.239197c-0.101097,-3.841156 0.336929,-7.911438 -0.485191,-11.624542c-0.566093,-3.922028 0.276276,-8.335968 -0.57283,-12.237762c-0.505409,-2.540527 -0.080841,-4.993469 -0.579521,-7.527344c-0.774986,-3.531097 -0.121315,-7.392456 -0.491951,-10.984314c-1.031044,-4.784546 -0.390862,-9.960022 -0.559311,-14.926575c0.07412,-1.091705 -0.310013,-1.873413 -0.801933,-2.816833c-1.651031,1.940765 -3.025734,4.400482 -5.512375,5.37088c-1.138893,0.336945 -2.318192,0.444763 -3.019028,-0.700897c-0.323471,-2.500031 -0.121284,-4.9328 0.363907,-7.399231c0.309982,-2.479858 0.107819,-4.953064 0.680618,-7.41272c0.3302,-3.086426 0.296524,-6.7052 0.07412,-9.805054c-1.145599,-4.393707 -3.753525,-8.800934 -5.276512,-12.92514c-1.32756,-3.180756 -2.122734,-6.550171 -3.40313,-9.744385l-0.653671,-0.404327c-0.303253,1.752106 -1.051262,3.47049 -1.590378,5.168671c-1.448845,4.454407 -2.520317,9.090729 -3.059441,13.747314c-0.289764,3.423309 0.599777,6.449097 -0.896263,9.434387q-1.159081,-0.04715 -2.297943,-0.006714c-1.368004,-4.117493 -3.517685,-7.796906 -5.377609,-11.685211c-2.715775,-6.26712 -5.471962,-12.183868 -5.849335,-19.138367c-0.902992,-4.393738 -0.161743,-8.517914 -0.559334,-12.904907c-0.229111,-1.597107 -0.593018,-3.14032 -0.5728,-4.764374c0,-6.085205 0.040443,-12.163635 -0.006729,-18.242096c-0.16848,-3.686157 0.835609,-7.486877 1.785782,-11.031525c1.711685,-5.546051 5.168709,-9.791565 9.137909,-13.888794c-3.861374,-0.262817 -7.055588,1.145599 -10.633926,2.284485c-1.812752,0.6604 -3.793983,0.390839 -5.701073,0.357178c0.006729,-2.655121 1.987961,-4.643097 3.362686,-6.718658c2.843796,-4.252228 3.80072,-8.848114 6.098663,-13.450745c2.857285,-5.680878 5.707809,-11.375244 8.551628,-17.062805c2.769646,-6.112152 4.39373,-12.642105 4.946312,-19.320313c-0.377373,-5.236115 -1.785805,-11.031509 -4.878929,-15.357864c-0.876045,-1.509521 -2.695557,-0.599777 -3.975922,-0.242615c-5.384361,1.954285 -10.809135,3.120087 -16.564133,2.85054c-1.489281,1.738647 -2.742699,3.645737 -4.130913,5.451752c-3.841156,4.184814 -9.124428,6.408646 -14.737896,6.853394c-3.443565,0.903 -6.62429,0.155029 -10.013931,-0.512131c-2.803383,-1.186035 -6.42889,-2.783142 -7.864273,-5.626968c-3.086391,-5.074341 -4.953041,-11.018021 -6.098661,-16.82019c-0.748007,-3.059433 -0.451513,-6.482773 -0.491922,-9.643311c-0.040436,-1.947525 0.593016,-3.672684 1.260147,-5.471939c2.297974,-5.215881 6.718655,-8.120331 9.542229,-12.581451c-2.76292,-0.296524 -5.438259,-0.983871 -7.884464,-2.33165c-4.838488,-2.284485 -9.4007,-5.485428 -11.894072,-10.357651c-2.742727,-4.696976 -3.241407,-10.047638 -4.225281,-15.324142c-0.397587,-2.102539 -0.114553,-4.232025 -0.397587,-6.314316c-0.619991,-1.522995 -1.671249,-3.18074 -1.920576,-4.818283c0.471731,-1.253418 1.1793,-2.392319 2.217072,-3.261597c4.117455,-2.931427 8.740322,-4.27919 13.652952,-5.18222c2.129465,-1.509491 4.346563,-2.931389 6.347986,-4.602615c0.1348,-6.05825 0.020218,-12.129959 0.047169,-18.188202c-0.842342,0.862579 -1.509502,1.85994 -2.318165,2.756203c-1.111916,0.3302 -3.072899,0.249344 -3.045952,-1.280388c0.653671,-3.30204 2.116005,-6.240181 3.571583,-9.164848c0.572823,-1.098427 0.539116,-2.237305 0.478458,-3.436821c-1.118645,-1.630798 -3.901779,-2.365334 -3.423317,-4.744156c1.832943,-2.99205 4.39373,-5.647156 6.947762,-8.025978c4.629593,-3.922012 9.367016,-7.709251 14.131386,-11.483025c1.711658,-1.455589 3.652454,-2.580978 5.006966,-4.407219c1.098427,-1.590363 0.761494,-3.167259 1.071476,-4.97327c1.738636,-2.089043 4.83176,-1.556683 7.244282,-1.549938c2.035133,0.006744 3.955704,1.367981 5.943672,1.307343c1.59037,-0.579544 3.086418,-1.462334 4.602646,-2.217087c4.117455,-2.149696 8.504433,-3.659199 13.09359,-4.387001c7.29821,-0.269558 14.394226,-1.866665 21.517197,-2.749458z"/>
   <path id="svg_3" fill="#e69d2a" d="m133.291138,53.201317c4.723953,1.711662 8.592056,4.528503 13.760773,4.440903c5.680832,0.269554 10.216095,-2.338387 16.112595,-3.173996c1.179306,1.253418 2.176666,2.655109 3.355957,3.908539c1.341019,1.03104 3.194214,1.496025 4.757614,2.109261c-0.721054,2.372078 -3.308762,3.005531 -4.076996,5.141754c3.416626,-0.788445 6.833206,-0.249344 10.121765,0.835609c5.22261,1.967751 9.528763,5.364143 14.710938,7.473404c4.595886,1.812752 8.645966,4.63633 12.197327,8.052933c4.912659,4.117439 10.391342,7.594704 15.546555,11.402145c2.365356,1.73864 4.124176,4.481346 5.498901,7.035378c-2.41922,-1.044525 -4.326309,-2.837059 -6.7995,-3.75354c-0.053894,2.459671 1.907089,3.174004 3.106613,5.040665c0.822144,3.996147 1.145615,8.039459 0.963684,12.123207q-0.977142,-0.033691 -1.961014,-0.047165c0.303223,0.990616 0.633453,1.974487 0.963654,2.958359c-1.300613,2.021645 -2.479919,4.043312 -4.198334,5.761726c-1.920547,2.06884 -4.218491,3.335716 -6.449081,5.006966c-3.207703,2.39904 -6.348007,4.831749 -9.097443,7.756432c-2.857315,2.971832 -5.936935,5.741516 -8.679672,8.821167c-2.709015,3.443573 -5.054123,7.210571 -7.325119,10.863052c-1.341049,2.169907 -2.358612,4.312851 -4.366791,5.984116c-2.14296,-1.657776 -2.911209,-3.915298 -4.029846,-6.287354c-1.71167,-4.353333 -3.248108,-8.760529 -5.182175,-13.026245c-2.904449,-6.442352 -4.926117,-13.194672 -6.118881,-20.15593c-0.990631,-7.648598 1.044495,-14.25943 2.250778,-21.692383c0.694077,-3.874847 1.698166,-7.911423 1.644272,-11.826691c-0.026947,-2.587723 0.276306,-4.953072 -0.876053,-7.37233c-1.031036,-0.013474 -2.055344,-0.020218 -3.086411,-0.026947c-0.181946,2.904449 -0.006699,5.815628 -0.148239,8.713348c-0.862579,7.304916 -2.682068,14.515495 -3.80072,21.753036c-0.309998,3.44355 -0.262802,7.082542 -0.080872,10.539574c0.990631,7.163414 3.679443,14.272911 6.79953,20.769157c1.496017,3.490738 2.776413,7.062347 4.299393,10.532867c1.273636,3.012268 2.27771,5.829102 4.481339,8.335968c1.522964,1.637512 3.962448,2.109253 5.8965,0.889526c2.37207,-1.394958 3.773773,-4.636337 5.256302,-6.880386c2.722504,-4.205032 5.343918,-9.326584 9.21875,-12.567978c0.566071,1.462326 1.273666,2.857269 2.055374,4.218506c3.126801,5.471985 4.912613,10.910233 9.232224,15.701569c4.366776,4.663284 7.93837,9.987 12.419724,14.528992c4.912628,5.626953 9.400696,11.631271 15.492661,16.193481c5.916687,4.515015 13.026199,7.702499 19.940262,10.371109c8.619019,3.160507 17.163879,4.191544 26.173767,5.45845c3.039185,0.283035 6.037994,-0.060623 9.070465,0.404343c1.859955,0.276306 3.726563,0.357162 5.586517,0.539124c5.316986,0.646912 10.168945,2.041855 15.580261,1.8936c4.326355,0.080872 8.821167,-0.309982 13.093628,0.350418c2.884216,0.411072 5.788635,0.229141 8.666199,0.748032c8.693085,1.064728 17.494049,2.264236 26.18045,3.477249c3.37616,0.188675 6.711914,0.121307 10.067841,0.694107c9.811798,0.815399 18.269012,7.082535 27.649536,8.106842c5.862793,0.343689 11.644775,-0.33696 17.480591,0.640182c6.765869,0.114563 13.289063,2.008179 19.293365,5.074387c2.843781,1.522964 5.869568,2.607925 8.949219,3.56485q0.330231,0.801895 0.6604,1.610596c5.498901,-0.808701 10.795685,-4.171356 15.775696,-6.529953c10.22287,-5.182205 16.746063,-13.814682 22.231506,-23.592773c3.025726,-5.842575 6.839905,-10.78891 9.400696,-16.867355c1.556702,-3.726608 3.153778,-7.432953 4.791351,-11.12587l0.161682,-0.390839c3.025757,-7.439713 6.556915,-15.391586 7.304932,-23.437775c0.990631,-9.946548 2.143005,-19.91333 3.045959,-29.913803c-0.060608,-5.546082 0.28302,-11.173027 -0.202179,-16.698891c-0.835602,-4.602631 -0.269531,-9.050285 -0.491913,-13.666405c-0.47168,-5.054138 -1.199493,-10.027428 -2.38559,-14.96701l-0.060638,-0.316727c-0.357147,-2.385559 -0.559326,-4.656555 0.640228,-6.84668c2.129486,-0.175209 4.258942,-0.195427 6.381683,0.101082c4.723938,0.687363 9.987,0.835609 14.562683,2.257523c3.841125,1.192772 7.480164,2.250771 10.640686,4.865448c4.939575,3.625511 8.807617,8.17424 13.20813,12.392769c2.163208,2.055359 4.164612,4.225266 5.79541,6.732117l0.222412,0.343681c2.291199,3.605286 3.409851,7.621651 4.097229,11.793007c0.626709,3.854622 1.597107,7.621658 2.486633,11.422379l0.087585,0.40432c0.646973,4.077019 1.448853,7.776649 0.61322,11.900826c-0.599731,3.922028 -2.688782,6.900604 -4.400391,10.45871c-1.859985,3.537903 -3.194275,7.27124 -4.447754,11.051727c-0.923218,2.837067 -2.580872,5.600006 -2.971741,8.504456q1.253357,-0.067383 2.520264,-0.067383c4.016357,-4.521774 6.442383,-10.728271 7.837341,-16.550644c1.388184,-5.775223 4.164612,-10.701309 7.170166,-15.762192c1.293823,-2.196884 2.048584,-4.609383 3.261536,-6.853432c2.554077,5.788673 3.632324,12.298409 4.636353,18.511665c0.438049,5.525848 0.074158,11.132599 0.202148,16.67868c0.262817,7.311661 -1.145569,15.101776 -4.74408,21.537384c-4.440918,7.540787 -11.469604,13.909012 -17.002136,20.728729c-1.496094,1.974472 -4.872314,3.780502 -5.18219,6.300858c3.443542,0.289764 5.572998,-1.657761 8.565002,-2.890991c6.927551,-3.099884 14.22583,-5.579758 21.645264,-7.183624c0.498718,0.822144 1.165833,1.704926 1.354492,2.66185c-0.309937,3.517685 -2.405762,6.941025 -3.982666,10.054398c-2.250793,4.110687 -4.703735,8.214661 -7.689026,11.840164c-5.714539,6.017792 -13.046448,8.551605 -20.364807,11.961456c-5.364136,2.877502 -11.018066,5.114822 -16.901062,6.671494c-2.655151,0.694107 -5.653992,0.43129 -8.396667,0.593018q0.539124,0.586273 1.071533,1.165833c2.574219,0.121292 4.986755,0.154968 7.372314,1.266907c4.076965,1.893631 8.019226,4.029831 11.921021,6.260376c2.156433,1.219742 5.195679,2.183426 6.556885,4.333115c0.822144,2.473145 -0.822144,3.288544 -2.776428,4.144409c-5.674072,2.04187 -11.846863,3.98938 -17.932068,3.652466c-4.723938,-0.148285 -9.717407,0.390839 -14.326782,-0.478485c-1.967773,-0.3302 -3.935547,-0.276306 -5.923523,-0.14151q0.020203,1.253418 0.977173,1.718384c4.676819,2.783203 9.279358,4.541992 12.695984,9.043579q-0.512207,0.599731 -1.024292,1.199524c-8.74707,0.336945 -17.440155,0.181915 -26.092896,-1.233246c-4.798004,-0.876007 -9.306366,-1.051239 -13.881989,-2.965057c-4.292633,-1.718445 -7.122986,-4.932861 -10.896759,-7.291473c-1.300629,-0.909729 -3.396423,-0.431305 -4.919403,-0.491913c0.51889,1.637512 1.597137,2.789856 2.641663,4.117432c3.497467,4.029846 6.226715,9.050262 9.097443,13.538361l0.222382,0.343689c1.159119,1.772308 2.486633,3.409882 3.807495,5.067596l0.23584,0.303284c3.915253,4.757629 8.032684,9.326569 11.907532,14.117889c4.198364,4.258972 7.069122,9.555725 9.104218,15.142242c3.227936,7.850769 5.33725,16.045227 6.516541,24.448578c0.505371,4.427399 1.590332,8.632477 1.590332,13.100342c-4.8992,-2.890961 -11.078705,-6.226746 -16.907837,-5.990845q0.512177,0.646942 1.14566,1.132141c2.601166,1.159058 6.004272,1.60379 8.531372,3.436768c0.559326,1.09848 0.61322,2.479919 0.903015,3.679474l0.074097,0.384064c1.118683,5.883057 2.614685,11.51001 2.264252,17.568237q-0.289795,1.05127 0.694122,1.455597c-0.586273,6.967987 1.691467,14.421143 3.349152,21.193756c-1.75882,-0.653717 -1.893585,-2.533875 -3.483917,-3.544678c-1.981262,-1.226471 -2.978577,-3.086426 -4.151154,-5.020477l-0.202118,-0.336884c-1.415192,-1.981262 -2.931458,-5.99762 -5.660675,-6.294159c0.18869,1.509521 0.444763,2.965118 1.152344,4.326355c2.115967,3.989441 4.818268,7.668854 8.120331,10.761993c3.012268,2.837067 5.734833,6.051514 9.016571,8.511169c7.143188,5.337189 13.140808,12.284943 17.979309,19.731415c2.756165,4.481293 2.432739,8.928955 3.679382,13.848358c1.017578,3.901764 2.203613,7.830536 3.005554,11.792999c0.828857,4.447601 1.098389,8.969391 1.85321,13.437256l0.080811,0.411102c1.913879,11.644745 4.501526,23.121002 6.853455,34.671448c0.761475,3.497437 0.970337,7.069 1.394897,10.633881c0.229187,6.300842 0.539185,12.02887 -2.163147,17.905151c-1.287109,2.331726 -3.302063,3.692932 -5.93689,4.083679c-5.471985,0.768311 -10.903442,1.341064 -16.294556,2.621521c-3.28186,0.734558 -6.213257,1.718384 -9.616333,1.556641c-2.244141,-7.763184 -2.190186,-16.004761 1.246582,-23.410797c1.341064,-3.194214 3.800781,-5.647156 4.649902,-8.88855q-1.260193,0.087616 -2.540649,0.087616c-2.217041,2.392242 -3.780396,5.424774 -5.370789,8.255096c-2.803406,5.741486 -3.638977,12.514069 -2.65509,18.794708l0.087585,0.411072c0.384094,2.082275 1.044495,3.713074 2.142944,5.49884c-2.749451,-0.141479 -5.350677,-0.020142 -8.059692,0.451538c-3.544647,0.525635 -6.961243,0.040466 -10.438507,-0.640198c1.213013,-5.761719 2.554016,-11.496521 4.036621,-17.190857c0.84906,-3.174011 2.493347,-6.213196 4.110687,-9.050262l0.215576,-0.343689c3.174042,-4.050079 5.438293,-8.282043 10.391357,-10.263245c2.655151,0.876007 5.337219,2.493317 8.100098,2.661804c2.601257,0.04718 5.660706,-1.401672 8.026001,0.033722c2.520386,1.206268 3.477234,3.349213 4.953064,5.539337l0.235901,0.309998q0.653687,1.004089 2.190125,0.916473c0.114563,-2.102509 0.350403,-3.915314 -1.132141,-5.626953c-1.496033,-1.529724 -3.807434,-2.37207 -5.822388,-2.978577c-2.924683,-0.822144 -5.620239,0.606506 -8.349487,0.330231c-2.425903,-0.734528 -4.56897,-2.38559 -7.021851,-3.106659c-2.156494,-0.619965 -4.380249,-0.815369 -6.543427,-1.448853c1.624054,-3.322235 3.261627,-6.287354 3.342499,-10.101532c-0.01355,-4.063538 0.296509,-8.261841 -0.336914,-12.291718l-0.080933,-0.404297c-1.00415,-6.994934 -4.380219,-12.776917 -8.106842,-18.62619c-3.403137,-4.905884 -7.931671,-7.527344 -12.507324,-11.085449c-4.023071,-3.106598 -5.84259,-8.207916 -9.474823,-11.388672c-0.754761,-0.76825 -1.590363,-0.646942 -2.580994,-0.734558l-0.505432,-0.020172l-0.370605,0.518829l0.626678,0.795227c1.745392,3.699646 4.52182,6.961212 7.062347,10.135254q-0.478455,0.599762 -0.956909,1.199493c-2.5271,0.37738 -4.387024,-0.808655 -6.536713,-1.90033c-3.153778,-1.630859 -5.768463,-4.373535 -7.163422,-7.648621c-2.553986,-5.802155 -3.699646,-12.541016 -5.674133,-18.599243c-0.599701,-1.731903 -1.455566,-3.349243 -2.735992,-4.676788c-1.024261,-0.990631 -1.799255,-2.062073 -3.349152,-2.08905c0.087585,3.308807 1.704926,5.748291 2.661835,8.821167c2.055359,5.714569 2.789856,11.321289 5.451752,16.766296c1.300568,2.425964 0.653656,5.202393 -0.835602,7.365601c-2.24408,0.14151 -3.928833,-0.943451 -5.721313,-2.116028c-2.93811,-2.014923 -5.680847,-4.083771 -7.985596,-6.826447c-4.360016,-5.37088 -7.439697,-11.031555 -11.26059,-16.800018l-0.195465,-0.323425c-3.430054,-5.620239 -7.27121,-10.984375 -10.849548,-16.510223c-1.752075,-2.506866 -3.692871,-5.445007 -6.961273,-5.957184c0.026978,2.911224 2.358612,4.697021 3.807495,7.075806c2.897705,4.434204 5.990845,8.767273 8.753754,13.289093c-2.318146,3.760223 -2.628143,7.662048 -2.553986,11.981659l-0.53241,0.222382c-1.52301,-2.554016 -3.241394,-4.980011 -4.730682,-7.561005c-2.884216,-4.946289 -6.786011,-8.996368 -9.589417,-13.976379c-2.008118,-3.544647 -3.207672,-7.432953 -5.175415,-10.997833c-2.291199,-4.501556 -5.70105,-7.641876 -8.780731,-11.442596c-3.025726,-3.922028 -3.625519,-8.261841 -4.521759,-12.979034c-0.936707,-5.674133 -3.369476,-10.822632 -4.400482,-16.490021c-0.714355,-3.517639 -1.125397,-7.251007 -3.881592,-9.865662q-0.646942,0.539124 -1.300598,1.091675c0.67392,5.734802 1.974518,11.435852 3.699646,16.948273c1.94751,5.916687 2.641602,12.082733 4.717194,17.972534c-0.61322,2.37204 -2.08905,4.609344 -3.261627,6.752289c-1.516235,-2.985291 -1.132111,-6.900543 -3.308716,-9.366974c-0.86261,-1.246735 -2.992096,-1.010834 -4.19165,-0.431305c-1.664429,0.62674 -2.035095,2.338409 -2.695496,3.820953l-0.148224,0.390869c-1.071503,2.722473 -1.765625,5.970581 -3.645752,8.214661c-0.761536,0.869324 -1.900391,1.698212 -3.086365,1.118683c-3.767059,-1.502808 -5.512451,-4.515076 -8.026062,-7.480194c-2.291168,-2.823547 -3.834412,-6.664734 -6.644501,-8.969391c-1.320801,-0.397583 -2.904419,-0.155029 -4.265717,-0.074158c-2.412506,4.845245 -1.731842,10.809174 -4.528473,15.250031c-0.808685,0.438019 -1.671295,-0.141479 -2.378845,-0.525635c-5.357361,-3.396393 -9.474854,-8.315704 -12.278137,-13.976379c-0.781769,-1.529724 -1.300629,-3.093109 -2.816895,-4.070251c-1.320801,-0.532379 -2.358582,0.316711 -2.870758,1.489258c-1.576904,7.69577 -0.761475,14.710968 -0.970398,22.642609c-0.161743,4.164612 0.613251,9.232239 -0.970367,13.127289c-1.826233,1.846405 -4.002899,3.713104 -6.246918,5.04068c-0.498718,-3.497467 -0.694122,-7.008423 -1.118683,-10.50589c-1.981201,-8.875092 -4.851959,-17.790588 -6.152588,-26.800476c-0.559326,-3.403137 0.269562,-6.300812 -1.50946,-9.420898l-0.822174,-0.161743l-0.303253,-0.09433l-0.229095,0.431274c-1.165833,1.819458 -1.731903,3.254852 -1.57016,5.46521c0.350433,6.449066 2.102509,13.046448 3.740051,19.279877c0.202179,1.219727 0.869293,2.722534 -0.168488,3.733337c-1.644257,1.981232 -3.679413,3.497467 -5.128265,5.674133c-3.140289,4.279114 -4.878937,8.807648 -7.345337,13.545044c-1.098419,2.10257 -2.122772,4.717224 -3.881592,6.348053c-1.610596,0.175201 -1.698212,-1.347778 -2.18338,-2.493378c-1.3815,-4.629608 -1.99472,-9.420898 -3.477295,-14.037079c-0.862518,-3.349182 -2.392242,-6.044739 -1.52298,-9.575867c-1.078186,-1.280396 -1.806,-2.655151 -2.136169,-4.312866c-0.916534,-4.164642 -2.14975,-8.140594 -4.353333,-11.819977c-2.264252,-3.645752 -4.373505,-7.392517 -6.671478,-11.018036q-1.266907,0.020203 -2.506836,-0.04715c0.128052,1.489258 0.451508,2.931396 1.152344,4.258911c2.196838,4.225281 5.532623,8.154053 6.873596,12.682526c1.455627,4.157928 2.264282,8.457275 3.450317,12.709503c1.138855,4.050049 0.727814,7.99234 0.020233,12.062592c-1.52298,-1.206268 -1.880127,-4.076996 -2.924652,-5.775238c-2.284485,-5.444977 -6.368256,-8.774017 -7.776642,-14.481781c-1.246735,-3.807465 -0.545898,-7.372345 -0.889526,-11.253937c-0.572845,-4.420654 -1.435394,-8.800903 -3.275146,-12.884674c-2.210297,-4.818268 -4.946289,-9.380524 -7.520569,-14.030304c-1.913818,-2.837067 -3.389587,-6.213226 -7.345337,-6.21994c0.808716,2.297913 2.250793,3.969147 3.463806,6.058197c2.190125,3.686188 4.245483,7.453186 6.327759,11.193237c1.934082,3.261627 3.288605,6.839966 4.056793,10.546326l0.074158,0.390869c0.936737,4.80481 0.721069,9.629852 1.233185,14.454865l0.074158,0.37738c0.296509,1.482513 0.687317,2.938141 1.307343,4.326355l0.148224,0.316711c1.354523,3.328979 4.063538,5.822357 5.519165,9.016571c-0.438019,2.459717 -1.529785,4.784607 -2.109314,7.224091c-1.583618,6.17276 -2.459656,12.567932 -2.709015,18.936157c-0.75473,4.777832 -0.81543,9.528809 0.148285,14.293152c-2.405762,-2.547302 -4.447662,-5.458527 -6.691711,-8.160797c-3.645691,-4.326294 -6.664734,-9.205261 -9.434418,-14.138092c-1.765564,-3.133606 -2.338348,-7.891235 -5.033905,-10.310455l-0.09436,-0.168488l-0.04715,0.074158c-1.57016,1.79248 -1.037811,4.380219 -0.28299,6.401886c2.574158,6.833221 7.048828,13.107117 11.503174,18.841888c1.677979,2.203583 3.98941,4.285889 5.222595,6.772522c-0.269531,2.911224 -0.916412,5.79541 -1.219727,8.713348c-0.741272,6.765808 -2.156433,13.41037 -2.675293,20.209839c-0.370636,3.935486 -1.239929,8.086639 -3.173981,11.577362c-4.077057,-10.263275 -9.515289,-19.825745 -14.279648,-29.79248c-1.09848,-2.304718 -2.116043,-3.65918 -4.79808,-4.056824c0.067352,1.536469 0.350418,2.816895 0.956863,4.232025l0.161758,0.390839c2.634918,6.031281 5.829132,11.900879 9.016632,17.655823c1.091675,2.392303 2.803345,4.824982 3.328979,7.392517c-0.633423,2.425995 -1.785828,4.670074 -2.27774,7.143219c-0.842316,3.98938 -1.496002,7.992279 -2.628143,11.914307l-0.101135,0.37735c-1.253357,5.471985 -2.823532,10.883301 -3.935471,16.388947c-1.873413,-4.66333 -2.500107,-9.757843 -5.006943,-14.387451c-0.613235,-1.017609 -1.839752,-1.381531 -2.843796,-1.913849c-0.734543,0.438019 -2.230606,0.741211 -2.446259,1.65097c-0.869308,2.931396 -0.936676,6.314331 -1.401611,9.360321c-1.058044,9.366974 -4.292694,17.878143 -7.446472,26.968903c-1.13887,2.668579 -3.645752,3.854675 -6.381699,4.279175c-5.316971,0.653625 -10.418304,1.105164 -15.593719,2.675293c-2.062103,0.640198 -4.110718,1.253479 -6.253677,1.549988c-0.363907,-2.237366 -0.977142,-4.366821 -0.774963,-6.577148c0.71434,-6.759033 2.392288,-13.363159 5.485428,-19.44165c0.90976,-1.718384 2.075577,-3.355927 3.969208,-4.063507c1.772278,-0.619965 3.854614,-1.657745 5.761688,-1.455566c4.23201,1.105164 6.570419,5.182159 9.751175,7.844025c0.71431,0.673889 1.570099,0.774963 2.479858,0.990601c-1.583618,-4.69696 -6.152588,-8.929016 -10.991074,-10.074554c-3.120087,-0.889557 -6.287323,1.462311 -9.562439,1.024292c-0.990601,-1.907135 -1.799271,-4.077057 -3.160538,-5.755005c-2.830307,-2.722534 -6.287323,-2.897705 -10.007172,-2.958374c1.691437,-1.125336 3.436813,-1.772278 4.407196,-3.686127c2.021667,-3.409882 2.560776,-7.048828 3.281815,-10.876526c1.165833,-5.593262 2.102539,-11.301086 2.513611,-16.995453c-0.053925,-4.050018 0.208893,-8.147247 -0.09433,-12.183807q1.273636,-0.363953 0.714294,-2.095856c0.134781,-15.687988 0.020233,-31.382782 0.074127,-47.070892c0.370636,-6.738831 -2.257507,-13.801178 -5.175446,-19.785278c-1.826218,-3.935486 -4.333084,-7.466675 -6.091934,-11.435852c-3.012268,-7.008392 -4.393738,-14.016846 -6.287338,-21.34201c-0.673889,-2.695496 -1.448868,-5.492126 -1.812744,-8.241577c-0.330231,-2.554047 0.107819,-4.825043 -1.044556,-7.224091c-1.037766,-0.006714 -2.082306,-0.013458 -3.120071,-0.013458c-0.808655,7.237549 1.90036,14.913116 3.544632,21.948486c1.010818,4.521759 2.318161,8.908783 4.036591,13.214874l0.154984,0.390869c1.99469,5.269806 5.492157,9.663513 7.527313,14.919861c-2.115997,3.5177 -3.079651,7.217285 -4.285934,11.112335c-1.617325,5.903229 -3.012268,11.927795 -3.868103,17.992767c-1.940796,-3.922028 -3.551361,-8.140564 -4.198303,-12.480377c-0.889511,-6.745575 -1.549942,-14.111176 -3.753525,-20.560242c-0.545868,-1.725159 -1.691467,-2.978546 -2.931412,-4.245453l-0.242599,-0.195465l-0.774994,0.128052c-0.262787,3.430054 1.04454,6.469299 0.222382,9.838715c-0.545837,3.881592 -1.98793,7.304901 -3.207672,10.997833c-1.442139,4.258942 -2.082291,8.551636 -3.767029,12.756653c-2.372101,-6.981476 -5.27655,-14.360504 -9.730911,-20.290741c-3.450287,-4.64978 -6.759079,-9.279358 -10.98436,-13.275482c-6.637756,-7.385834 -10.290237,-17.58844 -11.011292,-27.406982c-0.256088,-2.008179 -0.377365,-4.373505 -1.462311,-6.118866q-0.842361,0.020172 -1.684738,0.04715c-0.707565,1.590363 -0.983871,2.931396 -0.876038,4.683502c0.727783,9.643311 3.544617,19.1586 9.535461,26.881348c1.165833,1.630768 2.830338,3.005524 3.787247,4.764374c-0.849091,4.225281 -2.749451,8.517853 -3.160492,12.837524c-0.155029,3.591797 -0.020218,7.197113 -0.053925,10.78891c-0.04718,2.978577 0.646927,5.862793 0.721054,8.84137c-3.180756,-2.715759 -5.869553,-6.368225 -7.36557,-10.283478c-2.621414,-6.038055 -2.884232,-13.356445 -4.38028,-19.852722c-1.718414,-7.64859 -2.42598,-15.384796 -3.059433,-23.181671c-0.074112,-3.032471 -0.121292,-7.587921 -2.702286,-9.676971q-0.646912,0.545807 -1.293854,1.098419c-0.148254,2.014923 -0.026947,4.009644 0.080872,6.024536c0.080841,2.035095 -1.125397,3.632233 -2.109283,5.296722c-3.275078,5.431519 -7.089256,10.344177 -10.71479,15.580261c-1.920578,2.695557 -3.504196,5.303467 -6.199722,7.311646c-0.07415,-6.085175 1.179298,-12.163605 1.381454,-18.242065c0.262817,-6.496246 -3.793983,-11.867126 -5.808899,-17.804077c-2.540565,-7.500366 -5.950424,-14.791809 -6.920807,-22.703217c-0.262817,-3.780518 -0.06739,-7.60144 -0.141533,-11.395386c-0.114555,-3.874878 1.125404,-7.217346 1.90036,-10.923737c0.121307,-1.091675 0.478462,-2.715729 -0.545845,-3.477234c-0.903,1.38147 -2.223831,2.668579 -2.783142,4.211792c-1.745369,4.636322 -2.062103,9.340027 -1.934067,14.252686c-0.101059,4.171356 0.195435,8.309021 1.159088,12.372528c0.43129,1.704956 1.064743,3.42337 1.293877,5.161957c-2.944885,7.817108 -6.684944,16.604584 -6.597336,25.068604c-1.341049,-2.109314 -2.210373,-4.61615 -3.227921,-6.907318c-2.048622,-4.885681 -4.23201,-10.202667 -4.670036,-15.512848c-0.222374,-2.924713 -0.788445,-5.768494 -0.754761,-8.713379c0,-7.419495 0.033707,-14.832214 -0.020195,-22.251709q0.256058,-1.017578 0.013458,-2.028412c-0.289764,-6.455841 0.269577,-12.68927 2.917938,-18.653137c2.041862,-4.184875 5.013695,-7.958618 8.376389,-11.166321c1.388214,-1.374695 2.196877,-2.5271 2.223831,-4.562195c-2.715752,0.586243 -4.076996,3.409851 -6.772552,3.37616c-4.508286,0.168457 -8.6325,1.42865 -12.918381,2.682068c0.808662,-1.66452 1.907089,-3.032471 2.917908,-4.575684c2.661858,-4.13092 4.090485,-8.46405 5.990837,-12.904938c3.086418,-6.503021 6.509743,-12.850998 9.582664,-19.360733c2.439476,-6.469299 5.020454,-14.030319 4.454391,-21.01178c-0.754738,-5.26976 -2.533813,-11.516708 -7.12973,-14.717651c6.213242,-1.90036 10.451981,-5.707825 15.843079,-9.077255c1.967743,-1.266907 4.151131,-2.08905 6.159317,-3.268356q0.768219,-0.336929 0.687378,-1.442108c-9.016602,2.19014 -15.782425,10.512634 -24.300339,12.87796c-3.3964,1.084976 -6.745605,2.304688 -10.162193,3.315536c-3.086418,0.943436 -6.179558,0.754761 -9.326607,1.347748c3.194244,-5.431503 7.12973,-10.856308 12.204079,-14.670486c3.039246,-2.607941 5.990868,-5.242844 9.279411,-7.547531c6.941032,-4.602646 14.245972,-7.897949 20.984818,-12.722946c2.695557,-1.832977 5.094566,-3.80748 6.981468,-6.496277c4.447655,-5.067627 6.300835,-11.146072 7.742958,-17.601898c-1.18605,-1.192764 -1.873398,-1.859924 -3.665939,-1.401688c-1.49604,1.772324 -2.432747,3.841156 -4.124191,5.485443c-6.988197,6.482773 -14.616577,11.840164 -23.855583,14.589615c-9.063766,2.749466 -18.707054,5.674133 -28.20211,6.152588c-7.082565,0.397598 -12.770153,-2.163162 -19.313595,-4.346558c-3.854614,-1.367996 -6.644508,-4.56897 -7.837269,-8.443802c2.486614,-2.00145 5.687584,-2.837067 8.248344,-4.791321c5.721291,-3.679428 10.950661,-9.778091 11.321297,-16.847168c-0.336956,-4.292633 -2.890984,-8.470749 -6.118877,-11.240387c-3.376179,-2.426025 -7.399273,-4.070297 -11.530216,-4.609406c-3.780495,-0.491928 -7.493607,-1.071487 -11.314545,-1.084946c1.954285,-1.886902 4.218552,-3.019005 6.624321,-4.198303c4.784584,-2.439476 9.569176,-4.32637 13.727039,-7.830566c3.517685,-3.01902 7.210606,-6.172806 9.030087,-10.519371c1.381462,-2.567505 1.239952,-5.404564 0.929947,-8.221413c-0.599747,-2.432716 -2.318161,-5.141754 -4.824997,-5.923447c-1.677982,-0.3302 -3.450325,-0.283035 -5.155254,-0.370636c-0.195427,-2.31144 0.943462,-4.009628 2.136223,-5.856064c1.812756,-2.64164 3.767036,-5.175446 6.105419,-7.379059c3.059441,-2.924667 5.647148,-5.970634 9.009842,-8.524658c0.903023,-0.707588 1.448868,-1.280388 1.698196,-2.446213c-1.347748,0.424553 -2.65509,0.849106 -3.814178,1.698196c-3.605316,2.668587 -6.947784,5.613472 -9.663536,9.205292c-2.756187,3.039215 -5.42477,5.84259 -7.197113,9.623085c-0.929947,2.257515 -0.781685,4.609375 -2.001423,6.786018c-2.506863,4.939598 -3.086418,10.694588 -0.956924,15.876762c0.902996,1.563423 2.56749,2.762939 3.928757,3.922028c-4.515041,3.800697 -9.832016,6.967964 -15.41851,8.90876c-0.060658,-2.742699 0.694111,-5.370872 0.680622,-8.100113c0.013489,-2.277725 0.053898,-4.568939 -0.067387,-6.846672c1.401676,-0.424545 1.071476,-1.77906 0.296494,-2.66185c-0.242596,-1.152351 -0.323444,-2.244049 -1.071476,-3.214432c-0.889511,0.040428 -1.779045,0.094337 -2.675316,0.154991c0.599747,-2.109261 2.055351,-4.151138 2.210342,-6.334541c0.316711,-1.987953 -2.075569,-3.531151 -3.227921,-4.899139c1.381462,-3.369438 3.807472,-5.626961 6.381721,-8.079895c5.680855,-4.926109 11.55714,-9.582664 17.49408,-14.185295c2.527054,-1.927322 3.39637,-4.663292 3.820934,-7.689056c3.504192,-1.725143 5.653881,1.071495 9.131153,1.125404c4.872192,-0.599758 8.052917,-3.450294 12.588181,-4.959808c3.807472,-1.415154 7.742958,-1.940784 11.766052,-2.345116c6.334526,-0.269558 12.433189,-2.129494 18.808151,-2.217098c6.044762,-0.997345 12.069305,-0.741261 17.925377,1.105183z"/>
   <path id="svg_4" fill="#fbfbf7" d="m505.121216,78.707901l0.060638,0.316727l-0.060638,-0.316727z"/>
   <path id="svg_5" fill="#1c1a16" d="m116.053139,85.884789c3.652458,-0.262817 6.819717,1.145607 9.838722,3.032494c3.874863,2.567505 6.186264,7.432961 7.682297,11.691917c-1.597107,1.954262 -2.776398,4.056793 -4.811523,5.418045c-2.958374,2.196869 -6.415405,3.450294 -9.912872,4.905884c-2.944885,1.253433 -6.139091,1.664497 -9.28614,1.044533c-3.005539,-1.132133 -5.081108,-4.676765 -4.966553,-7.830559c-0.013466,-2.675323 -0.262817,-5.559555 0.768227,-8.05294c0.801926,-2.014915 1.75885,-4.016365 2.911201,-5.856064c1.671227,-2.500122 4.703712,-4.474609 7.776642,-4.35331z"/>
   <path id="svg_6" fill="#fbfbf7" d="m117.636757,92.670807c1.83297,-0.323456 3.079659,0.505432 4.488098,1.522995c0,1.004089 0,2.001434 0,3.005524c-0.687378,0.491943 -1.368004,0.956924 -2.149712,1.273651c-1.192764,-0.040436 -2.419235,-1.145599 -3.167267,-2.008179c-0.336929,-1.421898 0.208916,-2.547287 0.82888,-3.793991z"/>
   <path id="svg_7" fill="#fbfbf7" d="m54.203857,94.813782l0.404346,0l0,0.404327l-0.404346,0l0,-0.404327z"/>
   <path id="svg_8" fill="#fbfbf7" d="m60.94273,94.813782l0.404346,0l0,0.404327l-0.404346,0l0,-0.404327z"/>
   <path id="svg_9" fill="#fbfbf7" d="m57.297005,95.797653q0.734547,0.478462 1.415169,1.064728c0.667156,2.527084 -0.943436,3.194229 -2.527081,4.663307c-1.597107,-2.183403 -0.518902,-4.023109 1.111912,-5.728035z"/>
   <path id="svg_10" fill="#fbfbf7" d="m556.350037,98.210159l0.222412,0.343681l-0.222412,-0.343681z"/>
   <path id="svg_11" fill="#fbfbf7" d="m225.370941,100.878746l0.404312,0l0,0.404335l-0.404312,0l0,-0.404335z"/>
   <path id="svg_12" fill="#ee76a6" d="m40.139858,104.74012c0.774982,0.88279 1.105183,2.237305 -0.296494,2.66185q-0.141529,-1.307343 0.296494,-2.66185z"/>
   <path id="svg_13" fill="#fbfbf7" d="m563.156311,121.769226l0.087585,0.40432l-0.087585,-0.40432z"/>
   <path id="svg_14" fill="#e69d2a" d="m19.667213,145.092422c3.423347,3.382919 5.316948,8.538132 7.763153,12.628616c1.084967,1.637543 2.149712,3.160522 3.834423,4.238739c3.045952,2.149704 6.233463,2.540573 9.69722,3.726593c0.586285,2.655106 1.893627,4.932861 3.537899,7.062317c-0.741272,0.626724 -1.543205,1.785812 -2.513588,1.974503c-4.656548,-1.219742 -9.077255,-2.75618 -12.736443,-6.017807c-4.643085,-3.436813 -6.94776,-8.585312 -8.167498,-14.084229c-0.66716,-3.180756 -1.482553,-6.246918 -1.415167,-9.528732z"/>
   <path id="svg_15" fill="#ee76a6" d="m127.509186,157.94342c-1.057991,4.932846 -3.167259,9.299622 -6.502975,13.100342c-4.744179,6.422134 -11.557167,9.548981 -18.221893,13.444031c-4.164627,2.291214 -8.180992,4.737427 -12.028877,7.540787c-2.601196,2.095779 -5.108055,4.306152 -7.641869,6.482788c-7.311661,5.209152 -11.381927,14.993973 -17.507568,21.584549c-3.881557,3.71312 -8.976128,5.141769 -14.232449,5.357422c-5.054161,0.141495 -10.000469,-2.823608 -12.15691,-7.426224c-2.998787,-6.321075 -4.79808,-13.275558 -5.357388,-20.243546c-0.16848,-2.816833 0.350422,-5.640411 1.078205,-8.356186c0.687378,-2.783142 2.709023,-4.79808 4.488098,-6.961258c2.136223,-2.580978 4.319611,-5.114792 6.509735,-7.655334c0.619965,-0.929962 1.819481,-0.040436 2.634876,0.134781c7.075802,2.783142 13.949448,5.310211 21.672192,5.357376c2.742729,0.074158 5.357384,-0.532349 8.079887,-0.721054c4.447632,-0.316711 8.989655,-1.806015 13.349678,-2.816833c8.592064,-2.014923 17.763649,-4.899155 25.082054,-9.960037c3.935486,-2.587708 7.331856,-5.647186 10.755203,-8.861603z"/>
   <path id="svg_16" fill="#fbfbf7" d="m497.910645,177.708511l-0.161682,0.390839l0.161682,-0.390839z"/>
   <path id="svg_17" fill="#1c1a16" d="m60.929241,179.588654c-1.819481,0.929947 -3.652454,1.630783 -5.027184,3.187454c-2.378819,2.641632 -3.659184,5.862823 -5.108059,9.036819c-0.748005,1.401703 -1.118645,2.877502 -2.816841,3.349228c0.62672,-4.555481 2.83033,-9.003128 5.842602,-12.460159c1.832973,-2.116013 4.245472,-3.376175 7.109482,-3.113342z"/>
   <path id="svg_18" fill="#fbfbf7" d="m479.527039,280.159393l0.222382,0.343689l-0.222382,-0.343689z"/>
   <path id="svg_19" fill="#fbfbf7" d="m483.556915,285.570679l0.23584,0.303284l-0.23584,-0.303284z"/>
   <path id="svg_20" fill="#fbfbf7" d="m85.728256,310.315796q0.242599,1.010834 -0.013458,2.028412c-1.058014,-0.478485 -1.064743,-1.563446 0.013458,-2.028412z"/>
   <path id="svg_21" fill="#fbfbf7" d="m506.583588,354.940552l0.074097,0.384064l-0.074097,-0.384064z"/>
   <path id="svg_22" fill="#fbfbf7" d="m319.270203,363.721283l0.303253,0.09433l-0.532349,0.336945l0.229095,-0.431274z"/>
   <path id="svg_23" fill="#e69d2a" d="m132.785721,366.187683c0.14827,2.068848 0.518906,4.103973 0.680618,6.166046c0.269577,6.13913 1.99469,12.460175 3.079666,18.558868c1.233231,6.273834 1.381454,12.042297 4.4207,17.824219c2.297913,4.777893 6.219955,7.722748 9.946548,11.611145c1.098434,1.239929 1.974503,1.212952 3.544632,1.165771c-0.377365,-3.113342 -0.774948,-6.186279 -0.680618,-9.326599q0.330231,-1.05127 -0.6604,-1.482513c0.141525,-4.676758 -0.161743,-9.380554 0.134766,-14.050537c0.485199,-3.295319 1.098434,-6.725372 2.486649,-9.771362c6.529953,6.31427 11.280838,15.027649 14.731155,23.363647c1.543182,3.551361 2.055359,7.304901 3.167236,10.970856c0.384125,1.590332 2.365356,0.822144 3.558121,0.936707c2.446243,-6.118866 3.207733,-12.851044 5.337204,-19.091217c1.010818,-2.84375 1.806015,-5.768463 2.803375,-8.618988c0.316711,5.559601 1.260147,10.964111 2.358597,16.402405c-0.363907,3.268341 -1.99472,6.401886 -2.500122,9.69043c-0.80867,5.741547 -1.455582,11.408936 -0.977142,17.21109q-1.125412,0.384094 -0.849106,2.008209c0.175217,3.376129 0.060654,6.765747 0.047165,10.141968c-1.886871,-3.746826 -3.551361,-8.120331 -6.192993,-11.368439c-0.90976,-0.963654 -1.779068,-2.277802 -3.275085,-2.129517c-0.154984,3.75351 2.729233,5.519165 3.598557,8.79422c0.006729,3.086395 -0.471725,6.064972 0.040436,9.164856c0.444763,2.520325 0.539093,5.040619 0.485199,7.587952c-0.087616,6.105438 0.033676,12.210785 -0.067383,18.309479c-3.47728,-7.702484 -6.246933,-15.741943 -9.582672,-23.505127c-1.374725,-2.796631 -3.847885,-5.263092 -7.203842,-5.000275c-1.347778,0.074158 -4.279175,0.121307 -4.090515,2.075592c1.731918,-0.303253 3.443604,-0.505432 5.202423,-0.552612c3.113342,3.409882 4.488068,8.585358 6.27388,12.783661q-1.118652,0.451477 -0.640182,2.055328c-0.161758,5.236115 0.309982,10.290222 -0.518906,15.485931c-0.303253,5.175415 -1.179306,10.007141 -2.634903,14.980438c-0.903,2.884277 -1.253418,5.566315 -2.857285,8.066437c-3.766998,-2.702301 -4.184814,-7.271271 -8.160736,-9.730865c-0.222382,2.917877 0.923218,5.330353 2.23056,7.830536c-2.951614,2.425964 -3.847916,5.781921 -5.606735,9.083984c-1.677963,3.227905 -2.965088,6.597351 -4.144379,10.03418c-0.673889,2.095764 -2.062103,3.814148 -4.205063,4.501526c-3.086395,0.903076 -6.388428,0.815369 -9.542221,1.273682c-3.457062,0.525635 -6.792778,0.262817 -10.350899,0.437927q-1.084969,-0.458191 -1.880142,0c-0.532387,-7.432922 0.761497,-15.647522 4.858711,-22.009064c1.489304,-2.062073 3.665939,-4.440918 6.435623,-4.353302c2.944885,-0.121307 5.013718,2.149689 8.019226,2.149689q0.175217,-1.138885 -0.626694,-1.502747c-1.651031,-0.990631 -3.558121,-1.657776 -5.451736,-1.988007c-2.668594,-0.417786 -4.980026,0.619965 -7.76992,1.111938c-0.370636,-0.75473 -0.748009,-1.502777 -1.145622,-2.237274c-1.522957,-3.618774 -6.523193,-5.27655 -9.993713,-6.294159l0.208923,-0.478394c3.187477,-0.694122 5.101295,-3.612061 6.617531,-6.253723c3.093147,-6.287354 2.533836,-12.15686 3.3964,-18.862c0.485191,-6.32785 1.738632,-11.954773 1.32756,-18.228668c1.435379,-1.266907 1.064743,-2.60791 0.074112,-4.002838c-0.09433,-4.683563 -0.047165,-9.373779 -0.067383,-14.057281q0.289764,-1.051239 -0.700844,-1.462341c0.094368,-3.093109 0.208923,-6.065002 -0.269539,-9.137909c-0.478462,-2.729248 -0.269547,-5.458466 -0.599777,-8.194458c-1.044525,-6.273834 0.148262,-13.01947 -0.808662,-19.327026c-0.3302,-2.095856 -0.229103,-4.225281 -0.49192,-6.321075c-0.424561,-1.859924 -1.246689,-3.645691 -1.866676,-5.451752c3.692886,-5.727997 7.945122,-11.044983 11.348244,-16.988647z"/>
   <path id="svg_24" fill="#fbfbf7" d="m277.448822,369.759277l0.074158,0.390869l-0.074158,-0.390869z"/>
   <path id="svg_25" fill="#ee76a6" d="m508.921936,372.892853q1.017548,0.363892 0.694122,1.455597q-0.983917,-0.404327 -0.694122,-1.455597z"/>
   <path id="svg_26" fill="#e69d2a" d="m339.931549,373.654327c3.37616,5.485474 7.621674,10.22287 12.911621,13.915771c1.859955,1.347778 4.798096,1.125366 6.947784,0.774994c2.729248,-1.597137 3.153809,-5.957184 3.868103,-8.747101l0.087616,-0.411041c0.323486,-1.610596 0.660461,-3.214447 1.064789,-4.811523c1.536438,1.287079 2.297974,2.917938 3.416565,4.55545c2.257507,3.409851 4.980042,6.786011 8.214691,9.31308c2.412476,1.880157 5.957123,2.116028 8.773987,1.199554c4.670044,-2.412567 4.85199,-7.149933 7.197113,-11.348236c0.902985,2.41922 1.024292,5.18219 2.156433,7.493561c1.105133,1.3815 3.133575,2.062134 4.777832,1.19281c2.405762,-0.909729 3.275085,-2.971832 4.656555,-4.953094c2.493378,3.025787 5.431549,5.741547 7.581238,8.982941c1.765564,2.857239 3.032471,6.07843 4.333069,9.17157c0.835632,1.677948 0.148254,3.517731 0.040436,5.357422c-0.424561,2.655121 -0.397614,5.397797 -1.981201,7.621613c-3.558136,-2.722473 -4.434174,-6.617523 -7.251068,-9.845428c-0.619965,-0.754761 -1.361237,-1.010834 -2.284454,-1.192841c0.229126,4.285919 3.65921,7.655334 5.647156,11.22699c1.017609,2.338379 1.637573,4.818268 3.342499,6.833191c1.866638,2.149689 4.110687,3.996124 6.031281,6.098694c1.859894,1.940765 2.749451,4.784546 2.41922,7.446411c-0.694061,5.606781 -1.664429,11.152863 -2.149689,16.779755c-1.307343,10.391388 -2.992065,20.661407 -3.26828,31.160461c-0.310059,3.524506 -0.781769,7.042145 -1.489349,10.512695c-1.300598,7.230774 -2.446198,14.4953 -3.935486,21.692352c-0.599731,2.304749 -1.084961,4.845276 -3.618774,5.728027c-3.75351,0.970398 -7.850739,1.152283 -11.718872,1.125427c-4.899139,-0.067383 -9.744385,1.859924 -14.704193,2.614624c0.687378,-8.052979 2.405823,-16.139557 5.000244,-23.781372c2.217041,-1.47583 5.054108,-2.695557 7.709229,-2.958374c2.358612,0.229095 4.629608,1.442108 6.914124,2.068817c-1.462372,-2.183411 -3.81424,-2.628174 -6.253723,-2.884247c-2.702271,-0.202179 -5.471924,1.010834 -7.965302,1.934052c-0.168488,-2.075562 -0.020203,-4.818268 -1.738647,-6.307556c-1.475769,-1.415131 -3.537903,-1.576904 -5.478668,-1.327545c-2.479889,0.296539 -4.528534,2.048584 -6.624298,3.322266c-0.882782,-1.482544 -1.920593,-2.843842 -2.985321,-4.19162c3.04599,-0.545837 6.920807,-0.781677 9.488312,-2.621368c2.735992,-2.136292 3.585083,-6.678223 4.811554,-9.784821l0.121307,-0.350494c2.284454,-6.536652 4.683502,-14.178528 2.250732,-20.99823c-1.826233,-5.343903 -5.754944,-8.282074 -8.55835,-12.999298c-1.543182,-2.297913 -2.655121,-5.006989 -4.454376,-7.102753c-1.226471,-0.485138 -2.439423,-0.727783 -3.699615,-0.181946c-0.6604,0.808685 -1.125397,1.792572 -1.644287,2.702271c-3.726624,-2.95163 -5.148499,-6.967926 -7.614899,-11.011292c-3.045959,-6.07843 -6.651245,-12.291687 -8.059692,-18.915955c-0.741272,-2.783173 -0.613251,-5.829163 -1.57016,-8.524658c-0.626709,-1.394958 -1.314087,-1.42865 -2.729218,-1.388214c-1.765594,-0.262817 -2.217102,1.597076 -2.634888,2.911194c-1.09848,4.845245 -0.849121,10.08136 -2.136261,14.913086l-0.653625,0.417847c-0.532349,-3.457092 -1.347778,-7.668854 -3.868134,-10.263306c0.28302,-2.392303 0.444763,-4.791351 0.653687,-7.190369c1.132141,-8.22818 0.175201,-16.692169 0.653656,-24.974243z"/>
   <path id="svg_27" fill="#fbfbf7" d="m195.174103,374.483215l0.154984,0.390869l-0.154984,-0.390869z"/>
   <path id="svg_28" fill="#fbfbf7" d="m388.053772,378.52655l-0.148224,0.390869l0.148224,-0.390869z"/>
   <path id="svg_29" fill="#fbfbf7" d="m363.746674,379.186951l-0.087616,0.411041l0.087616,-0.411041z"/>
   <path id="svg_30" fill="#fbfbf7" d="m183.576523,381.417511l0.242599,0.195465l-0.242599,-0.195465z"/>
   <path id="svg_31" fill="#fbfbf7" d="m278.756165,384.605011l0.074158,0.37738l-0.074158,-0.37738z"/>
   <path id="svg_32" fill="#fbfbf7" d="m505.128021,386.640167l0.202118,0.336884l-0.202118,-0.336884z"/>
   <path id="svg_33" fill="#fbfbf7" d="m280.137665,389.308746l0.148224,0.316711l-0.148224,-0.316711z"/>
   <path id="svg_34" fill="#fbfbf7" d="m513.127075,396.040863l0.397461,0.006714l-0.006714,0.397583l-0.397583,-0.006714l0.006836,-0.397583z"/>
   <path id="svg_35" fill="#fbfbf7" d="m259.880615,406.317596l0.09436,0.168488l-0.14151,-0.09433l0.04715,-0.074158z"/>
   <path id="svg_36" fill="#ee76a6" d="m153.116867,410.70462q0.990631,0.431244 0.6604,1.482513q-0.99733,-0.397583 -0.6604,-1.482513z"/>
   <path id="svg_37" fill="#fbfbf7" d="m443.811066,414.950104l0.195465,0.323425l-0.195465,-0.323425z"/>
   <path id="svg_38" fill="#fbfbf7" d="m435.475098,425.051636l0.53241,-0.222382l-0.451538,0.680603l-0.080872,-0.458221z"/>
   <path id="svg_39" fill="#ee76a6" d="m480.793945,430.328186l0.505432,0.020172l-0.249359,1.293884l-0.626678,-0.795227l0.370605,-0.518829z"/>
   <path id="svg_40" fill="#ee76a6" d="m125.474052,431.608551q0.990608,0.411102 0.700844,1.462341q-1.017555,-0.370667 -0.700844,-1.462341z"/>
   <path id="svg_41" fill="#ee76a6" d="m184.216705,437.74765q0.309982,1.71167 -0.849106,2.008209q-0.276306,-1.624115 0.849106,-2.008209z"/>
   <path id="svg_42" fill="#ee76a6" d="m126.242279,447.128174c0.990631,1.394928 1.361267,2.735931 -0.074112,4.002838c-0.128044,-1.361237 -0.101097,-2.648346 0.074112,-4.002838z"/>
   <path id="svg_43" fill="#fbfbf7" d="m251.08638,449.291321l0.161758,0.390839l-0.161758,-0.390839z"/>
   <path id="svg_44" fill="#ee76a6" d="m211.050842,454.433014q0.559341,1.731903 -0.714294,2.095856q-0.289795,-1.354523 0.714294,-2.095856z"/>
   <path id="svg_45" fill="#fbfbf7" d="m544.274048,462.755554l0.080811,0.411102l-0.080811,-0.411102z"/>
   <path id="svg_46" fill="#ee76a6" d="m168.602768,466.057617q0.599762,1.152313 -0.640182,2.055328q-0.47847,-1.603851 0.640182,-2.055328z"/>
   <path id="svg_47" fill="#fbfbf7" d="m513.96936,472.183228l0.080933,0.404297l-0.080933,-0.404297z"/>
   <path id="svg_48" fill="#fbfbf7" d="m383.996979,476.260193l-0.121307,0.350494l0.121307,-0.350494z"/>
   <path id="svg_49" fill="#e69d2a" d="m366.900452,490.061401c1.826233,-0.114532 3.409912,1.819489 3.362732,3.5784c0.074097,2.897675 -1.85321,5.977356 -3.025787,8.565002c-2.035095,4.164673 -2.769623,8.423584 -4.016357,12.837555c-0.80191,2.877502 -1.590332,5.76178 -2.284454,8.672913c-2.776428,-0.094299 -5.674133,-0.471619 -8.376404,-1.125427c-1.799255,-0.323364 -3.126862,-1.994629 -3.773743,-3.605225c-0.545837,-2.068848 -0.067413,-4.515076 0.384064,-6.570374c0.950195,-4.117462 1.651031,-8.059692 3.625519,-11.846954c2.641663,-5.640411 8.039459,-9.414154 14.104431,-10.50589z"/>
   <path id="svg_50" fill="#e69d2a" d="m378.410461,491.085724c1.731903,-0.606506 3.618774,-0.70755 4.696991,1.044525c1.428619,2.331635 0.512177,5.862793 -0.074188,8.362976c-2.102509,7.783356 -4.629547,15.027588 -4.292633,23.24231c-4.690247,0.545837 -9.252411,1.17926 -13.996582,0.801941q-0.936676,-0.168518 -1.826263,-0.606567c2.19693,-4.791321 3.174042,-9.838684 4.413971,-14.913116c1.004089,-4.164581 2.870758,-7.736206 4.52179,-11.664948c1.132141,-2.944855 3.686127,-5.114746 6.556915,-6.26712z"/>
   <path id="svg_51" fill="#fbfbf7" d="m258.687866,493.788025l-0.101135,0.37735l0.101135,-0.37735z"/>
   <path id="svg_52" fill="#fbfbf7" d="m114.826675,494.475403l-0.208923,0.478394l-0.26281,-0.060608l0.471733,-0.417786z"/>
   <path id="svg_53" fill="#e69d2a" d="m111.881783,495.755768c3.578339,0.956909 8.03273,2.904419 9.811775,6.368225c0.727791,1.408417 1.590378,3.039185 0.754768,4.595886c-1.401711,2.756195 -3.052711,5.18222 -3.962471,8.201202c-1.428627,5.168701 -2.412498,10.303772 -1.132133,15.62738c-3.767006,0.148315 -7.534042,0.195435 -11.301048,0.026978c-0.229141,-4.905884 -0.141533,-9.717468 0.801926,-14.549194c1.165817,-5.876251 2.998787,-12.386047 6.79277,-17.143677l0.222382,-0.303253q0.539085,-0.694061 0.707565,-1.509491c-2.56076,-0.599762 -3.612015,1.111969 -4.980011,2.877502c-3.126831,4.730682 -4.905907,10.505859 -5.950401,16.038513l-0.080879,0.417847c-0.6604,4.64978 -1.691437,8.834595 -0.390854,13.497925c-4.629601,-2.163208 -9.070496,-3.43689 -12.574722,-7.446533c-2.73597,-2.722412 -2.452934,-6.321045 -1.179298,-9.676941c1.981232,-4.636383 4.515045,-9.865753 8.969429,-12.581451c3.713112,-2.560791 8.881828,-5.13504 13.491203,-4.440918z"/>
   <path id="svg_54" fill="#e69d2a" d="m513.679626,497.292206c-3.814209,0.390869 -4.548767,3.194214 -6.941071,5.572998c-3.457031,3.807526 -6.307556,8.005829 -8.005737,12.89151c-1.064728,3.342407 -1.704956,6.819702 -2.648407,10.202637c-0.80191,2.864014 -1.354492,5.74823 -1.516266,8.726807c-3.558075,-0.464966 -6.671417,-1.833008 -9.899353,-3.322266c-1.529694,-0.775024 -3.045959,-1.428589 -3.490723,-3.254883c-0.788452,-1.819458 0.370605,-3.625488 1.05127,-5.289978c2.425995,-4.872192 4.178101,-10.074585 6.732117,-14.832245c1.145569,-2.203644 3.241364,-4.03656 4.99353,-5.768463c2.041809,-2.068787 5.000183,-3.355957 7.668793,-4.420685c3.955719,-1.4758 8.019196,-2.142944 12.055847,-0.505432z"/>
   <path id="svg_55" fill="#fbfbf7" d="m113.869751,498.579315l-0.222382,0.303253l0.222382,-0.303253z"/>
   <path id="svg_56" fill="#fbfbf7" d="m199.0961,500.493225l0.397583,0.006714l-0.006699,0.397522l-0.397598,-0.006714l0.006714,-0.397522z"/>
   <path id="svg_57" fill="#fbfbf7" d="m195.746887,501.09967l0.512177,-0.256104l0.505402,0.256104l0,0.539124l-0.505402,0.256104l-0.512177,-0.256104l0,-0.539124z"/>
   <path id="svg_58" fill="#e69d2a" d="m193.415237,501.699432c-3.591797,5.761719 -5.000229,11.98172 -6.260406,18.565582c-0.464981,2.365295 -0.384094,4.656555 -0.377365,7.048828c0.047195,4.306152 -0.23587,8.457275 0.498703,12.73645c-4.333099,0.23584 -8.632492,-0.175232 -12.864502,-1.064697c-1.866653,-0.357239 -3.315536,-1.677979 -3.888321,-3.470581c-0.781723,-1.779053 0.121277,-4.063538 0.438019,-5.896484c1.725143,-6.759033 3.295303,-15.034424 7.668823,-20.620911c3.969193,-4.670044 9.158127,-5.768463 14.785049,-7.298187z"/>
   <path id="svg_59" fill="#e69d2a" d="m205.221741,501.881378l0.343689,0.107788c3.032486,1.314117 3.814163,3.847931 5.209137,6.56369l0.168457,0.309998q0.525635,0.923218 1.084961,1.812714c-1.179291,2.527069 -2.837051,4.764435 -3.908539,7.338715l-0.168472,0.390808c-2.311401,4.831726 -3.32225,9.87915 -4.151138,15.135437c-0.404343,2.675415 0.013458,5.168701 0.438019,7.80365c-4.65654,0.148254 -9.22551,0.357117 -13.794449,-0.808716c-1.031036,-2.533752 -0.903,-5.094543 -1.09169,-7.769836c0.43129,-1.758911 0.424561,-3.059509 0.026978,-4.825073c0.256073,-3.463806 -0.047195,-6.718628 0.748001,-10.12854c0.815399,-3.65918 1.75885,-7.426178 3.328979,-10.842773c2.257538,-4.373505 7.096024,-5.923462 11.766068,-5.08786z"/>
   <path id="svg_60" fill="#fbfbf7" d="m205.221741,501.881378l0.343689,0.107788l-0.343689,-0.107788z"/>
   <path id="svg_61" fill="#fbfbf7" d="m537.487976,506.585114l0.235901,0.309998l-0.235901,-0.309998z"/>
   <path id="svg_62" fill="#fbfbf7" d="m210.774567,508.552856l0.168457,0.309998l-0.168457,-0.309998z"/>
   <path id="svg_63" fill="#fbfbf7" d="m506.017456,508.613495l-0.215576,0.343689l0.215576,-0.343689z"/>
   <path id="svg_64" fill="#fbfbf7" d="m103.646904,515.98584l-0.080879,0.417847l0.080879,-0.417847z"/>
   <path id="svg_65" fill="#fbfbf7" d="m208.119446,518.014282l-0.168472,0.390808l0.168472,-0.390808z"/>
   <path id="svg_66" fill="#ee76a6" d="m189.378693,527.940552c0.397583,1.765564 0.404312,3.066162 -0.026978,4.825073c-0.956924,-1.873474 -0.916458,-2.95166 0.026978,-4.825073z"/>
   <path id="svg_67" fill="#fbfbf7" d="m513.922241,529.477051l0.087585,0.411072l-0.087585,-0.411072z"/>
   <path id="svg_68" fill="#ee76a6" d="m120.291878,530.076721q0.795174,-0.458191 1.880142,0c-0.384125,0.754822 -1.920578,1.233276 -1.880142,0z"/>
  </g>
 </g>
</svg>