<svg width="1200" height="250" xmlns="http://www.w3.org/2000/svg" xmlns:svg="http://www.w3.org/2000/svg">
 <!-- Created with SVG-edit - http://svg-edit.googlecode.com/ -->

 <g>
  <title>Layer 1</title>
  <text font-weight="bold" transform="matrix(11.1183, 0, 0, 11.1183, -15874, -1874.66)" xml:space="preserve" text-anchor="middle" font-family="share tech" font-size="24" id="svg_20" y="188.57319" x="1492.69844" stroke-linecap="null" stroke-linejoin="null" stroke-dasharray="null" stroke-width="0.2" stroke="#bf00bf" fill="#ff7f00">Zendallo</text>
  <path transform="rotate(181.073, 318.207, 103.197)" id="svg_5" d="m317.7153,103.65476l0,-0.91452l0.98401,0.91452l-0.98401,0z" stroke-linecap="null" stroke-linejoin="null" stroke-dasharray="null" stroke-width="0" stroke="#bf00bf" fill="#ff9800"/>
  <path id="svg_1" d="m190.85718,127.07066l-25.34328,49.26283l-67.47503,-0.12207l-25.2615,-49.35416l25.34308,-49.2612l67.47508,0.12189l25.26164,49.35272z" stroke-linecap="null" stroke-linejoin="null" stroke-dasharray="null" stroke-width="0" stroke="#bf00bf" fill="#ff7f00"/>
  <path transform="rotate(-0.766318, 110.201, 131.524)" id="svg_6" d="m67.91142,95.08175l85.30868,1.21994l-86.03851,71.66476l0.72984,-72.8847z" stroke-linecap="null" stroke-linejoin="null" stroke-dasharray="null" stroke-width="10" stroke="#bf00bf" fill="#56aaff"/>
  <path transform="rotate(1.88307, 154.599, 123.524)" id="svg_7" d="m196.00092,154.88988l-82.80329,3.55905l79.86129,-69.84897l2.942,66.28992z" stroke-linecap="null" stroke-linejoin="null" stroke-dasharray="null" stroke-width="9" stroke="#bf00bf" fill="#56aaff"/>
  <path id="svg_22" d="m49.06638,130.03387l34.97579,-69.94164l93.24763,0l34.96695,69.94164l-34.96695,69.94119l-93.24763,0l-34.97579,-69.94119z" fill-opacity="0" stroke-linecap="null" stroke-linejoin="null" stroke-dasharray="null" stroke-width="39" stroke="#ff7f00" fill="#000000"/>
  <path fill-opacity="0" id="svg_23" d="m33.20007,127.93668l41.92116,-87.54142l111.79933,0l41.92003,87.54142l-41.92003,87.54395l-111.79933,0l-41.92116,-87.54395z" stroke-linecap="null" stroke-linejoin="null" stroke-dasharray="null" stroke-width="16" stroke="#bf00bf" fill="#000000"/>
  <path transform="rotate(0.314585, 131.512, 126.846)" id="svg_24" fill-opacity="0" d="m72.03683,126.84515l25.48815,-54.41339l67.974,0l25.48764,54.41339l-25.48764,54.41476l-67.974,0l-25.48815,-54.41476z" stroke-linecap="null" stroke-linejoin="null" stroke-dasharray="null" stroke-width="10" stroke="#56aaff" fill="#000000"/>
 </g>
</svg>