<svg width="42.00000000000001" height="46.00000000000001" xmlns="http://www.w3.org/2000/svg" xmlns:svg="http://www.w3.org/2000/svg">
 <g>
  <title>Layer 1</title>
  <path fill="#ff4081" stroke-width="null" stroke-dasharray="null" stroke-linejoin="null" stroke-linecap="null" d="m19.384418,17.559896l0.028687,0m-0.028687,-0.023275l0.028687,0m-0.000063,-0.012756l0,0.048269c0.082619,0.004332 0.084541,-0.05291 0,-0.048269zm0.092344,0.024042l-0.029837,0m-0.093948,-0.01265l0.002838,0l0,0.002832l-0.002838,0l0,-0.002832zm-0.000135,0.02314l0.002838,0l0,0.002834l-0.002838,0l0,-0.002834zm0.123886,-0.011875l0.002838,0l0,0.002838l-0.002838,0l0,-0.002838z" id="svg_10"/>
  <path fill="#ff4081" stroke-width="null" stroke-dasharray="null" stroke-linejoin="null" stroke-linecap="null" d="m12.206963,18.562782l0.012959,0m-0.012959,-0.010513l0.012959,0m-0.000031,-0.005762l0,0.021803c0.037319,0.001957 0.038188,-0.023901 0,-0.021803zm0.041713,0.01086l-0.013477,0m-0.042437,-0.005716l0.001282,0l0,0.001282l-0.001282,0l0,-0.001282zm-0.00006,0.010454l0.001282,0l0,0.00128l-0.001282,0l0,-0.00128zm0.05596,-0.005363l0.001282,0l0,0.001282l-0.001282,0l0,-0.001282z" id="svg_12"/>
  <path fill="#7f00ff" stroke-width="null" stroke-dasharray="null" stroke-linejoin="null" stroke-linecap="null" d="m19.172859,16.94075c-1.788982,-0.485104 -3.319139,-1.797565 -4.104184,-3.518952c-0.483728,-1.05978 -0.592325,-1.589419 -0.593614,-2.885601c-0.000861,-1.331217 0.109452,-1.855882 0.623229,-2.954308c0.791055,-1.690368 2.129354,-2.870134 3.877137,-3.416956c0.950712,-0.297924 2.353827,-0.318052 3.318287,-0.047697c1.293194,0.362365 2.488573,1.177513 3.301092,2.251709c1.385962,1.830076 1.758087,4.199577 1.009523,6.427546c-0.287571,0.855881 -0.651985,1.48091 -1.26964,2.177835c-0.909525,1.027636 -1.871399,1.635487 -3.112659,1.968687c-0.839128,0.225147 -2.215202,0.224243 -3.049171,-0.002262l0,0l0,0zm5.687973,9.782099c0,-1.487663 -0.018898,-2.704805 -0.041622,-2.704805c-0.066971,0 -2.801916,2.423595 -2.801916,2.482815c0,0.076162 2.710903,2.926867 2.78389,2.926867c0.032623,0 0.059649,-1.216831 0.059649,-2.704876l0,0zm-0.984198,11.422396c0.380707,-0.459522 0.720217,-1.221035 0.867023,-1.941631c0.091436,-0.446495 0.107723,-0.929508 0.072952,-2.156776l-0.04463,-1.581291l-4.083546,-4.25849c-3.558231,-3.710634 -4.090452,-4.235323 -4.136375,-4.078253c-0.029192,0.099457 -0.036915,1.741837 -0.017605,3.650751l0.035202,3.469946l3.454344,3.622875c1.900152,1.992359 3.477922,3.623512 3.50753,3.62442c0.028765,0.001366 0.184574,-0.157154 0.345102,-0.351551l0,0l0.000002,0zm-2.555965,1.558899c0.066957,-0.026886 -0.790184,-0.985638 -2.304466,-2.577873c-1.907028,-2.005421 -2.422083,-2.505245 -2.465006,-2.391068c-0.098719,0.26376 -0.066099,1.195518 0.060522,1.713169c0.36783,1.502281 1.551617,2.767052 2.964603,3.167175c0.415485,0.117989 1.531885,0.174511 1.744347,0.088596l0,0zm-1.779106,2.163162c-2.324219,-0.463863 -4.143247,-2.215366 -4.884513,-4.702606l-0.185422,-0.620937l0,-6.575306c0,-6.13274 0.009871,-6.608244 0.144217,-7.073923c0.69663,-2.405939 2.261124,-4.063057 4.454002,-4.71792c0.882904,-0.263126 2.409632,-0.261566 3.298119,0.003372c2.136618,0.637926 3.782253,2.369442 4.405478,4.635883l0.181541,0.66144l0,6.491148l0,6.491955l-0.181541,0.660667c-0.36055,1.310795 -1.125828,2.546452 -2.092457,3.378323c-0.591026,0.508621 -1.721117,1.107487 -2.427189,1.285469c-0.760586,0.192142 -1.977421,0.228909 -2.712233,0.082436l0,0l-0.000002,0z" id="svg_20"/>
 </g>

</svg>